<svg width="212" height="156" viewBox="0 0 212 156" fill="none" xmlns="http://www.w3.org/2000/svg">
<g clip-path="url(#clip0_2427_46798)">
<rect x="0.195312" y="0.375" width="210.928" height="154.68" rx="13.3588" fill="#DDECFD"/>
<g filter="url(#filter0_f_2427_46798)">
<path d="M32.1012 149.741C11.3949 130.595 -15.1668 125.763 21.5302 86.0767C58.2273 46.3906 104.762 29.7403 125.468 48.887C146.175 68.0338 181.204 92.8016 144.507 132.488C107.81 172.174 52.8075 168.888 32.1012 149.741Z" fill="url(#paint0_linear_2427_46798)"/>
</g>
<g filter="url(#filter1_d_2427_46798)">
<rect x="77.2031" y="49.3623" width="56.9401" height="56.706" rx="28.353" fill="url(#paint1_linear_2427_46798)"/>
<rect x="77.4581" y="49.6173" width="56.4301" height="56.196" rx="28.098" stroke="white" stroke-width="0.51"/>
</g>
<path d="M113.989 82.7267C113.989 82.3509 113.857 82.0314 113.594 81.7684L110.663 78.8371C110.4 78.574 110.08 78.4425 109.705 78.4425C109.31 78.4425 108.972 78.5928 108.69 78.8934C108.718 78.9216 108.807 79.0085 108.958 79.1542C109.108 79.2998 109.209 79.4008 109.261 79.4572C109.312 79.5135 109.383 79.6028 109.472 79.7249C109.561 79.8471 109.622 79.9668 109.655 80.0843C109.688 80.2017 109.705 80.3309 109.705 80.4718C109.705 80.8476 109.573 81.1671 109.31 81.4301C109.047 81.6932 108.728 81.8247 108.352 81.8247C108.211 81.8247 108.082 81.8083 107.964 81.7754C107.847 81.7425 107.727 81.6815 107.605 81.5922C107.483 81.5029 107.393 81.4325 107.337 81.3808C107.281 81.3291 107.18 81.2281 107.034 81.0778C106.888 80.9275 106.802 80.8382 106.773 80.8101C106.463 81.1013 106.308 81.4442 106.308 81.8388C106.308 82.2146 106.44 82.5341 106.703 82.7971L109.606 85.7143C109.86 85.968 110.179 86.0948 110.564 86.0948C110.94 86.0948 111.26 85.9727 111.523 85.7284L113.594 83.6709C113.857 83.4078 113.989 83.0931 113.989 82.7267ZM104.082 72.7913C104.082 72.4155 103.95 72.0961 103.687 71.833L100.784 68.9158C100.521 68.6528 100.201 68.5212 99.8256 68.5212C99.4592 68.5212 99.1398 68.6481 98.8673 68.9017L96.7957 70.9593C96.5326 71.2223 96.4011 71.5371 96.4011 71.9035C96.4011 72.2793 96.5326 72.5987 96.7957 72.8618L99.727 75.7931C99.9807 76.0467 100.3 76.1736 100.685 76.1736C101.08 76.1736 101.418 76.0279 101.7 75.7367C101.672 75.7085 101.583 75.6216 101.432 75.476C101.282 75.3303 101.181 75.2293 101.129 75.173C101.078 75.1166 101.007 75.0274 100.918 74.9052C100.829 74.7831 100.767 74.6633 100.735 74.5459C100.702 74.4284 100.685 74.2992 100.685 74.1583C100.685 73.7825 100.817 73.4631 101.08 73.2C101.343 72.9369 101.662 72.8054 102.038 72.8054C102.179 72.8054 102.308 72.8218 102.426 72.8547C102.543 72.8876 102.663 72.9487 102.785 73.0379C102.907 73.1272 102.996 73.1977 103.053 73.2493C103.109 73.301 103.21 73.402 103.356 73.5523C103.501 73.7026 103.588 73.7919 103.617 73.8201C103.927 73.5288 104.082 73.1859 104.082 72.7913ZM116.695 82.7267C116.695 83.8541 116.295 84.8077 115.497 85.5875L113.425 87.645C112.645 88.4248 111.692 88.8147 110.564 88.8147C109.427 88.8147 108.469 88.4154 107.689 87.6168L104.786 84.6996C104.006 83.9198 103.617 82.9662 103.617 81.8388C103.617 80.6832 104.03 79.7014 104.857 78.8934L103.617 77.6533C102.809 78.4801 101.831 78.8934 100.685 78.8934C99.5579 78.8934 98.5996 78.4989 97.8104 77.7097L94.8791 74.7784C94.0899 73.9892 93.6953 73.0309 93.6953 71.9035C93.6953 70.7761 94.0946 69.8225 94.8932 69.0427L96.9648 66.9851C97.7446 66.2053 98.6982 65.8154 99.8256 65.8154C100.962 65.8154 101.921 66.2147 102.701 67.0133L105.604 69.9305C106.383 70.7103 106.773 71.6639 106.773 72.7913C106.773 73.9469 106.36 74.9287 105.533 75.7367L106.773 76.9768C107.581 76.1501 108.558 75.7367 109.705 75.7367C110.832 75.7367 111.79 76.1313 112.58 76.9205L115.511 79.8518C116.3 80.6409 116.695 81.5992 116.695 82.7267Z" fill="#F7F7F7"/>
</g>
<defs>
<filter id="filter0_f_2427_46798" x="-89.1939" y="-51.521" width="342.181" height="307.479" filterUnits="userSpaceOnUse" color-interpolation-filters="sRGB">
<feFlood flood-opacity="0" result="BackgroundImageFix"/>
<feBlend mode="normal" in="SourceGraphic" in2="BackgroundImageFix" result="shape"/>
<feGaussianBlur stdDeviation="46.2317" result="effect1_foregroundBlur_2427_46798"/>
</filter>
<filter id="filter1_d_2427_46798" x="59.827" y="41.4641" width="79.0565" height="78.8211" filterUnits="userSpaceOnUse" color-interpolation-filters="sRGB">
<feFlood flood-opacity="0" result="BackgroundImageFix"/>
<feColorMatrix in="SourceAlpha" type="matrix" values="0 0 0 0 0 0 0 0 0 0 0 0 0 0 0 0 0 0 127 0" result="hardAlpha"/>
<feOffset dx="-6.31859" dy="3.1593"/>
<feGaussianBlur stdDeviation="5.52877"/>
<feComposite in2="hardAlpha" operator="out"/>
<feColorMatrix type="matrix" values="0 0 0 0 0 0 0 0 0 0 0 0 0 0 0 0 0 0 0.35 0"/>
<feBlend mode="normal" in2="BackgroundImageFix" result="effect1_dropShadow_2427_46798"/>
<feBlend mode="normal" in="SourceGraphic" in2="effect1_dropShadow_2427_46798" result="shape"/>
</filter>
<linearGradient id="paint0_linear_2427_46798" x1="-61.8431" y1="275.9" x2="41.1584" y2="333.45" gradientUnits="userSpaceOnUse">
<stop stop-color="#004AD9"/>
<stop offset="1" stop-color="#0C64E8"/>
</linearGradient>
<linearGradient id="paint1_linear_2427_46798" x1="77.2031" y1="83.0894" x2="134.143" y2="83.2034" gradientUnits="userSpaceOnUse">
<stop stop-color="#197CEC"/>
<stop offset="0.787639" stop-color="#004AD9"/>
</linearGradient>
<clipPath id="clip0_2427_46798">
<rect x="0.195312" y="0.374023" width="210.928" height="154.68" rx="13.36" fill="white"/>
</clipPath>
</defs>
</svg>
