<svg width="20" height="20" viewBox="0 0 20 20" fill="none" xmlns="http://www.w3.org/2000/svg">
<g clip-path="url(#clip0_108_5288)">
<mask id="mask0_108_5288" style="mask-type:alpha" maskUnits="userSpaceOnUse" x="0" y="0" width="20" height="20">
<path d="M20 10C20 4.47715 15.5228 0 10 0C4.47715 0 0 4.47715 0 10C0 15.5228 4.47715 20 10 20C15.5228 20 20 15.5228 20 10Z" fill="white"/>
</mask>
<g mask="url(#mask0_108_5288)">
<path d="M7.5 0H5V2.5H7.5V0Z" fill="#197CEC"/>
<path d="M12.5 0H10V2.5H12.5V0Z" fill="#197CEC"/>
<path d="M17.5 0H15V2.5H17.5V0Z" fill="#004AD9"/>
<path d="M5 0H2.5V2.5H5V0Z" fill="white"/>
<path d="M10 0H7.5V2.5H10V0Z" fill="#197CEC"/>
<path d="M15 0H12.5V2.5H15V0Z" fill="#80D0FF"/>
<path d="M20 0H17.5V2.5H20V0Z" fill="white"/>
<path d="M2.5 2.5H0V5H2.5V2.5Z" fill="white"/>
<path d="M2.5 5H0V7.5H2.5V5Z" fill="#80D0FF"/>
<path d="M2.5 7.5H0V10H2.5V7.5Z" fill="#197CEC"/>
<path d="M2.5 10H0V12.5H2.5V10Z" fill="#197CEC"/>
<path d="M2.5 12.5H0V15H2.5V12.5Z" fill="#197CEC"/>
<path d="M2.5 15H0V17.5H2.5V15Z" fill="#197CEC"/>
<path d="M2.5 17.5H0V20H2.5V17.5Z" fill="white"/>
<path d="M7.5 2.5H5V5H7.5V2.5Z" fill="#197CEC"/>
<path d="M7.5 5H5V7.5H7.5V5Z" fill="#197CEC"/>
<path d="M7.5 7.5H5V10H7.5V7.5Z" fill="white"/>
<path d="M7.5 10H5V12.5H7.5V10Z" fill="#80D0FF"/>
<path d="M7.5 12.5H5V15H7.5V12.5Z" fill="black"/>
<path d="M7.5 15H5V17.5H7.5V15Z" fill="#197CEC"/>
<path d="M7.5 17.5H5V20H7.5V17.5Z" fill="#004AD9"/>
<path d="M12.5 2.5H10V5H12.5V2.5Z" fill="#197CEC"/>
<path d="M12.5 5H10V7.5H12.5V5Z" fill="black"/>
<path d="M12.5 7.5H10V10H12.5V7.5Z" fill="#197CEC"/>
<path d="M12.5 10H10V12.5H12.5V10Z" fill="#197CEC"/>
<path d="M12.5 12.5H10V15H12.5V12.5Z" fill="black"/>
<path d="M12.5 15H10V17.5H12.5V15Z" fill="black"/>
<path d="M12.5 17.5H10V20H12.5V17.5Z" fill="white"/>
<path d="M17.5 2.5H15V5H17.5V2.5Z" fill="#004AD9"/>
<path d="M17.5 5H15V7.5H17.5V5Z" fill="#197CEC"/>
<path d="M17.5 7.5H15V10H17.5V7.5Z" fill="#197CEC"/>
<path d="M17.5 10H15V12.5H17.5V10Z" fill="#197CEC"/>
<path d="M17.5 12.5H15V15H17.5V12.5Z" fill="#197CEC"/>
<path d="M17.5 15H15V17.5H17.5V15Z" fill="white"/>
<path d="M17.5 17.5H15V20H17.5V17.5Z" fill="#197CEC"/>
<path d="M5 2.5H2.5V5H5V2.5Z" fill="white"/>
<path d="M5 5H2.5V7.5H5V5Z" fill="black"/>
<path d="M5 7.5H2.5V10H5V7.5Z" fill="white"/>
<path d="M5 10H2.5V12.5H5V10Z" fill="#004AD9"/>
<path d="M5 12.5H2.5V15H5V12.5Z" fill="#197CEC"/>
<path d="M5 15H2.5V17.5H5V15Z" fill="black"/>
<path d="M5 17.5H2.5V20H5V17.5Z" fill="#004AD9"/>
<path d="M10 2.5H7.5V5H10V2.5Z" fill="#004AD9"/>
<path d="M10 5H7.5V7.5H10V5Z" fill="#197CEC"/>
<path d="M10 7.5H7.5V10H10V7.5Z" fill="#197CEC"/>
<path d="M10 10H7.5V12.5H10V10Z" fill="#004AD9"/>
<path d="M10 12.5H7.5V15H10V12.5Z" fill="#197CEC"/>
<path d="M10 15H7.5V17.5H10V15Z" fill="#197CEC"/>
<path d="M10 17.5H7.5V20H10V17.5Z" fill="#80D0FF"/>
<path d="M15 2.5H12.5V5H15V2.5Z" fill="#197CEC"/>
<path d="M15 5H12.5V7.5H15V5Z" fill="#004AD9"/>
<path d="M15 7.5H12.5V10H15V7.5Z" fill="black"/>
<path d="M15 10H12.5V12.5H15V10Z" fill="white"/>
<path d="M15 12.5H12.5V15H15V12.5Z" fill="#197CEC"/>
<path d="M15 15H12.5V17.5H15V15Z" fill="#197CEC"/>
<path d="M15 17.5H12.5V20H15V17.5Z" fill="white"/>
<path d="M20 2.5H17.5V5H20V2.5Z" fill="white"/>
<path d="M20 5H17.5V7.5H20V5Z" fill="#197CEC"/>
<path d="M20 7.5H17.5V10H20V7.5Z" fill="black"/>
<path d="M20 10H17.5V12.5H20V10Z" fill="#197CEC"/>
<path d="M20 12.5H17.5V15H20V12.5Z" fill="white"/>
<path d="M20 15H17.5V17.5H20V15Z" fill="#004AD9"/>
<path d="M20 17.5H17.5V20H20V17.5Z" fill="black"/>
</g>
</g>
<defs>
<clipPath id="clip0_108_5288">
<rect width="20" height="20" fill="white"/>
</clipPath>
</defs>
</svg>
