<svg width="71" height="41" viewBox="0 0 71 41" fill="none" xmlns="http://www.w3.org/2000/svg">
<path d="M40.2351 20.4229C40.2351 31.4604 31.3609 40.4229 20.3676 40.4229C9.37417 40.4229 0.5 31.4604 0.5 20.4229C0.5 9.38532 9.37417 0.422852 20.3676 0.422852C31.3609 0.422852 40.2351 9.38532 40.2351 20.4229ZM62.0011 20.4229C62.0011 30.7981 57.542 39.2308 52.0673 39.2308C46.5927 39.2308 42.1336 30.7981 42.1336 20.4229C42.1336 10.0476 46.5927 1.6149 52.0673 1.6149C57.542 1.6149 62.0011 10.0034 62.0011 20.4229ZM70.9194 20.4229C70.9194 29.7385 69.3742 37.2882 67.4316 37.2882C65.489 37.2882 63.9437 29.7385 63.9437 20.4229C63.9437 11.1072 65.489 3.5575 67.4316 3.5575C69.3742 3.5575 70.9194 11.1072 70.9194 20.4229Z" fill="white"/>
</svg>
