<svg width="52" height="53" viewBox="0 0 52 53" fill="none" xmlns="http://www.w3.org/2000/svg">
<path fill-rule="evenodd" clip-rule="evenodd" d="M13 4.67822C9.41015 4.67822 6.5 7.58837 6.5 11.1782V41.5116C6.5 45.1014 9.41015 48.0116 13 48.0116H39C42.5899 48.0116 45.5 45.1014 45.5 41.5116V17.1206C45.5 15.3967 44.8152 13.7434 43.5962 12.5244L37.6538 6.58203C36.4348 5.36304 34.7815 4.67822 33.0576 4.67822H13ZM32.5 9.46028V13.3449C32.5 15.7381 34.4401 17.6782 36.8333 17.6782H40.7179C41.6831 17.6782 42.1664 16.5113 41.484 15.8289L34.3494 8.69425C33.6669 8.01178 32.5 8.49513 32.5 9.46028Z" fill="url(#paint0_linear_2826_43288)"/>
<defs>
<linearGradient id="paint0_linear_2826_43288" x1="6.5" y1="7.79369" x2="50.5984" y2="16.5678" gradientUnits="userSpaceOnUse">
<stop stop-color="#197CEC"/>
<stop offset="0.608737" stop-color="#004AD9"/>
</linearGradient>
</defs>
</svg>
