<svg width="41" height="41" viewBox="0 0 41 41" fill="none" xmlns="http://www.w3.org/2000/svg">
<g clip-path="url(#clip0_2826_44053)">
<path fill-rule="evenodd" clip-rule="evenodd" d="M20.4242 0.422852C9.14551 0.422852 0 9.60333 0 20.9306C0 29.9894 5.85191 37.6755 13.9698 40.3875C14.9911 40.5759 15.3638 39.9427 15.3638 39.3993C15.3638 38.9123 15.3459 37.6229 15.3357 35.9119C9.65359 37.1513 8.4549 33.1628 8.4549 33.1628C7.52682 30.7943 6.18767 30.1637 6.18767 30.1637C4.33277 28.891 6.32807 28.9166 6.32807 28.9166C8.37701 29.0614 9.45572 31.0301 9.45572 31.0301C11.2787 34.1637 14.2366 33.2589 15.4009 32.7334C15.586 31.4082 16.1145 30.5046 16.6979 29.992C12.1621 29.4742 7.39403 27.7157 7.39403 19.8579C7.39403 17.6188 8.18937 15.7886 9.4966 14.3545C9.28596 13.8354 8.58512 11.7514 9.69576 8.92793C9.69576 8.92793 11.4115 8.3768 15.3128 11.0298C16.943 10.5748 18.6894 10.348 20.4268 10.339C22.1617 10.348 23.9094 10.5748 25.5408 11.0298C29.4396 8.3768 31.1515 8.92793 31.1515 8.92793C32.266 11.7514 31.5651 13.8354 31.3545 14.3545C32.6642 15.7886 33.4545 17.6188 33.4545 19.8579C33.4545 27.735 28.6787 29.469 24.1289 29.9765C24.8617 30.6097 25.5153 31.8606 25.5153 33.7741C25.5153 36.5156 25.4898 38.7264 25.4898 39.3993C25.4898 39.9478 25.8575 40.5861 26.8941 40.3849C35.0043 37.6678 40.8511 29.9868 40.8511 20.9306C40.8511 9.60333 31.7055 0.422852 20.4242 0.422852Z" fill="white"/>
</g>
<defs>
<clipPath id="clip0_2826_44053">
<rect width="40.8511" height="40" fill="white" transform="translate(0 0.422852)"/>
</clipPath>
</defs>
</svg>
