<svg width="40" height="41" viewBox="0 0 40 41" fill="none" xmlns="http://www.w3.org/2000/svg">
<path d="M40 7.27723C38.4953 7.95032 36.904 8.39765 35.275 8.60544C36.9917 7.56089 38.2752 5.90687 38.8825 3.9567C37.275 4.93449 35.5163 5.62305 33.6825 5.99261C32.5581 4.76126 31.0986 3.9052 29.4937 3.53565C27.8888 3.1661 26.2126 3.30014 24.6829 3.92035C23.1533 4.54056 21.8408 5.61827 20.9161 7.01347C19.9913 8.40868 19.4971 10.0569 19.4975 11.7439C19.4975 12.4106 19.5525 13.0516 19.6875 13.6619C16.4252 13.4978 13.2334 12.6294 10.3208 11.1135C7.40811 9.59747 4.84023 7.46804 2.785 4.86439C1.73205 6.71532 1.40652 8.90829 1.87471 10.9967C2.34289 13.0852 3.56959 14.9121 5.305 16.1055C4.00689 16.0698 2.73618 15.7145 1.6 15.0696V15.1619C1.60217 17.104 2.25666 18.9861 3.45329 20.4913C4.64992 21.9965 6.31562 23.0329 8.17 23.4261C7.46847 23.6157 6.74547 23.7088 6.02 23.703C5.49897 23.7125 4.97846 23.6643 4.4675 23.5594C4.99735 25.2287 6.01872 26.6885 7.39099 27.7378C8.76324 28.787 10.4189 29.3742 12.13 29.4184C9.22735 31.7467 5.64743 33.0098 1.9625 33.0056C1.29 33.0056 0.645 32.9748 0 32.8902C3.74971 35.3685 8.11919 36.6795 12.58 36.6646C27.67 36.6646 35.92 23.844 35.92 12.7311C35.92 12.3593 35.9075 12.0003 35.89 11.6439C37.5074 10.4567 38.9002 8.97694 40 7.27723Z" fill="white"/>
</svg>
