<svg width="24" height="25" viewBox="0 0 24 25" fill="none" xmlns="http://www.w3.org/2000/svg">
<path fill-rule="evenodd" clip-rule="evenodd" d="M20 6.92559V5.75488C20 4.09803 18.6569 2.75488 17 2.75488H5C3.34315 2.75488 2 4.09803 2 5.75488V19.7549C2 21.4117 3.34315 22.7549 5 22.7549H19C20.6569 22.7549 22 21.4117 22 19.7549V9.75488C22 8.44866 21.1652 7.33743 20 6.92559ZM4 5.75488C4 5.2026 4.44772 4.75488 5 4.75488H17C17.5523 4.75488 18 5.2026 18 5.75488V6.75488H5C4.44772 6.75488 4 6.30717 4 5.75488ZM4 8.58418C4.31278 8.69473 4.64936 8.75488 5 8.75488H19C19.5523 8.75488 20 9.2026 20 9.75488V11.7549H17C15.3431 11.7549 14 13.098 14 14.7549C14 16.4117 15.3431 17.7549 17 17.7549H20V19.7549C20 20.3072 19.5523 20.7549 19 20.7549H5C4.44772 20.7549 4 20.3072 4 19.7549V8.58418ZM17 13.7549H20V15.7549H17C16.4477 15.7549 16 15.3072 16 14.7549C16 14.2026 16.4477 13.7549 17 13.7549Z" fill="url(#paint0_linear_309_8099)"/>
<defs>
<linearGradient id="paint0_linear_309_8099" x1="2" y1="4.19279" x2="24.4144" y2="9.14802" gradientUnits="userSpaceOnUse">
<stop stop-color="#197CEC"/>
<stop offset="0.608737" stop-color="#004AD9"/>
</linearGradient>
</defs>
</svg>
