<svg width="47" height="47" viewBox="0 0 47 47" fill="none" xmlns="http://www.w3.org/2000/svg">
<g filter="url(#filter0_dii_2826_43149)">
<rect x="1.5" width="44" height="44" rx="9.87429" fill="url(#paint0_linear_2826_43149)"/>
</g>
<path d="M37.25 12.9628C36.2155 13.4255 35.1215 13.7331 34.0016 13.8759C35.1818 13.1578 36.0642 12.0206 36.4817 10.6799C35.3766 11.3521 34.1675 11.8255 32.9067 12.0796C32.1337 11.233 31.1303 10.6445 30.0269 10.3904C28.9236 10.1364 27.7712 10.2285 26.7195 10.6549C25.6679 11.0813 24.7655 11.8222 24.1298 12.7814C23.494 13.7406 23.1542 14.8738 23.1545 16.0336C23.1545 16.492 23.1923 16.9327 23.2852 17.3522C21.0423 17.2394 18.848 16.6424 16.8455 15.6002C14.8431 14.5579 13.0777 13.0939 11.6647 11.3039C10.9408 12.5765 10.717 14.0841 11.0389 15.5199C11.3607 16.9558 12.2041 18.2118 13.3972 19.0322C12.5047 19.0076 11.6311 18.7634 10.85 18.32V18.3835C10.8515 19.7187 11.3015 21.0126 12.1241 22.0474C12.9468 23.0823 14.092 23.7948 15.3669 24.0651C14.8846 24.1955 14.3875 24.2595 13.8887 24.2555C13.5305 24.262 13.1727 24.2289 12.8214 24.1567C13.1857 25.3044 13.8879 26.308 14.8313 27.0294C15.7747 27.7508 16.913 28.1544 18.0894 28.1848C16.0938 29.7855 13.6326 30.6539 11.0992 30.651C10.6369 30.651 10.1934 30.6299 9.75 30.5717C12.3279 32.2755 15.3319 33.1768 18.3988 33.1666C28.7731 33.1666 34.445 24.3524 34.445 16.7123C34.445 16.4567 34.4364 16.2099 34.4244 15.9649C35.5363 15.1487 36.4939 14.1313 37.25 12.9628V12.9628Z" fill="white"/>
<defs>
<filter id="filter0_dii_2826_43149" x="0.512571" y="-0.246857" width="45.9749" height="46.9623" filterUnits="userSpaceOnUse" color-interpolation-filters="sRGB">
<feFlood flood-opacity="0" result="BackgroundImageFix"/>
<feColorMatrix in="SourceAlpha" type="matrix" values="0 0 0 0 0 0 0 0 0 0 0 0 0 0 0 0 0 0 127 0" result="hardAlpha"/>
<feOffset dy="1.728"/>
<feGaussianBlur stdDeviation="0.493714"/>
<feComposite in2="hardAlpha" operator="out"/>
<feColorMatrix type="matrix" values="0 0 0 0 0 0 0 0 0 0.290196 0 0 0 0 0.85098 0 0 0 0.9 0"/>
<feBlend mode="normal" in2="BackgroundImageFix" result="effect1_dropShadow_2826_43149"/>
<feBlend mode="normal" in="SourceGraphic" in2="effect1_dropShadow_2826_43149" result="shape"/>
<feColorMatrix in="SourceAlpha" type="matrix" values="0 0 0 0 0 0 0 0 0 0 0 0 0 0 0 0 0 0 127 0" result="hardAlpha"/>
<feOffset dx="0.246857" dy="0.246857"/>
<feGaussianBlur stdDeviation="0.987429"/>
<feComposite in2="hardAlpha" operator="arithmetic" k2="-1" k3="1"/>
<feColorMatrix type="matrix" values="0 0 0 0 1 0 0 0 0 1 0 0 0 0 1 0 0 0 0.5 0"/>
<feBlend mode="normal" in2="shape" result="effect2_innerShadow_2826_43149"/>
<feColorMatrix in="SourceAlpha" type="matrix" values="0 0 0 0 0 0 0 0 0 0 0 0 0 0 0 0 0 0 127 0" result="hardAlpha"/>
<feOffset dx="-0.246857" dy="-0.246857"/>
<feGaussianBlur stdDeviation="0.987429"/>
<feComposite in2="hardAlpha" operator="arithmetic" k2="-1" k3="1"/>
<feColorMatrix type="matrix" values="0 0 0 0 1 0 0 0 0 1 0 0 0 0 1 0 0 0 0.5 0"/>
<feBlend mode="normal" in2="effect2_innerShadow_2826_43149" result="effect3_innerShadow_2826_43149"/>
</filter>
<linearGradient id="paint0_linear_2826_43149" x1="6.29699" y1="-0.661653" x2="50.9586" y2="54.4211" gradientUnits="userSpaceOnUse">
<stop stop-color="#197CEC"/>
<stop offset="0.841023" stop-color="#004AD9"/>
</linearGradient>
</defs>
</svg>
