<svg width="62" height="63" viewBox="0 0 62 63" fill="none" xmlns="http://www.w3.org/2000/svg">
<g filter="url(#filter0_dii_3734_60064)">
<rect x="1" width="60" height="60" rx="9.87429" fill="url(#paint0_linear_3734_60064)"/>
</g>
<path d="M29.4375 36.25C29.4375 36.6927 29.5875 37.0641 29.8875 37.3641C30.1875 37.6641 30.5583 37.8135 31 37.8125C31.4427 37.8125 31.8141 37.6693 32.1141 37.3828C32.4141 37.0964 32.5635 36.7318 32.5625 36.2891V31.5625H35.375C35.7396 31.5625 35.9807 31.3995 36.0984 31.0734C36.2161 30.7474 36.1573 30.4677 35.9219 30.2344L31.5469 25.8594C31.3906 25.7031 31.2083 25.625 31 25.625C30.7917 25.625 30.6094 25.7031 30.4531 25.8594L26.0781 30.2344C25.8438 30.4688 25.7849 30.7484 25.9016 31.0734C26.0182 31.3984 26.2594 31.5615 26.625 31.5625H29.4375V36.25ZM18.5 42.5C17.6406 42.5 16.9047 42.1938 16.2922 41.5813C15.6797 40.9688 15.374 40.2333 15.375 39.375V20.625C15.375 19.7656 15.6813 19.0297 16.2938 18.4172C16.9063 17.8047 17.6417 17.499 18.5 17.5H26.5859C27.0026 17.5 27.4 17.5781 27.7781 17.7344C28.1563 17.8906 28.488 18.112 28.7734 18.3984L31 20.625H43.5C44.3594 20.625 45.0953 20.9313 45.7078 21.5438C46.3203 22.1563 46.626 22.8917 46.625 23.75V39.375C46.625 40.2344 46.3188 40.9703 45.7063 41.5828C45.0938 42.1953 44.3583 42.501 43.5 42.5H18.5Z" fill="#F4F4F4"/>
<defs>
<filter id="filter0_dii_3734_60064" x="0.0125713" y="-0.246857" width="61.9749" height="62.9623" filterUnits="userSpaceOnUse" color-interpolation-filters="sRGB">
<feFlood flood-opacity="0" result="BackgroundImageFix"/>
<feColorMatrix in="SourceAlpha" type="matrix" values="0 0 0 0 0 0 0 0 0 0 0 0 0 0 0 0 0 0 127 0" result="hardAlpha"/>
<feOffset dy="1.728"/>
<feGaussianBlur stdDeviation="0.493714"/>
<feComposite in2="hardAlpha" operator="out"/>
<feColorMatrix type="matrix" values="0 0 0 0 0 0 0 0 0 0.290196 0 0 0 0 0.85098 0 0 0 0.9 0"/>
<feBlend mode="normal" in2="BackgroundImageFix" result="effect1_dropShadow_3734_60064"/>
<feBlend mode="normal" in="SourceGraphic" in2="effect1_dropShadow_3734_60064" result="shape"/>
<feColorMatrix in="SourceAlpha" type="matrix" values="0 0 0 0 0 0 0 0 0 0 0 0 0 0 0 0 0 0 127 0" result="hardAlpha"/>
<feOffset dx="0.246857" dy="0.246857"/>
<feGaussianBlur stdDeviation="0.987429"/>
<feComposite in2="hardAlpha" operator="arithmetic" k2="-1" k3="1"/>
<feColorMatrix type="matrix" values="0 0 0 0 1 0 0 0 0 1 0 0 0 0 1 0 0 0 0.5 0"/>
<feBlend mode="normal" in2="shape" result="effect2_innerShadow_3734_60064"/>
<feColorMatrix in="SourceAlpha" type="matrix" values="0 0 0 0 0 0 0 0 0 0 0 0 0 0 0 0 0 0 127 0" result="hardAlpha"/>
<feOffset dx="-0.246857" dy="-0.246857"/>
<feGaussianBlur stdDeviation="0.987429"/>
<feComposite in2="hardAlpha" operator="arithmetic" k2="-1" k3="1"/>
<feColorMatrix type="matrix" values="0 0 0 0 1 0 0 0 0 1 0 0 0 0 1 0 0 0 0.5 0"/>
<feBlend mode="normal" in2="effect2_innerShadow_3734_60064" result="effect3_innerShadow_3734_60064"/>
</filter>
<linearGradient id="paint0_linear_3734_60064" x1="7.54135" y1="-0.902255" x2="68.4436" y2="74.2105" gradientUnits="userSpaceOnUse">
<stop stop-color="#197CEC"/>
<stop offset="0.841023" stop-color="#004AD9"/>
</linearGradient>
</defs>
</svg>
