<svg width="62" height="63" viewBox="0 0 62 63" fill="none" xmlns="http://www.w3.org/2000/svg">
<g filter="url(#filter0_dii_3734_60074)">
<rect x="1" width="60" height="60" rx="9.87429" fill="url(#paint0_linear_3734_60074)"/>
</g>
<path fill-rule="evenodd" clip-rule="evenodd" d="M21.625 14.375C19.0362 14.375 16.9375 16.4737 16.9375 19.0625V40.9375C16.9375 43.5263 19.0362 45.625 21.625 45.625H40.375C42.9638 45.625 45.0625 43.5263 45.0625 40.9375V23.3479C45.0625 22.1047 44.5686 20.9124 43.6896 20.0333L39.4042 15.7479C38.5251 14.8689 37.3328 14.375 36.0896 14.375H21.625ZM35.6875 17.8236V20.625C35.6875 22.3509 37.0866 23.75 38.8125 23.75H41.6139C42.3099 23.75 42.6585 22.9085 42.1663 22.4163L37.0212 17.2712C36.529 16.779 35.6875 17.1276 35.6875 17.8236Z" fill="white"/>
<defs>
<filter id="filter0_dii_3734_60074" x="0.0125713" y="-0.246857" width="61.9749" height="62.9623" filterUnits="userSpaceOnUse" color-interpolation-filters="sRGB">
<feFlood flood-opacity="0" result="BackgroundImageFix"/>
<feColorMatrix in="SourceAlpha" type="matrix" values="0 0 0 0 0 0 0 0 0 0 0 0 0 0 0 0 0 0 127 0" result="hardAlpha"/>
<feOffset dy="1.728"/>
<feGaussianBlur stdDeviation="0.493714"/>
<feComposite in2="hardAlpha" operator="out"/>
<feColorMatrix type="matrix" values="0 0 0 0 0 0 0 0 0 0.290196 0 0 0 0 0.85098 0 0 0 0.9 0"/>
<feBlend mode="normal" in2="BackgroundImageFix" result="effect1_dropShadow_3734_60074"/>
<feBlend mode="normal" in="SourceGraphic" in2="effect1_dropShadow_3734_60074" result="shape"/>
<feColorMatrix in="SourceAlpha" type="matrix" values="0 0 0 0 0 0 0 0 0 0 0 0 0 0 0 0 0 0 127 0" result="hardAlpha"/>
<feOffset dx="0.246857" dy="0.246857"/>
<feGaussianBlur stdDeviation="0.987429"/>
<feComposite in2="hardAlpha" operator="arithmetic" k2="-1" k3="1"/>
<feColorMatrix type="matrix" values="0 0 0 0 1 0 0 0 0 1 0 0 0 0 1 0 0 0 0.5 0"/>
<feBlend mode="normal" in2="shape" result="effect2_innerShadow_3734_60074"/>
<feColorMatrix in="SourceAlpha" type="matrix" values="0 0 0 0 0 0 0 0 0 0 0 0 0 0 0 0 0 0 127 0" result="hardAlpha"/>
<feOffset dx="-0.246857" dy="-0.246857"/>
<feGaussianBlur stdDeviation="0.987429"/>
<feComposite in2="hardAlpha" operator="arithmetic" k2="-1" k3="1"/>
<feColorMatrix type="matrix" values="0 0 0 0 1 0 0 0 0 1 0 0 0 0 1 0 0 0 0.5 0"/>
<feBlend mode="normal" in2="effect2_innerShadow_3734_60074" result="effect3_innerShadow_3734_60074"/>
</filter>
<linearGradient id="paint0_linear_3734_60074" x1="7.54135" y1="-0.902255" x2="68.4436" y2="74.2105" gradientUnits="userSpaceOnUse">
<stop stop-color="#197CEC"/>
<stop offset="0.841023" stop-color="#004AD9"/>
</linearGradient>
</defs>
</svg>
