<svg width="62" height="63" viewBox="0 0 62 63" fill="none" xmlns="http://www.w3.org/2000/svg">
<g filter="url(#filter0_dii_3734_60029)">
<rect x="1" width="60" height="60" rx="9.87429" fill="url(#paint0_linear_3734_60029)"/>
</g>
<path fill-rule="evenodd" clip-rule="evenodd" d="M17.6551 21.8755C20.5067 17.1985 25.6025 14.353 31.0868 14.3751C37.5779 14.4227 43.3658 18.4658 45.6349 24.5376C47.9041 30.6093 46.1835 37.4494 41.3102 41.7303C36.4368 46.0113 29.4223 46.8444 23.679 43.8245C23.6673 43.8245 23.5256 43.7425 23.3316 43.6302C23.0296 43.4555 22.6007 43.2073 22.3375 43.0804C21.8643 42.8868 21.34 42.8554 20.847 42.9912C19.7022 43.4027 18.5323 43.7407 17.3443 44.0031C16.6735 44.0179 16.4947 43.6608 16.4947 43.0358C16.7926 41.8038 17.1659 40.5912 17.6126 39.4049C17.7737 38.885 17.7201 38.3225 17.4635 37.8424L17.1505 37.2322C14.612 32.3787 14.8034 26.5526 17.6551 21.8755ZM23.1881 31.5625C24.0524 31.5625 24.7531 30.8629 24.7531 30C24.7531 29.1371 24.0524 28.4375 23.1881 28.4375C22.3237 28.4375 21.623 29.1371 21.623 30C21.623 30.8629 22.3237 31.5625 23.1881 31.5625ZM32.2055 30C32.2055 30.8629 31.5048 31.5625 30.6405 31.5625C29.7761 31.5625 29.0754 30.8629 29.0754 30C29.0754 29.1371 29.7761 28.4375 30.6405 28.4375C31.5048 28.4375 32.2055 29.1371 32.2055 30ZM38.0929 31.5625C38.9572 31.5625 39.6579 30.8629 39.6579 30C39.6579 29.1371 38.9572 28.4375 38.0929 28.4375C37.2285 28.4375 36.5278 29.1371 36.5278 30C36.5278 30.8629 37.2285 31.5625 38.0929 31.5625Z" fill="white"/>
<defs>
<filter id="filter0_dii_3734_60029" x="0.0125713" y="-0.246857" width="61.9749" height="62.9623" filterUnits="userSpaceOnUse" color-interpolation-filters="sRGB">
<feFlood flood-opacity="0" result="BackgroundImageFix"/>
<feColorMatrix in="SourceAlpha" type="matrix" values="0 0 0 0 0 0 0 0 0 0 0 0 0 0 0 0 0 0 127 0" result="hardAlpha"/>
<feOffset dy="1.728"/>
<feGaussianBlur stdDeviation="0.493714"/>
<feComposite in2="hardAlpha" operator="out"/>
<feColorMatrix type="matrix" values="0 0 0 0 0 0 0 0 0 0.290196 0 0 0 0 0.85098 0 0 0 0.9 0"/>
<feBlend mode="normal" in2="BackgroundImageFix" result="effect1_dropShadow_3734_60029"/>
<feBlend mode="normal" in="SourceGraphic" in2="effect1_dropShadow_3734_60029" result="shape"/>
<feColorMatrix in="SourceAlpha" type="matrix" values="0 0 0 0 0 0 0 0 0 0 0 0 0 0 0 0 0 0 127 0" result="hardAlpha"/>
<feOffset dx="0.246857" dy="0.246857"/>
<feGaussianBlur stdDeviation="0.987429"/>
<feComposite in2="hardAlpha" operator="arithmetic" k2="-1" k3="1"/>
<feColorMatrix type="matrix" values="0 0 0 0 1 0 0 0 0 1 0 0 0 0 1 0 0 0 0.5 0"/>
<feBlend mode="normal" in2="shape" result="effect2_innerShadow_3734_60029"/>
<feColorMatrix in="SourceAlpha" type="matrix" values="0 0 0 0 0 0 0 0 0 0 0 0 0 0 0 0 0 0 127 0" result="hardAlpha"/>
<feOffset dx="-0.246857" dy="-0.246857"/>
<feGaussianBlur stdDeviation="0.987429"/>
<feComposite in2="hardAlpha" operator="arithmetic" k2="-1" k3="1"/>
<feColorMatrix type="matrix" values="0 0 0 0 1 0 0 0 0 1 0 0 0 0 1 0 0 0 0.5 0"/>
<feBlend mode="normal" in2="effect2_innerShadow_3734_60029" result="effect3_innerShadow_3734_60029"/>
</filter>
<linearGradient id="paint0_linear_3734_60029" x1="7.54135" y1="-0.902255" x2="68.4436" y2="74.2105" gradientUnits="userSpaceOnUse">
<stop stop-color="#197CEC"/>
<stop offset="0.841023" stop-color="#004AD9"/>
</linearGradient>
</defs>
</svg>
