<svg width="64" height="65" viewBox="0 0 64 65" fill="none" xmlns="http://www.w3.org/2000/svg">
<g filter="url(#filter0_dii_2927_49471)">
<rect x="1" y="0.0639648" width="62" height="62" rx="9.87429" fill="url(#paint0_linear_2927_49471)"/>
</g>
<path fill-rule="evenodd" clip-rule="evenodd" d="M20.6978 14.918C18.0226 14.918 15.854 17.0866 15.854 19.7617V42.3659C15.854 45.041 18.0226 47.2096 20.6978 47.2096H43.3019C45.977 47.2096 48.1457 45.041 48.1457 42.3659V26.2201C48.1457 24.1111 46.7978 22.3169 44.9165 21.6519V19.7617C44.9165 17.0866 42.7479 14.918 40.0728 14.918H20.6978ZM20.6978 18.1471C19.806 18.1471 19.0832 18.87 19.0832 19.7617C19.0832 20.6534 19.806 21.3763 20.6978 21.3763H41.6873V19.7617C41.6873 18.87 40.9645 18.1471 40.0728 18.1471H20.6978ZM40.0728 31.0638C38.2893 31.0638 36.8436 32.5095 36.8436 34.293C36.8436 36.0764 38.2893 37.5221 40.0728 37.5221H43.3019C44.1936 37.5221 44.9165 36.7993 44.9165 35.9076V32.6784C44.9165 31.7867 44.1936 31.0638 43.3019 31.0638H40.0728Z" fill="white"/>
<defs>
<filter id="filter0_dii_2927_49471" x="0.0125713" y="-0.182892" width="63.9749" height="64.9623" filterUnits="userSpaceOnUse" color-interpolation-filters="sRGB">
<feFlood flood-opacity="0" result="BackgroundImageFix"/>
<feColorMatrix in="SourceAlpha" type="matrix" values="0 0 0 0 0 0 0 0 0 0 0 0 0 0 0 0 0 0 127 0" result="hardAlpha"/>
<feOffset dy="1.728"/>
<feGaussianBlur stdDeviation="0.493714"/>
<feComposite in2="hardAlpha" operator="out"/>
<feColorMatrix type="matrix" values="0 0 0 0 0 0 0 0 0 0.290196 0 0 0 0 0.85098 0 0 0 0.9 0"/>
<feBlend mode="normal" in2="BackgroundImageFix" result="effect1_dropShadow_2927_49471"/>
<feBlend mode="normal" in="SourceGraphic" in2="effect1_dropShadow_2927_49471" result="shape"/>
<feColorMatrix in="SourceAlpha" type="matrix" values="0 0 0 0 0 0 0 0 0 0 0 0 0 0 0 0 0 0 127 0" result="hardAlpha"/>
<feOffset dx="0.246857" dy="0.246857"/>
<feGaussianBlur stdDeviation="0.987429"/>
<feComposite in2="hardAlpha" operator="arithmetic" k2="-1" k3="1"/>
<feColorMatrix type="matrix" values="0 0 0 0 1 0 0 0 0 1 0 0 0 0 1 0 0 0 0.5 0"/>
<feBlend mode="normal" in2="shape" result="effect2_innerShadow_2927_49471"/>
<feColorMatrix in="SourceAlpha" type="matrix" values="0 0 0 0 0 0 0 0 0 0 0 0 0 0 0 0 0 0 127 0" result="hardAlpha"/>
<feOffset dx="-0.246857" dy="-0.246857"/>
<feGaussianBlur stdDeviation="0.987429"/>
<feComposite in2="hardAlpha" operator="arithmetic" k2="-1" k3="1"/>
<feColorMatrix type="matrix" values="0 0 0 0 1 0 0 0 0 1 0 0 0 0 1 0 0 0 0.5 0"/>
<feBlend mode="normal" in2="effect2_innerShadow_2927_49471" result="effect3_innerShadow_2927_49471"/>
</filter>
<linearGradient id="paint0_linear_2927_49471" x1="7.7594" y1="-0.868365" x2="70.6917" y2="76.7482" gradientUnits="userSpaceOnUse">
<stop stop-color="#197CEC"/>
<stop offset="0.841023" stop-color="#004AD9"/>
</linearGradient>
</defs>
</svg>
