<svg width="64" height="65" viewBox="0 0 64 65" fill="none" xmlns="http://www.w3.org/2000/svg">
<g filter="url(#filter0_dii_2927_49489)">
<rect x="1" y="0.0639648" width="62" height="62" rx="9.87429" fill="url(#paint0_linear_2927_49489)"/>
</g>
<path fill-rule="evenodd" clip-rule="evenodd" d="M17.4688 22.4455C17.4688 20.3606 18.8029 18.5096 20.7808 17.8503L30.4683 14.6211C31.4625 14.2897 32.5375 14.2897 33.5317 14.6211L43.2192 17.8503C45.1971 18.5096 46.5312 20.3606 46.5312 22.4455V31.0637C46.5312 39.9471 37.5538 45.3394 33.7116 47.2404C32.6256 47.7777 31.3744 47.7777 30.2884 47.2404C26.4461 45.3394 17.4688 39.9471 17.4688 31.0637V22.4455ZM36.8438 26.22C36.8438 28.8951 34.6751 31.0637 32 31.0637C29.3249 31.0637 27.1562 28.8951 27.1562 26.22C27.1562 23.5449 29.3249 21.3762 32 21.3762C34.6751 21.3762 36.8438 23.5449 36.8438 26.22ZM32.0001 34.2929C35.0853 34.2929 37.8818 35.5291 39.9212 37.5332C40.2712 37.8771 40.2777 38.4318 39.9466 38.7938C39.7352 39.0249 39.5164 39.252 39.291 39.4751C36.9129 41.8283 34.0501 43.4702 32.2796 44.3461C32.0961 44.4369 31.904 44.4369 31.7205 44.3461C29.95 43.4702 27.0872 41.8283 24.7091 39.4751C24.4837 39.252 24.2649 39.0249 24.0535 38.7938C23.7224 38.4318 23.7289 37.8771 24.0789 37.5332C26.1183 35.5291 28.9148 34.2929 32.0001 34.2929Z" fill="white"/>
<defs>
<filter id="filter0_dii_2927_49489" x="0.0125713" y="-0.182892" width="63.9749" height="64.9623" filterUnits="userSpaceOnUse" color-interpolation-filters="sRGB">
<feFlood flood-opacity="0" result="BackgroundImageFix"/>
<feColorMatrix in="SourceAlpha" type="matrix" values="0 0 0 0 0 0 0 0 0 0 0 0 0 0 0 0 0 0 127 0" result="hardAlpha"/>
<feOffset dy="1.728"/>
<feGaussianBlur stdDeviation="0.493714"/>
<feComposite in2="hardAlpha" operator="out"/>
<feColorMatrix type="matrix" values="0 0 0 0 0 0 0 0 0 0.290196 0 0 0 0 0.85098 0 0 0 0.9 0"/>
<feBlend mode="normal" in2="BackgroundImageFix" result="effect1_dropShadow_2927_49489"/>
<feBlend mode="normal" in="SourceGraphic" in2="effect1_dropShadow_2927_49489" result="shape"/>
<feColorMatrix in="SourceAlpha" type="matrix" values="0 0 0 0 0 0 0 0 0 0 0 0 0 0 0 0 0 0 127 0" result="hardAlpha"/>
<feOffset dx="0.246857" dy="0.246857"/>
<feGaussianBlur stdDeviation="0.987429"/>
<feComposite in2="hardAlpha" operator="arithmetic" k2="-1" k3="1"/>
<feColorMatrix type="matrix" values="0 0 0 0 1 0 0 0 0 1 0 0 0 0 1 0 0 0 0.5 0"/>
<feBlend mode="normal" in2="shape" result="effect2_innerShadow_2927_49489"/>
<feColorMatrix in="SourceAlpha" type="matrix" values="0 0 0 0 0 0 0 0 0 0 0 0 0 0 0 0 0 0 127 0" result="hardAlpha"/>
<feOffset dx="-0.246857" dy="-0.246857"/>
<feGaussianBlur stdDeviation="0.987429"/>
<feComposite in2="hardAlpha" operator="arithmetic" k2="-1" k3="1"/>
<feColorMatrix type="matrix" values="0 0 0 0 1 0 0 0 0 1 0 0 0 0 1 0 0 0 0.5 0"/>
<feBlend mode="normal" in2="effect2_innerShadow_2927_49489" result="effect3_innerShadow_2927_49489"/>
</filter>
<linearGradient id="paint0_linear_2927_49489" x1="7.7594" y1="-0.868365" x2="70.6917" y2="76.7482" gradientUnits="userSpaceOnUse">
<stop stop-color="#197CEC"/>
<stop offset="0.841023" stop-color="#004AD9"/>
</linearGradient>
</defs>
</svg>
