<svg width="134" height="133" viewBox="0 0 134 133" fill="none" xmlns="http://www.w3.org/2000/svg">
<g opacity="0.4" filter="url(#filter0_d_2826_43562)">
<circle cx="66.4308" cy="63.9484" r="63.9308" fill="url(#paint0_linear_2826_43562)" fill-opacity="0.8" shape-rendering="crispEdges"/>
<circle cx="66.4308" cy="63.9484" r="63.6709" stroke="url(#paint1_linear_2826_43562)" stroke-opacity="0.5" stroke-width="0.519763" shape-rendering="crispEdges"/>
</g>
<g opacity="0.6" filter="url(#filter1_d_2826_43562)">
<circle cx="66.4441" cy="63.9617" r="50.9499" fill="url(#paint2_linear_2826_43562)" fill-opacity="0.6" shape-rendering="crispEdges"/>
<circle cx="66.4441" cy="63.9617" r="50.6901" stroke="url(#paint3_linear_2826_43562)" stroke-opacity="0.5" stroke-width="0.519763" shape-rendering="crispEdges"/>
</g>
<g opacity="0.8" filter="url(#filter2_d_2826_43562)">
<circle cx="66.431" cy="63.9478" r="37.9691" fill="url(#paint4_linear_2826_43562)" fill-opacity="0.8" shape-rendering="crispEdges"/>
<circle cx="66.431" cy="63.9478" r="37.7092" stroke="url(#paint5_linear_2826_43562)" stroke-opacity="0.5" stroke-width="0.519763" shape-rendering="crispEdges"/>
</g>
<g opacity="0.8">
<path fill-rule="evenodd" clip-rule="evenodd" d="M49.9858 54.8095C49.9858 51.7834 52.4389 49.3303 55.465 49.3303H81.0344C84.0605 49.3303 86.5136 51.7834 86.5136 54.8095V73.0734C86.5136 76.0994 84.0605 78.5525 81.0344 78.5525H61.6054C61.1782 78.5525 60.7644 78.7023 60.4362 78.9759L55.9771 82.6918C53.5979 84.6744 49.9858 82.9826 49.9858 79.8857V54.8095ZM59.1178 60.2887C59.1178 59.28 59.9355 58.4623 60.9442 58.4623H75.5553C76.564 58.4623 77.3817 59.28 77.3817 60.2887C77.3817 61.2973 76.564 62.115 75.5553 62.115H60.9442C59.9355 62.115 59.1178 61.2973 59.1178 60.2887ZM60.9442 65.7678C59.9355 65.7678 59.1178 66.5855 59.1178 67.5942C59.1178 68.6029 59.9355 69.4206 60.9442 69.4206H68.2497C69.2584 69.4206 70.0761 68.6029 70.0761 67.5942C70.0761 66.5855 69.2584 65.7678 68.2497 65.7678H60.9442Z" fill="white"/>
</g>
<defs>
<filter id="filter0_d_2826_43562" x="0.940712" y="0.0175781" width="132.02" height="132.02" filterUnits="userSpaceOnUse" color-interpolation-filters="sRGB">
<feFlood flood-opacity="0" result="BackgroundImageFix"/>
<feColorMatrix in="SourceAlpha" type="matrix" values="0 0 0 0 0 0 0 0 0 0 0 0 0 0 0 0 0 0 127 0" result="hardAlpha"/>
<feOffset dx="0.519763" dy="2.07905"/>
<feGaussianBlur stdDeviation="1.03953"/>
<feComposite in2="hardAlpha" operator="out"/>
<feColorMatrix type="matrix" values="0 0 0 0 0.0117647 0 0 0 0 0.180392 0 0 0 0 0.490196 0 0 0 1 0"/>
<feBlend mode="normal" in2="BackgroundImageFix" result="effect1_dropShadow_2826_43562"/>
<feBlend mode="normal" in="SourceGraphic" in2="effect1_dropShadow_2826_43562" result="shape"/>
</filter>
<filter id="filter1_d_2826_43562" x="14.4546" y="12.492" width="106.058" height="106.058" filterUnits="userSpaceOnUse" color-interpolation-filters="sRGB">
<feFlood flood-opacity="0" result="BackgroundImageFix"/>
<feColorMatrix in="SourceAlpha" type="matrix" values="0 0 0 0 0 0 0 0 0 0 0 0 0 0 0 0 0 0 127 0" result="hardAlpha"/>
<feOffset dx="1.03953" dy="1.55929"/>
<feGaussianBlur stdDeviation="1.03953"/>
<feComposite in2="hardAlpha" operator="out"/>
<feColorMatrix type="matrix" values="0 0 0 0 0.00392157 0 0 0 0 0.164706 0 0 0 0 0.482353 0 0 0 1 0"/>
<feBlend mode="normal" in2="BackgroundImageFix" result="effect1_dropShadow_2826_43562"/>
<feBlend mode="normal" in="SourceGraphic" in2="effect1_dropShadow_2826_43562" result="shape"/>
</filter>
<filter id="filter2_d_2826_43562" x="26.3829" y="24.4195" width="81.1356" height="81.1359" filterUnits="userSpaceOnUse" color-interpolation-filters="sRGB">
<feFlood flood-opacity="0" result="BackgroundImageFix"/>
<feColorMatrix in="SourceAlpha" type="matrix" values="0 0 0 0 0 0 0 0 0 0 0 0 0 0 0 0 0 0 127 0" result="hardAlpha"/>
<feOffset dx="0.519763" dy="1.03953"/>
<feGaussianBlur stdDeviation="1.29941"/>
<feComposite in2="hardAlpha" operator="out"/>
<feColorMatrix type="matrix" values="0 0 0 0 0.0196078 0 0 0 0 0.27451 0 0 0 0 0.733333 0 0 0 1 0"/>
<feBlend mode="normal" in2="BackgroundImageFix" result="effect1_dropShadow_2826_43562"/>
<feBlend mode="normal" in="SourceGraphic" in2="effect1_dropShadow_2826_43562" result="shape"/>
</filter>
<linearGradient id="paint0_linear_2826_43562" x1="2.5" y1="9.21024" x2="145.797" y2="40.8894" gradientUnits="userSpaceOnUse">
<stop stop-color="#197CEC"/>
<stop offset="0.608737" stop-color="#004AD9"/>
</linearGradient>
<linearGradient id="paint1_linear_2826_43562" x1="30.5487" y1="12.3994" x2="97.7645" y2="119.793" gradientUnits="userSpaceOnUse">
<stop stop-color="#75A0F2"/>
<stop offset="1" stop-color="white" stop-opacity="0.8"/>
</linearGradient>
<linearGradient id="paint2_linear_2826_43562" x1="15.4941" y1="20.3378" x2="129.695" y2="45.5847" gradientUnits="userSpaceOnUse">
<stop stop-color="#197CEC"/>
<stop offset="0.608737" stop-color="#004AD9"/>
</linearGradient>
<linearGradient id="paint3_linear_2826_43562" x1="35.0007" y1="17.67" x2="105.748" y2="105.304" gradientUnits="userSpaceOnUse">
<stop stop-color="#75A0F2"/>
<stop offset="1" stop-color="white" stop-opacity="0.2"/>
</linearGradient>
<linearGradient id="paint4_linear_2826_43562" x1="42.6781" y1="41.711" x2="99.9482" y2="55.714" gradientUnits="userSpaceOnUse">
<stop stop-color="#197CEC"/>
<stop offset="0.629571" stop-color="#004AD9"/>
</linearGradient>
<linearGradient id="paint5_linear_2826_43562" x1="40.9093" y1="37.1626" x2="95.7214" y2="94.757" gradientUnits="userSpaceOnUse">
<stop stop-color="#75A0F2"/>
<stop offset="1" stop-color="white" stop-opacity="0.5"/>
</linearGradient>
</defs>
</svg>
