<svg width="212" height="156" viewBox="0 0 212 156" fill="none" xmlns="http://www.w3.org/2000/svg">
<g clip-path="url(#clip0_1705_21285)">
<g filter="url(#filter0_f_1705_21285)">
<path d="M29.9649 153.19C0.0311709 125.511 -35.6976 115.639 7.39127 69.04C50.4801 22.4415 109.677 7.10434 139.61 34.7835C169.544 62.4627 219.152 99.3833 176.063 145.982C132.974 192.58 59.8985 180.869 29.9649 153.19Z" fill="url(#paint0_linear_1705_21285)"/>
</g>
<g filter="url(#filter1_d_1705_21285)">
<rect x="77.7051" y="49.3633" width="56.9401" height="56.706" rx="28.353" fill="url(#paint1_linear_1705_21285)"/>
<rect x="77.9601" y="49.6183" width="56.4301" height="56.196" rx="28.098" stroke="white" stroke-width="0.51"/>
</g>
<path d="M114.493 82.7276C114.493 82.3518 114.361 82.0324 114.098 81.7693L111.167 78.8381C110.904 78.575 110.584 78.4435 110.209 78.4435C109.814 78.4435 109.476 78.5938 109.194 78.8944C109.222 78.9226 109.311 79.0095 109.462 79.1551C109.612 79.3008 109.713 79.4018 109.765 79.4581C109.816 79.5145 109.887 79.6038 109.976 79.7259C110.065 79.848 110.126 79.9678 110.159 80.0853C110.192 80.2027 110.209 80.3319 110.209 80.4728C110.209 80.8486 110.077 81.168 109.814 81.4311C109.551 81.6942 109.231 81.8257 108.856 81.8257C108.715 81.8257 108.586 81.8093 108.468 81.7764C108.351 81.7435 108.231 81.6824 108.109 81.5932C107.987 81.5039 107.897 81.4335 107.841 81.3818C107.785 81.3301 107.684 81.2291 107.538 81.0788C107.392 80.9285 107.305 80.8392 107.277 80.811C106.967 81.1023 106.812 81.4452 106.812 81.8398C106.812 82.2156 106.944 82.535 107.207 82.7981L110.11 85.7153C110.364 85.969 110.683 86.0958 111.068 86.0958C111.444 86.0958 111.763 85.9737 112.026 85.7294L114.098 83.6718C114.361 83.4088 114.493 83.094 114.493 82.7276ZM104.586 72.7923C104.586 72.4165 104.454 72.0971 104.191 71.834L101.288 68.9168C101.025 68.6537 100.705 68.5222 100.33 68.5222C99.9631 68.5222 99.6437 68.649 99.3712 68.9027L97.2996 70.9602C97.0365 71.2233 96.905 71.538 96.905 71.9045C96.905 72.2803 97.0365 72.5997 97.2996 72.8628L100.231 75.794C100.485 76.0477 100.804 76.1745 101.189 76.1745C101.584 76.1745 101.922 76.0289 102.204 75.7377C102.176 75.7095 102.086 75.6226 101.936 75.4769C101.786 75.3313 101.685 75.2303 101.633 75.174C101.581 75.1176 101.511 75.0283 101.422 74.9062C101.332 74.7841 101.271 74.6643 101.239 74.5468C101.206 74.4294 101.189 74.3002 101.189 74.1593C101.189 73.7835 101.321 73.464 101.584 73.201C101.847 72.9379 102.166 72.8064 102.542 72.8064C102.683 72.8064 102.812 72.8228 102.93 72.8557C103.047 72.8886 103.167 72.9497 103.289 73.0389C103.411 73.1282 103.5 73.1986 103.557 73.2503C103.613 73.302 103.714 73.403 103.86 73.5533C104.005 73.7036 104.092 73.7929 104.12 73.8211C104.431 73.5298 104.586 73.1869 104.586 72.7923ZM117.198 82.7276C117.198 83.8551 116.799 84.8087 116.001 85.5885L113.929 87.646C113.149 88.4258 112.196 88.8157 111.068 88.8157C109.931 88.8157 108.973 88.4164 108.193 87.6178L105.29 84.7006C104.51 83.9208 104.12 82.9672 104.12 81.8398C104.12 80.6842 104.534 79.7024 105.361 78.8944L104.12 77.6543C103.312 78.481 102.335 78.8944 101.189 78.8944C100.062 78.8944 99.1035 78.4998 98.3143 77.7106L95.383 74.7794C94.5938 73.9902 94.1992 73.0319 94.1992 71.9045C94.1992 70.777 94.5985 69.8234 95.3971 69.0436L97.4687 66.9861C98.2485 66.2063 99.2021 65.8164 100.33 65.8164C101.466 65.8164 102.425 66.2157 103.204 67.0143L106.108 69.9315C106.887 70.7113 107.277 71.6649 107.277 72.7923C107.277 73.9479 106.864 74.9297 106.037 75.7377L107.277 76.9778C108.085 76.151 109.062 75.7377 110.209 75.7377C111.336 75.7377 112.294 76.1323 113.083 76.9214L116.015 79.8527C116.804 80.6419 117.198 81.6002 117.198 82.7276Z" fill="#F7F7F7"/>
</g>
<defs>
<filter id="filter0_f_1705_21285" x="-59.1129" y="-25.5484" width="298.589" height="249.567" filterUnits="userSpaceOnUse" color-interpolation-filters="sRGB">
<feFlood flood-opacity="0" result="BackgroundImageFix"/>
<feBlend mode="normal" in="SourceGraphic" in2="BackgroundImageFix" result="shape"/>
<feGaussianBlur stdDeviation="23.2771" result="effect1_foregroundBlur_1705_21285"/>
</filter>
<filter id="filter1_d_1705_21285" x="60.3289" y="41.465" width="79.0555" height="78.8202" filterUnits="userSpaceOnUse" color-interpolation-filters="sRGB">
<feFlood flood-opacity="0" result="BackgroundImageFix"/>
<feColorMatrix in="SourceAlpha" type="matrix" values="0 0 0 0 0 0 0 0 0 0 0 0 0 0 0 0 0 0 127 0" result="hardAlpha"/>
<feOffset dx="-6.31859" dy="3.1593"/>
<feGaussianBlur stdDeviation="5.52877"/>
<feComposite in2="hardAlpha" operator="out"/>
<feColorMatrix type="matrix" values="0 0 0 0 0 0 0 0 0 0 0 0 0 0 0 0 0 0 0.35 0"/>
<feBlend mode="normal" in2="BackgroundImageFix" result="effect1_dropShadow_1705_21285"/>
<feBlend mode="normal" in="SourceGraphic" in2="effect1_dropShadow_1705_21285" result="shape"/>
</filter>
<linearGradient id="paint0_linear_1705_21285" x1="-77.0189" y1="304.396" x2="73.8804" y2="378.692" gradientUnits="userSpaceOnUse">
<stop stop-color="#004AD9"/>
<stop offset="1" stop-color="#0C64E8"/>
</linearGradient>
<linearGradient id="paint1_linear_1705_21285" x1="77.7051" y1="83.0904" x2="134.645" y2="83.2043" gradientUnits="userSpaceOnUse">
<stop stop-color="#197CEC"/>
<stop offset="0.787639" stop-color="#004AD9"/>
</linearGradient>
<clipPath id="clip0_1705_21285">
<rect x="0.697266" y="0.375" width="210.928" height="154.68" rx="13.36" fill="white"/>
</clipPath>
</defs>
</svg>
