<svg width="65" height="65" viewBox="0 0 65 65" fill="none" xmlns="http://www.w3.org/2000/svg">
<g opacity="0.8">
<rect x="0.5" y="0.680176" width="64" height="64" rx="10" fill="url(#paint0_linear_3748_64517)"/>
<rect x="1" y="1.18018" width="63" height="63" rx="9.5" stroke="url(#paint1_linear_3748_64517)" stroke-opacity="0.5"/>
</g>
<path d="M46.4173 23.8634C46.4173 26.6301 44.584 28.9802 42.0673 29.7468C42.3506 28.8302 42.5007 27.8468 42.5007 26.8468C42.5007 23.1968 40.534 19.997 37.6173 18.2637C38.4173 17.897 39.3007 17.6802 40.2507 17.6802C43.6507 17.6802 46.4173 20.4468 46.4173 23.8634ZM45.1673 31.5136C44.4673 31.3136 43.7006 31.4134 43.0839 31.7634C42.3506 32.1634 41.5674 32.397 40.7674 32.447C40.434 32.947 40.0507 33.4301 39.6007 33.8634C42.8173 34.9134 45.1673 37.6968 45.7006 41.0135H46.8506C47.6173 41.0135 48.3173 40.6137 48.6673 39.9637C49.0007 39.347 49.1673 38.6467 49.1673 37.9467V36.7634C49.1673 34.2801 47.5173 32.1303 45.1673 31.5136ZM27.384 18.2637C26.584 17.897 25.7006 17.6802 24.7506 17.6802C21.3506 17.6802 18.584 20.4468 18.584 23.8634C18.584 26.6301 20.4173 28.9802 22.934 29.7468C22.6507 28.8302 22.5007 27.8468 22.5007 26.8468C22.5007 23.1968 24.4673 19.997 27.384 18.2637ZM25.4006 33.8634C24.9506 33.4301 24.5673 32.947 24.2339 32.447C23.4339 32.397 22.6507 32.1634 21.9174 31.7634C21.3007 31.4134 20.534 31.3136 19.834 31.5136C17.484 32.1303 15.834 34.2801 15.834 36.7634V37.9467C15.834 38.6467 16.0006 39.347 16.334 39.9637C16.684 40.6137 17.384 41.0135 18.134 41.0135H19.3007C19.834 37.6968 22.184 34.9134 25.4006 33.8634ZM38.4673 36.1303C38.184 36.0636 37.884 36.0135 37.584 36.0135C37.0173 36.0135 36.434 36.1635 35.934 36.4469C34.8673 37.0302 33.684 37.3302 32.5007 37.3302C31.3173 37.3302 30.134 37.0302 29.0673 36.4469C28.5673 36.1635 27.984 36.0135 27.4173 36.0135C27.1173 36.0135 26.8173 36.0636 26.534 36.1303C23.6673 36.897 21.6673 39.5133 21.6673 42.5133V43.9635C21.6673 44.8135 21.884 45.6635 22.284 46.3968C22.7006 47.1968 23.534 47.6802 24.4673 47.6802H40.534C41.4673 47.6802 42.3007 47.1968 42.7173 46.3968C43.1173 45.6635 43.334 44.8135 43.334 43.9635V42.5133C43.334 39.5133 41.334 36.897 38.4673 36.1303ZM40.0007 26.8468C40.0007 22.7052 36.6423 19.3468 32.5007 19.3468C28.359 19.3468 25.0007 22.7052 25.0007 26.8468C25.0007 30.9885 28.359 34.3468 32.5007 34.3468C36.6423 34.3468 40.0007 30.9885 40.0007 26.8468Z" fill="url(#paint2_linear_3748_64517)"/>
<defs>
<linearGradient id="paint0_linear_3748_64517" x1="4.76667" y1="8.48506" x2="63.8819" y2="57.2892" gradientUnits="userSpaceOnUse">
<stop stop-color="#0D2147" stop-opacity="0.66"/>
<stop offset="1" stop-color="#0B2049" stop-opacity="0.15"/>
</linearGradient>
<linearGradient id="paint1_linear_3748_64517" x1="12.7514" y1="3.60589" x2="57.1857" y2="58.6459" gradientUnits="userSpaceOnUse">
<stop stop-color="#353C54"/>
<stop offset="1" stop-color="#071F4E" stop-opacity="0.76"/>
</linearGradient>
<linearGradient id="paint2_linear_3748_64517" x1="15.834" y1="35.5233" x2="49.1672" y2="35.5971" gradientUnits="userSpaceOnUse">
<stop stop-color="#197CEC"/>
<stop offset="0.787639" stop-color="#004AD9"/>
</linearGradient>
</defs>
</svg>
