<svg width="271" height="197" viewBox="0 0 271 197" fill="none" xmlns="http://www.w3.org/2000/svg">
<ellipse cx="29.89" cy="29.5807" rx="29.89" ry="29.5807" transform="matrix(0.986419 0.164129 -0.156734 0.987622 151.642 34.6675)" fill="#353C54"/>
<path d="M163.995 57.3767C167.603 57.9769 171.244 55.6003 171.777 52.2429" stroke="white" stroke-opacity="0.5" stroke-width="1.062" stroke-linecap="round"/>
<path d="M192.981 62.1035C189.39 61.5066 186.683 58.0908 187.214 54.7515" stroke="white" stroke-opacity="0.5" stroke-width="1.062" stroke-linecap="round"/>
<path d="M172.454 65.4613C172.986 65.4892 173.446 65.0767 173.378 64.5472C173.248 63.5173 172.834 62.5342 172.174 61.7109C171.31 60.6332 170.083 59.9029 168.723 59.6567C167.362 59.4105 165.962 59.6653 164.784 60.3734C163.884 60.9143 163.16 61.6914 162.686 62.6119C162.443 63.0852 162.734 63.6339 163.243 63.7944V63.7944C163.75 63.9544 164.28 63.6631 164.563 63.2143C164.869 62.7285 165.287 62.3167 165.788 62.0157C166.567 61.5478 167.492 61.3794 168.391 61.5421C169.29 61.7048 170.1 62.1873 170.671 62.8994C171.039 63.3575 171.291 63.8903 171.413 64.4534C171.525 64.9741 171.923 65.4335 172.454 65.4613V65.4613Z" fill="white"/>
<path d="M190.621 68.4134C191.153 68.4413 191.613 68.0289 191.546 67.4994C191.415 66.4694 191.002 65.4864 190.341 64.663C189.477 63.5853 188.25 62.855 186.89 62.6089C185.53 62.3627 184.13 62.6175 182.951 63.3255C182.051 63.8664 181.328 64.6436 180.854 65.5641C180.61 66.0374 180.902 66.586 181.41 66.7465V66.7465C181.918 66.9066 182.447 66.6152 182.73 66.1664C183.037 65.6806 183.455 65.2688 183.956 64.9678C184.734 64.4999 185.66 64.3316 186.558 64.4943C187.457 64.6569 188.268 65.1395 188.839 65.8516C189.206 66.3096 189.458 66.8424 189.58 67.4056C189.693 67.9262 190.09 68.3856 190.621 68.4134V68.4134Z" fill="white"/>
<path d="M181.773 76.1167C181.67 76.7568 181.424 77.3667 181.048 77.9116C180.671 78.4565 180.172 78.9257 179.579 79.2923C178.987 79.659 178.311 79.916 177.592 80.0487C176.872 80.1813 176.123 80.187 175.387 80.0654C174.651 79.9439 173.942 79.6974 173.301 79.3401C172.66 78.9828 172.099 78.5217 171.651 77.9831C171.203 77.4445 170.876 76.839 170.689 76.201C170.502 75.5631 170.458 74.9053 170.56 74.2652L176.166 75.1909L181.773 76.1167Z" fill="white"/>
<g filter="url(#filter0_d_2543_50716)">
<path d="M211.886 55.9823C212.399 52.8279 209.063 45.5954 207.498 42.4286C207.115 41.6521 206.105 41.4881 205.496 42.1031C203.008 44.6114 197.554 50.4156 197.042 53.57C196.375 57.6693 199.159 61.5324 203.258 62.1986C207.357 62.8647 211.22 60.0816 211.886 55.9823Z" fill="white"/>
</g>
<path d="M110.128 155.482C110.128 155.482 110.604 159.927 112.46 161.782C114.315 163.638 118.76 164.114 118.76 164.114C118.76 164.114 114.315 164.59 112.46 166.445C110.604 168.3 110.128 172.746 110.128 172.746C110.128 172.746 109.652 168.3 107.797 166.445C105.942 164.59 101.496 164.114 101.496 164.114C101.496 164.114 105.942 163.638 107.797 161.782C109.652 159.927 110.128 155.482 110.128 155.482Z" fill="#9FABC8"/>
<path d="M139.572 21.1597C139.572 21.1597 139.876 23.9975 141.06 25.1818C142.245 26.3661 145.083 26.6702 145.083 26.6702C145.083 26.6702 142.245 26.9742 141.06 28.1585C139.876 29.3428 139.572 32.1807 139.572 32.1807C139.572 32.1807 139.268 29.3428 138.084 28.1585C136.899 26.9742 134.062 26.6702 134.062 26.6702C134.062 26.6702 136.899 26.3661 138.084 25.1818C139.268 23.9975 139.572 21.1597 139.572 21.1597Z" fill="#9FABC8"/>
<g filter="url(#filter1_f_2543_50716)">
<path d="M139.572 21.1597C139.572 21.1597 139.876 23.9975 141.06 25.1818C142.245 26.3661 145.083 26.6702 145.083 26.6702C145.083 26.6702 142.245 26.9742 141.06 28.1585C139.876 29.3428 139.572 32.1807 139.572 32.1807C139.572 32.1807 139.268 29.3428 138.084 28.1585C136.899 26.9742 134.062 26.6702 134.062 26.6702C134.062 26.6702 136.899 26.3661 138.084 25.1818C139.268 23.9975 139.572 21.1597 139.572 21.1597Z" fill="#9FABC8"/>
</g>
<g opacity="0.96" filter="url(#filter2_d_2543_50716)">
<circle cx="10.7143" cy="78.6961" r="6.11533" transform="rotate(116.773 10.7143 78.6961)" fill="white"/>
</g>
<circle cx="33.9293" cy="8.42912" r="5.8704" transform="rotate(116.773 33.9293 8.42912)" stroke="#9FABC8" stroke-width="0.809421"/>
<circle cx="207.025" cy="138.894" r="5.70274" transform="rotate(-83.9305 207.025 138.894)" fill="#1B2D59"/>
<circle opacity="0.96" cx="220.658" cy="192.973" r="2.2811" transform="rotate(96.0695 220.658 192.973)" fill="white"/>
<circle cx="254.105" cy="167.073" r="8.1782" transform="rotate(-83.9305 254.105 167.073)" stroke="#1B2D59" stroke-width="1.32802"/>
<path d="M123.512 56.0837C123.101 55.6059 122.518 55.3106 121.89 55.2628L91.9654 52.9935C90.7092 52.8982 89.4667 53.3059 88.5111 54.1267C87.5554 54.9476 86.9651 56.1145 86.8698 57.3707L82.5595 114.207C82.4643 115.464 82.8719 116.706 83.6928 117.662C84.5137 118.617 85.6806 119.208 86.9367 119.303L129.564 122.536C130.82 122.631 132.063 122.223 133.019 121.403C133.974 120.582 134.565 119.415 134.66 118.159L138.007 74.0248C138.054 73.3968 137.85 72.7756 137.44 72.2979L123.512 56.0837Z" fill="#B0D0FF"/>
<path d="M121.819 57.6394L91.7857 55.3617C91.1576 55.3141 90.5363 55.5179 90.0585 55.9284C89.5807 56.3388 89.2855 56.9222 89.2379 57.5503L84.9276 114.387C84.88 115.015 85.0838 115.636 85.4942 116.114C85.9047 116.592 86.4881 116.887 87.1162 116.935L129.744 120.168C130.372 120.215 130.993 120.011 131.471 119.601C131.949 119.191 132.244 118.607 132.292 117.979L135.623 74.056L121.819 57.6394Z" fill="#0E3A7D"/>
<path d="M135.622 74.0558L124.704 73.2279C124.173 73.1879 123.655 73.0437 123.18 72.8035C122.705 72.5633 122.281 72.2317 121.934 71.8278C121.587 71.4239 121.323 70.9556 121.157 70.4495C120.99 69.9435 120.926 69.4097 120.966 68.8786L121.818 57.6392L135.622 74.0558Z" fill="#B0D0FF"/>
<path d="M110.996 91.7923L109.467 86.374C109.39 86.133 109.312 85.8479 109.234 85.5186C109.156 85.1893 109.08 84.8345 109.006 84.4541C108.883 84.8195 108.758 85.1628 108.631 85.4839C108.504 85.7976 108.384 86.0714 108.271 86.3054L105.954 91.4099L110.996 91.7923ZM115.749 98.1715L113.469 97.9986C113.213 97.9792 113.009 97.9013 112.858 97.7649C112.707 97.6212 112.599 97.4513 112.533 97.2552L111.594 93.9321L105.029 93.4342L103.6 96.5778C103.529 96.7414 103.404 96.8863 103.226 97.0123C103.047 97.1384 102.834 97.1921 102.585 97.1732L100.283 96.9987L107.722 81.6229L110.725 81.8506L115.749 98.1715Z" fill="white"/>
<g clip-path="url(#clip0_2543_50716)" filter="url(#filter3_d_2543_50716)">
<g filter="url(#filter4_d_2543_50716)">
<path d="M156.566 78.7761C156.056 78.4071 155.42 78.256 154.798 78.3559L125.169 83.125C123.925 83.3252 122.812 84.0113 122.074 85.0324C121.336 86.0534 121.034 87.3258 121.234 88.5695L130.292 144.845C130.492 146.089 131.178 147.202 132.199 147.94C133.22 148.678 134.493 148.98 135.736 148.78L177.943 141.986C179.187 141.786 180.3 141.1 181.038 140.079C181.776 139.058 182.078 137.786 181.878 136.542L174.844 92.8438C174.744 92.222 174.401 91.6655 173.89 91.2966L156.566 78.7761Z" fill="#15308B"/>
</g>
<path d="M155.283 80.6833L125.546 85.4697C124.924 85.5698 124.367 85.9129 123.998 86.4234C123.63 86.9339 123.478 87.5701 123.579 88.192L132.637 144.468C132.737 145.09 133.08 145.646 133.59 146.015C134.101 146.384 134.737 146.535 135.359 146.435L177.566 139.641C178.188 139.541 178.744 139.198 179.113 138.688C179.482 138.177 179.633 137.541 179.533 136.919L172.533 93.4298L155.283 80.6833Z" fill="#197CEC"/>
<path d="M172.532 93.4302L161.723 95.1701C161.197 95.255 160.66 95.2355 160.141 95.1127C159.623 94.9899 159.134 94.7662 158.702 94.4544C158.271 94.1425 157.904 93.7487 157.625 93.2953C157.346 92.8419 157.158 92.3379 157.073 91.8121L155.282 80.6836L172.532 93.4302Z" fill="#15308B"/>
<path d="M151.772 120.312C152.315 120.224 152.76 120.086 153.108 119.896C153.456 119.706 153.721 119.486 153.904 119.234C154.093 118.981 154.211 118.702 154.259 118.397C154.314 118.092 154.315 117.776 154.262 117.45C154.208 117.11 154.104 116.815 153.953 116.565C153.8 116.307 153.593 116.103 153.331 115.952C153.068 115.794 152.744 115.694 152.359 115.653C151.981 115.609 151.535 115.629 151.021 115.712L148.08 116.185L148.821 120.787L151.772 120.312ZM147.025 109.631L147.755 114.167L150.078 113.793C151.076 113.632 151.799 113.33 152.247 112.887C152.703 112.443 152.867 111.826 152.74 111.038C152.609 110.22 152.283 109.675 151.764 109.402C151.246 109.129 150.494 109.072 149.51 109.231L147.025 109.631ZM149.147 106.973C150.174 106.808 151.069 106.764 151.831 106.842C152.593 106.92 153.235 107.102 153.756 107.389C154.285 107.675 154.699 108.058 154.998 108.536C155.298 109.015 155.5 109.577 155.604 110.22C155.663 110.589 155.666 110.953 155.612 111.31C155.557 111.66 155.438 112.002 155.254 112.336C155.076 112.662 154.829 112.973 154.513 113.268C154.204 113.563 153.821 113.832 153.363 114.077C155.597 114.215 156.862 115.206 157.159 117.051C157.267 117.716 157.239 118.352 157.077 118.957C156.914 119.562 156.624 120.11 156.205 120.6C155.786 121.083 155.24 121.498 154.569 121.843C153.897 122.189 153.105 122.435 152.194 122.582L146.268 123.535L143.742 107.843L149.147 106.973Z" fill="white"/>
</g>
<path d="M82.4961 32.4817L83.403 41.5876" stroke="#CCD7F0" stroke-width="1.5" stroke-linecap="round"/>
<path d="M60.4961 49.9817L70.2877 53.4312" stroke="#CCD7F0" stroke-width="1.5" stroke-linecap="round"/>
<path d="M66.3613 35.9689L75.5577 46.7106" stroke="#CCD7F0" stroke-width="1.5" stroke-linecap="round"/>
<defs>
<filter id="filter0_d_2543_50716" x="193.672" y="41.728" width="18.922" height="24.4945" filterUnits="userSpaceOnUse" color-interpolation-filters="sRGB">
<feFlood flood-opacity="0" result="BackgroundImageFix"/>
<feColorMatrix in="SourceAlpha" type="matrix" values="0 0 0 0 0 0 0 0 0 0 0 0 0 0 0 0 0 0 127 0" result="hardAlpha"/>
<feOffset dx="-1.30846" dy="1.96269"/>
<feGaussianBlur stdDeviation="0.981344"/>
<feComposite in2="hardAlpha" operator="out"/>
<feColorMatrix type="matrix" values="0 0 0 0 0 0 0 0 0 0 0 0 0 0 0 0 0 0 0.35 0"/>
<feBlend mode="normal" in2="BackgroundImageFix" result="effect1_dropShadow_2543_50716"/>
<feBlend mode="normal" in="SourceGraphic" in2="effect1_dropShadow_2543_50716" result="shape"/>
</filter>
<filter id="filter1_f_2543_50716" x="130.077" y="17.1756" width="18.9891" height="18.9891" filterUnits="userSpaceOnUse" color-interpolation-filters="sRGB">
<feFlood flood-opacity="0" result="BackgroundImageFix"/>
<feBlend mode="normal" in="SourceGraphic" in2="BackgroundImageFix" result="shape"/>
<feGaussianBlur stdDeviation="1.99203" result="effect1_foregroundBlur_2543_50716"/>
</filter>
<filter id="filter2_d_2543_50716" x="0.597656" y="69.5793" width="20.2334" height="20.2334" filterUnits="userSpaceOnUse" color-interpolation-filters="sRGB">
<feFlood flood-opacity="0" result="BackgroundImageFix"/>
<feColorMatrix in="SourceAlpha" type="matrix" values="0 0 0 0 0 0 0 0 0 0 0 0 0 0 0 0 0 0 127 0" result="hardAlpha"/>
<feOffset dy="1"/>
<feGaussianBlur stdDeviation="2"/>
<feComposite in2="hardAlpha" operator="out"/>
<feColorMatrix type="matrix" values="0 0 0 0 0 0 0 0 0 0 0 0 0 0 0 0 0 0 0.08 0"/>
<feBlend mode="normal" in2="BackgroundImageFix" result="effect1_dropShadow_2543_50716"/>
<feBlend mode="normal" in="SourceGraphic" in2="effect1_dropShadow_2543_50716" result="shape"/>
</filter>
<filter id="filter3_d_2543_50716" x="95" y="69" width="100.112" height="95.1116" filterUnits="userSpaceOnUse" color-interpolation-filters="sRGB">
<feFlood flood-opacity="0" result="BackgroundImageFix"/>
<feColorMatrix in="SourceAlpha" type="matrix" values="0 0 0 0 0 0 0 0 0 0 0 0 0 0 0 0 0 0 127 0" result="hardAlpha"/>
<feOffset dx="-9" dy="4"/>
<feGaussianBlur stdDeviation="2"/>
<feComposite in2="hardAlpha" operator="out"/>
<feColorMatrix type="matrix" values="0 0 0 0 0 0 0 0 0 0 0 0 0 0 0 0 0 0 0.25 0"/>
<feBlend mode="normal" in2="BackgroundImageFix" result="effect1_dropShadow_2543_50716"/>
<feBlend mode="normal" in="SourceGraphic" in2="effect1_dropShadow_2543_50716" result="shape"/>
</filter>
<filter id="filter4_d_2543_50716" x="114.173" y="78.3259" width="68.7651" height="78.5144" filterUnits="userSpaceOnUse" color-interpolation-filters="sRGB">
<feFlood flood-opacity="0" result="BackgroundImageFix"/>
<feColorMatrix in="SourceAlpha" type="matrix" values="0 0 0 0 0 0 0 0 0 0 0 0 0 0 0 0 0 0 127 0" result="hardAlpha"/>
<feOffset dx="-3" dy="4"/>
<feGaussianBlur stdDeviation="2"/>
<feComposite in2="hardAlpha" operator="out"/>
<feColorMatrix type="matrix" values="0 0 0 0 0 0 0 0 0 0 0 0 0 0 0 0 0 0 0.25 0"/>
<feBlend mode="normal" in2="BackgroundImageFix" result="effect1_dropShadow_2543_50716"/>
<feBlend mode="normal" in="SourceGraphic" in2="effect1_dropShadow_2543_50716" result="shape"/>
</filter>
<clipPath id="clip0_2543_50716">
<rect width="76" height="76" fill="white" transform="translate(108 81.0774) rotate(-9.1439)"/>
</clipPath>
</defs>
</svg>
