<svg width="65" height="65" viewBox="0 0 65 65" fill="none" xmlns="http://www.w3.org/2000/svg">
<g opacity="0.8">
<rect x="0.25" y="0.680176" width="64" height="64" rx="10" fill="url(#paint0_linear_3748_65350)"/>
<rect x="0.75" y="1.18018" width="63" height="63" rx="9.5" stroke="url(#paint1_linear_3748_65350)" stroke-opacity="0.5"/>
</g>
<path fill-rule="evenodd" clip-rule="evenodd" d="M20.584 16.0137C17.8226 16.0137 15.584 18.2522 15.584 21.0137V44.347C15.584 47.1084 17.8226 49.347 20.584 49.347H43.9173C46.6787 49.347 48.9173 47.1084 48.9173 44.347V27.6803C48.9173 25.5033 47.526 23.6512 45.584 22.9648V21.0137C45.584 18.2522 43.3454 16.0137 40.584 16.0137H20.584ZM20.584 19.347C19.6635 19.347 18.9173 20.0932 18.9173 21.0137C18.9173 21.9341 19.6635 22.6803 20.584 22.6803H42.2507V21.0137C42.2507 20.0932 41.5045 19.347 40.584 19.347H20.584ZM40.584 32.6803C38.743 32.6803 37.2507 34.1727 37.2507 36.0137C37.2507 37.8546 38.743 39.347 40.584 39.347H43.9173C44.8378 39.347 45.584 38.6008 45.584 37.6803V34.347C45.584 33.4265 44.8378 32.6803 43.9173 32.6803H40.584Z" fill="url(#paint2_linear_3748_65350)"/>
<defs>
<linearGradient id="paint0_linear_3748_65350" x1="4.51667" y1="8.48506" x2="63.6319" y2="57.2892" gradientUnits="userSpaceOnUse">
<stop stop-color="#0D2147" stop-opacity="0.66"/>
<stop offset="1" stop-color="#0B2049" stop-opacity="0.15"/>
</linearGradient>
<linearGradient id="paint1_linear_3748_65350" x1="12.5014" y1="3.60589" x2="56.9357" y2="58.6459" gradientUnits="userSpaceOnUse">
<stop stop-color="#353C54"/>
<stop offset="1" stop-color="#071F4E" stop-opacity="0.76"/>
</linearGradient>
<linearGradient id="paint2_linear_3748_65350" x1="15.584" y1="18.4102" x2="52.9413" y2="26.6689" gradientUnits="userSpaceOnUse">
<stop stop-color="#197CEC"/>
<stop offset="0.608737" stop-color="#004AD9"/>
</linearGradient>
</defs>
</svg>
