<svg width="35" height="35" viewBox="0 0 35 35" fill="none" xmlns="http://www.w3.org/2000/svg">
<rect opacity="0.8" x="0.5" y="0.5" width="34" height="34" rx="9.5" fill="#F5F7FD" stroke="#9FABC8"/>
<path fill-rule="evenodd" clip-rule="evenodd" d="M22.9991 21.7089C24.1217 20.3056 24.793 18.5255 24.793 16.5886C24.793 12.0582 21.1203 8.3855 16.5898 8.3855C12.0594 8.3855 8.38672 12.0582 8.38672 16.5886C8.38672 21.1191 12.0594 24.7917 16.5898 24.7917C18.5267 24.7917 20.3068 24.1205 21.7101 22.9979L24.1485 25.4362C24.5044 25.7922 25.0815 25.7922 25.4375 25.4362C25.7934 25.0803 25.7934 24.5032 25.4375 24.1472L22.9991 21.7089ZM22.9701 16.5886C22.9701 20.1123 20.1135 22.9688 16.5898 22.9688C13.0662 22.9688 10.2096 20.1123 10.2096 16.5886C10.2096 13.0649 13.0662 10.2084 16.5898 10.2084C20.1135 10.2084 22.9701 13.0649 22.9701 16.5886Z" fill="#9FABC8"/>
</svg>
