<svg width="54" height="55" viewBox="0 0 54 55" fill="none" xmlns="http://www.w3.org/2000/svg">
<g opacity="0.8">
<rect y="0.922852" width="54" height="54" rx="10" fill="url(#paint0_linear_2826_44036)"/>
<rect x="0.5" y="1.42285" width="53" height="53" rx="9.5" stroke="url(#paint1_linear_2826_44036)" stroke-opacity="0.5"/>
</g>
<path d="M12.9375 19.1268C12.9375 16.7969 14.8263 14.9081 17.1563 14.9081H36.8438C39.1737 14.9081 41.0625 16.7969 41.0625 19.1268V31.7831C41.0625 34.113 39.1737 36.0018 36.8438 36.0018H17.1562C14.8263 36.0018 12.9375 34.113 12.9375 31.7831V19.1268Z" fill="url(#paint2_linear_2826_44036)"/>
<path fill-rule="evenodd" clip-rule="evenodd" d="M11.5312 39.5174C11.5312 38.7408 12.1608 38.1112 12.9375 38.1112H41.0625C41.8391 38.1112 42.4688 38.7408 42.4688 39.5174C42.4688 40.2941 41.8391 40.9237 41.0625 40.9237H12.9375C12.1608 40.9237 11.5312 40.2941 11.5312 39.5174Z" fill="url(#paint3_linear_2826_44036)"/>
<defs>
<linearGradient id="paint0_linear_2826_44036" x1="3.6" y1="7.50822" x2="53.4784" y2="48.6867" gradientUnits="userSpaceOnUse">
<stop stop-color="#0D2147" stop-opacity="0.66"/>
<stop offset="1" stop-color="#0B2049" stop-opacity="0.15"/>
</linearGradient>
<linearGradient id="paint1_linear_2826_44036" x1="10.3371" y1="3.39142" x2="47.8286" y2="49.8314" gradientUnits="userSpaceOnUse">
<stop stop-color="#353C54"/>
<stop offset="1" stop-color="#071F4E" stop-opacity="0.76"/>
</linearGradient>
<linearGradient id="paint2_linear_2826_44036" x1="12.9375" y1="16.4246" x2="43.3553" y2="25.3907" gradientUnits="userSpaceOnUse">
<stop stop-color="#197CEC"/>
<stop offset="0.608737" stop-color="#004AD9"/>
</linearGradient>
<linearGradient id="paint3_linear_2826_44036" x1="11.5313" y1="38.3134" x2="16.7913" y2="51.105" gradientUnits="userSpaceOnUse">
<stop stop-color="#197CEC"/>
<stop offset="0.608737" stop-color="#004AD9"/>
</linearGradient>
</defs>
</svg>
