<svg width="54" height="55" viewBox="0 0 54 55" fill="none" xmlns="http://www.w3.org/2000/svg">
<g opacity="0.8">
<rect y="0.922852" width="54" height="54" rx="10" fill="url(#paint0_linear_2826_44032)"/>
<rect x="0.5" y="1.42285" width="53" height="53" rx="9.5" stroke="url(#paint1_linear_2826_44032)" stroke-opacity="0.5"/>
</g>
<path fill-rule="evenodd" clip-rule="evenodd" d="M18.5625 13.8604C16.2325 13.8604 14.3438 15.7492 14.3438 18.0791V37.7666C14.3438 40.0966 16.2325 41.9854 18.5625 41.9854H35.4375C37.7675 41.9854 39.6562 40.0966 39.6562 37.7666V21.936C39.6562 20.8171 39.2118 19.744 38.4206 18.9529L34.5638 15.096C33.7726 14.3049 32.6995 13.8604 31.5807 13.8604H18.5625ZM31.2188 16.9641V19.4854C31.2188 21.0387 32.4779 22.2979 34.0312 22.2979H36.5525C37.1789 22.2979 37.4926 21.5405 37.0497 21.0976L32.4191 16.4669C31.9761 16.024 31.2188 16.3377 31.2188 16.9641Z" fill="url(#paint2_linear_2826_44032)"/>
<defs>
<linearGradient id="paint0_linear_2826_44032" x1="3.6" y1="7.50822" x2="53.4784" y2="48.6867" gradientUnits="userSpaceOnUse">
<stop stop-color="#0D2147" stop-opacity="0.66"/>
<stop offset="1" stop-color="#0B2049" stop-opacity="0.15"/>
</linearGradient>
<linearGradient id="paint1_linear_2826_44032" x1="10.3371" y1="3.39142" x2="47.8286" y2="49.8314" gradientUnits="userSpaceOnUse">
<stop stop-color="#353C54"/>
<stop offset="1" stop-color="#071F4E" stop-opacity="0.76"/>
</linearGradient>
<linearGradient id="paint2_linear_2826_44032" x1="14.3438" y1="15.8824" x2="42.9653" y2="21.5772" gradientUnits="userSpaceOnUse">
<stop stop-color="#197CEC"/>
<stop offset="0.608737" stop-color="#004AD9"/>
</linearGradient>
</defs>
</svg>
