<svg width="65" height="65" viewBox="0 0 65 65" fill="none" xmlns="http://www.w3.org/2000/svg">
<g opacity="0.8">
<rect x="0.75" y="0.680176" width="64" height="64" rx="10" fill="url(#paint0_linear_3748_64525)"/>
<rect x="1.25" y="1.18018" width="63" height="63" rx="9.5" stroke="url(#paint1_linear_3748_64525)" stroke-opacity="0.5"/>
</g>
<path fill-rule="evenodd" clip-rule="evenodd" d="M17.75 23.784C17.75 21.6319 19.1272 19.7212 21.1689 19.0406L31.1689 15.7073C32.1952 15.3652 33.3048 15.3652 34.3311 15.7073L44.3311 19.0406C46.3729 19.7212 47.75 21.6319 47.75 23.784V32.6802C47.75 41.8502 38.483 47.4164 34.5168 49.3788C33.3958 49.9334 32.1042 49.9334 30.9832 49.3788C27.017 47.4164 17.75 41.8502 17.75 32.6802V23.784ZM37.75 27.6803C37.75 30.4417 35.5114 32.6803 32.75 32.6803C29.9886 32.6803 27.75 30.4417 27.75 27.6803C27.75 24.9189 29.9886 22.6803 32.75 22.6803C35.5114 22.6803 37.75 24.9189 37.75 27.6803ZM32.7501 36.0136C35.9447 36.0136 38.8394 37.2976 40.9463 39.3777C41.2954 39.7224 41.3021 40.2769 40.9715 40.6395C40.7475 40.885 40.5155 41.1262 40.2762 41.363C37.8214 43.7921 34.8663 45.4869 33.0386 46.3912C32.8492 46.4849 32.6509 46.4849 32.4615 46.3912C30.6338 45.4869 27.6787 43.7921 25.2239 41.363C24.9846 41.1262 24.7526 40.885 24.5286 40.6395C24.198 40.2769 24.2047 39.7224 24.5538 39.3777C26.6607 37.2976 29.5554 36.0136 32.7501 36.0136Z" fill="url(#paint2_linear_3748_64525)"/>
<defs>
<linearGradient id="paint0_linear_3748_64525" x1="5.01667" y1="8.48506" x2="64.1319" y2="57.2892" gradientUnits="userSpaceOnUse">
<stop stop-color="#0D2147" stop-opacity="0.66"/>
<stop offset="1" stop-color="#0B2049" stop-opacity="0.15"/>
</linearGradient>
<linearGradient id="paint1_linear_3748_64525" x1="13.0014" y1="3.60589" x2="57.4357" y2="58.6459" gradientUnits="userSpaceOnUse">
<stop stop-color="#353C54"/>
<stop offset="1" stop-color="#071F4E" stop-opacity="0.76"/>
</linearGradient>
<linearGradient id="paint2_linear_3748_64525" x1="17.75" y1="17.9199" x2="51.747" y2="24.485" gradientUnits="userSpaceOnUse">
<stop stop-color="#197CEC"/>
<stop offset="0.608737" stop-color="#004AD9"/>
</linearGradient>
</defs>
</svg>
