<svg width="627" height="628" viewBox="0 0 627 628" fill="none" xmlns="http://www.w3.org/2000/svg">
<g opacity="0.5">
<circle opacity="0.1" cx="313.5" cy="314.337" r="312.246" fill="url(#paint0_linear_2826_43606)" fill-opacity="0.4" stroke="url(#paint1_linear_2826_43606)" stroke-width="2.508"/>
<circle opacity="0.2" cx="313.5" cy="314.337" r="248.436" fill="url(#paint2_linear_2826_43606)" fill-opacity="0.4" stroke="url(#paint3_linear_2826_43606)" stroke-width="2.508"/>
<circle opacity="0.8" cx="313.499" cy="314.337" r="177.691" fill="url(#paint4_linear_2826_43606)" fill-opacity="0.4" stroke="url(#paint5_linear_2826_43606)" stroke-width="2.508"/>
<circle opacity="0.6" cx="313.523" cy="314.361" r="126.912" fill="url(#paint6_linear_2826_43606)" stroke="url(#paint7_linear_2826_43606)" stroke-width="2.29794"/>
<circle opacity="0.8" cx="313.273" cy="314.11" r="86.5535" fill="url(#paint8_linear_2826_43606)" stroke="url(#paint9_linear_2826_43606)" stroke-width="2.29794"/>
</g>
<g filter="url(#filter0_b_2826_43606)">
<circle opacity="0.8" cx="263.213" cy="285.82" r="7.23608" stroke="white" stroke-opacity="0.8" stroke-width="2.508"/>
<line x1="272.663" y1="289.021" x2="283.945" y2="293.051" stroke="white" stroke-opacity="0.8" stroke-width="3.762" stroke-linecap="round"/>
</g>
<g filter="url(#filter1_b_2826_43606)">
<path opacity="0.8" d="M274.802 351.127C274.802 355.155 271.63 358.363 267.784 358.363C263.938 358.363 260.766 355.155 260.766 351.127C260.766 347.1 263.938 343.891 267.784 343.891C271.63 343.891 274.802 347.1 274.802 351.127Z" stroke="white" stroke-opacity="0.8" stroke-width="2.508"/>
<line x1="273.932" y1="343.025" x2="282.54" y2="334.748" stroke="white" stroke-opacity="0.8" stroke-width="3.762" stroke-linecap="round"/>
</g>
<g filter="url(#filter2_b_2826_43606)">
<path d="M362.787 365.626C362.787 371.258 358.323 375.779 352.871 375.779C347.419 375.779 342.955 371.258 342.955 365.626C342.955 359.993 347.419 355.472 352.871 355.472C358.323 355.472 362.787 359.993 362.787 365.626Z" stroke="white" stroke-opacity="0.8" stroke-width="2.508"/>
<line x1="335.567" y1="341.383" x2="345.672" y2="354.346" stroke="white" stroke-opacity="0.8" stroke-width="3.762" stroke-linecap="round"/>
</g>
<g filter="url(#filter3_b_2826_43606)">
<circle cx="370.13" cy="296.749" r="11.6349" stroke="white" stroke-opacity="0.8" stroke-width="2.508"/>
<line x1="346.082" y1="304.716" x2="355.011" y2="301.926" stroke="white" stroke-opacity="0.8" stroke-width="3.762" stroke-linecap="round"/>
</g>
<g filter="url(#filter4_b_2826_43606)">
<circle cx="322.962" cy="239.78" r="11.8278" transform="rotate(-19.875 322.962 239.78)" stroke="white" stroke-opacity="0.8" stroke-width="2.508"/>
<line x1="317.162" y1="279.407" x2="320.221" y2="255.546" stroke="white" stroke-opacity="0.8" stroke-width="3.762" stroke-linecap="round"/>
</g>
<g opacity="0.8">
<path d="M338.603 289.558C335.35 286.294 331.48 283.7 327.215 281.927C322.951 280.153 318.375 279.234 313.752 279.223C309.129 279.212 304.549 280.108 300.275 281.861C296.002 283.614 292.119 286.188 288.85 289.436C285.581 292.684 282.99 296.542 281.226 300.788C279.462 305.034 278.56 309.585 278.571 314.179C278.582 318.772 279.507 323.318 281.292 327.556C283.077 331.793 285.687 335.638 288.972 338.871C292.225 342.135 296.095 344.728 300.36 346.502C304.625 348.275 309.2 349.194 313.823 349.205C318.447 349.217 323.027 348.32 327.3 346.567C331.574 344.815 335.456 342.24 338.726 338.992C341.995 335.744 344.586 331.886 346.35 327.64C348.114 323.394 349.016 318.843 349.005 314.25C348.993 309.656 348.068 305.11 346.283 300.873C344.498 296.635 341.888 292.79 338.603 289.558ZM283.706 314.214C283.705 311.569 284.058 308.935 284.756 306.382C285.906 308.842 287.576 310.967 288.712 313.49C290.18 316.734 294.122 315.835 295.863 318.677C297.408 321.201 295.758 324.392 296.914 327.032C297.754 328.948 299.734 329.367 301.1 330.768C302.496 332.181 302.467 334.118 302.68 335.961C302.92 338.127 303.31 340.273 303.847 342.386C303.847 342.401 303.847 342.418 303.859 342.434C292.135 338.343 283.706 327.239 283.706 314.214ZM313.788 344.103C312.108 344.102 310.431 343.963 308.774 343.685C308.791 343.264 308.799 342.87 308.842 342.596C309.222 340.121 310.469 337.7 312.152 335.847C313.814 334.02 316.092 332.784 317.496 330.71C318.872 328.687 319.284 325.963 318.717 323.598C317.882 320.105 313.105 318.939 310.529 317.044C309.048 315.955 307.731 314.27 305.786 314.133C304.89 314.071 304.14 314.262 303.251 314.035C302.437 313.825 301.798 313.389 300.93 313.503C299.308 313.714 298.285 315.436 296.543 315.203C294.89 314.983 293.187 313.061 292.811 311.496C292.328 309.485 293.929 308.833 295.645 308.654C296.361 308.579 297.165 308.498 297.852 308.76C298.758 309.093 299.186 309.974 299.999 310.419C301.523 311.25 301.832 309.922 301.599 308.577C301.249 306.563 300.842 305.743 302.65 304.356C303.903 303.4 304.975 302.709 304.774 300.992C304.655 299.983 304.099 299.527 304.618 298.523C305.011 297.758 306.09 297.069 306.794 296.613C308.61 295.436 314.573 295.523 312.136 292.229C311.42 291.262 310.1 289.534 308.846 289.298C307.28 289.004 306.584 290.741 305.492 291.507C304.364 292.299 302.167 293.199 301.038 291.974C299.518 290.325 302.045 289.785 302.604 288.633C302.863 288.096 302.604 287.35 302.169 286.648C302.734 286.412 303.308 286.192 303.892 285.99C304.258 286.258 304.692 286.42 305.146 286.457C306.194 286.525 307.182 285.962 308.097 286.672C309.113 287.45 309.844 288.434 311.192 288.677C312.495 288.912 313.875 288.157 314.198 286.831C314.394 286.024 314.198 285.173 314.01 284.34C319.87 284.373 325.59 286.117 330.461 289.354C330.148 289.236 329.773 289.25 329.311 289.463C328.36 289.902 327.012 291.02 326.901 292.128C326.774 293.386 328.642 293.563 329.529 293.563C330.86 293.563 332.209 292.972 331.78 291.443C331.594 290.78 331.34 290.09 330.931 289.673C331.914 290.351 332.856 291.086 333.751 291.874C333.737 291.888 333.723 291.901 333.709 291.916C332.806 292.85 331.758 293.59 331.141 294.726C330.705 295.526 330.215 295.906 329.333 296.113C328.847 296.227 328.293 296.269 327.885 296.592C326.751 297.48 327.396 299.612 328.471 300.252C329.829 301.06 331.844 300.68 332.869 299.527C333.67 298.624 334.141 297.056 335.581 297.058C336.215 297.057 336.824 297.303 337.276 297.744C337.871 298.358 337.754 298.931 337.881 299.697C338.105 301.057 339.313 300.319 340.048 299.633C340.583 300.58 341.067 301.555 341.495 302.555C340.687 303.711 340.045 304.972 338.1 303.624C336.936 302.816 336.22 301.644 334.758 301.28C333.482 300.968 332.173 301.292 330.912 301.509C329.479 301.756 327.779 301.865 326.691 302.944C325.64 303.984 325.084 305.375 323.965 306.42C321.802 308.444 320.888 310.652 322.289 313.514C323.636 316.264 326.455 317.757 329.496 317.561C332.484 317.363 335.587 315.642 335.501 319.955C335.47 321.482 335.791 322.539 336.262 323.957C336.7 325.265 336.67 326.532 336.77 327.882C336.865 329.462 337.114 331.03 337.513 332.563C334.704 336.155 331.107 339.063 326.995 341.063C322.883 343.063 318.366 344.102 313.788 344.103Z" fill="white"/>
</g>
<defs>
<filter id="filter0_b_2826_43606" x="247.199" y="269.806" width="46.152" height="32.6505" filterUnits="userSpaceOnUse" color-interpolation-filters="sRGB">
<feFlood flood-opacity="0" result="BackgroundImageFix"/>
<feGaussianBlur in="BackgroundImageFix" stdDeviation="3.762"/>
<feComposite in2="SourceAlpha" operator="in" result="effect1_backgroundBlur_2826_43606"/>
<feBlend mode="normal" in="SourceGraphic" in2="effect1_backgroundBlur_2826_43606" result="shape"/>
</filter>
<filter id="filter1_b_2826_43606" x="251.988" y="325.343" width="39.9577" height="41.7982" filterUnits="userSpaceOnUse" color-interpolation-filters="sRGB">
<feFlood flood-opacity="0" result="BackgroundImageFix"/>
<feGaussianBlur in="BackgroundImageFix" stdDeviation="3.762"/>
<feComposite in2="SourceAlpha" operator="in" result="effect1_backgroundBlur_2826_43606"/>
<feBlend mode="normal" in="SourceGraphic" in2="effect1_backgroundBlur_2826_43606" result="shape"/>
</filter>
<filter id="filter2_b_2826_43606" x="326.162" y="331.978" width="45.4035" height="52.5793" filterUnits="userSpaceOnUse" color-interpolation-filters="sRGB">
<feFlood flood-opacity="0" result="BackgroundImageFix"/>
<feGaussianBlur in="BackgroundImageFix" stdDeviation="3.762"/>
<feComposite in2="SourceAlpha" operator="in" result="effect1_backgroundBlur_2826_43606"/>
<feBlend mode="normal" in="SourceGraphic" in2="effect1_backgroundBlur_2826_43606" result="shape"/>
</filter>
<filter id="filter3_b_2826_43606" x="336.677" y="276.336" width="53.8664" height="40.8257" filterUnits="userSpaceOnUse" color-interpolation-filters="sRGB">
<feFlood flood-opacity="0" result="BackgroundImageFix"/>
<feGaussianBlur in="BackgroundImageFix" stdDeviation="3.762"/>
<feComposite in2="SourceAlpha" operator="in" result="effect1_backgroundBlur_2826_43606"/>
<feBlend mode="normal" in="SourceGraphic" in2="effect1_backgroundBlur_2826_43606" result="shape"/>
</filter>
<filter id="filter4_b_2826_43606" x="302.352" y="219.17" width="41.2189" height="69.6415" filterUnits="userSpaceOnUse" color-interpolation-filters="sRGB">
<feFlood flood-opacity="0" result="BackgroundImageFix"/>
<feGaussianBlur in="BackgroundImageFix" stdDeviation="3.762"/>
<feComposite in2="SourceAlpha" operator="in" result="effect1_backgroundBlur_2826_43606"/>
<feBlend mode="normal" in="SourceGraphic" in2="effect1_backgroundBlur_2826_43606" result="shape"/>
</filter>
<linearGradient id="paint0_linear_2826_43606" x1="172.009" y1="39.6781" x2="475.799" y2="609.804" gradientUnits="userSpaceOnUse">
<stop stop-color="#6B90D9" stop-opacity="0.66"/>
<stop offset="1" stop-color="#0D3D9B" stop-opacity="0.15"/>
</linearGradient>
<linearGradient id="paint1_linear_2826_43606" x1="120.026" y1="29.5003" x2="555.343" y2="568.72" gradientUnits="userSpaceOnUse">
<stop stop-color="#38477C"/>
<stop offset="1" stop-color="#3364C2" stop-opacity="0.2"/>
</linearGradient>
<linearGradient id="paint2_linear_2826_43606" x1="200.808" y1="95.5823" x2="442.764" y2="549.665" gradientUnits="userSpaceOnUse">
<stop stop-color="#6B90D9" stop-opacity="0.66"/>
<stop offset="1" stop-color="#0D3D9B" stop-opacity="0.15"/>
</linearGradient>
<linearGradient id="paint3_linear_2826_43606" x1="159.405" y1="87.476" x2="506.118" y2="516.943" gradientUnits="userSpaceOnUse">
<stop stop-color="#38477C"/>
<stop offset="1" stop-color="#3364C2" stop-opacity="0.2"/>
</linearGradient>
<linearGradient id="paint4_linear_2826_43606" x1="232.737" y1="157.563" x2="406.139" y2="482.989" gradientUnits="userSpaceOnUse">
<stop stop-color="#6B90D9" stop-opacity="0.66"/>
<stop offset="1" stop-color="#0D3D9B" stop-opacity="0.15"/>
</linearGradient>
<linearGradient id="paint5_linear_2826_43606" x1="203.065" y1="151.753" x2="451.542" y2="459.538" gradientUnits="userSpaceOnUse">
<stop stop-color="#38477C"/>
<stop offset="1" stop-color="#3364C2" stop-opacity="0.2"/>
</linearGradient>
<linearGradient id="paint6_linear_2826_43606" x1="255.726" y1="202.166" x2="379.82" y2="435.056" gradientUnits="userSpaceOnUse">
<stop stop-color="#6B90D9" stop-opacity="0.66"/>
<stop offset="1" stop-color="#0D3D9B" stop-opacity="0.15"/>
</linearGradient>
<linearGradient id="paint7_linear_2826_43606" x1="234.491" y1="198.009" x2="412.313" y2="418.274" gradientUnits="userSpaceOnUse">
<stop stop-color="#38477C"/>
<stop offset="1" stop-color="#3364C2" stop-opacity="0.2"/>
</linearGradient>
<linearGradient id="paint8_linear_2826_43606" x1="273.69" y1="237.274" x2="358.676" y2="396.768" gradientUnits="userSpaceOnUse">
<stop stop-color="#6B90D9" stop-opacity="0.66"/>
<stop offset="1" stop-color="#0D3D9B" stop-opacity="0.15"/>
</linearGradient>
<linearGradient id="paint9_linear_2826_43606" x1="259.148" y1="234.426" x2="380.929" y2="385.274" gradientUnits="userSpaceOnUse">
<stop stop-color="#38477C"/>
<stop offset="1" stop-color="#3364C2" stop-opacity="0.2"/>
</linearGradient>
</defs>
</svg>
