<svg width="339" height="169" viewBox="0 0 339 169" fill="none" xmlns="http://www.w3.org/2000/svg">
<path d="M144.506 23.875L215.784 42.7628C227.36 45.8304 234.33 56.7854 231.364 67.2465L213.101 131.662C210.135 142.123 198.361 148.111 186.784 145.043L115.508 126.156C103.93 123.088 96.959 112.133 99.9251 101.672L118.188 37.2567C121.155 26.7937 132.953 20.8137 144.506 23.875Z" fill="#9FABC8"/>
<g filter="url(#filter0_d_2414_80714)">
<path d="M227.816 67.4343C228.355 67.3307 228.886 67.1866 229.404 67.0031C229.939 66.8208 230.449 66.5956 230.957 66.3521C231.144 66.2603 231.326 66.1618 231.507 66.0633C231.689 65.9648 231.865 65.8573 232.047 65.7588C233.334 65.0486 234.558 64.2296 235.706 63.3107C236.213 62.9006 236.691 62.4566 237.139 61.9819C237.422 61.68 237.695 61.3647 237.951 61.0414C238.206 60.7181 238.48 60.4134 238.715 60.0762C238.866 59.87 238.942 59.936 238.932 60.1905C238.928 60.3619 238.903 60.5322 238.856 60.697C238.832 60.8058 238.8 60.9123 238.758 61.0155L238.687 61.183C238.656 61.2366 238.621 61.2885 238.584 61.3383C238.062 62.0543 237.474 62.7194 236.827 63.325C236.189 63.9328 235.502 64.4876 234.774 64.9841C233.902 65.5757 233.018 66.2142 232.074 66.7588C231.038 67.3563 229.938 67.8371 228.796 68.1926C228.075 68.421 227.327 68.5474 226.572 68.5682C225.976 68.5863 225.383 68.4701 224.838 68.2283C224.551 68.1001 224.291 67.9187 224.071 67.6936C223.833 67.4484 223.677 67.1365 223.622 66.7997C223.56 66.3062 223.65 65.8057 223.879 65.3642C224.072 64.9517 224.332 64.5741 224.649 64.2468C224.781 64.1029 224.923 63.9674 225.073 63.8414C225.647 63.3886 225.905 63.3538 226.148 63.4683C226.205 63.4895 226.259 63.5171 226.31 63.5504C226.449 63.6637 226.283 63.9259 225.959 64.2685C225.718 64.5188 225.499 64.7898 225.306 65.0782C225.116 65.3385 224.955 65.6185 224.826 65.9133C224.718 66.1321 224.675 66.3771 224.701 66.6196C224.729 66.8098 224.839 66.9781 225.002 67.0799C225.372 67.3389 225.805 67.492 226.255 67.5228C226.774 67.5609 227.295 67.523 227.803 67.4102L227.816 67.4343Z" fill="white"/>
<path d="M230.331 70.1805C230.689 70.1465 231.045 70.0865 231.395 70.0008C231.525 69.97 231.645 69.9105 231.773 69.879C232.235 69.7704 232.688 69.6251 233.127 69.4446C233.32 69.3612 233.506 69.2638 233.685 69.1533C233.803 69.0884 233.908 69.0018 234.029 68.943C234.151 68.8842 234.268 68.8216 234.391 68.7658C234.466 68.7281 234.501 68.7867 234.491 68.8923C234.473 69.0379 234.412 69.1747 234.316 69.2853C234.292 69.3134 234.269 69.3468 234.244 69.3719L234.155 69.4382L233.979 69.561C233.858 69.6427 233.737 69.7191 233.612 69.7895C233.363 69.9338 233.101 70.055 232.83 70.1513C232.503 70.2635 232.191 70.4432 231.856 70.5578C231.48 70.6777 231.096 70.7722 230.707 70.8404C230.47 70.8816 230.23 70.9144 229.99 70.9343C229.62 70.9644 229.249 70.9575 228.881 70.9136C228.587 70.8893 228.298 70.8282 228.02 70.7317C227.957 70.7118 227.895 70.6863 227.837 70.6554C227.63 70.5065 227.61 70.3993 227.654 70.2692C227.661 70.2377 227.671 70.2069 227.683 70.1769C227.729 70.0902 227.859 70.0716 228.01 70.0976C228.118 70.108 228.226 70.1249 228.332 70.1481C228.436 70.1623 228.539 70.1811 228.646 70.186C228.857 70.2073 229.072 70.2049 229.294 70.2199C229.636 70.2366 229.979 70.2205 230.318 70.1717L230.331 70.1805Z" fill="white"/>
<path d="M226.08 69.3139C225.74 69.3296 225.399 69.3003 225.067 69.2267C224.696 69.142 224.351 68.9708 224.059 68.7272C223.763 68.4718 223.54 68.1427 223.414 67.7733L223.334 67.5143L223.287 67.2475C223.256 67.0534 223.252 66.8561 223.274 66.6608C223.384 65.9962 223.662 65.3707 224.081 64.8433C224.443 64.3631 224.842 63.9131 225.277 63.4976C226.127 62.6784 227.077 61.9691 228.104 61.386C229.126 60.7931 230.216 60.3261 231.35 59.9951C232.187 59.7464 233.052 59.5979 233.925 59.5525C234.827 59.5057 235.73 59.6398 236.58 59.9468C237.343 60.2311 238.041 60.6664 238.631 61.2267C238.943 61.513 239.211 61.8431 239.427 62.2065C239.654 62.5961 239.794 63.0304 239.836 63.4794C239.875 63.9166 239.826 64.3573 239.693 64.7754C239.567 65.1632 239.394 65.5342 239.179 65.8801C238.762 66.5423 238.256 67.1443 237.676 67.6694C237.119 68.1813 236.518 68.6419 235.878 69.0457C235.245 69.442 234.587 69.7973 233.908 70.1095C232.553 70.744 231.105 71.1588 229.62 71.3385C229.286 71.3773 228.95 71.3986 228.614 71.4022C228.445 71.4012 228.275 71.3971 228.113 71.3905C227.891 71.3737 227.672 71.3282 227.463 71.2551C227.248 71.1799 227.049 71.0653 226.877 70.9174C226.703 70.7762 226.599 70.5656 226.594 70.3413C226.607 69.899 226.995 69.5632 227.389 69.3226C227.436 69.294 227.492 69.2582 227.531 69.2373L227.643 69.178C227.718 69.1379 227.793 69.0978 227.867 69.0624C228.017 68.9845 228.164 68.9159 228.321 68.8478C228.616 68.7082 228.932 68.5903 229.242 68.4755C229.86 68.248 230.492 68.0591 231.133 67.9099C231.969 67.7046 232.827 67.6005 233.688 67.5999C234.141 67.6031 234.591 67.6634 235.028 67.7795C235.502 67.9026 235.942 68.131 236.316 68.4476C236.693 68.7886 236.962 69.233 237.089 69.7256L237.166 70.0824C237.185 70.2111 237.193 70.3411 237.192 70.4711C237.188 70.7163 237.153 70.96 237.089 71.1966C236.971 71.6368 236.781 72.0546 236.527 72.4331C236.286 72.8065 235.999 73.1478 235.672 73.4487C235.245 73.8229 234.973 73.8688 234.952 73.7915C234.93 73.7142 235.089 73.4826 235.289 73.0997C235.555 72.5995 235.747 72.063 235.858 71.5073C235.932 71.1934 235.96 70.8706 235.942 70.5487C235.898 70.2579 235.794 69.9794 235.636 69.7313C235.483 69.5119 235.277 69.3344 235.037 69.2152C234.745 69.0755 234.432 68.9842 234.11 68.9449C233.358 68.8615 232.597 68.8904 231.853 69.0305C231.074 69.1672 230.307 69.3685 229.56 69.6323C229.181 69.7687 228.81 69.9079 228.459 70.0657C228.371 70.1068 228.28 70.1473 228.199 70.1906L228.038 70.2726C228.005 70.2879 228.015 70.2808 228.002 70.2895C227.989 70.2982 227.992 70.3241 228.019 70.3349L228.058 70.3469L228.161 70.3557L228.3 70.3628C228.487 70.3695 228.68 70.3677 228.872 70.3582C229.663 70.3072 230.447 70.1736 231.211 69.9598C232.768 69.511 234.247 68.8257 235.596 67.9277C236.402 67.392 237.124 66.7412 237.74 65.996C238.335 65.2641 238.781 64.381 238.683 63.5865C238.632 63.1799 238.459 62.7982 238.187 62.4915C238.042 62.3206 237.884 62.1604 237.715 62.0119C237.624 61.9409 237.536 61.8638 237.444 61.7928L237.158 61.597C236.356 61.1065 235.443 60.8277 234.504 60.7866C233.426 60.7328 232.348 60.8679 231.317 61.186C230.264 61.5042 229.253 61.945 228.304 62.4993C227.347 63.0465 226.464 63.715 225.678 64.4882C225.297 64.8697 224.956 65.29 224.662 65.7423C224.383 66.1845 224.198 66.6656 224.269 67.0783C224.305 67.3569 224.417 67.6203 224.592 67.8403C224.68 67.9384 224.783 68.0218 224.897 68.0875C225.021 68.1551 225.154 68.2049 225.291 68.2355C225.926 68.3407 226.576 68.2975 227.192 68.1093C228.493 67.7724 229.754 67.1556 230.971 66.5155C232.83 65.5603 234.554 64.3615 236.097 62.9508C236.848 62.2514 237.506 61.4586 238.056 60.5918L238.246 60.2739L238.417 59.9375C238.533 59.7233 238.631 59.5003 238.711 59.2705C238.872 58.855 238.902 58.4007 238.799 57.9675C238.702 57.6596 238.514 57.3883 238.259 57.1896C237.976 56.9753 237.66 56.8074 237.324 56.692C236.606 56.4479 235.856 56.3109 235.099 56.2852C234.326 56.2486 233.552 56.2746 232.784 56.3632C232.017 56.4645 231.26 56.6265 230.519 56.8475C229.862 57.0428 229.23 57.2864 228.582 57.5479C227.981 57.7906 227.485 58.0078 227.069 58.1909C226.652 58.3741 226.308 58.5088 226.021 58.6153C225.62 58.7894 225.19 58.8843 224.754 58.8948C224.61 58.9041 224.465 58.9012 224.321 58.886C224.154 58.8353 224.282 58.6496 224.661 58.3315C225.25 57.8621 225.878 57.4444 226.539 57.083C227.861 56.3327 229.261 55.7288 230.714 55.2822C231.089 55.1719 231.469 55.0737 231.858 54.9928C232.251 54.9072 232.649 54.8433 233.049 54.8014C233.851 54.722 234.659 54.7152 235.462 54.7813C236.314 54.8403 237.152 55.0208 237.953 55.3172C238.408 55.4926 238.829 55.7441 239.199 56.0611C239.629 56.4265 239.948 56.905 240.12 57.4423C240.278 57.9651 240.299 58.5197 240.181 59.053C240.083 59.5086 239.925 59.9491 239.71 60.3627C239.334 61.1092 238.874 61.8102 238.338 62.4518C237.558 63.3715 236.681 64.2034 235.721 64.9329C234.782 65.6465 233.795 66.2935 232.766 66.8691C231.747 67.4416 230.698 67.9585 229.623 68.4177C229.07 68.6533 228.503 68.8551 227.925 69.022C227.325 69.2037 226.706 69.3119 226.08 69.3445L226.08 69.3139Z" fill="white"/>
</g>
<path d="M165.593 126.517C187.276 126.517 204.851 108.942 204.851 87.2655C204.851 65.5833 187.276 48.0081 165.593 48.0081C143.911 48.0081 126.336 65.5833 126.336 87.2655C126.336 108.942 143.911 126.517 165.593 126.517Z" fill="white"/>
<path d="M171.524 68.712V89.1923C171.524 92.4778 168.879 95.1232 165.593 95.1232C162.307 95.1232 159.662 92.4778 159.662 89.1923V68.712C159.662 65.4264 162.307 62.7811 165.593 62.7811C168.879 62.7449 171.524 65.4264 171.524 68.712Z" fill="#9FABC8"/>
<path d="M165.593 111.743C168.867 111.743 171.524 109.092 171.524 105.812C171.524 102.539 168.867 99.8813 165.593 99.8813C162.32 99.8813 159.662 102.539 159.662 105.812C159.662 109.092 162.32 111.743 165.593 111.743Z" fill="#9FABC8"/>
<g filter="url(#filter1_d_2414_80714)">
<path d="M82.5821 113.372L98.0734 103.944C101.598 101.794 106.208 102.896 108.356 106.448L117.791 121.928C119.942 125.45 118.84 130.054 115.285 132.2L99.7939 141.631C96.2727 143.781 91.6624 142.676 89.5143 139.128L80.0798 123.647C77.9551 120.129 79.0575 115.525 82.5821 113.372Z" fill="white"/>
<path d="M93.5517 120.83L91.9648 127.38Z" fill="white"/>
<path d="M93.5517 120.83L91.9648 127.38" stroke="#001A4D" stroke-width="2.30898" stroke-linecap="round" stroke-linejoin="round"/>
<path d="M89.4805 123.313L96.0351 124.899Z" fill="white"/>
<path d="M89.4805 123.313L96.0351 124.899" stroke="#001A4D" stroke-width="2.30898" stroke-linecap="round" stroke-linejoin="round"/>
<path d="M103.911 114.517L102.324 121.067Z" fill="white"/>
<path d="M103.911 114.517L102.324 121.067" stroke="#001A4D" stroke-width="2.30898" stroke-linecap="round" stroke-linejoin="round"/>
<path d="M99.8398 117.001L106.421 118.59Z" fill="white"/>
<path d="M99.8398 117.001L106.421 118.59" stroke="#001A4D" stroke-width="2.30898" stroke-linecap="round" stroke-linejoin="round"/>
<path d="M100.291 128.805L103.876 126.605Z" fill="white"/>
<path d="M100.291 128.805L103.876 126.605" stroke="#001A4D" stroke-width="2.30898" stroke-linecap="round" stroke-linejoin="round"/>
</g>
<defs>
<filter id="filter0_d_2414_80714" x="219.26" y="54.7363" width="24.9961" height="27.0869" filterUnits="userSpaceOnUse" color-interpolation-filters="sRGB">
<feFlood flood-opacity="0" result="BackgroundImageFix"/>
<feColorMatrix in="SourceAlpha" type="matrix" values="0 0 0 0 0 0 0 0 0 0 0 0 0 0 0 0 0 0 127 0" result="hardAlpha"/>
<feOffset dy="4"/>
<feGaussianBlur stdDeviation="2"/>
<feComposite in2="hardAlpha" operator="out"/>
<feColorMatrix type="matrix" values="0 0 0 0 0 0 0 0 0 0 0 0 0 0 0 0 0 0 0.25 0"/>
<feBlend mode="normal" in2="BackgroundImageFix" result="effect1_dropShadow_2414_80714"/>
<feBlend mode="normal" in="SourceGraphic" in2="effect1_dropShadow_2414_80714" result="shape"/>
</filter>
<filter id="filter1_d_2414_80714" x="75" y="94.8472" width="51.8887" height="51.8804" filterUnits="userSpaceOnUse" color-interpolation-filters="sRGB">
<feFlood flood-opacity="0" result="BackgroundImageFix"/>
<feColorMatrix in="SourceAlpha" type="matrix" values="0 0 0 0 0 0 0 0 0 0 0 0 0 0 0 0 0 0 127 0" result="hardAlpha"/>
<feOffset dx="2" dy="-2"/>
<feGaussianBlur stdDeviation="3"/>
<feComposite in2="hardAlpha" operator="out"/>
<feColorMatrix type="matrix" values="0 0 0 0 0 0 0 0 0 0 0 0 0 0 0 0 0 0 0.25 0"/>
<feBlend mode="normal" in2="BackgroundImageFix" result="effect1_dropShadow_2414_80714"/>
<feBlend mode="normal" in="SourceGraphic" in2="effect1_dropShadow_2414_80714" result="shape"/>
</filter>
</defs>
</svg>
