<svg width="339" height="169" viewBox="0 0 339 169" fill="none" xmlns="http://www.w3.org/2000/svg">
<path d="M144.505 23.8755L215.783 42.7633C227.359 45.8309 234.329 56.7859 231.363 67.247L213.1 131.662C210.134 142.123 198.36 148.112 186.783 145.044L115.507 126.156C103.929 123.088 96.9581 112.133 99.9242 101.672L118.187 37.2572C121.154 26.7942 132.952 20.8142 144.505 23.8755Z" fill="#000511"/>
<path d="M227.816 67.4355C228.355 67.3319 228.886 67.1878 229.404 67.0043C229.939 66.822 230.449 66.5968 230.957 66.3533C231.144 66.2616 231.326 66.163 231.507 66.0645C231.689 65.966 231.865 65.8585 232.047 65.76C233.334 65.0498 234.558 64.2308 235.706 63.3119C236.213 62.9018 236.692 62.4578 237.139 61.9831C237.423 61.6813 237.695 61.3659 237.951 61.0426C238.206 60.7193 238.48 60.4146 238.715 60.0774C238.866 59.8712 238.942 59.9373 238.932 60.1917C238.929 60.3631 238.903 60.5334 238.856 60.6982C238.832 60.807 238.8 60.9135 238.758 61.0167L238.687 61.1842C238.656 61.2378 238.621 61.2897 238.584 61.3395C238.062 62.0555 237.474 62.7206 236.827 63.3262C236.189 63.934 235.502 64.4889 234.774 64.9853C233.902 65.5769 233.018 66.2154 232.074 66.76C231.038 67.3575 229.938 67.8384 228.796 68.1938C228.075 68.4222 227.327 68.5487 226.572 68.5695C225.976 68.5875 225.383 68.4713 224.838 68.2296C224.551 68.1013 224.291 67.9199 224.071 67.6949C223.833 67.4496 223.677 67.1377 223.622 66.8009C223.56 66.3075 223.65 65.8069 223.879 65.3654C224.072 64.9529 224.332 64.5753 224.649 64.2481C224.781 64.1041 224.923 63.9687 225.073 63.8426C225.647 63.3898 225.905 63.355 226.148 63.4695C226.205 63.4907 226.259 63.5183 226.31 63.5516C226.449 63.6649 226.283 63.9271 225.959 64.2697C225.718 64.52 225.499 64.791 225.306 65.0795C225.116 65.3397 224.955 65.6197 224.826 65.9146C224.718 66.1333 224.675 66.3783 224.701 66.6208C224.729 66.811 224.839 66.9794 225.002 67.0811C225.372 67.3401 225.805 67.4933 226.255 67.5241C226.774 67.5622 227.295 67.5242 227.803 67.4114L227.816 67.4355Z" fill="white"/>
<path d="M230.331 70.181C230.69 70.147 231.045 70.087 231.395 70.0013C231.526 69.9705 231.645 69.911 231.773 69.8795C232.235 69.7709 232.688 69.6256 233.127 69.445C233.32 69.3617 233.506 69.2643 233.685 69.1537C233.803 69.0889 233.908 69.0023 234.029 68.9435C234.151 68.8846 234.268 68.8221 234.391 68.7663C234.466 68.7285 234.501 68.7872 234.492 68.8928C234.474 69.0383 234.412 69.1752 234.316 69.2858C234.292 69.3139 234.27 69.3473 234.244 69.3724L234.156 69.4387L233.98 69.5615C233.859 69.6432 233.737 69.7196 233.612 69.79C233.363 69.9343 233.102 70.0555 232.83 70.1518C232.503 70.264 232.191 70.4437 231.856 70.5583C231.48 70.6782 231.096 70.7726 230.707 70.8409C230.47 70.8821 230.231 70.9149 229.99 70.9347C229.621 70.9649 229.249 70.958 228.881 70.9141C228.588 70.8898 228.299 70.8287 228.021 70.7321C227.957 70.7123 227.896 70.6868 227.837 70.6559C227.63 70.507 227.61 70.3998 227.655 70.2697C227.662 70.2382 227.671 70.2074 227.683 70.1774C227.73 70.0907 227.859 70.0721 228.01 70.0981C228.118 70.1085 228.226 70.1254 228.333 70.1486C228.437 70.1628 228.539 70.1815 228.646 70.1865C228.857 70.2078 229.072 70.2054 229.295 70.2204C229.637 70.2371 229.98 70.221 230.319 70.1722L230.331 70.181Z" fill="white"/>
<path d="M226.08 69.3147C225.74 69.3304 225.399 69.301 225.067 69.2275C224.696 69.1427 224.35 68.9715 224.058 68.7279C223.763 68.4726 223.54 68.1434 223.414 67.774L223.334 67.515L223.286 67.2483C223.256 67.0541 223.252 66.8568 223.274 66.6616C223.384 65.9969 223.662 65.3714 224.081 64.8441C224.443 64.3639 224.842 63.9138 225.277 63.4984C226.127 62.6792 227.077 61.9698 228.104 61.3868C229.126 60.7939 230.215 60.3268 231.35 59.9958C232.187 59.7472 233.052 59.5986 233.925 59.5532C234.827 59.5065 235.73 59.6405 236.58 59.9476C237.343 60.2318 238.041 60.6671 238.631 61.2275C238.943 61.5138 239.211 61.8438 239.427 62.2073C239.654 62.5968 239.794 63.0312 239.836 63.4801C239.875 63.9173 239.826 64.358 239.693 64.7761C239.567 65.1639 239.394 65.5349 239.179 65.8808C238.762 66.543 238.256 67.1451 237.676 67.6702C237.119 68.182 236.518 68.6426 235.878 69.0464C235.245 69.4427 234.587 69.7981 233.908 70.1103C232.553 70.7447 231.105 71.1595 229.62 71.3392C229.286 71.378 228.95 71.3993 228.614 71.4029C228.445 71.4019 228.275 71.3978 228.113 71.3913C227.891 71.3744 227.672 71.3289 227.462 71.2559C227.248 71.1806 227.049 71.0661 226.877 70.9181C226.702 70.7769 226.599 70.5663 226.593 70.3421C226.607 69.8997 226.995 69.5639 227.389 69.3234C227.436 69.2947 227.492 69.2589 227.531 69.2381L227.643 69.1787C227.718 69.1387 227.793 69.0986 227.867 69.0631C228.017 68.9853 228.164 68.9166 228.321 68.8485C228.616 68.7089 228.932 68.591 229.242 68.4762C229.86 68.2488 230.492 68.0599 231.133 67.9106C231.969 67.7054 232.827 67.6013 233.688 67.6006C234.141 67.6038 234.591 67.6642 235.028 67.7802C235.502 67.9034 235.942 68.1317 236.316 68.4483C236.693 68.7893 236.962 69.2338 237.089 69.7264L237.166 70.0832C237.185 70.2119 237.193 70.3418 237.192 70.4718C237.188 70.717 237.153 70.9607 237.089 71.1974C236.971 71.6376 236.781 72.0553 236.527 72.4338C236.286 72.8072 235.999 73.1485 235.672 73.4495C235.245 73.8237 234.973 73.8695 234.952 73.7922C234.93 73.7149 235.089 73.4834 235.289 73.1004C235.555 72.6002 235.747 72.0638 235.858 71.508C235.932 71.1942 235.96 70.8713 235.942 70.5494C235.898 70.2586 235.794 69.9802 235.636 69.732C235.483 69.5126 235.276 69.3352 235.037 69.2159C234.744 69.0762 234.431 68.9849 234.11 68.9456C233.358 68.8623 232.597 68.8911 231.853 69.0312C231.074 69.1679 230.307 69.3692 229.56 69.633C229.18 69.7694 228.81 69.9086 228.459 70.0664C228.371 70.1076 228.28 70.148 228.199 70.1913L228.038 70.2733C228.005 70.2886 228.015 70.2815 228.002 70.2902C227.989 70.299 227.991 70.3249 228.018 70.3356L228.058 70.3476L228.161 70.3564L228.3 70.3636C228.487 70.3703 228.68 70.3684 228.872 70.359C229.663 70.3079 230.447 70.1744 231.211 69.9605C232.768 69.5118 234.247 68.8264 235.596 67.9284C236.402 67.3928 237.124 66.742 237.74 65.9968C238.335 65.2648 238.781 64.3817 238.683 63.5873C238.632 63.1806 238.459 62.799 238.187 62.4922C238.041 62.3214 237.884 62.1611 237.715 62.0126C237.624 61.9417 237.536 61.8645 237.444 61.7936L237.158 61.5978C236.356 61.1072 235.443 60.8284 234.504 60.7874C233.426 60.7335 232.348 60.8687 231.316 61.1868C230.264 61.5049 229.253 61.9457 228.304 62.5C227.347 63.0472 226.464 63.7157 225.678 64.4889C225.297 64.8705 224.956 65.2908 224.662 65.743C224.383 66.1852 224.198 66.6663 224.269 67.079C224.305 67.3576 224.417 67.6211 224.592 67.841C224.68 67.9391 224.783 68.0226 224.897 68.0882C225.021 68.1558 225.153 68.2056 225.291 68.2362C225.926 68.3415 226.576 68.2983 227.192 68.11C228.493 67.7731 229.754 67.1563 230.971 66.5162C232.83 65.5611 234.554 64.3623 236.096 62.9515C236.848 62.2522 237.506 61.4594 238.056 60.5925L238.246 60.2747L238.417 59.9383C238.533 59.7241 238.631 59.501 238.711 59.2712C238.872 58.8558 238.902 58.4014 238.799 57.9682C238.702 57.6603 238.514 57.389 238.259 57.1903C237.976 56.976 237.66 56.8081 237.324 56.6927C236.606 56.4487 235.856 56.3116 235.099 56.2859C234.326 56.2493 233.552 56.2754 232.784 56.3639C232.017 56.4652 231.26 56.6272 230.519 56.8482C229.861 57.0435 229.229 57.2871 228.582 57.5486C227.98 57.7914 227.485 58.0086 227.068 58.1917C226.652 58.3748 226.308 58.5095 226.02 58.616C225.62 58.7901 225.19 58.885 224.754 58.8956C224.61 58.9049 224.465 58.9019 224.32 58.8867C224.154 58.836 224.282 58.6503 224.661 58.3323C225.25 57.8628 225.878 57.4451 226.539 57.0838C227.861 56.3334 229.261 55.7295 230.714 55.2829C231.089 55.1726 231.469 55.0744 231.857 54.9935C232.251 54.908 232.648 54.8441 233.049 54.8022C233.851 54.7227 234.659 54.7159 235.462 54.782C236.314 54.8411 237.152 55.0215 237.953 55.3179C238.408 55.4933 238.829 55.7449 239.199 56.0618C239.629 56.4272 239.948 56.9057 240.12 57.443C240.278 57.9658 240.299 58.5205 240.181 59.0537C240.083 59.5093 239.925 59.9498 239.71 60.3634C239.334 61.11 238.874 61.8109 238.338 62.4525C237.558 63.3722 236.681 64.2041 235.721 64.9336C234.782 65.6472 233.795 66.2942 232.766 66.8698C231.747 67.4423 230.698 67.9593 229.623 68.4185C229.07 68.654 228.503 68.8558 227.925 69.0227C227.325 69.2044 226.706 69.3127 226.08 69.3452L226.08 69.3147Z" fill="white"/>
<path d="M165.593 126.518C187.275 126.518 204.851 108.942 204.851 87.2662C204.851 65.584 187.275 48.0088 165.593 48.0088C143.911 48.0088 126.336 65.584 126.336 87.2662C126.336 108.942 143.911 126.518 165.593 126.518Z" fill="#001A4D"/>
<path d="M171.525 68.7125V89.1928C171.525 92.4783 168.879 95.1237 165.594 95.1237C162.308 95.1237 159.663 92.4783 159.663 89.1928V68.7125C159.663 65.4269 162.308 62.7816 165.594 62.7816C168.879 62.7454 171.525 65.4269 171.525 68.7125Z" fill="#246BFD"/>
<path d="M165.594 111.744C168.867 111.744 171.525 109.092 171.525 105.813C171.525 102.539 168.867 99.8818 165.594 99.8818C162.32 99.8818 159.663 102.539 159.663 105.813C159.663 109.092 162.32 111.744 165.594 111.744Z" fill="#246BFD"/>
<path d="M82.5821 113.372L98.0734 103.945C101.598 101.795 106.208 102.896 108.356 106.448L117.791 121.929C119.942 125.451 118.84 130.054 115.285 132.201L99.7939 141.632C96.2727 143.782 91.6624 142.677 89.5143 139.128L80.0798 123.648C77.9551 120.129 79.0575 115.526 82.5821 113.372Z" fill="#246BFD"/>
<path d="M93.5523 120.83L91.9655 127.38" stroke="#001A4D" stroke-width="2.30898" stroke-linecap="round" stroke-linejoin="round"/>
<path d="M89.4806 123.313L96.0353 124.899" stroke="#001A4D" stroke-width="2.30898" stroke-linecap="round" stroke-linejoin="round"/>
<path d="M103.911 114.518L102.324 121.068" stroke="#001A4D" stroke-width="2.30898" stroke-linecap="round" stroke-linejoin="round"/>
<path d="M99.8394 117.002L106.421 118.591" stroke="#001A4D" stroke-width="2.30898" stroke-linecap="round" stroke-linejoin="round"/>
<path d="M100.29 128.806L103.875 126.606" stroke="#001A4D" stroke-width="2.30898" stroke-linecap="round" stroke-linejoin="round"/>
</svg>
