<svg width="439" height="200" viewBox="0 0 439 200" fill="none" xmlns="http://www.w3.org/2000/svg">
<g clip-path="url(#clip0_1854_26976)">
<path d="M258.483 145.818C263.581 131.183 258.82 114.914 246.679 105.333C246.117 104.886 246.037 104.054 246.482 103.495C246.714 103.172 247.109 102.994 247.487 102.995C262.981 102.983 276.751 93.1267 281.824 78.4706L291.987 49.0718L223.182 25.2179L212.993 54.6441C207.944 69.2764 212.681 85.5206 224.796 95.129C225.36 95.5724 225.439 96.4084 225.021 96.9931C224.79 97.3123 224.395 97.4904 224.013 97.4917C208.522 97.5048 194.75 107.356 189.676 121.968L179.489 151.391L248.294 175.244L258.483 145.818Z" fill="url(#paint0_linear_1854_26976)"/>
<path d="M245.107 154.301L241.973 163.373L191.754 145.979L199.167 124.513C200.067 121.965 201.325 119.544 202.934 117.38L245.107 154.301Z" fill="#0D2147" fill-opacity="0.66"/>
<path opacity="0.2" d="M221.725 133.834L233.134 150.778L230.197 159.302L241.97 163.372L245.104 154.3L221.725 133.834Z" fill="#020A21"/>
<path d="M238.453 92.3688C224.571 87.5499 217.244 72.4156 222.041 58.5621L227.601 45.0755L269.479 81.7417C262.83 91.9444 250.019 96.3514 238.453 92.3688Z" fill="#0D2147" fill-opacity="0.66"/>
<path opacity="0.2" d="M269.47 81.7519L260.544 73.9399C253.907 84.1307 241.096 88.5377 229.53 84.5551C228.178 84.0864 226.87 83.5122 225.634 82.8581C228.711 87.1268 233.075 90.518 238.455 92.3707C250.021 96.3533 262.832 91.9463 269.47 81.7519Z" fill="#020A21"/>
<path d="M173.061 149.158L254.551 177.403" stroke="white" stroke-width="1.52237" stroke-linecap="round" stroke-linejoin="round"/>
<path d="M217.09 23.0312L298.553 51.251" stroke="white" stroke-width="1.52237" stroke-linecap="round" stroke-linejoin="round"/>
<path d="M240.477 71.8671C253.337 83.1277 265.014 84.5489 268.261 80.6865L228.582 45.9472C224.582 53.4182 228.477 61.3606 240.477 71.8671Z" fill="white"/>
<path d="M216.49 144.873C228.731 155.592 245.103 154.3 244.605 153.887L204.011 118.346C202.818 117.566 203.98 133.918 216.49 144.873Z" fill="white"/>
<path d="M162.344 166.691L134.001 176.308" stroke="white" stroke-width="1.59722" stroke-linecap="round" stroke-linejoin="round"/>
<path d="M174.775 175.896L159.432 187.756" stroke="white" stroke-width="1.59722" stroke-linecap="round" stroke-linejoin="round"/>
<path d="M315.792 111.089L316.06 129.025L323.885 112.086L334.676 120.009L327.749 106.814L340.824 93.7631L324.443 100.665L324.517 82L318.125 101.029L305.003 90.8956L314.409 105.598L299 111.234L315.792 111.089Z" fill="#004AD9" fill-opacity="0.9"/>
</g>
<defs>
<linearGradient id="paint0_linear_1854_26976" x1="197.035" y1="100.332" x2="266.177" y2="124.176" gradientUnits="userSpaceOnUse">
<stop stop-color="#197CEC"/>
<stop offset="0.787639" stop-color="#004AD9"/>
</linearGradient>
<clipPath id="clip0_1854_26976">
<rect width="439" height="200" fill="white"/>
</clipPath>
</defs>
</svg>
