<svg width="271" height="197" viewBox="0 0 271 197" fill="none" xmlns="http://www.w3.org/2000/svg">
<ellipse cx="29.89" cy="29.5807" rx="29.89" ry="29.5807" transform="matrix(0.986419 0.164129 -0.156734 0.987622 151.188 22.0181)" fill="#C7D1E3"/>
<path d="M163.541 44.7273C167.149 45.3275 170.79 42.9509 171.323 39.5935" stroke="#1B2D59" stroke-width="1.062" stroke-linecap="round"/>
<path d="M192.527 49.4541C188.935 48.8572 186.229 45.4414 186.76 42.1021" stroke="#1B2D59" stroke-width="1.062" stroke-linecap="round"/>
<path d="M171.998 52.8119C172.53 52.8397 172.99 52.4273 172.923 51.8978C172.792 50.8679 172.379 49.8848 171.718 49.0614C170.854 47.9837 169.627 47.2535 168.267 47.0073C166.907 46.7611 165.506 47.0159 164.328 47.724C163.428 48.2649 162.705 49.042 162.231 49.9625C161.987 50.4358 162.278 50.9844 162.787 51.145V51.145C163.295 51.305 163.824 51.0136 164.107 50.5649C164.414 50.079 164.832 49.6673 165.333 49.3662C166.111 48.8984 167.036 48.73 167.935 48.8927C168.834 49.0554 169.645 49.5379 170.216 50.25C170.583 50.7081 170.835 51.2409 170.957 51.804C171.07 52.3247 171.467 52.7841 171.998 52.8119V52.8119Z" fill="white"/>
<path d="M190.166 55.764C190.698 55.7919 191.158 55.3795 191.091 54.85C190.96 53.82 190.547 52.837 189.886 52.0136C189.022 50.9359 187.795 50.2056 186.435 49.9594C185.075 49.7133 183.674 49.968 182.496 50.6761C181.596 51.217 180.873 51.9942 180.399 52.9147C180.155 53.388 180.446 53.9366 180.955 54.0971V54.0971C181.463 54.2572 181.992 53.9658 182.275 53.517C182.582 53.0312 183 52.6194 183.501 52.3184C184.279 51.8505 185.204 51.6822 186.103 51.8448C187.002 52.0075 187.813 52.4901 188.384 53.2022C188.751 53.6602 189.003 54.193 189.125 54.7562C189.238 55.2768 189.635 55.7362 190.166 55.764V55.764Z" fill="white"/>
<path d="M181.318 63.4673C181.215 64.1074 180.969 64.7173 180.593 65.2622C180.216 65.8071 179.717 66.2762 179.124 66.6429C178.531 67.0096 177.856 67.2666 177.137 67.3993C176.417 67.5319 175.668 67.5376 174.932 67.416C174.196 67.2945 173.487 67.048 172.846 66.6907C172.205 66.3334 171.644 65.8723 171.196 65.3337C170.748 64.7951 170.421 64.1895 170.234 63.5516C170.047 62.9137 170.003 62.2559 170.105 61.6157L175.711 62.5415L181.318 63.4673Z" fill="white"/>
<g filter="url(#filter0_d_2539_50265)">
<path d="M211.434 43.3328C211.946 40.1785 208.611 32.946 207.046 29.7792C206.662 29.0027 205.653 28.8387 205.043 29.4537C202.556 31.962 197.102 37.7662 196.589 40.9206C195.923 45.0199 198.706 48.883 202.805 49.5491C206.905 50.2153 210.768 47.4321 211.434 43.3328Z" fill="white"/>
</g>
<path d="M109.628 155.482C109.628 155.482 110.104 159.927 111.96 161.782C113.815 163.638 118.26 164.114 118.26 164.114C118.26 164.114 113.815 164.59 111.96 166.445C110.104 168.3 109.628 172.746 109.628 172.746C109.628 172.746 109.152 168.3 107.297 166.445C105.442 164.59 100.996 164.114 100.996 164.114C100.996 164.114 105.442 163.638 107.297 161.782C109.152 159.927 109.628 155.482 109.628 155.482Z" fill="#9FABC8"/>
<path d="M139.073 21.1597C139.073 21.1597 139.377 23.9975 140.561 25.1818C141.746 26.3661 144.583 26.6702 144.583 26.6702C144.583 26.6702 141.746 26.9742 140.561 28.1585C139.377 29.3428 139.073 32.1807 139.073 32.1807C139.073 32.1807 138.769 29.3428 137.585 28.1585C136.4 26.9742 133.562 26.6702 133.562 26.6702C133.562 26.6702 136.4 26.3661 137.585 25.1818C138.769 23.9975 139.073 21.1597 139.073 21.1597Z" fill="#9FABC8"/>
<g filter="url(#filter1_f_2539_50265)">
<path d="M139.073 21.1597C139.073 21.1597 139.377 23.9975 140.561 25.1818C141.746 26.3661 144.583 26.6702 144.583 26.6702C144.583 26.6702 141.746 26.9742 140.561 28.1585C139.377 29.3428 139.073 32.1807 139.073 32.1807C139.073 32.1807 138.769 29.3428 137.585 28.1585C136.4 26.9742 133.562 26.6702 133.562 26.6702C133.562 26.6702 136.4 26.3661 137.585 25.1818C138.769 23.9975 139.073 21.1597 139.073 21.1597Z" fill="#9FABC8"/>
</g>
<g opacity="0.96" filter="url(#filter2_d_2539_50265)">
<circle cx="10.2153" cy="78.6961" r="6.11533" transform="rotate(116.773 10.2153 78.6961)" fill="white"/>
</g>
<circle cx="33.4303" cy="8.42912" r="5.8704" transform="rotate(116.773 33.4303 8.42912)" stroke="#9FABC8" stroke-width="0.809421"/>
<circle cx="206.524" cy="138.894" r="5.70274" transform="rotate(-83.9305 206.524 138.894)" fill="#1B2D59"/>
<circle opacity="0.96" cx="220.158" cy="192.973" r="2.2811" transform="rotate(96.0695 220.158 192.973)" fill="white"/>
<circle cx="253.605" cy="167.073" r="8.1782" transform="rotate(-83.9305 253.605 167.073)" stroke="#1B2D59" stroke-width="1.32802"/>
<path d="M119.748 49.319C119.337 48.8412 118.754 48.546 118.126 48.4982L88.2012 46.2288C86.9451 46.1336 85.7025 46.5412 84.7469 47.3621C83.7913 48.183 83.2009 49.3499 83.1057 50.606L78.7954 107.443C78.7001 108.699 79.1077 109.942 79.9286 110.897C80.7495 111.853 81.9164 112.443 83.1726 112.538L125.8 115.771C127.056 115.866 128.299 115.459 129.255 114.638C130.21 113.817 130.8 112.65 130.896 111.394L134.243 67.2602C134.29 66.6321 134.086 66.0109 133.676 65.5332L119.748 49.319Z" fill="#C7D1E3"/>
<path d="M118.056 50.8747L88.0225 48.5971C87.3944 48.5494 86.7731 48.7533 86.2953 49.1637C85.8175 49.5742 85.5223 50.1576 85.4747 50.7857L81.1644 107.622C81.1168 108.251 81.3206 108.872 81.731 109.35C82.1415 109.827 82.7249 110.123 83.353 110.17L125.981 113.403C126.609 113.451 127.23 113.247 127.708 112.836C128.186 112.426 128.481 111.842 128.528 111.214L131.859 67.2914L118.056 50.8747Z" fill="#9FABC8"/>
<path d="M131.858 67.2912L120.941 66.4633C120.41 66.4233 119.892 66.2791 119.416 66.0388C118.941 65.7986 118.518 65.4671 118.17 65.0632C117.823 64.6593 117.559 64.1909 117.393 63.6849C117.227 63.1789 117.162 62.6451 117.202 62.114L118.055 50.8745L131.858 67.2912Z" fill="#C7D1E3"/>
<path d="M107.231 85.0276L105.702 79.6094C105.625 79.3684 105.547 79.0832 105.469 78.754C105.391 78.4247 105.315 78.0699 105.241 77.6894C105.118 78.0549 104.993 78.3981 104.865 78.7192C104.739 79.033 104.619 79.3068 104.505 79.5407L102.189 84.6453L107.231 85.0276ZM111.983 91.4068L109.704 91.2339C109.448 91.2145 109.244 91.1366 109.093 91.0002C108.942 90.8565 108.834 90.6866 108.768 90.4905L107.829 87.1675L101.264 86.6696L99.8352 89.8131C99.764 89.9767 99.6391 90.1216 99.4605 90.2477C99.2819 90.3738 99.0684 90.4274 98.8199 90.4086L96.5183 90.234L103.957 74.8582L106.96 75.086L111.983 91.4068Z" fill="white"/>
<path d="M81.9961 32.4817L82.903 41.5876" stroke="#CCD7F0" stroke-width="1.5" stroke-linecap="round"/>
<path d="M59.9961 49.9817L69.7877 53.4312" stroke="#CCD7F0" stroke-width="1.5" stroke-linecap="round"/>
<path d="M65.8613 35.9689L75.0577 46.7106" stroke="#CCD7F0" stroke-width="1.5" stroke-linecap="round"/>
<defs>
<filter id="filter0_d_2539_50265" x="193.219" y="29.0786" width="18.9215" height="24.4945" filterUnits="userSpaceOnUse" color-interpolation-filters="sRGB">
<feFlood flood-opacity="0" result="BackgroundImageFix"/>
<feColorMatrix in="SourceAlpha" type="matrix" values="0 0 0 0 0 0 0 0 0 0 0 0 0 0 0 0 0 0 127 0" result="hardAlpha"/>
<feOffset dx="-1.30846" dy="1.96269"/>
<feGaussianBlur stdDeviation="0.981344"/>
<feComposite in2="hardAlpha" operator="out"/>
<feColorMatrix type="matrix" values="0 0 0 0 0 0 0 0 0 0 0 0 0 0 0 0 0 0 0.35 0"/>
<feBlend mode="normal" in2="BackgroundImageFix" result="effect1_dropShadow_2539_50265"/>
<feBlend mode="normal" in="SourceGraphic" in2="effect1_dropShadow_2539_50265" result="shape"/>
</filter>
<filter id="filter1_f_2539_50265" x="129.578" y="17.1756" width="18.9896" height="18.9891" filterUnits="userSpaceOnUse" color-interpolation-filters="sRGB">
<feFlood flood-opacity="0" result="BackgroundImageFix"/>
<feBlend mode="normal" in="SourceGraphic" in2="BackgroundImageFix" result="shape"/>
<feGaussianBlur stdDeviation="1.99203" result="effect1_foregroundBlur_2539_50265"/>
</filter>
<filter id="filter2_d_2539_50265" x="0.0976562" y="69.5793" width="20.2344" height="20.2334" filterUnits="userSpaceOnUse" color-interpolation-filters="sRGB">
<feFlood flood-opacity="0" result="BackgroundImageFix"/>
<feColorMatrix in="SourceAlpha" type="matrix" values="0 0 0 0 0 0 0 0 0 0 0 0 0 0 0 0 0 0 127 0" result="hardAlpha"/>
<feOffset dy="1"/>
<feGaussianBlur stdDeviation="2"/>
<feComposite in2="hardAlpha" operator="out"/>
<feColorMatrix type="matrix" values="0 0 0 0 0 0 0 0 0 0 0 0 0 0 0 0 0 0 0.08 0"/>
<feBlend mode="normal" in2="BackgroundImageFix" result="effect1_dropShadow_2539_50265"/>
<feBlend mode="normal" in="SourceGraphic" in2="effect1_dropShadow_2539_50265" result="shape"/>
</filter>
</defs>
</svg>
