<svg width="178" height="35" viewBox="0 0 178 35" fill="none" xmlns="http://www.w3.org/2000/svg">
<path d="M72.398 29.2368H68.2739V15.7943L61.0175 28.56C60.8391 28.8853 60.5872 29.1319 60.2619 29.2998C59.9471 29.4677 59.6061 29.5516 59.2388 29.5516C58.882 29.5516 58.5462 29.4677 58.2314 29.2998C57.9271 29.1319 57.6857 28.8853 57.5073 28.56L50.2194 15.7943V29.2368H46.1268V8.41194C46.1268 7.93972 46.2633 7.51997 46.5361 7.15268C46.8194 6.7854 47.1867 6.5388 47.6379 6.41287C47.8583 6.36041 48.0787 6.34466 48.299 6.36565C48.5194 6.37615 48.7293 6.42337 48.9287 6.50732C49.1385 6.58077 49.3274 6.69096 49.4953 6.83787C49.6632 6.97429 49.8049 7.14219 49.9203 7.34157L59.2388 23.5387L68.5573 7.34157C68.7986 6.94281 69.1292 6.65948 69.5489 6.49158C69.9792 6.32368 70.4252 6.29744 70.8869 6.41287C71.3276 6.5388 71.6897 6.7854 71.973 7.15268C72.2563 7.51997 72.398 7.93972 72.398 8.41194V29.2368ZM99.3145 29.2368H95.2219V23.6961H80.835V29.2368H76.7424V17.9508C76.7424 16.3032 77.0257 14.7869 77.5924 13.4017C78.1591 12.0165 78.9461 10.8255 79.9535 9.8286C80.9609 8.83169 82.1519 8.05515 83.5266 7.49898C84.9013 6.94281 86.4019 6.66472 88.0284 6.66472H97.2525C97.5358 6.66472 97.8034 6.71719 98.0552 6.82213C98.3071 6.92707 98.5275 7.07398 98.7163 7.26287C98.9052 7.45176 99.0521 7.67213 99.1571 7.92398C99.262 8.17583 99.3145 8.44342 99.3145 8.72675V29.2368ZM80.835 19.6035H95.2219V10.7573H88.0284C87.9025 10.7573 87.6349 10.7783 87.2257 10.8203C86.8269 10.8517 86.3599 10.9409 85.8248 11.0878C85.3001 11.2348 84.7439 11.4604 84.1562 11.7647C83.5686 12.069 83.0282 12.4888 82.535 13.0239C82.0418 13.5591 81.6325 14.2307 81.3072 15.0388C80.9924 15.8363 80.835 16.8069 80.835 17.9508V19.6035ZM124.295 29.2368H109.53C109.152 29.2368 108.743 29.1948 108.302 29.1109C107.872 29.0164 107.442 28.8748 107.012 28.6859C106.592 28.497 106.188 28.2556 105.8 27.9618C105.411 27.6575 105.065 27.2955 104.761 26.8757C104.467 26.4455 104.231 25.9523 104.052 25.3961C103.874 24.8294 103.785 24.1946 103.785 23.4915V12.4101C103.785 12.0323 103.827 11.6283 103.911 11.198C104.005 10.7573 104.147 10.327 104.336 9.9073C104.525 9.47705 104.771 9.0678 105.076 8.67953C105.38 8.29126 105.742 7.95021 106.162 7.65639C106.592 7.35207 107.085 7.11071 107.641 6.93232C108.197 6.75392 108.827 6.66472 109.53 6.66472H124.295V10.7573H109.53C108.995 10.7573 108.586 10.899 108.302 11.1823C108.019 11.4656 107.877 11.8854 107.877 12.4415V23.4915C107.877 24.0162 108.019 24.4254 108.302 24.7192C108.596 25.0026 109.005 25.1442 109.53 25.1442H124.295V29.2368ZM132.291 15.8887H146.662V6.66472H150.755V29.2368H146.662V20.0128H132.291V29.2368H128.199V6.66472H132.291V15.8887ZM177.703 29.2368H173.61V23.6961H159.223V29.2368H155.131V17.9508C155.131 16.3032 155.414 14.7869 155.981 13.4017C156.547 12.0165 157.335 10.8255 158.342 9.8286C159.349 8.83169 160.54 8.05515 161.915 7.49898C163.29 6.94281 164.79 6.66472 166.417 6.66472H175.641C175.924 6.66472 176.192 6.71719 176.444 6.82213C176.696 6.92707 176.916 7.07398 177.105 7.26287C177.294 7.45176 177.441 7.67213 177.546 7.92398C177.65 8.17583 177.703 8.44342 177.703 8.72675V29.2368ZM159.223 19.6035H173.61V10.7573H166.417C166.291 10.7573 166.023 10.7783 165.614 10.8203C165.215 10.8517 164.748 10.9409 164.213 11.0878C163.689 11.2348 163.132 11.4604 162.545 11.7647C161.957 12.069 161.417 12.4888 160.923 13.0239C160.43 13.5591 160.021 14.2307 159.696 15.0388C159.381 15.8363 159.223 16.8069 159.223 17.9508V19.6035Z" fill="white"/>
<rect width="35" height="35" rx="4.60526" fill="url(#paint0_linear_2512_32479)"/>
<path d="M17.4416 4.20001C10.1274 4.20001 4.19995 10.1297 4.19995 17.4417C4.19995 24.7536 10.1297 30.6834 17.4416 30.6834C24.7536 30.6834 30.6833 24.7536 30.6833 17.4417C30.6833 10.1297 24.7536 4.20001 17.4416 4.20001ZM17.4416 9.56072C18.757 9.56072 19.8236 10.6273 19.8236 11.9427C19.8236 13.2582 18.757 14.3225 17.4416 14.3225C16.1262 14.3225 15.0596 13.2559 15.0596 11.9427C15.0596 10.6273 16.1262 9.56072 17.4416 9.56072ZM11.9404 25.3226C10.625 25.3226 9.55836 24.256 9.55836 22.9406C9.55836 21.6252 10.625 20.5609 11.9404 20.5609C13.2558 20.5609 14.3224 21.6275 14.3224 22.9406C14.3224 24.256 13.2558 25.3226 11.9404 25.3226ZM9.54684 17.4417C9.54684 16.1263 10.6135 15.0597 11.9289 15.0597C13.2443 15.0597 14.3109 16.1263 14.3109 17.4417C14.3109 18.7571 13.2443 19.8237 11.9289 19.8237C10.6135 19.8237 9.54684 18.7571 9.54684 17.4417ZM11.9404 14.3225C10.625 14.3225 9.55836 13.2559 9.55836 11.9427C9.55836 10.6273 10.625 9.56072 11.9404 9.56072C13.2558 9.56072 14.3224 10.6273 14.3224 11.9427C14.3224 13.2582 13.2558 14.3225 11.9404 14.3225ZM17.4416 15.0597C18.757 15.0597 19.8236 16.1263 19.8236 17.4417C19.8236 18.7571 18.757 19.8237 17.4416 19.8237C16.1262 19.8237 15.0596 18.7571 15.0596 17.4417C15.0596 16.1263 16.1262 15.0597 17.4416 15.0597ZM17.4416 25.3226C16.1262 25.3226 15.0596 24.256 15.0596 22.9406C15.0596 21.6252 16.1262 20.5609 17.4416 20.5609C18.757 20.5609 19.8236 21.6275 19.8236 22.9406C19.8213 24.256 18.7547 25.3226 17.4416 25.3226ZM22.9728 25.3226C21.6574 25.3226 20.5908 24.256 20.5908 22.9406C20.5908 21.6252 21.6574 20.5609 22.9728 20.5609C24.2882 20.5609 25.3548 21.6275 25.3548 22.9406C25.3525 24.256 24.2859 25.3226 22.9728 25.3226ZM20.5723 17.4417C20.5723 16.1263 21.639 15.0597 22.9544 15.0597C24.2698 15.0597 25.3364 16.1263 25.3364 17.4417C25.3364 18.7571 24.2698 19.8237 22.9544 19.8237C21.639 19.8237 20.5723 18.7571 20.5723 17.4417ZM22.9728 14.3225C21.6574 14.3225 20.5908 13.2559 20.5908 11.9427C20.5908 10.6273 21.6574 9.56072 22.9728 9.56072C24.2882 9.56072 25.3548 10.6273 25.3548 11.9427C25.3525 13.2582 24.2859 14.3225 22.9728 14.3225Z" fill="white"/>
<path d="M12.0471 12.5368C12.3179 12.5368 12.5375 12.3173 12.5375 12.0464C12.5375 11.7755 12.3179 11.556 12.0471 11.556C11.7762 11.556 11.5566 11.7755 11.5566 12.0464C11.5566 12.3173 11.7762 12.5368 12.0471 12.5368Z" fill="white"/>
<path d="M17.4415 12.5368C17.7123 12.5368 17.9319 12.3173 17.9319 12.0464C17.9319 11.7755 17.7123 11.556 17.4415 11.556C17.1706 11.556 16.951 11.7755 16.951 12.0464C16.951 12.3173 17.1706 12.5368 17.4415 12.5368Z" fill="white"/>
<path d="M17.4415 17.9314C17.7123 17.9314 17.9319 17.7118 17.9319 17.4409C17.9319 17.1701 17.7123 16.9505 17.4415 16.9505C17.1706 16.9505 16.951 17.1701 16.951 17.4409C16.951 17.7118 17.1706 17.9314 17.4415 17.9314Z" fill="white"/>
<path d="M17.4415 23.3266C17.7123 23.3266 17.9319 23.1071 17.9319 22.8362C17.9319 22.5653 17.7123 22.3458 17.4415 22.3458C17.1706 22.3458 16.951 22.5653 16.951 22.8362C16.951 23.1071 17.1706 23.3266 17.4415 23.3266Z" fill="white"/>
<path d="M12.0471 23.3266C12.3179 23.3266 12.5375 23.1071 12.5375 22.8362C12.5375 22.5653 12.3179 22.3458 12.0471 22.3458C11.7762 22.3458 11.5566 22.5653 11.5566 22.8362C11.5566 23.1071 11.7762 23.3266 12.0471 23.3266Z" fill="white"/>
<path d="M22.8364 12.5368C23.1072 12.5368 23.3268 12.3173 23.3268 12.0464C23.3268 11.7755 23.1072 11.556 22.8364 11.556C22.5655 11.556 22.3459 11.7755 22.3459 12.0464C22.3459 12.3173 22.5655 12.5368 22.8364 12.5368Z" fill="white"/>
<path d="M22.8364 23.3266C23.1072 23.3266 23.3268 23.1071 23.3268 22.8362C23.3268 22.5653 23.1072 22.3458 22.8364 22.3458C22.5655 22.3458 22.3459 22.5653 22.3459 22.8362C22.3459 23.1071 22.5655 23.3266 22.8364 23.3266Z" fill="white"/>
<defs>
<linearGradient id="paint0_linear_2512_32479" x1="2.29779e-07" y1="2.51634" x2="39.2252" y2="11.188" gradientUnits="userSpaceOnUse">
<stop stop-color="#197CEC"/>
<stop offset="0.608737" stop-color="#004AD9"/>
</linearGradient>
</defs>
</svg>
