<svg width="191" height="38" viewBox="0 0 191 38" fill="none" xmlns="http://www.w3.org/2000/svg">
<path d="M77.4358 30.3267H73.0248V15.9488L65.2635 29.6027C65.0726 29.9507 64.8033 30.2144 64.4553 30.394C64.1186 30.5736 63.7538 30.6634 63.361 30.6634C62.9794 30.6634 62.6202 30.5736 62.2835 30.394C61.958 30.2144 61.6999 29.9507 61.509 29.6027L53.714 15.9488V30.3267H49.3367V8.05272C49.3367 7.54764 49.4826 7.09868 49.7744 6.70584C50.0774 6.313 50.4703 6.04924 50.9529 5.91455C51.1886 5.85843 51.4243 5.8416 51.66 5.86404C51.8957 5.87527 52.1202 5.92578 52.3335 6.01557C52.5579 6.09413 52.76 6.21199 52.9396 6.36912C53.1191 6.51503 53.2707 6.69462 53.3941 6.90787L63.361 24.2321L73.3279 6.90787C73.586 6.48136 73.9396 6.17831 74.3885 5.99873C74.8487 5.81915 75.3257 5.79109 75.8196 5.91455C76.291 6.04924 76.6782 6.313 76.9813 6.70584C77.2843 7.09868 77.4358 7.54764 77.4358 8.05272V30.3267ZM106.225 30.3267H101.848V24.4004H86.4599V30.3267H82.0826V18.2553C82.0826 16.4931 82.3856 14.8713 82.9917 13.3897C83.5978 11.9081 84.4396 10.6342 85.5171 9.56795C86.5946 8.50167 87.8685 7.6711 89.3388 7.07623C90.8092 6.48136 92.4142 6.18393 94.1539 6.18393H104.02C104.323 6.18393 104.609 6.24005 104.878 6.35229C105.148 6.46453 105.383 6.62166 105.586 6.82369C105.788 7.02572 105.945 7.26143 106.057 7.5308C106.169 7.80018 106.225 8.08639 106.225 8.38943V30.3267ZM86.4599 20.0231H101.848V10.5613H94.1539C94.0192 10.5613 93.733 10.5837 93.2953 10.6286C92.8688 10.6623 92.3693 10.7577 91.7969 10.9148C91.2357 11.072 90.6408 11.3133 90.0123 11.6388C89.3837 11.9643 88.8057 12.4132 88.2782 12.9856C87.7507 13.5581 87.3129 14.2764 86.965 15.1406C86.6283 15.9937 86.4599 17.0319 86.4599 18.2553V20.0231ZM132.944 30.3267H117.152C116.748 30.3267 116.31 30.2818 115.839 30.192C115.378 30.091 114.918 29.9394 114.458 29.7374C114.009 29.5354 113.577 29.2772 113.162 28.9629C112.746 28.6375 112.376 28.2502 112.051 27.8013C111.736 27.3411 111.484 26.8136 111.293 26.2187C111.102 25.6126 111.007 24.9335 111.007 24.1815V12.329C111.007 11.925 111.052 11.4929 111.141 11.0327C111.242 10.5613 111.394 10.1011 111.596 9.65213C111.798 9.19195 112.062 8.75421 112.387 8.33893C112.713 7.92364 113.1 7.55886 113.549 7.24459C114.009 6.9191 114.537 6.66094 115.132 6.47014C115.726 6.27933 116.4 6.18393 117.152 6.18393H132.944V10.5613H117.152C116.579 10.5613 116.142 10.7128 115.839 11.0158C115.536 11.3189 115.384 11.7678 115.384 12.3627V24.1815C115.384 24.7427 115.536 25.1805 115.839 25.4947C116.153 25.7978 116.591 25.9493 117.152 25.9493H132.944V30.3267ZM141.497 16.0498H156.868V6.18393H161.245V30.3267H156.868V20.4608H141.497V30.3267H137.119V6.18393H141.497V16.0498ZM190.068 30.3267H185.691V24.4004H170.303V30.3267H165.926V18.2553C165.926 16.4931 166.229 14.8713 166.835 13.3897C167.441 11.9081 168.283 10.6342 169.36 9.56795C170.438 8.50167 171.711 7.6711 173.182 7.07623C174.652 6.48136 176.257 6.18393 177.997 6.18393H187.863C188.166 6.18393 188.452 6.24005 188.721 6.35229C188.991 6.46453 189.226 6.62166 189.429 6.82369C189.631 7.02572 189.788 7.26143 189.9 7.5308C190.012 7.80018 190.068 8.08639 190.068 8.38943V30.3267ZM170.303 20.0231H185.691V10.5613H177.997C177.862 10.5613 177.576 10.5837 177.138 10.6286C176.712 10.6623 176.212 10.7577 175.64 10.9148C175.079 11.072 174.484 11.3133 173.855 11.6388C173.227 11.9643 172.649 12.4132 172.121 12.9856C171.594 13.5581 171.156 14.2764 170.808 15.1406C170.471 15.9937 170.303 17.0319 170.303 18.2553V20.0231Z" fill="white"/>
<rect y="0.282227" width="37.4354" height="37.4354" rx="4.92571" fill="url(#paint0_linear_1784_59616)"/>
<path d="M18.6553 4.77441C10.8321 4.77441 4.49219 11.1167 4.49219 18.9375C4.49219 26.7582 10.8345 33.1006 18.6553 33.1006C26.476 33.1006 32.8183 26.7582 32.8183 18.9375C32.8183 11.1167 26.476 4.77441 18.6553 4.77441ZM18.6553 10.5081C20.0622 10.5081 21.203 11.649 21.203 13.0559C21.203 14.4629 20.0622 15.6012 18.6553 15.6012C17.2483 15.6012 16.1075 14.4604 16.1075 13.0559C16.1075 11.649 17.2483 10.5081 18.6553 10.5081ZM12.7712 27.3668C11.3643 27.3668 10.2235 26.226 10.2235 24.819C10.2235 23.4121 11.3643 22.2737 12.7712 22.2737C14.1782 22.2737 15.319 23.4146 15.319 24.819C15.319 26.226 14.1782 27.3668 12.7712 27.3668ZM10.2111 18.9375C10.2111 17.5305 11.352 16.3897 12.7589 16.3897C14.1659 16.3897 15.3067 17.5305 15.3067 18.9375C15.3067 20.3444 14.1659 21.4853 12.7589 21.4853C11.352 21.4853 10.2111 20.3444 10.2111 18.9375ZM12.7712 15.6012C11.3643 15.6012 10.2235 14.4604 10.2235 13.0559C10.2235 11.649 11.3643 10.5081 12.7712 10.5081C14.1782 10.5081 15.319 11.649 15.319 13.0559C15.319 14.4629 14.1782 15.6012 12.7712 15.6012ZM18.6553 16.3897C20.0622 16.3897 21.203 17.5305 21.203 18.9375C21.203 20.3444 20.0622 21.4853 18.6553 21.4853C17.2483 21.4853 16.1075 20.3444 16.1075 18.9375C16.1075 17.5305 17.2483 16.3897 18.6553 16.3897ZM18.6553 27.3668C17.2483 27.3668 16.1075 26.226 16.1075 24.819C16.1075 23.4121 17.2483 22.2737 18.6553 22.2737C20.0622 22.2737 21.203 23.4146 21.203 24.819C21.2006 26.226 20.0597 27.3668 18.6553 27.3668ZM24.5713 27.3668C23.1644 27.3668 22.0235 26.226 22.0235 24.819C22.0235 23.4121 23.1644 22.2737 24.5713 22.2737C25.9783 22.2737 27.1191 23.4146 27.1191 24.819C27.1166 26.226 25.9758 27.3668 24.5713 27.3668ZM22.0038 18.9375C22.0038 17.5305 23.1447 16.3897 24.5516 16.3897C25.9586 16.3897 27.0994 17.5305 27.0994 18.9375C27.0994 20.3444 25.9586 21.4853 24.5516 21.4853C23.1447 21.4853 22.0038 20.3444 22.0038 18.9375ZM24.5713 15.6012C23.1644 15.6012 22.0235 14.4604 22.0235 13.0559C22.0235 11.649 23.1644 10.5081 24.5713 10.5081C25.9783 10.5081 27.1191 11.649 27.1191 13.0559C27.1166 14.4629 25.9758 15.6012 24.5713 15.6012Z" fill="white"/>
<path d="M12.8854 13.6912C13.1751 13.6912 13.41 13.4564 13.41 13.1666C13.41 12.8769 13.1751 12.6421 12.8854 12.6421C12.5957 12.6421 12.3608 12.8769 12.3608 13.1666C12.3608 13.4564 12.5957 13.6912 12.8854 13.6912Z" fill="white"/>
<path d="M18.6549 13.6912C18.9446 13.6912 19.1795 13.4564 19.1795 13.1666C19.1795 12.8769 18.9446 12.6421 18.6549 12.6421C18.3652 12.6421 18.1304 12.8769 18.1304 13.1666C18.1304 13.4564 18.3652 13.6912 18.6549 13.6912Z" fill="white"/>
<path d="M18.6549 19.4612C18.9446 19.4612 19.1795 19.2264 19.1795 18.9367C19.1795 18.647 18.9446 18.4121 18.6549 18.4121C18.3652 18.4121 18.1304 18.647 18.1304 18.9367C18.1304 19.2264 18.3652 19.4612 18.6549 19.4612Z" fill="white"/>
<path d="M18.6549 25.2317C18.9446 25.2317 19.1795 24.9969 19.1795 24.7072C19.1795 24.4175 18.9446 24.1826 18.6549 24.1826C18.3652 24.1826 18.1304 24.4175 18.1304 24.7072C18.1304 24.9969 18.3652 25.2317 18.6549 25.2317Z" fill="white"/>
<path d="M12.8854 25.2317C13.1751 25.2317 13.41 24.9969 13.41 24.7072C13.41 24.4175 13.1751 24.1826 12.8854 24.1826C12.5957 24.1826 12.3608 24.4175 12.3608 24.7072C12.3608 24.9969 12.5957 25.2317 12.8854 25.2317Z" fill="white"/>
<path d="M24.4254 13.6912C24.7151 13.6912 24.95 13.4564 24.95 13.1666C24.95 12.8769 24.7151 12.6421 24.4254 12.6421C24.1357 12.6421 23.9009 12.8769 23.9009 13.1666C23.9009 13.4564 24.1357 13.6912 24.4254 13.6912Z" fill="white"/>
<path d="M24.4254 25.2317C24.7151 25.2317 24.95 24.9969 24.95 24.7072C24.95 24.4175 24.7151 24.1826 24.4254 24.1826C24.1357 24.1826 23.9009 24.4175 23.9009 24.7072C23.9009 24.9969 24.1357 25.2317 24.4254 25.2317Z" fill="white"/>
<defs>
<linearGradient id="paint0_linear_1784_59616" x1="2.45768e-07" y1="2.97366" x2="41.9546" y2="12.2487" gradientUnits="userSpaceOnUse">
<stop stop-color="#197CEC"/>
<stop offset="0.608737" stop-color="#004AD9"/>
</linearGradient>
</defs>
</svg>
