<svg width="1264" height="294" viewBox="0 0 1264 294" fill="none" xmlns="http://www.w3.org/2000/svg">
<path d="M525.423 220.594H499.167V135.012L452.969 216.285C451.833 218.356 450.23 219.926 448.159 220.995C446.155 222.064 443.983 222.598 441.645 222.598C439.374 222.598 437.236 222.064 435.231 220.995C433.294 219.926 431.757 218.356 430.622 216.285L384.223 135.012V220.594H358.168V88.0128C358.168 85.0065 359.037 82.3342 360.774 79.9959C362.578 77.6576 364.916 76.0876 367.789 75.2859C369.192 74.9518 370.595 74.8516 371.997 74.9852C373.4 75.0521 374.737 75.3527 376.006 75.8872C377.342 76.3548 378.545 77.0563 379.614 77.9916C380.683 78.8601 381.584 79.9291 382.319 81.1984L441.645 184.317L500.971 81.1984C502.507 78.6597 504.612 76.8559 507.284 75.7869C510.023 74.718 512.863 74.551 515.802 75.2859C518.608 76.0876 520.913 77.6576 522.717 79.9959C524.521 82.3342 525.423 85.0065 525.423 88.0128V220.594ZM696.786 220.594H670.73V185.319H579.136V220.594H553.081V148.742C553.081 138.253 554.885 128.599 558.493 119.78C562.1 110.961 567.111 103.379 573.524 97.032C579.938 90.6852 587.521 85.7414 596.273 82.2005C605.025 78.6597 614.578 76.8893 624.933 76.8893H683.658C685.462 76.8893 687.165 77.2233 688.769 77.8914C690.372 78.5595 691.775 79.4948 692.978 80.6974C694.18 81.8999 695.115 83.3029 695.784 84.9063C696.452 86.5097 696.786 88.2133 696.786 90.0171V220.594ZM579.136 159.264H670.73V102.944H624.933C624.132 102.944 622.428 103.078 619.823 103.345C617.284 103.546 614.311 104.114 610.904 105.049C607.563 105.984 604.022 107.421 600.281 109.358C596.54 111.296 593.099 113.968 589.959 117.375C586.819 120.782 584.214 125.058 582.143 130.202C580.138 135.28 579.136 141.459 579.136 148.742V159.264ZM855.823 220.594H761.823C759.418 220.594 756.813 220.327 754.007 219.792C751.268 219.191 748.529 218.289 745.789 217.086C743.117 215.884 740.545 214.347 738.073 212.477C735.601 210.539 733.397 208.234 731.459 205.562C729.588 202.823 728.085 199.683 726.95 196.142C725.814 192.534 725.246 188.492 725.246 184.016V113.467C725.246 111.062 725.513 108.49 726.048 105.75C726.649 102.944 727.551 100.205 728.753 97.533C729.956 94.7939 731.526 92.1884 733.463 89.7165C735.401 87.2446 737.706 85.0733 740.378 83.2027C743.117 81.2652 746.257 79.7286 749.798 78.5929C753.339 77.4572 757.347 76.8893 761.823 76.8893H855.823V102.944H761.823C758.416 102.944 755.811 103.846 754.007 105.65C752.203 107.454 751.301 110.126 751.301 113.667V184.016C751.301 187.357 752.203 189.962 754.007 191.833C755.877 193.637 758.483 194.539 761.823 194.539H855.823V220.594ZM906.73 135.614H998.224V76.8893H1024.28V220.594H998.224V161.869H906.73V220.594H880.675V76.8893H906.73V135.614ZM1195.84 220.594H1169.79V185.319H1078.19V220.594H1052.14V148.742C1052.14 138.253 1053.94 128.599 1057.55 119.78C1061.16 110.961 1066.17 103.379 1072.58 97.032C1079 90.6852 1086.58 85.7414 1095.33 82.2005C1104.08 78.6597 1113.64 76.8893 1123.99 76.8893H1182.72C1184.52 76.8893 1186.22 77.2233 1187.83 77.8914C1189.43 78.5595 1190.83 79.4948 1192.03 80.6974C1193.24 81.8999 1194.17 83.3029 1194.84 84.9063C1195.51 86.5097 1195.84 88.2133 1195.84 90.0171V220.594ZM1078.19 159.264H1169.79V102.944H1123.99C1123.19 102.944 1121.49 103.078 1118.88 103.345C1116.34 103.546 1113.37 104.114 1109.96 105.049C1106.62 105.984 1103.08 107.421 1099.34 109.358C1095.6 111.296 1092.16 113.968 1089.02 117.375C1085.88 120.782 1083.27 125.058 1081.2 130.202C1079.2 135.28 1078.19 141.459 1078.19 148.742V159.264Z" fill="black"/>
<rect x="64.5" y="35.1816" width="222.826" height="222.826" rx="29.3193" fill="url(#paint0_linear_2684_31376)"/>
<path d="M175.536 61.9238C128.97 61.9238 91.2334 99.6752 91.2334 146.226C91.2334 192.778 128.985 230.529 175.536 230.529C222.087 230.529 259.839 192.778 259.839 146.226C259.839 99.6752 222.087 61.9238 175.536 61.9238ZM175.536 96.0526C183.911 96.0526 190.701 102.843 190.701 111.218C190.701 119.592 183.911 126.368 175.536 126.368C167.162 126.368 160.371 119.578 160.371 111.218C160.371 102.843 167.162 96.0526 175.536 96.0526ZM140.513 196.4C132.138 196.4 125.348 189.61 125.348 181.235C125.348 172.861 132.138 166.085 140.513 166.085C148.887 166.085 155.678 172.875 155.678 181.235C155.678 189.61 148.887 196.4 140.513 196.4ZM125.274 146.226C125.274 137.852 132.065 131.061 140.439 131.061C148.814 131.061 155.604 137.852 155.604 146.226C155.604 154.601 148.814 161.392 140.439 161.392C132.065 161.392 125.274 154.601 125.274 146.226ZM140.513 126.368C132.138 126.368 125.348 119.578 125.348 111.218C125.348 102.843 132.138 96.0526 140.513 96.0526C148.887 96.0526 155.678 102.843 155.678 111.218C155.678 119.592 148.887 126.368 140.513 126.368ZM175.536 131.061C183.911 131.061 190.701 137.852 190.701 146.226C190.701 154.601 183.911 161.392 175.536 161.392C167.162 161.392 160.371 154.601 160.371 146.226C160.371 137.852 167.162 131.061 175.536 131.061ZM175.536 196.4C167.162 196.4 160.371 189.61 160.371 181.235C160.371 172.861 167.162 166.085 175.536 166.085C183.911 166.085 190.701 172.875 190.701 181.235C190.686 189.61 183.896 196.4 175.536 196.4ZM210.75 196.4C202.376 196.4 195.585 189.61 195.585 181.235C195.585 172.861 202.376 166.085 210.75 166.085C219.125 166.085 225.915 172.875 225.915 181.235C225.901 189.61 219.11 196.4 210.75 196.4ZM195.468 146.226C195.468 137.852 202.258 131.061 210.633 131.061C219.007 131.061 225.798 137.852 225.798 146.226C225.798 154.601 219.007 161.392 210.633 161.392C202.258 161.392 195.468 154.601 195.468 146.226ZM210.75 126.368C202.376 126.368 195.585 119.578 195.585 111.218C195.585 102.843 202.376 96.0526 210.75 96.0526C219.125 96.0526 225.915 102.843 225.915 111.218C225.901 119.592 219.11 126.368 210.75 126.368Z" fill="white"/>
<path d="M141.192 115.002C142.916 115.002 144.314 113.605 144.314 111.88C144.314 110.156 142.916 108.758 141.192 108.758C139.467 108.758 138.069 110.156 138.069 111.88C138.069 113.605 139.467 115.002 141.192 115.002Z" fill="white"/>
<path d="M175.538 115.002C177.263 115.002 178.661 113.605 178.661 111.88C178.661 110.156 177.263 108.758 175.538 108.758C173.814 108.758 172.416 110.156 172.416 111.88C172.416 113.605 173.814 115.002 175.538 115.002Z" fill="white"/>
<path d="M175.538 149.344C177.263 149.344 178.661 147.946 178.661 146.222C178.661 144.498 177.263 143.1 175.538 143.1C173.814 143.1 172.416 144.498 172.416 146.222C172.416 147.946 173.814 149.344 175.538 149.344Z" fill="white"/>
<path d="M175.538 183.692C177.263 183.692 178.661 182.294 178.661 180.57C178.661 178.845 177.263 177.447 175.538 177.447C173.814 177.447 172.416 178.845 172.416 180.57C172.416 182.294 173.814 183.692 175.538 183.692Z" fill="white"/>
<path d="M141.192 183.692C142.916 183.692 144.314 182.294 144.314 180.57C144.314 178.845 142.916 177.447 141.192 177.447C139.467 177.447 138.069 178.845 138.069 180.57C138.069 182.294 139.467 183.692 141.192 183.692Z" fill="white"/>
<path d="M209.884 115.002C211.608 115.002 213.006 113.605 213.006 111.88C213.006 110.156 211.608 108.758 209.884 108.758C208.16 108.758 206.762 110.156 206.762 111.88C206.762 113.605 208.16 115.002 209.884 115.002Z" fill="white"/>
<path d="M209.884 183.692C211.608 183.692 213.006 182.294 213.006 180.57C213.006 178.845 211.608 177.447 209.884 177.447C208.16 177.447 206.762 178.845 206.762 180.57C206.762 182.294 208.16 183.692 209.884 183.692Z" fill="white"/>
<defs>
<linearGradient id="paint0_linear_2684_31376" x1="64.5" y1="51.2018" x2="314.226" y2="106.41" gradientUnits="userSpaceOnUse">
<stop stop-color="#197CEC"/>
<stop offset="0.608737" stop-color="#004AD9"/>
</linearGradient>
</defs>
</svg>
