<svg width="205" height="35" viewBox="0 0 205 35" fill="none" xmlns="http://www.w3.org/2000/svg">
<rect width="35" height="35" rx="2" fill="url(#paint0_linear_67_2935)"/>
<path d="M17.4416 4.19995C10.1274 4.19995 4.19995 10.1297 4.19995 17.4416C4.19995 24.7536 10.1297 30.6833 17.4416 30.6833C24.7536 30.6833 30.6833 24.7536 30.6833 17.4416C30.6833 10.1297 24.7536 4.19995 17.4416 4.19995ZM17.4416 9.56066C18.757 9.56066 19.8236 10.6273 19.8236 11.9427C19.8236 13.2581 18.757 14.3224 17.4416 14.3224C16.1262 14.3224 15.0596 13.2558 15.0596 11.9427C15.0596 10.6273 16.1262 9.56066 17.4416 9.56066ZM11.9404 25.3226C10.625 25.3226 9.55836 24.256 9.55836 22.9405C9.55836 21.6251 10.625 20.5608 11.9404 20.5608C13.2558 20.5608 14.3224 21.6274 14.3224 22.9405C14.3224 24.256 13.2558 25.3226 11.9404 25.3226ZM9.54684 17.4416C9.54684 16.1262 10.6135 15.0596 11.9289 15.0596C13.2443 15.0596 14.3109 16.1262 14.3109 17.4416C14.3109 18.757 13.2443 19.8236 11.9289 19.8236C10.6135 19.8236 9.54684 18.757 9.54684 17.4416ZM11.9404 14.3224C10.625 14.3224 9.55836 13.2558 9.55836 11.9427C9.55836 10.6273 10.625 9.56066 11.9404 9.56066C13.2558 9.56066 14.3224 10.6273 14.3224 11.9427C14.3224 13.2581 13.2558 14.3224 11.9404 14.3224ZM17.4416 15.0596C18.757 15.0596 19.8236 16.1262 19.8236 17.4416C19.8236 18.757 18.757 19.8236 17.4416 19.8236C16.1262 19.8236 15.0596 18.757 15.0596 17.4416C15.0596 16.1262 16.1262 15.0596 17.4416 15.0596ZM17.4416 25.3226C16.1262 25.3226 15.0596 24.256 15.0596 22.9405C15.0596 21.6251 16.1262 20.5608 17.4416 20.5608C18.757 20.5608 19.8236 21.6274 19.8236 22.9405C19.8213 24.256 18.7547 25.3226 17.4416 25.3226ZM22.9728 25.3226C21.6574 25.3226 20.5908 24.256 20.5908 22.9405C20.5908 21.6251 21.6574 20.5608 22.9728 20.5608C24.2882 20.5608 25.3548 21.6274 25.3548 22.9405C25.3525 24.256 24.2859 25.3226 22.9728 25.3226ZM20.5723 17.4416C20.5723 16.1262 21.639 15.0596 22.9544 15.0596C24.2698 15.0596 25.3364 16.1262 25.3364 17.4416C25.3364 18.757 24.2698 19.8236 22.9544 19.8236C21.639 19.8236 20.5723 18.757 20.5723 17.4416ZM22.9728 14.3224C21.6574 14.3224 20.5908 13.2558 20.5908 11.9427C20.5908 10.6273 21.6574 9.56066 22.9728 9.56066C24.2882 9.56066 25.3548 10.6273 25.3548 11.9427C25.3525 13.2581 24.2859 14.3224 22.9728 14.3224Z" fill="white"/>
<path d="M12.0468 12.537C12.3177 12.537 12.5373 12.3174 12.5373 12.0466C12.5373 11.7757 12.3177 11.5562 12.0468 11.5562C11.776 11.5562 11.5564 11.7757 11.5564 12.0466C11.5564 12.3174 11.776 12.537 12.0468 12.537Z" fill="white"/>
<path d="M17.4416 12.537C17.7125 12.537 17.932 12.3174 17.932 12.0466C17.932 11.7757 17.7125 11.5562 17.4416 11.5562C17.1707 11.5562 16.9512 11.7757 16.9512 12.0466C16.9512 12.3174 17.1707 12.537 17.4416 12.537Z" fill="white"/>
<path d="M17.4416 17.9313C17.7125 17.9313 17.932 17.7117 17.932 17.4409C17.932 17.17 17.7125 16.9504 17.4416 16.9504C17.1707 16.9504 16.9512 17.17 16.9512 17.4409C16.9512 17.7117 17.1707 17.9313 17.4416 17.9313Z" fill="white"/>
<path d="M17.4416 23.3268C17.7125 23.3268 17.932 23.1072 17.932 22.8364C17.932 22.5655 17.7125 22.3459 17.4416 22.3459C17.1707 22.3459 16.9512 22.5655 16.9512 22.8364C16.9512 23.1072 17.1707 23.3268 17.4416 23.3268Z" fill="white"/>
<path d="M12.0468 23.3268C12.3177 23.3268 12.5373 23.1072 12.5373 22.8364C12.5373 22.5655 12.3177 22.3459 12.0468 22.3459C11.776 22.3459 11.5564 22.5655 11.5564 22.8364C11.5564 23.1072 11.776 23.3268 12.0468 23.3268Z" fill="white"/>
<path d="M22.8364 12.537C23.1072 12.537 23.3268 12.3174 23.3268 12.0466C23.3268 11.7757 23.1072 11.5562 22.8364 11.5562C22.5655 11.5562 22.3459 11.7757 22.3459 12.0466C22.3459 12.3174 22.5655 12.537 22.8364 12.537Z" fill="white"/>
<path d="M22.8364 23.3268C23.1072 23.3268 23.3268 23.1072 23.3268 22.8364C23.3268 22.5655 23.1072 22.3459 22.8364 22.3459C22.5655 22.3459 22.3459 22.5655 22.3459 22.8364C22.3459 23.1072 22.5655 23.3268 22.8364 23.3268Z" fill="white"/>
<path d="M69.3481 27.5H65.7904V15.9034L59.5304 26.9161C59.3765 27.1967 59.1593 27.4095 58.8786 27.5543C58.6071 27.6992 58.3128 27.7716 57.996 27.7716C57.6882 27.7716 57.3985 27.6992 57.1269 27.5543C56.8644 27.4095 56.6562 27.1967 56.5023 26.9161L50.2152 15.9034V27.5H46.6846V9.53485C46.6846 9.12748 46.8023 8.76537 47.0377 8.44852C47.2821 8.13168 47.5989 7.91894 47.9882 7.8103C48.1783 7.76504 48.3684 7.75146 48.5585 7.76957C48.7486 7.77862 48.9297 7.81936 49.1017 7.89178C49.2827 7.95515 49.4457 8.0502 49.5905 8.17694C49.7354 8.29462 49.8576 8.43947 49.9572 8.61147L57.996 22.5844L66.0348 8.61147C66.243 8.26747 66.5282 8.02304 66.8903 7.8782C67.2615 7.73335 67.6462 7.71072 68.0445 7.8103C68.4247 7.91894 68.7371 8.13168 68.9815 8.44852C69.2259 8.76537 69.3481 9.12748 69.3481 9.53485V27.5ZM92.2903 27.5H88.7597V22.7202H76.3484V27.5H72.8179V17.7638C72.8179 16.3425 73.0623 15.0344 73.5511 13.8394C74.04 12.6445 74.7189 11.617 75.588 10.757C76.4571 9.89696 77.4845 9.22706 78.6705 8.74726C79.8564 8.26747 81.1509 8.02757 82.5541 8.02757H90.5114C90.7559 8.02757 90.9867 8.07283 91.204 8.16336C91.4212 8.25389 91.6113 8.38063 91.7743 8.54357C91.9372 8.70652 92.064 8.89663 92.1545 9.1139C92.245 9.33116 92.2903 9.56201 92.2903 9.80643V27.5ZM76.3484 19.1896H88.7597V11.5581H82.5541C82.4454 11.5581 82.2146 11.5762 81.8615 11.6125C81.5175 11.6396 81.1147 11.7166 80.653 11.8433C80.2004 11.97 79.7206 12.1647 79.2136 12.4272C78.7067 12.6897 78.2404 13.0518 77.815 13.5135C77.3895 13.9752 77.0364 14.5546 76.7558 15.2517C76.4842 15.9397 76.3484 16.777 76.3484 17.7638V19.1896ZM113.562 27.5H100.825C100.499 27.5 100.146 27.4638 99.7659 27.3914C99.3947 27.3099 99.0235 27.1877 98.6524 27.0247C98.2903 26.8618 97.9417 26.6536 97.6068 26.4001C97.2718 26.1376 96.9731 25.8252 96.7106 25.4631C96.4571 25.092 96.2534 24.6665 96.0995 24.1867C95.9456 23.6979 95.8687 23.1502 95.8687 22.5436V12.9839C95.8687 12.658 95.9049 12.3095 95.9773 11.9383C96.0588 11.5581 96.181 11.187 96.3439 10.8249C96.5069 10.4537 96.7196 10.1006 96.9821 9.76569C97.2447 9.43074 97.557 9.13653 97.9191 8.88305C98.2903 8.62052 98.7157 8.41231 99.1955 8.25841C99.6753 8.10452 100.218 8.02757 100.825 8.02757H113.562V11.5581H100.825C100.363 11.5581 100.01 11.6803 99.7659 11.9248C99.5214 12.1692 99.3992 12.5313 99.3992 13.0111V22.5436C99.3992 22.9963 99.5214 23.3493 99.7659 23.6028C100.019 23.8472 100.372 23.9694 100.825 23.9694H113.562V27.5ZM120.182 15.9849H132.58V8.02757H136.111V27.5H132.58V19.5426H120.182V27.5H116.652V8.02757H120.182V15.9849ZM159.08 27.5H155.549V22.7202H143.138V27.5H139.607V17.7638C139.607 16.3425 139.852 15.0344 140.341 13.8394C140.83 12.6445 141.509 11.617 142.378 10.757C143.247 9.89696 144.274 9.22706 145.46 8.74726C146.646 8.26747 147.941 8.02757 149.344 8.02757H157.301C157.545 8.02757 157.776 8.07283 157.994 8.16336C158.211 8.25389 158.401 8.38063 158.564 8.54357C158.727 8.70652 158.854 8.89663 158.944 9.1139C159.035 9.33116 159.08 9.56201 159.08 9.80643V27.5ZM143.138 19.1896H155.549V11.5581H149.344C149.235 11.5581 149.004 11.5762 148.651 11.6125C148.307 11.6396 147.904 11.7166 147.443 11.8433C146.99 11.97 146.51 12.1647 146.003 12.4272C145.496 12.6897 145.03 13.0518 144.605 13.5135C144.179 13.9752 143.826 14.5546 143.545 15.2517C143.274 15.9397 143.138 16.777 143.138 17.7638V19.1896Z" fill="white"/>
<path d="M171.397 19.131C171.349 18.7004 171.148 18.3668 170.797 18.1302C170.445 17.8906 170.002 17.7708 169.468 17.7708C169.086 17.7708 168.756 17.8315 168.477 17.9528C168.198 18.0711 167.981 18.2348 167.826 18.4441C167.674 18.6503 167.599 18.8854 167.599 19.1492C167.599 19.3706 167.65 19.5616 167.753 19.7224C167.859 19.8831 167.997 20.0181 168.167 20.1272C168.34 20.2334 168.525 20.3228 168.722 20.3956C168.919 20.4654 169.109 20.523 169.291 20.5685L170.201 20.805C170.498 20.8778 170.803 20.9764 171.115 21.1007C171.427 21.2251 171.717 21.3888 171.984 21.592C172.251 21.7952 172.466 22.0469 172.63 22.3471C172.797 22.6474 172.88 23.0068 172.88 23.4253C172.88 23.9529 172.744 24.4215 172.471 24.8309C172.201 25.2403 171.808 25.5633 171.292 25.7998C170.78 26.0364 170.16 26.1547 169.432 26.1547C168.734 26.1547 168.131 26.044 167.621 25.8226C167.112 25.6012 166.713 25.2873 166.425 24.8809C166.137 24.4715 165.978 23.9863 165.947 23.4253H167.358C167.385 23.7619 167.494 24.0424 167.685 24.2668C167.879 24.4882 168.126 24.6535 168.427 24.7627C168.73 24.8688 169.062 24.9219 169.423 24.9219C169.82 24.9219 170.173 24.8597 170.483 24.7354C170.795 24.608 171.041 24.4321 171.22 24.2077C171.399 23.9802 171.488 23.7149 171.488 23.4116C171.488 23.1356 171.409 22.9097 171.252 22.7338C171.097 22.5579 170.886 22.4124 170.619 22.2971C170.355 22.1819 170.057 22.0803 169.723 21.9923L168.622 21.6921C167.876 21.4889 167.285 21.1902 166.848 20.7959C166.414 20.4017 166.198 19.8801 166.198 19.2311C166.198 18.6943 166.343 18.2257 166.634 17.8254C166.925 17.4251 167.32 17.1143 167.817 16.8929C168.314 16.6685 168.875 16.5563 169.5 16.5563C170.131 16.5563 170.687 16.667 171.17 16.8883C171.655 17.1097 172.037 17.4145 172.316 17.8027C172.595 18.1878 172.741 18.6306 172.753 19.131H171.397ZM177.584 19.0127V20.1045H173.768V19.0127H177.584ZM174.791 17.3387H176.151V23.9484C176.151 24.2122 176.191 24.4109 176.269 24.5443C176.348 24.6747 176.45 24.7642 176.574 24.8127C176.702 24.8582 176.84 24.8809 176.988 24.8809C177.097 24.8809 177.193 24.8734 177.275 24.8582C177.357 24.843 177.42 24.8309 177.466 24.8218L177.712 25.9454C177.633 25.9757 177.52 26.0061 177.375 26.0364C177.229 26.0698 177.047 26.0879 176.829 26.091C176.471 26.097 176.138 26.0334 175.828 25.8999C175.519 25.7665 175.269 25.5603 175.078 25.2813C174.887 25.0023 174.791 24.652 174.791 24.2304V17.3387ZM183.387 23.1023V19.0127H184.752V26H183.414V24.79H183.341C183.181 25.163 182.923 25.4738 182.568 25.7225C182.216 25.9682 181.778 26.091 181.253 26.091C180.804 26.091 180.407 25.9924 180.061 25.7953C179.719 25.5951 179.449 25.2995 179.252 24.9082C179.058 24.517 178.961 24.0333 178.961 23.4571V19.0127H180.321V23.2933C180.321 23.7695 180.453 24.1486 180.717 24.4306C180.98 24.7126 181.323 24.8537 181.745 24.8537C181.999 24.8537 182.253 24.79 182.504 24.6626C182.759 24.5352 182.97 24.3426 183.137 24.0849C183.306 23.8271 183.39 23.4996 183.387 23.1023ZM189.067 26.1365C188.503 26.1365 187.999 25.9924 187.556 25.7043C187.117 25.4132 186.771 24.9992 186.519 24.4624C186.271 23.9226 186.146 23.2751 186.146 22.52C186.146 21.7649 186.272 21.1189 186.524 20.5821C186.778 20.0454 187.127 19.6344 187.57 19.3494C188.013 19.0643 188.515 18.9217 189.076 18.9217C189.509 18.9217 189.858 18.9945 190.122 19.1401C190.389 19.2826 190.595 19.4494 190.741 19.6405C190.889 19.8315 191.005 19.9999 191.086 20.1454H191.168V16.6836H192.528V26H191.2V24.9128H191.086C191.005 25.0614 190.886 25.2312 190.732 25.4223C190.58 25.6133 190.371 25.7801 190.104 25.9227C189.837 26.0652 189.491 26.1365 189.067 26.1365ZM189.367 24.9765C189.758 24.9765 190.089 24.8734 190.359 24.6671C190.632 24.4579 190.838 24.1683 190.977 23.7983C191.12 23.4283 191.191 22.9977 191.191 22.5064C191.191 22.0211 191.121 21.5966 190.982 21.2326C190.842 20.8687 190.638 20.5852 190.368 20.382C190.098 20.1788 189.764 20.0772 189.367 20.0772C188.957 20.0772 188.616 20.1833 188.343 20.3956C188.07 20.6079 187.864 20.8975 187.725 21.2645C187.588 21.6314 187.52 22.0454 187.52 22.5064C187.52 22.9734 187.59 23.3934 187.729 23.7664C187.869 24.1395 188.075 24.4351 188.348 24.6535C188.624 24.8688 188.964 24.9765 189.367 24.9765ZM194.342 26V19.0127H195.702V26H194.342ZM195.029 17.9346C194.792 17.9346 194.589 17.8558 194.419 17.6981C194.252 17.5373 194.169 17.3463 194.169 17.1249C194.169 16.9005 194.252 16.7094 194.419 16.5517C194.589 16.391 194.792 16.3106 195.029 16.3106C195.265 16.3106 195.467 16.391 195.634 16.5517C195.803 16.7094 195.888 16.9005 195.888 17.1249C195.888 17.3463 195.803 17.5373 195.634 17.6981C195.467 17.8558 195.265 17.9346 195.029 17.9346ZM200.347 26.141C199.692 26.141 199.12 25.9909 198.632 25.6907C198.143 25.3904 197.764 24.9704 197.494 24.4306C197.225 23.8908 197.09 23.26 197.09 22.5382C197.09 21.8134 197.225 21.1796 197.494 20.6367C197.764 20.0939 198.143 19.6723 198.632 19.3721C199.12 19.0719 199.692 18.9217 200.347 18.9217C201.002 18.9217 201.573 19.0719 202.062 19.3721C202.55 19.6723 202.929 20.0939 203.199 20.6367C203.469 21.1796 203.604 21.8134 203.604 22.5382C203.604 23.26 203.469 23.8908 203.199 24.4306C202.929 24.9704 202.55 25.3904 202.062 25.6907C201.573 25.9909 201.002 26.141 200.347 26.141ZM200.351 24.9992C200.776 24.9992 201.128 24.887 201.407 24.6626C201.686 24.4382 201.892 24.1395 202.025 23.7664C202.162 23.3934 202.23 22.9825 202.23 22.5337C202.23 22.0879 202.162 21.6784 202.025 21.3054C201.892 20.9294 201.686 20.6276 201.407 20.4002C201.128 20.1727 200.776 20.059 200.351 20.059C199.924 20.059 199.569 20.1727 199.287 20.4002C199.008 20.6276 198.8 20.9294 198.664 21.3054C198.53 21.6784 198.463 22.0879 198.463 22.5337C198.463 22.9825 198.53 23.3934 198.664 23.7664C198.8 24.1395 199.008 24.4382 199.287 24.6626C199.569 24.887 199.924 24.9992 200.351 24.9992Z" fill="white"/>
<defs>
<linearGradient id="paint0_linear_67_2935" x1="2.29779e-07" y1="2.51634" x2="39.2251" y2="11.188" gradientUnits="userSpaceOnUse">
<stop offset="0.108659" stop-color="#197CEC"/>
<stop offset="0.66865" stop-color="#004AD9"/>
</linearGradient>
</defs>
</svg>
