<svg width="825" height="192" viewBox="0 0 825 192" fill="none" xmlns="http://www.w3.org/2000/svg">
<path d="M342.632 144.473H325.51V88.6646L295.384 141.663C294.644 143.013 293.598 144.037 292.247 144.734C290.94 145.431 289.525 145.78 288 145.78C286.518 145.78 285.124 145.431 283.817 144.734C282.554 144.037 281.552 143.013 280.811 141.663L250.555 88.6646V144.473H233.564V58.0159C233.564 56.0554 234.13 54.3128 235.263 52.788C236.439 51.2631 237.964 50.2393 239.838 49.7166C240.752 49.4987 241.667 49.4334 242.582 49.5205C243.497 49.5641 244.368 49.7601 245.196 50.1086C246.067 50.4136 246.852 50.8711 247.549 51.481C248.246 52.0473 248.834 52.7444 249.313 53.5721L288 120.816L326.686 53.5721C327.688 51.9166 329.061 50.7404 330.803 50.0433C332.59 49.3462 334.441 49.2373 336.358 49.7166C338.188 50.2393 339.691 51.2631 340.867 52.788C342.043 54.3128 342.632 56.0554 342.632 58.0159V144.473ZM454.378 144.473H437.388V121.47H377.659V144.473H360.668V97.6174C360.668 90.7775 361.844 84.4822 364.197 78.7315C366.549 72.9808 369.817 68.0361 373.999 63.8973C378.181 59.7585 383.126 56.5346 388.833 54.2256C394.54 51.9166 400.77 50.7621 407.523 50.7621H445.818C446.994 50.7621 448.105 50.98 449.15 51.4156C450.196 51.8513 451.111 52.4612 451.895 53.2454C452.679 54.0296 453.289 54.9445 453.725 55.9901C454.161 57.0356 454.378 58.1466 454.378 59.3229V144.473ZM377.659 104.479H437.388V67.7529H407.523C407 67.7529 405.889 67.84 404.19 68.0143C402.535 68.145 400.596 68.5153 398.374 69.1252C396.196 69.7351 393.887 70.6718 391.447 71.9352C389.008 73.1986 386.764 74.9413 384.716 77.1632C382.669 79.385 380.97 82.1732 379.619 85.5278C378.312 88.8388 377.659 92.8687 377.659 97.6174V104.479ZM558.087 144.473H496.79C495.222 144.473 493.522 144.298 491.693 143.95C489.906 143.558 488.12 142.97 486.334 142.185C484.591 141.401 482.914 140.399 481.302 139.179C479.69 137.916 478.253 136.413 476.989 134.67C475.769 132.884 474.789 130.836 474.048 128.527C473.308 126.175 472.938 123.539 472.938 120.62V74.6145C472.938 73.0462 473.112 71.3689 473.46 69.5827C473.852 67.7529 474.441 65.9667 475.225 64.224C476.009 62.4378 477.033 60.7388 478.296 59.1268C479.56 57.5149 481.063 56.099 482.805 54.8791C484.591 53.6157 486.639 52.6137 488.948 51.8731C491.257 51.1325 493.871 50.7621 496.79 50.7621H558.087V67.7529H496.79C494.568 67.7529 492.869 68.341 491.693 69.5173C490.516 70.6936 489.928 72.4362 489.928 74.7452V120.62C489.928 122.799 490.516 124.498 491.693 125.717C492.913 126.894 494.612 127.482 496.79 127.482H558.087V144.473ZM591.285 89.0567H650.948V50.7621H667.939V144.473H650.948V106.178H591.285V144.473H574.294V50.7621H591.285V89.0567ZM779.817 144.473H762.826V121.47H703.097V144.473H686.106V97.6174C686.106 90.7775 687.282 84.4822 689.635 78.7315C691.987 72.9808 695.255 68.0361 699.437 63.8973C703.62 59.7585 708.564 56.5346 714.271 54.2256C719.979 51.9166 726.209 50.7621 732.961 50.7621H771.256C772.432 50.7621 773.543 50.98 774.589 51.4156C775.634 51.8513 776.549 52.4612 777.333 53.2454C778.117 54.0296 778.727 54.9445 779.163 55.9901C779.599 57.0356 779.817 58.1466 779.817 59.3229V144.473ZM703.097 104.479H762.826V67.7529H732.961C732.439 67.7529 731.328 67.84 729.629 68.0143C727.973 68.145 726.034 68.5153 723.812 69.1252C721.634 69.7351 719.325 70.6718 716.885 71.9352C714.446 73.1986 712.202 74.9413 710.155 77.1632C708.107 79.385 706.408 82.1732 705.057 85.5278C703.75 88.8388 703.097 92.8687 703.097 97.6174V104.479Z" fill="black"/>
<rect x="42.0615" y="22.9414" width="145.306" height="145.306" rx="19.1193" fill="url(#paint0_linear_2684_31376)"/>
<path d="M114.469 40.3789C84.1035 40.3789 59.4951 64.9968 59.4951 95.3531C59.4951 125.709 84.113 150.327 114.469 150.327C144.826 150.327 169.444 125.709 169.444 95.3531C169.444 64.9968 144.826 40.3789 114.469 40.3789ZM114.469 62.6345C119.93 62.6345 124.359 67.0626 124.359 72.5237C124.359 77.9848 119.93 82.4034 114.469 82.4034C109.008 82.4034 104.58 77.9752 104.58 72.5237C104.58 67.0626 109.008 62.6345 114.469 62.6345ZM91.6304 128.072C86.1693 128.072 81.7411 123.644 81.7411 118.183C81.7411 112.721 86.1693 108.303 91.6304 108.303C97.0915 108.303 101.52 112.731 101.52 118.183C101.52 123.644 97.0915 128.072 91.6304 128.072ZM81.6933 95.3531C81.6933 89.8921 86.1215 85.4639 91.5826 85.4639C97.0436 85.4639 101.472 89.8921 101.472 95.3531C101.472 100.814 97.0436 105.242 91.5826 105.242C86.1215 105.242 81.6933 100.814 81.6933 95.3531ZM91.6304 82.4034C86.1693 82.4034 81.7411 77.9752 81.7411 72.5237C81.7411 67.0626 86.1693 62.6345 91.6304 62.6345C97.0915 62.6345 101.52 67.0626 101.52 72.5237C101.52 77.9848 97.0915 82.4034 91.6304 82.4034ZM114.469 85.4639C119.93 85.4639 124.359 89.8921 124.359 95.3531C124.359 100.814 119.93 105.242 114.469 105.242C109.008 105.242 104.58 100.814 104.58 95.3531C104.58 89.8921 109.008 85.4639 114.469 85.4639ZM114.469 128.072C109.008 128.072 104.58 123.644 104.58 118.183C104.58 112.721 109.008 108.303 114.469 108.303C119.93 108.303 124.359 112.731 124.359 118.183C124.349 123.644 119.921 128.072 114.469 128.072ZM137.433 128.072C131.972 128.072 127.543 123.644 127.543 118.183C127.543 112.721 131.972 108.303 137.433 108.303C142.894 108.303 147.322 112.731 147.322 118.183C147.312 123.644 142.884 128.072 137.433 128.072ZM127.467 95.3531C127.467 89.8921 131.895 85.4639 137.356 85.4639C142.817 85.4639 147.245 89.8921 147.245 95.3531C147.245 100.814 142.817 105.242 137.356 105.242C131.895 105.242 127.467 100.814 127.467 95.3531ZM137.433 82.4034C131.972 82.4034 127.543 77.9752 127.543 72.5237C127.543 67.0626 131.972 62.6345 137.433 62.6345C142.894 62.6345 147.322 67.0626 147.322 72.5237C147.312 77.9848 142.884 82.4034 137.433 82.4034Z" fill="white"/>
<path d="M92.0732 74.9921C93.1977 74.9921 94.1093 74.0805 94.1093 72.956C94.1093 71.8315 93.1977 70.9199 92.0732 70.9199C90.9487 70.9199 90.0371 71.8315 90.0371 72.956C90.0371 74.0805 90.9487 74.9921 92.0732 74.9921Z" fill="white"/>
<path d="M114.471 74.9921C115.595 74.9921 116.507 74.0805 116.507 72.956C116.507 71.8315 115.595 70.9199 114.471 70.9199C113.346 70.9199 112.435 71.8315 112.435 72.956C112.435 74.0805 113.346 74.9921 114.471 74.9921Z" fill="white"/>
<path d="M114.471 97.3866C115.595 97.3866 116.507 96.475 116.507 95.3505C116.507 94.226 115.595 93.3145 114.471 93.3145C113.346 93.3145 112.435 94.226 112.435 95.3505C112.435 96.475 113.346 97.3866 114.471 97.3866Z" fill="white"/>
<path d="M114.471 119.785C115.595 119.785 116.507 118.873 116.507 117.749C116.507 116.624 115.595 115.713 114.471 115.713C113.346 115.713 112.435 116.624 112.435 117.749C112.435 118.873 113.346 119.785 114.471 119.785Z" fill="white"/>
<path d="M92.0732 119.785C93.1977 119.785 94.1093 118.873 94.1093 117.749C94.1093 116.624 93.1977 115.713 92.0732 115.713C90.9487 115.713 90.0371 116.624 90.0371 117.749C90.0371 118.873 90.9487 119.785 92.0732 119.785Z" fill="white"/>
<path d="M136.868 74.9921C137.993 74.9921 138.904 74.0805 138.904 72.956C138.904 71.8315 137.993 70.9199 136.868 70.9199C135.744 70.9199 134.832 71.8315 134.832 72.956C134.832 74.0805 135.744 74.9921 136.868 74.9921Z" fill="white"/>
<path d="M136.868 119.785C137.993 119.785 138.904 118.873 138.904 117.749C138.904 116.624 137.993 115.713 136.868 115.713C135.744 115.713 134.832 116.624 134.832 117.749C134.832 118.873 135.744 119.785 136.868 119.785Z" fill="white"/>
<defs>
<linearGradient id="paint0_linear_2684_31376" x1="42.0615" y1="33.3883" x2="204.909" y2="69.3896" gradientUnits="userSpaceOnUse">
<stop stop-color="#197CEC"/>
<stop offset="0.608737" stop-color="#004AD9"/>
</linearGradient>
</defs>
</svg>
