<svg width="162" height="35" viewBox="0 0 162 35" fill="none" xmlns="http://www.w3.org/2000/svg">
<rect width="35" height="35" rx="4" fill="url(#paint0_linear_2512_32465)"/>
<path d="M17.4417 4.19995C10.1275 4.19995 4.20007 10.1297 4.20007 17.4416C4.20007 24.7536 10.1298 30.6833 17.4417 30.6833C24.7537 30.6833 30.6834 24.7536 30.6834 17.4416C30.6834 10.1297 24.7537 4.19995 17.4417 4.19995ZM17.4417 9.56066C18.7572 9.56066 19.8238 10.6273 19.8238 11.9427C19.8238 13.2581 18.7572 14.3224 17.4417 14.3224C16.1263 14.3224 15.0597 13.2558 15.0597 11.9427C15.0597 10.6273 16.1263 9.56066 17.4417 9.56066ZM11.9405 25.3226C10.6251 25.3226 9.55848 24.256 9.55848 22.9405C9.55848 21.6251 10.6251 20.5608 11.9405 20.5608C13.2559 20.5608 14.3225 21.6274 14.3225 22.9405C14.3225 24.256 13.2559 25.3226 11.9405 25.3226ZM9.54696 17.4416C9.54696 16.1262 10.6136 15.0596 11.929 15.0596C13.2444 15.0596 14.311 16.1262 14.311 17.4416C14.311 18.757 13.2444 19.8236 11.929 19.8236C10.6136 19.8236 9.54696 18.757 9.54696 17.4416ZM11.9405 14.3224C10.6251 14.3224 9.55848 13.2558 9.55848 11.9427C9.55848 10.6273 10.6251 9.56066 11.9405 9.56066C13.2559 9.56066 14.3225 10.6273 14.3225 11.9427C14.3225 13.2581 13.2559 14.3224 11.9405 14.3224ZM17.4417 15.0596C18.7572 15.0596 19.8238 16.1262 19.8238 17.4416C19.8238 18.757 18.7572 19.8236 17.4417 19.8236C16.1263 19.8236 15.0597 18.757 15.0597 17.4416C15.0597 16.1262 16.1263 15.0596 17.4417 15.0596ZM17.4417 25.3226C16.1263 25.3226 15.0597 24.256 15.0597 22.9405C15.0597 21.6251 16.1263 20.5608 17.4417 20.5608C18.7572 20.5608 19.8238 21.6274 19.8238 22.9405C19.8215 24.256 18.7548 25.3226 17.4417 25.3226ZM22.9729 25.3226C21.6575 25.3226 20.5909 24.256 20.5909 22.9405C20.5909 21.6251 21.6575 20.5608 22.9729 20.5608C24.2883 20.5608 25.3549 21.6274 25.3549 22.9405C25.3526 24.256 24.286 25.3226 22.9729 25.3226ZM20.5725 17.4416C20.5725 16.1262 21.6391 15.0596 22.9545 15.0596C24.2699 15.0596 25.3365 16.1262 25.3365 17.4416C25.3365 18.757 24.2699 19.8236 22.9545 19.8236C21.6391 19.8236 20.5725 18.757 20.5725 17.4416ZM22.9729 14.3224C21.6575 14.3224 20.5909 13.2558 20.5909 11.9427C20.5909 10.6273 21.6575 9.56066 22.9729 9.56066C24.2883 9.56066 25.3549 10.6273 25.3549 11.9427C25.3526 13.2581 24.286 14.3224 22.9729 14.3224Z" fill="white"/>
<path d="M12.0471 12.5369C12.3179 12.5369 12.5375 12.3173 12.5375 12.0465C12.5375 11.7756 12.3179 11.556 12.0471 11.556C11.7762 11.556 11.5566 11.7756 11.5566 12.0465C11.5566 12.3173 11.7762 12.5369 12.0471 12.5369Z" fill="white"/>
<path d="M17.4417 12.5369C17.7126 12.5369 17.9322 12.3173 17.9322 12.0465C17.9322 11.7756 17.7126 11.556 17.4417 11.556C17.1709 11.556 16.9513 11.7756 16.9513 12.0465C16.9513 12.3173 17.1709 12.5369 17.4417 12.5369Z" fill="white"/>
<path d="M17.4417 17.9312C17.7126 17.9312 17.9322 17.7117 17.9322 17.4408C17.9322 17.17 17.7126 16.9504 17.4417 16.9504C17.1709 16.9504 16.9513 17.17 16.9513 17.4408C16.9513 17.7117 17.1709 17.9312 17.4417 17.9312Z" fill="white"/>
<path d="M17.4417 23.3268C17.7126 23.3268 17.9322 23.1072 17.9322 22.8363C17.9322 22.5655 17.7126 22.3459 17.4417 22.3459C17.1709 22.3459 16.9513 22.5655 16.9513 22.8363C16.9513 23.1072 17.1709 23.3268 17.4417 23.3268Z" fill="white"/>
<path d="M12.0471 23.3268C12.3179 23.3268 12.5375 23.1072 12.5375 22.8363C12.5375 22.5655 12.3179 22.3459 12.0471 22.3459C11.7762 22.3459 11.5566 22.5655 11.5566 22.8363C11.5566 23.1072 11.7762 23.3268 12.0471 23.3268Z" fill="white"/>
<path d="M22.8364 12.5369C23.1072 12.5369 23.3268 12.3173 23.3268 12.0465C23.3268 11.7756 23.1072 11.556 22.8364 11.556C22.5655 11.556 22.3459 11.7756 22.3459 12.0465C22.3459 12.3173 22.5655 12.5369 22.8364 12.5369Z" fill="white"/>
<path d="M22.8364 23.3268C23.1072 23.3268 23.3268 23.1072 23.3268 22.8363C23.3268 22.5655 23.1072 22.3459 22.8364 22.3459C22.5655 22.3459 22.3459 22.5655 22.3459 22.8363C22.3459 23.1072 22.5655 23.3268 22.8364 23.3268Z" fill="white"/>
<path d="M69.3481 27.5H65.7904V15.9034L59.5304 26.9161C59.3765 27.1967 59.1593 27.4095 58.8786 27.5543C58.6071 27.6992 58.3128 27.7716 57.996 27.7716C57.6882 27.7716 57.3985 27.6992 57.1269 27.5543C56.8644 27.4095 56.6562 27.1967 56.5023 26.9161L50.2152 15.9034V27.5H46.6846V9.53485C46.6846 9.12748 46.8023 8.76537 47.0377 8.44852C47.2821 8.13168 47.5989 7.91894 47.9882 7.8103C48.1783 7.76504 48.3684 7.75146 48.5585 7.76957C48.7486 7.77862 48.9297 7.81936 49.1017 7.89178C49.2827 7.95515 49.4457 8.0502 49.5905 8.17694C49.7354 8.29462 49.8576 8.43947 49.9572 8.61147L57.996 22.5844L66.0348 8.61147C66.243 8.26747 66.5282 8.02304 66.8903 7.8782C67.2615 7.73335 67.6462 7.71072 68.0445 7.8103C68.4247 7.91894 68.7371 8.13168 68.9815 8.44852C69.2259 8.76537 69.3481 9.12748 69.3481 9.53485V27.5ZM92.2903 27.5H88.7597V22.7202H76.3484V27.5H72.8179V17.7638C72.8179 16.3425 73.0623 15.0344 73.5511 13.8394C74.04 12.6445 74.7189 11.617 75.588 10.757C76.4571 9.89696 77.4845 9.22706 78.6705 8.74726C79.8564 8.26747 81.1509 8.02757 82.5541 8.02757H90.5114C90.7559 8.02757 90.9867 8.07283 91.204 8.16336C91.4212 8.25389 91.6113 8.38063 91.7743 8.54357C91.9372 8.70652 92.064 8.89663 92.1545 9.1139C92.245 9.33116 92.2903 9.56201 92.2903 9.80643V27.5ZM76.3484 19.1896H88.7597V11.5581H82.5541C82.4454 11.5581 82.2146 11.5762 81.8615 11.6125C81.5175 11.6396 81.1147 11.7166 80.653 11.8433C80.2004 11.97 79.7206 12.1647 79.2136 12.4272C78.7067 12.6897 78.2404 13.0518 77.815 13.5135C77.3895 13.9752 77.0364 14.5546 76.7558 15.2517C76.4842 15.9397 76.3484 16.777 76.3484 17.7638V19.1896ZM113.562 27.5H100.825C100.499 27.5 100.146 27.4638 99.7659 27.3914C99.3947 27.3099 99.0235 27.1877 98.6524 27.0247C98.2903 26.8618 97.9417 26.6536 97.6068 26.4001C97.2718 26.1376 96.9731 25.8252 96.7106 25.4631C96.4571 25.092 96.2534 24.6665 96.0995 24.1867C95.9456 23.6979 95.8687 23.1502 95.8687 22.5436V12.9839C95.8687 12.658 95.9049 12.3095 95.9773 11.9383C96.0588 11.5581 96.181 11.187 96.3439 10.8249C96.5069 10.4537 96.7196 10.1006 96.9821 9.76569C97.2447 9.43074 97.557 9.13653 97.9191 8.88305C98.2903 8.62052 98.7157 8.41231 99.1955 8.25841C99.6753 8.10452 100.218 8.02757 100.825 8.02757H113.562V11.5581H100.825C100.363 11.5581 100.01 11.6803 99.7659 11.9248C99.5214 12.1692 99.3992 12.5313 99.3992 13.0111V22.5436C99.3992 22.9963 99.5214 23.3493 99.7659 23.6028C100.019 23.8472 100.372 23.9694 100.825 23.9694H113.562V27.5ZM120.182 15.9849H132.58V8.02757H136.111V27.5H132.58V19.5426H120.182V27.5H116.652V8.02757H120.182V15.9849ZM159.08 27.5H155.549V22.7202H143.138V27.5H139.607V17.7638C139.607 16.3425 139.852 15.0344 140.341 13.8394C140.83 12.6445 141.509 11.617 142.378 10.757C143.247 9.89696 144.274 9.22706 145.46 8.74726C146.646 8.26747 147.941 8.02757 149.344 8.02757H157.301C157.545 8.02757 157.776 8.07283 157.994 8.16336C158.211 8.25389 158.401 8.38063 158.564 8.54357C158.727 8.70652 158.854 8.89663 158.944 9.1139C159.035 9.33116 159.08 9.56201 159.08 9.80643V27.5ZM143.138 19.1896H155.549V11.5581H149.344C149.235 11.5581 149.004 11.5762 148.651 11.6125C148.307 11.6396 147.904 11.7166 147.443 11.8433C146.99 11.97 146.51 12.1647 146.003 12.4272C145.496 12.6897 145.03 13.0518 144.605 13.5135C144.179 13.9752 143.826 14.5546 143.545 15.2517C143.274 15.9397 143.138 16.777 143.138 17.7638V19.1896Z" fill="white"/>
<defs>
<linearGradient id="paint0_linear_2512_32465" x1="2.29779e-07" y1="2.51634" x2="39.2251" y2="11.188" gradientUnits="userSpaceOnUse">
<stop offset="0.108659" stop-color="#197CEC"/>
<stop offset="0.66865" stop-color="#004AD9"/>
</linearGradient>
</defs>
</svg>
