<svg width="269" height="53" viewBox="0 0 269 53" fill="none" xmlns="http://www.w3.org/2000/svg">
<path d="M109.432 42.8234H103.199V22.5045L92.2304 41.8003C91.9607 42.292 91.58 42.6647 91.0883 42.9185C90.6125 43.1723 90.097 43.2992 89.5418 43.2992C89.0025 43.2992 88.4949 43.1723 88.0191 42.9185C87.5591 42.6647 87.1943 42.292 86.9246 41.8003L75.9086 22.5045V42.8234H69.7226V11.3457C69.7226 10.632 69.9288 9.99749 70.3412 9.44233C70.7694 8.88717 71.3246 8.51442 72.0067 8.32407C72.3398 8.24477 72.6729 8.22097 73.0059 8.2527C73.339 8.26856 73.6563 8.33994 73.9577 8.46683C74.2749 8.57786 74.5604 8.74441 74.8142 8.96648C75.068 9.17268 75.2821 9.42647 75.4566 9.72784L89.5418 34.2104L103.627 9.72784C103.992 9.12509 104.492 8.69683 105.126 8.44304C105.776 8.18925 106.45 8.1496 107.148 8.32407C107.815 8.51442 108.362 8.88717 108.79 9.44233C109.218 9.99749 109.432 10.632 109.432 11.3457V42.8234ZM150.118 42.8234H143.932V34.4484H122.185V42.8234H115.999V25.7641C115.999 23.2738 116.427 20.9817 117.284 18.888C118.141 16.7942 119.33 14.9939 120.853 13.4871C122.376 11.9802 124.176 10.8064 126.254 9.96577C128.332 9.12509 130.6 8.70476 133.059 8.70476H147.001C147.429 8.70476 147.834 8.78407 148.214 8.94268C148.595 9.1013 148.928 9.32336 149.214 9.60888C149.499 9.89439 149.721 10.2275 149.88 10.6082C150.038 10.9888 150.118 11.3933 150.118 11.8216V42.8234ZM122.185 28.2623H143.932V14.8908H133.059C132.868 14.8908 132.464 14.9226 131.845 14.986C131.242 15.0336 130.536 15.1684 129.728 15.3905C128.934 15.6125 128.094 15.9536 127.206 16.4136C126.317 16.8736 125.5 17.508 124.755 18.317C124.009 19.1259 123.391 20.1411 122.899 21.3624C122.423 22.5679 122.185 24.0351 122.185 25.7641V28.2623ZM187.877 42.8234H165.559C164.988 42.8234 164.37 42.7599 163.703 42.633C163.053 42.4903 162.403 42.2761 161.752 41.9906C161.118 41.7051 160.507 41.3403 159.92 40.8962C159.333 40.4362 158.81 39.8889 158.35 39.2545C157.906 38.6041 157.549 37.8586 157.279 37.018C157.01 36.1614 156.875 35.2018 156.875 34.1391V17.3891C156.875 16.818 156.938 16.2074 157.065 15.557C157.208 14.8908 157.422 14.2405 157.708 13.606C157.993 12.9557 158.366 12.3371 158.826 11.7502C159.286 11.1633 159.833 10.6478 160.468 10.2037C161.118 9.7437 161.863 9.37888 162.704 9.10923C163.545 8.83958 164.496 8.70476 165.559 8.70476H187.877V14.8908H165.559C164.75 14.8908 164.132 15.105 163.703 15.5332C163.275 15.9615 163.061 16.596 163.061 17.4366V34.1391C163.061 34.9321 163.275 35.5508 163.703 35.9949C164.148 36.4232 164.766 36.6373 165.559 36.6373H187.877V42.8234ZM199.963 22.6472H221.686V8.70476H227.872V42.8234H221.686V28.8809H199.963V42.8234H193.777V8.70476H199.963V22.6472ZM268.605 42.8234H262.419V34.4484H240.672V42.8234H234.486V25.7641C234.486 23.2738 234.915 20.9817 235.771 18.888C236.628 16.7942 237.817 14.9939 239.34 13.4871C240.863 11.9802 242.663 10.8064 244.741 9.96577C246.819 9.12509 249.087 8.70476 251.546 8.70476H265.488C265.916 8.70476 266.321 8.78407 266.702 8.94268C267.082 9.1013 267.415 9.32336 267.701 9.60888C267.986 9.89439 268.208 10.2275 268.367 10.6082C268.526 10.9888 268.605 11.3933 268.605 11.8216V42.8234ZM240.672 28.2623H262.419V14.8908H251.546C251.355 14.8908 250.951 14.9226 250.332 14.986C249.73 15.0336 249.024 15.1684 248.215 15.3905C247.422 15.6125 246.581 15.9536 245.693 16.4136C244.804 16.8736 243.988 17.508 243.242 18.317C242.497 19.1259 241.878 20.1411 241.386 21.3624C240.91 22.5679 240.672 24.0351 240.672 25.7641V28.2623Z" fill="black"/>
<rect width="52.9039" height="52.9039" rx="6.96104" fill="url(#paint0_linear_2732_1594)"/>
<path d="M26.3638 6.34845C15.308 6.34845 6.34851 15.3115 6.34851 26.3638C6.34851 37.416 15.3115 46.3791 26.3638 46.3791C37.4161 46.3791 46.3791 37.416 46.3791 26.3638C46.3791 15.3115 37.4161 6.34845 26.3638 6.34845ZM26.3638 14.4514C28.3521 14.4514 29.9643 16.0636 29.9643 18.0519C29.9643 20.0402 28.3521 21.6489 26.3638 21.6489C24.3755 21.6489 22.7633 20.0367 22.7633 18.0519C22.7633 16.0636 24.3755 14.4514 26.3638 14.4514ZM18.0485 38.2761C16.0602 38.2761 14.448 36.6639 14.448 34.6756C14.448 32.6873 16.0602 31.0786 18.0485 31.0786C20.0368 31.0786 21.649 32.6908 21.649 34.6756C21.649 36.6639 20.0368 38.2761 18.0485 38.2761ZM14.4305 26.3638C14.4305 24.3755 16.0428 22.7632 18.0311 22.7632C20.0194 22.7632 21.6316 24.3755 21.6316 26.3638C21.6316 28.3521 20.0194 29.9643 18.0311 29.9643C16.0428 29.9643 14.4305 28.3521 14.4305 26.3638ZM18.0485 21.6489C16.0602 21.6489 14.448 20.0367 14.448 18.0519C14.448 16.0636 16.0602 14.4514 18.0485 14.4514C20.0368 14.4514 21.649 16.0636 21.649 18.0519C21.649 20.0402 20.0368 21.6489 18.0485 21.6489ZM26.3638 22.7632C28.3521 22.7632 29.9643 24.3755 29.9643 26.3638C29.9643 28.3521 28.3521 29.9643 26.3638 29.9643C24.3755 29.9643 22.7633 28.3521 22.7633 26.3638C22.7633 24.3755 24.3755 22.7632 26.3638 22.7632ZM26.3638 38.2761C24.3755 38.2761 22.7633 36.6639 22.7633 34.6756C22.7633 32.6873 24.3755 31.0786 26.3638 31.0786C28.3521 31.0786 29.9643 32.6908 29.9643 34.6756C29.9609 36.6639 28.3486 38.2761 26.3638 38.2761ZM34.7244 38.2761C32.7361 38.2761 31.1239 36.6639 31.1239 34.6756C31.1239 32.6873 32.7361 31.0786 34.7244 31.0786C36.7127 31.0786 38.3249 32.6908 38.3249 34.6756C38.3215 36.6639 36.7092 38.2761 34.7244 38.2761ZM31.096 26.3638C31.096 24.3755 32.7083 22.7632 34.6966 22.7632C36.6849 22.7632 38.2971 24.3755 38.2971 26.3638C38.2971 28.3521 36.6849 29.9643 34.6966 29.9643C32.7083 29.9643 31.096 28.3521 31.096 26.3638ZM34.7244 21.6489C32.7361 21.6489 31.1239 20.0367 31.1239 18.0519C31.1239 16.0636 32.7361 14.4514 34.7244 14.4514C36.7127 14.4514 38.3249 16.0636 38.3249 18.0519C38.3215 20.0402 36.7092 21.6489 34.7244 21.6489Z" fill="white"/>
<path d="M18.2096 18.9499C18.619 18.9499 18.9509 18.618 18.9509 18.2086C18.9509 17.7992 18.619 17.4673 18.2096 17.4673C17.8002 17.4673 17.4683 17.7992 17.4683 18.2086C17.4683 18.618 17.8002 18.9499 18.2096 18.9499Z" fill="white"/>
<path d="M26.3636 18.9499C26.773 18.9499 27.1049 18.618 27.1049 18.2086C27.1049 17.7992 26.773 17.4673 26.3636 17.4673C25.9542 17.4673 25.6223 17.7992 25.6223 18.2086C25.6223 18.618 25.9542 18.9499 26.3636 18.9499Z" fill="white"/>
<path d="M26.3636 27.104C26.773 27.104 27.1049 26.7721 27.1049 26.3627C27.1049 25.9533 26.773 25.6214 26.3636 25.6214C25.9542 25.6214 25.6223 25.9533 25.6223 26.3627C25.6223 26.7721 25.9542 27.104 26.3636 27.104Z" fill="white"/>
<path d="M26.3636 35.2591C26.773 35.2591 27.1049 34.9272 27.1049 34.5178C27.1049 34.1084 26.773 33.7765 26.3636 33.7765C25.9542 33.7765 25.6223 34.1084 25.6223 34.5178C25.6223 34.9272 25.9542 35.2591 26.3636 35.2591Z" fill="white"/>
<path d="M18.2096 35.2591C18.619 35.2591 18.9509 34.9272 18.9509 34.5178C18.9509 34.1084 18.619 33.7765 18.2096 33.7765C17.8002 33.7765 17.4683 34.1084 17.4683 34.5178C17.4683 34.9272 17.8002 35.2591 18.2096 35.2591Z" fill="white"/>
<path d="M34.518 18.9499C34.9275 18.9499 35.2593 18.618 35.2593 18.2086C35.2593 17.7992 34.9275 17.4673 34.518 17.4673C34.1086 17.4673 33.7767 17.7992 33.7767 18.2086C33.7767 18.618 34.1086 18.9499 34.518 18.9499Z" fill="white"/>
<path d="M34.518 35.2591C34.9275 35.2591 35.2593 34.9272 35.2593 34.5178C35.2593 34.1084 34.9275 33.7765 34.518 33.7765C34.1086 33.7765 33.7767 34.1084 33.7767 34.5178C33.7767 34.9272 34.1086 35.2591 34.518 35.2591Z" fill="white"/>
<defs>
<linearGradient id="paint0_linear_2732_1594" x1="3.47321e-07" y1="3.80354" x2="59.2904" y2="16.9111" gradientUnits="userSpaceOnUse">
<stop stop-color="#197CEC"/>
<stop offset="0.608737" stop-color="#004AD9"/>
</linearGradient>
</defs>
</svg>
