<svg width="246" height="246" viewBox="0 0 246 246" fill="none" xmlns="http://www.w3.org/2000/svg">
<rect width="246" height="246" rx="123" fill="url(#paint0_linear_5_75)"/>
<path d="M122.59 29.5194C71.1814 29.5194 29.5201 71.1969 29.5201 122.589C29.5201 173.982 71.1976 215.659 122.59 215.659C173.983 215.659 215.66 173.982 215.66 122.589C215.66 71.1969 173.983 29.5194 122.59 29.5194ZM122.59 67.1975C131.836 67.1975 139.332 74.6943 139.332 83.9398C139.332 93.1852 131.836 100.666 122.59 100.666C113.345 100.666 105.848 93.169 105.848 83.9398C105.848 74.6943 113.345 67.1975 122.59 67.1975ZM83.9243 177.981C74.6788 177.981 67.182 170.484 67.182 161.239C67.182 151.994 74.6788 144.513 83.9243 144.513C93.1697 144.513 100.666 152.01 100.666 161.239C100.666 170.484 93.1697 177.981 83.9243 177.981ZM67.1011 122.589C67.1011 113.344 74.5978 105.847 83.8433 105.847C93.0888 105.847 100.586 113.344 100.586 122.589C100.586 131.835 93.0888 139.332 83.8433 139.332C74.5978 139.332 67.1011 131.835 67.1011 122.589ZM83.9243 100.666C74.6788 100.666 67.182 93.169 67.182 83.9398C67.182 74.6943 74.6788 67.1975 83.9243 67.1975C93.1697 67.1975 100.666 74.6943 100.666 83.9398C100.666 93.1852 93.1697 100.666 83.9243 100.666ZM122.59 105.847C131.836 105.847 139.332 113.344 139.332 122.589C139.332 131.835 131.836 139.332 122.59 139.332C113.345 139.332 105.848 131.835 105.848 122.589C105.848 113.344 113.345 105.847 122.59 105.847ZM122.59 177.981C113.345 177.981 105.848 170.484 105.848 161.239C105.848 151.994 113.345 144.513 122.59 144.513C131.836 144.513 139.332 152.01 139.332 161.239C139.316 170.484 131.819 177.981 122.59 177.981ZM161.466 177.981C152.221 177.981 144.724 170.484 144.724 161.239C144.724 151.994 152.221 144.513 161.466 144.513C170.712 144.513 178.209 152.01 178.209 161.239C178.192 170.484 170.696 177.981 161.466 177.981ZM144.595 122.589C144.595 113.344 152.091 105.847 161.337 105.847C170.582 105.847 178.079 113.344 178.079 122.589C178.079 131.835 170.582 139.332 161.337 139.332C152.091 139.332 144.595 131.835 144.595 122.589ZM161.466 100.666C152.221 100.666 144.724 93.169 144.724 83.9398C144.724 74.6943 152.221 67.1975 161.466 67.1975C170.712 67.1975 178.209 74.6943 178.209 83.9398C178.192 93.1852 170.696 100.666 161.466 100.666Z" fill="white"/>
<path d="M84.6731 88.1161C86.5769 88.1161 88.1202 86.5728 88.1202 84.6691C88.1202 82.7653 86.5769 81.222 84.6731 81.222C82.7694 81.222 81.2261 82.7653 81.2261 84.6691C81.2261 86.5728 82.7694 88.1161 84.6731 88.1161Z" fill="white"/>
<path d="M122.59 88.1161C124.494 88.1161 126.037 86.5728 126.037 84.6691C126.037 82.7653 124.494 81.222 122.59 81.222C120.686 81.222 119.143 82.7653 119.143 84.6691C119.143 86.5728 120.686 88.1161 122.59 88.1161Z" fill="white"/>
<path d="M122.59 126.031C124.494 126.031 126.037 124.488 126.037 122.584C126.037 120.68 124.494 119.137 122.59 119.137C120.686 119.137 119.143 120.68 119.143 122.584C119.143 124.488 120.686 126.031 122.59 126.031Z" fill="white"/>
<path d="M122.59 163.954C124.494 163.954 126.037 162.41 126.037 160.506C126.037 158.603 124.494 157.059 122.59 157.059C120.686 157.059 119.143 158.603 119.143 160.506C119.143 162.41 120.686 163.954 122.59 163.954Z" fill="white"/>
<path d="M84.6731 163.954C86.5769 163.954 88.1202 162.41 88.1202 160.506C88.1202 158.603 86.5769 157.059 84.6731 157.059C82.7694 157.059 81.2261 158.603 81.2261 160.506C81.2261 162.41 82.7694 163.954 84.6731 163.954Z" fill="white"/>
<path d="M160.507 88.1161C162.411 88.1161 163.954 86.5728 163.954 84.6691C163.954 82.7653 162.411 81.222 160.507 81.222C158.604 81.222 157.06 82.7653 157.06 84.6691C157.06 86.5728 158.604 88.1161 160.507 88.1161Z" fill="white"/>
<path d="M160.507 163.954C162.411 163.954 163.954 162.41 163.954 160.506C163.954 158.603 162.411 157.059 160.507 157.059C158.604 157.059 157.06 158.603 157.06 160.506C157.06 162.41 158.604 163.954 160.507 163.954Z" fill="white"/>
<defs>
<linearGradient id="paint0_linear_5_75" x1="1.61502e-06" y1="17.6863" x2="275.697" y2="78.6356" gradientUnits="userSpaceOnUse">
<stop offset="0.108659" stop-color="#197CEC"/>
<stop offset="0.66865" stop-color="#004AD9"/>
</linearGradient>
</defs>
</svg>
