<svg width="35" height="36" viewBox="0 0 35 36" fill="none" xmlns="http://www.w3.org/2000/svg">
<g filter="url(#filter0_d_1752_18865)">
<rect x="4" width="27" height="28" rx="2.87234" fill="url(#paint0_linear_1752_18865)"/>
<path d="M17.455 3.35986C11.8126 3.35986 7.23999 8.10364 7.23999 13.9532C7.23999 19.8027 11.8143 24.5465 17.455 24.5465C23.0956 24.5465 27.67 19.8027 27.67 13.9532C27.67 8.10364 23.0956 3.35986 17.455 3.35986ZM17.455 7.64843C18.4697 7.64843 19.2926 8.50172 19.2926 9.55405C19.2926 10.6064 18.4697 11.4578 17.455 11.4578C16.4402 11.4578 15.6174 10.6045 15.6174 9.55405C15.6174 8.50172 16.4402 7.64843 17.455 7.64843ZM13.2112 20.258C12.1964 20.258 11.3736 19.4047 11.3736 18.3523C11.3736 17.3 12.1964 16.4486 13.2112 16.4486C14.2259 16.4486 15.0487 17.3019 15.0487 18.3523C15.0487 19.4047 14.2259 20.258 13.2112 20.258ZM11.3647 13.9532C11.3647 12.9009 12.1875 12.0476 13.2023 12.0476C14.217 12.0476 15.0399 12.9009 15.0399 13.9532C15.0399 15.0055 14.217 15.8588 13.2023 15.8588C12.1875 15.8588 11.3647 15.0055 11.3647 13.9532ZM13.2112 11.4578C12.1964 11.4578 11.3736 10.6045 11.3736 9.55405C11.3736 8.50172 12.1964 7.64843 13.2112 7.64843C14.2259 7.64843 15.0487 8.50172 15.0487 9.55405C15.0487 10.6064 14.2259 11.4578 13.2112 11.4578ZM17.455 12.0476C18.4697 12.0476 19.2926 12.9009 19.2926 13.9532C19.2926 15.0055 18.4697 15.8588 17.455 15.8588C16.4402 15.8588 15.6174 15.0055 15.6174 13.9532C15.6174 12.9009 16.4402 12.0476 17.455 12.0476ZM17.455 20.258C16.4402 20.258 15.6174 19.4047 15.6174 18.3523C15.6174 17.3 16.4402 16.4486 17.455 16.4486C18.4697 16.4486 19.2926 17.3019 19.2926 18.3523C19.2908 19.4047 18.468 20.258 17.455 20.258ZM21.7219 20.258C20.7072 20.258 19.8843 19.4047 19.8843 18.3523C19.8843 17.3 20.7072 16.4486 21.7219 16.4486C22.7367 16.4486 23.5595 17.3019 23.5595 18.3523C23.5577 19.4047 22.7349 20.258 21.7219 20.258ZM19.8701 13.9532C19.8701 12.9009 20.6929 12.0476 21.7077 12.0476C22.7224 12.0476 23.5452 12.9009 23.5452 13.9532C23.5452 15.0055 22.7224 15.8588 21.7077 15.8588C20.6929 15.8588 19.8701 15.0055 19.8701 13.9532ZM21.7219 11.4578C20.7072 11.4578 19.8843 10.6045 19.8843 9.55405C19.8843 8.50172 20.7072 7.64843 21.7219 7.64843C22.7367 7.64843 23.5595 8.50172 23.5595 9.55405C23.5577 10.6064 22.7349 11.4578 21.7219 11.4578Z" fill="white"/>
<path d="M13.2934 10.0296C13.5023 10.0296 13.6717 9.85391 13.6717 9.63722C13.6717 9.42053 13.5023 9.24487 13.2934 9.24487C13.0844 9.24487 12.915 9.42053 12.915 9.63722C12.915 9.85391 13.0844 10.0296 13.2934 10.0296Z" fill="white"/>
<path d="M17.455 10.0296C17.6639 10.0296 17.8333 9.85391 17.8333 9.63722C17.8333 9.42053 17.6639 9.24487 17.455 9.24487C17.246 9.24487 17.0767 9.42053 17.0767 9.63722C17.0767 9.85391 17.246 10.0296 17.455 10.0296Z" fill="white"/>
<path d="M17.455 14.345C17.6639 14.345 17.8333 14.1693 17.8333 13.9526C17.8333 13.736 17.6639 13.5603 17.455 13.5603C17.246 13.5603 17.0767 13.736 17.0767 13.9526C17.0767 14.1693 17.246 14.345 17.455 14.345Z" fill="white"/>
<path d="M17.455 18.6614C17.6639 18.6614 17.8333 18.4857 17.8333 18.2691C17.8333 18.0524 17.6639 17.8767 17.455 17.8767C17.246 17.8767 17.0767 18.0524 17.0767 18.2691C17.0767 18.4857 17.246 18.6614 17.455 18.6614Z" fill="white"/>
<path d="M13.2934 18.6614C13.5023 18.6614 13.6717 18.4857 13.6717 18.2691C13.6717 18.0524 13.5023 17.8767 13.2934 17.8767C13.0844 17.8767 12.915 18.0524 12.915 18.2691C12.915 18.4857 13.0844 18.6614 13.2934 18.6614Z" fill="white"/>
<path d="M21.6166 10.0296C21.8256 10.0296 21.9949 9.85391 21.9949 9.63722C21.9949 9.42053 21.8256 9.24487 21.6166 9.24487C21.4077 9.24487 21.2383 9.42053 21.2383 9.63722C21.2383 9.85391 21.4077 10.0296 21.6166 10.0296Z" fill="white"/>
<path d="M21.6166 18.6614C21.8256 18.6614 21.9949 18.4857 21.9949 18.2691C21.9949 18.0524 21.8256 17.8767 21.6166 17.8767C21.4077 17.8767 21.2383 18.0524 21.2383 18.2691C21.2383 18.4857 21.4077 18.6614 21.6166 18.6614Z" fill="white"/>
</g>
<defs>
<filter id="filter0_d_1752_18865" x="2.38419e-07" y="0" width="35" height="36" filterUnits="userSpaceOnUse" color-interpolation-filters="sRGB">
<feFlood flood-opacity="0" result="BackgroundImageFix"/>
<feColorMatrix in="SourceAlpha" type="matrix" values="0 0 0 0 0 0 0 0 0 0 0 0 0 0 0 0 0 0 127 0" result="hardAlpha"/>
<feOffset dy="4"/>
<feGaussianBlur stdDeviation="2"/>
<feComposite in2="hardAlpha" operator="out"/>
<feColorMatrix type="matrix" values="0 0 0 0 0 0 0 0 0 0 0 0 0 0 0 0 0 0 0.25 0"/>
<feBlend mode="normal" in2="BackgroundImageFix" result="effect1_dropShadow_1752_18865"/>
<feBlend mode="normal" in="SourceGraphic" in2="effect1_dropShadow_1752_18865" result="shape"/>
</filter>
<linearGradient id="paint0_linear_1752_18865" x1="4" y1="2.01307" x2="34.3586" y2="8.48487" gradientUnits="userSpaceOnUse">
<stop offset="0.108659" stop-color="#197CEC"/>
<stop offset="0.66865" stop-color="#004AD9"/>
</linearGradient>
</defs>
</svg>
