<svg width="268" height="62" viewBox="0 0 268 62" fill="none" xmlns="http://www.w3.org/2000/svg">
<path d="M74.6462 15.5818H81.0434L89.6107 36.4927H89.9489L98.5162 15.5818H104.913V44.44H99.8971V24.6141H99.6294L91.6539 44.3555H87.9057L79.9303 24.5718H79.6625V44.44H74.6462V15.5818ZM119.963 44.8627C117.793 44.8627 115.918 44.4118 114.34 43.51C112.771 42.5988 111.564 41.3118 110.719 39.6491C109.873 37.977 109.451 36.0089 109.451 33.745C109.451 31.5186 109.873 29.5647 110.719 27.8832C111.574 26.1923 112.767 24.8771 114.298 23.9377C115.829 22.9889 117.628 22.5145 119.695 22.5145C121.029 22.5145 122.288 22.7306 123.471 23.1627C124.664 23.5855 125.716 24.243 126.628 25.1355C127.548 26.0279 128.271 27.1645 128.798 28.5455C129.324 29.917 129.587 31.5515 129.587 33.4491V35.0132H111.846V31.575H124.697C124.688 30.598 124.476 29.7291 124.063 28.9682C123.65 28.1979 123.072 27.592 122.33 27.1505C121.597 26.7089 120.742 26.4882 119.765 26.4882C118.723 26.4882 117.807 26.7418 117.018 27.2491C116.228 27.747 115.613 28.4045 115.172 29.2218C114.74 30.0297 114.519 30.9174 114.509 31.885V34.8864C114.509 36.1452 114.74 37.2255 115.2 38.1273C115.66 39.0197 116.304 39.7055 117.13 40.1845C117.957 40.6542 118.925 40.8891 120.033 40.8891C120.775 40.8891 121.447 40.7858 122.048 40.5791C122.649 40.363 123.171 40.0483 123.612 39.635C124.054 39.2217 124.387 38.7097 124.613 38.0991L129.375 38.6345C129.075 39.8933 128.502 40.9924 127.656 41.9318C126.82 42.8618 125.749 43.5852 124.443 44.1018C123.138 44.6091 121.644 44.8627 119.963 44.8627ZM144.71 22.7964V26.7418H132.267V22.7964H144.71ZM135.339 17.6109H140.44V37.93C140.44 38.6158 140.543 39.1418 140.75 39.5082C140.966 39.8652 141.248 40.1094 141.596 40.2409C141.943 40.3724 142.328 40.4382 142.751 40.4382C143.07 40.4382 143.362 40.4147 143.625 40.3677C143.897 40.3208 144.104 40.2785 144.245 40.2409L145.104 44.2286C144.832 44.3226 144.442 44.4259 143.935 44.5386C143.437 44.6514 142.826 44.7171 142.103 44.7359C140.825 44.7735 139.675 44.5809 138.651 44.1582C137.627 43.7261 136.814 43.0591 136.213 42.1573C135.621 41.2555 135.33 40.1282 135.339 38.7755V17.6109ZM155.204 44.8768C153.832 44.8768 152.597 44.6326 151.498 44.1441C150.408 43.6462 149.544 42.9135 148.905 41.9459C148.276 40.9783 147.961 39.7853 147.961 38.3668C147.961 37.1456 148.187 36.1358 148.638 35.3373C149.088 34.5388 149.704 33.9 150.483 33.4209C151.263 32.9418 152.141 32.5802 153.118 32.3359C154.105 32.0823 155.124 31.8991 156.176 31.7864C157.444 31.6549 158.473 31.5374 159.262 31.4341C160.051 31.3214 160.624 31.1523 160.981 30.9268C161.348 30.692 161.531 30.3303 161.531 29.8418V29.7573C161.531 28.6958 161.216 27.8738 160.587 27.2914C159.957 26.7089 159.051 26.4177 157.867 26.4177C156.618 26.4177 155.627 26.6902 154.894 27.235C154.171 27.7799 153.682 28.4233 153.428 29.1655L148.666 28.4891C149.041 27.1739 149.661 26.0749 150.526 25.1918C151.39 24.2994 152.447 23.6324 153.696 23.1909C154.946 22.74 156.326 22.5145 157.839 22.5145C158.882 22.5145 159.92 22.6367 160.953 22.8809C161.986 23.1252 162.93 23.5291 163.785 24.0927C164.64 24.647 165.326 25.4032 165.843 26.3614C166.369 27.3195 166.632 28.5173 166.632 29.9545V44.44H161.728V41.4668H161.559C161.249 42.068 160.812 42.6317 160.248 43.1577C159.694 43.6744 158.994 44.0924 158.149 44.4118C157.313 44.7218 156.331 44.8768 155.204 44.8768ZM156.528 41.1286C157.552 41.1286 158.44 40.9267 159.192 40.5227C159.943 40.1094 160.521 39.5645 160.925 38.8882C161.338 38.2118 161.545 37.4744 161.545 36.6759V34.1255C161.385 34.257 161.113 34.3791 160.728 34.4918C160.352 34.6045 159.929 34.7032 159.459 34.7877C158.99 34.8723 158.525 34.9474 158.064 35.0132C157.604 35.0789 157.205 35.1353 156.867 35.1823C156.106 35.2856 155.425 35.4547 154.823 35.6895C154.222 35.9244 153.748 36.2532 153.4 36.6759C153.053 37.0892 152.879 37.6247 152.879 38.2823C152.879 39.2217 153.222 39.9309 153.908 40.41C154.593 40.8891 155.467 41.1286 156.528 41.1286ZM176.044 44.44L167.9 15.5818H173.522L178.722 36.7886H178.989L184.541 15.5818H189.656L195.222 36.8027H195.476L200.675 15.5818H206.298L198.153 44.44H192.996L187.218 24.1914H186.993L181.202 44.44H176.044ZM216.929 44.8627C214.815 44.8627 212.984 44.3977 211.434 43.4677C209.884 42.5377 208.681 41.2367 207.826 39.5645C206.981 37.8924 206.558 35.9385 206.558 33.7027C206.558 31.467 206.981 29.5083 207.826 27.8268C208.681 26.1453 209.884 24.8395 211.434 23.9095C212.984 22.9795 214.815 22.5145 216.929 22.5145C219.043 22.5145 220.875 22.9795 222.425 23.9095C223.975 24.8395 225.172 26.1453 226.018 27.8268C226.873 29.5083 227.3 31.467 227.3 33.7027C227.3 35.9385 226.873 37.8924 226.018 39.5645C225.172 41.2367 223.975 42.5377 222.425 43.4677C220.875 44.3977 219.043 44.8627 216.929 44.8627ZM216.957 40.7764C218.103 40.7764 219.062 40.4617 219.832 39.8323C220.602 39.1935 221.175 38.3386 221.551 37.2677C221.936 36.1968 222.129 35.0038 222.129 33.6886C222.129 32.3641 221.936 31.1664 221.551 30.0955C221.175 29.0152 220.602 28.1556 219.832 27.5168C219.062 26.878 218.103 26.5586 216.957 26.5586C215.783 26.5586 214.806 26.878 214.026 27.5168C213.256 28.1556 212.678 29.0152 212.293 30.0955C211.917 31.1664 211.73 32.3641 211.73 33.6886C211.73 35.0038 211.917 36.1968 212.293 37.2677C212.678 38.3386 213.256 39.1935 214.026 39.8323C214.806 40.4617 215.783 40.7764 216.957 40.7764ZM231.629 44.44V22.7964H236.575V26.4036H236.801C237.195 25.1542 237.872 24.1914 238.83 23.515C239.797 22.8292 240.901 22.4864 242.141 22.4864C242.423 22.4864 242.738 22.5005 243.085 22.5286C243.442 22.5474 243.738 22.5803 243.973 22.6273V27.3195C243.757 27.2444 243.414 27.1786 242.944 27.1223C242.484 27.0565 242.038 27.0236 241.606 27.0236C240.676 27.0236 239.84 27.2256 239.098 27.6295C238.365 28.0241 237.787 28.5736 237.364 29.2782C236.942 29.9827 236.73 30.7953 236.73 31.7159V44.44H231.629ZM252.012 37.6482L251.998 31.4905H252.815L260.593 22.7964H266.554L256.986 33.4491H255.929L252.012 37.6482ZM247.362 44.44V15.5818H252.463V44.44H247.362ZM260.946 44.44L253.9 34.5905L257.338 30.9973L267.047 44.44H260.946Z" fill="white"/>
<rect x="0.5" width="62" height="62" rx="6.2" fill="url(#paint0_linear_2826_44060)"/>
<path d="M31.3966 7.44C18.4399 7.44 7.93994 17.9441 7.93994 30.8967C7.93994 43.8493 18.444 54.3533 31.3966 54.3533C44.3492 54.3533 54.8533 43.8493 54.8533 30.8967C54.8533 17.9441 44.3492 7.44 31.3966 7.44ZM31.3966 16.9361C33.7268 16.9361 35.6162 18.8255 35.6162 21.1557C35.6162 23.4859 33.7268 25.3712 31.3966 25.3712C29.0665 25.3712 27.177 23.4818 27.177 21.1557C27.177 18.8255 29.0665 16.9361 31.3966 16.9361ZM21.6516 44.8572C19.3214 44.8572 17.432 42.9678 17.432 40.6376C17.432 38.3075 19.3214 36.4221 21.6516 36.4221C23.9817 36.4221 25.8712 38.3116 25.8712 40.6376C25.8712 42.9678 23.9817 44.8572 21.6516 44.8572ZM17.4116 30.8967C17.4116 28.5665 19.301 26.6771 21.6312 26.6771C23.9613 26.6771 25.8507 28.5665 25.8507 30.8967C25.8507 33.2268 23.9613 35.1163 21.6312 35.1163C19.301 35.1163 17.4116 33.2268 17.4116 30.8967ZM21.6516 25.3712C19.3214 25.3712 17.432 23.4818 17.432 21.1557C17.432 18.8255 19.3214 16.9361 21.6516 16.9361C23.9817 16.9361 25.8712 18.8255 25.8712 21.1557C25.8712 23.4859 23.9817 25.3712 21.6516 25.3712ZM31.3966 26.6771C33.7268 26.6771 35.6162 28.5665 35.6162 30.8967C35.6162 33.2268 33.7268 35.1163 31.3966 35.1163C29.0665 35.1163 27.177 33.2268 27.177 30.8967C27.177 28.5665 29.0665 26.6771 31.3966 26.6771ZM31.3966 44.8572C29.0665 44.8572 27.177 42.9678 27.177 40.6376C27.177 38.3075 29.0665 36.4221 31.3966 36.4221C33.7268 36.4221 35.6162 38.3116 35.6162 40.6376C35.6121 42.9678 33.7227 44.8572 31.3966 44.8572ZM41.1947 44.8572C38.8645 44.8572 36.9751 42.9678 36.9751 40.6376C36.9751 38.3075 38.8645 36.4221 41.1947 36.4221C43.5249 36.4221 45.4143 38.3116 45.4143 40.6376C45.4102 42.9678 43.5208 44.8572 41.1947 44.8572ZM36.9425 30.8967C36.9425 28.5665 38.8319 26.6771 41.1621 26.6771C43.4922 26.6771 45.3816 28.5665 45.3816 30.8967C45.3816 33.2268 43.4922 35.1163 41.1621 35.1163C38.8319 35.1163 36.9425 33.2268 36.9425 30.8967ZM41.1947 25.3712C38.8645 25.3712 36.9751 23.4818 36.9751 21.1557C36.9751 18.8255 38.8645 16.9361 41.1947 16.9361C43.5249 16.9361 45.4143 18.8255 45.4143 21.1557C45.4102 23.4859 43.5208 25.3712 41.1947 25.3712Z" fill="white"/>
<path d="M21.8404 22.2082C22.3203 22.2082 22.7092 21.8192 22.7092 21.3394C22.7092 20.8596 22.3203 20.4706 21.8404 20.4706C21.3606 20.4706 20.9717 20.8596 20.9717 21.3394C20.9717 21.8192 21.3606 22.2082 21.8404 22.2082Z" fill="white"/>
<path d="M31.3966 22.2082C31.8764 22.2082 32.2654 21.8192 32.2654 21.3394C32.2654 20.8596 31.8764 20.4706 31.3966 20.4706C30.9168 20.4706 30.5278 20.8596 30.5278 21.3394C30.5278 21.8192 30.9168 22.2082 31.3966 22.2082Z" fill="white"/>
<path d="M31.3966 31.7644C31.8764 31.7644 32.2654 31.3754 32.2654 30.8956C32.2654 30.4158 31.8764 30.0269 31.3966 30.0269C30.9168 30.0269 30.5278 30.4158 30.5278 30.8956C30.5278 31.3754 30.9168 31.7644 31.3966 31.7644Z" fill="white"/>
<path d="M31.3966 41.3216C31.8764 41.3216 32.2654 40.9327 32.2654 40.4529C32.2654 39.9731 31.8764 39.5841 31.3966 39.5841C30.9168 39.5841 30.5278 39.9731 30.5278 40.4529C30.5278 40.9327 30.9168 41.3216 31.3966 41.3216Z" fill="white"/>
<path d="M21.8404 41.3216C22.3203 41.3216 22.7092 40.9327 22.7092 40.4529C22.7092 39.9731 22.3203 39.5841 21.8404 39.5841C21.3606 39.5841 20.9717 39.9731 20.9717 40.4529C20.9717 40.9327 21.3606 41.3216 21.8404 41.3216Z" fill="white"/>
<path d="M40.9532 22.2082C41.433 22.2082 41.822 21.8192 41.822 21.3394C41.822 20.8596 41.433 20.4706 40.9532 20.4706C40.4734 20.4706 40.0845 20.8596 40.0845 21.3394C40.0845 21.8192 40.4734 22.2082 40.9532 22.2082Z" fill="white"/>
<path d="M40.9532 41.3216C41.433 41.3216 41.822 40.9327 41.822 40.4529C41.822 39.9731 41.433 39.5841 40.9532 39.5841C40.4734 39.5841 40.0845 39.9731 40.0845 40.4529C40.0845 40.9327 40.4734 41.3216 40.9532 41.3216Z" fill="white"/>
<defs>
<linearGradient id="paint0_linear_2826_44060" x1="0.5" y1="4.45751" x2="69.9845" y2="19.8187" gradientUnits="userSpaceOnUse">
<stop stop-color="#197CEC"/>
<stop offset="0.608737" stop-color="#004AD9"/>
</linearGradient>
</defs>
</svg>
