<svg width="137" height="136" viewBox="0 0 137 136" fill="none" xmlns="http://www.w3.org/2000/svg">
<g opacity="0.4" filter="url(#filter0_d_2826_43568)">
<circle cx="67.75" cy="65.7676" r="65.75" fill="url(#paint0_linear_2826_43568)" fill-opacity="0.8" shape-rendering="crispEdges"/>
<circle cx="67.75" cy="65.7676" r="65.4901" stroke="url(#paint1_linear_2826_43568)" stroke-opacity="0.5" stroke-width="0.519763" shape-rendering="crispEdges"/>
</g>
<g opacity="0.6" filter="url(#filter1_d_2826_43568)">
<circle cx="67.7503" cy="65.931" r="52.3997" fill="url(#paint2_linear_2826_43568)" fill-opacity="0.6" shape-rendering="crispEdges"/>
<circle cx="67.7503" cy="65.931" r="52.1399" stroke="url(#paint3_linear_2826_43568)" stroke-opacity="0.5" stroke-width="0.519763" shape-rendering="crispEdges"/>
</g>
<g opacity="0.8" filter="url(#filter2_d_2826_43568)">
<circle cx="67.7497" cy="65.7675" r="39.0495" fill="url(#paint4_linear_2826_43568)" fill-opacity="0.8" shape-rendering="crispEdges"/>
<circle cx="67.7497" cy="65.7675" r="38.7896" stroke="url(#paint5_linear_2826_43568)" stroke-opacity="0.5" stroke-width="0.519763" shape-rendering="crispEdges"/>
</g>
<path d="M73.763 78.7425C73.8763 78.434 73.6357 78.123 73.307 78.123H61.9375C61.6088 78.123 61.3682 78.434 61.4815 78.7425C62.4 81.2435 64.8027 83.0278 67.6222 83.0278C70.4417 83.0278 72.8445 81.2435 73.763 78.7425Z" fill="white"/>
<path d="M81.6593 74.8532H53.5685C52.3007 74.8532 51.2729 73.8254 51.273 72.5576C51.273 71.935 51.5259 71.339 51.9737 70.9065L52.9618 69.9521C54.0457 68.9053 54.6556 67.4616 54.6507 65.9548L54.6408 62.9501C54.618 55.9866 60.2567 50.3293 67.2203 50.3293H67.9848C75.0081 50.3293 80.7015 56.0228 80.7015 63.0461L80.7015 66.0014C80.7015 67.4818 81.2896 68.9016 82.3365 69.9484L83.2942 70.9061C83.7278 71.3397 83.9714 71.9278 83.9714 72.5411C83.9714 73.818 82.9362 74.8532 81.6593 74.8532Z" fill="white"/>
<rect x="71.1437" y="46.0538" width="14.0855" height="14.0855" rx="7.04274" fill="url(#paint6_linear_2826_43568)"/>
<path d="M76.1916 56.0598V55.2938L78.2238 53.3016C78.4182 53.1053 78.5801 52.931 78.7097 52.7785C78.8393 52.6261 78.9365 52.4784 79.0013 52.3355C79.066 52.1926 79.0984 52.0402 79.0984 51.8782C79.0984 51.6934 79.0565 51.5352 78.9727 51.4037C78.8888 51.2703 78.7735 51.1674 78.6268 51.095C78.4801 51.0226 78.3134 50.9864 78.1266 50.9864C77.9342 50.9864 77.7655 51.0264 77.6207 51.1065C77.4759 51.1846 77.3635 51.2961 77.2834 51.4409C77.2053 51.5857 77.1663 51.7581 77.1663 51.9582H76.1573C76.1573 51.5866 76.2421 51.2637 76.4117 50.9893C76.5813 50.7149 76.8147 50.5024 77.1119 50.3519C77.4111 50.2013 77.7541 50.1261 78.1409 50.1261C78.5335 50.1261 78.8784 50.1994 79.1756 50.3462C79.4729 50.4929 79.7034 50.6939 79.8673 50.9493C80.0331 51.2046 80.116 51.4961 80.116 51.8239C80.116 52.043 80.0741 52.2583 79.9902 52.4698C79.9064 52.6814 79.7587 52.9157 79.5472 53.173C79.3376 53.4302 79.0432 53.7418 78.664 54.1076L77.655 55.1337V55.1738H80.2046V56.0598H76.1916Z" fill="white"/>
<rect x="71.1437" y="46.0538" width="14.0855" height="14.0855" rx="7.04274" stroke="url(#paint7_linear_2826_43568)" stroke-width="1.00611"/>
<defs>
<filter id="filter0_d_2826_43568" x="0.440712" y="0.0175781" width="135.658" height="135.658" filterUnits="userSpaceOnUse" color-interpolation-filters="sRGB">
<feFlood flood-opacity="0" result="BackgroundImageFix"/>
<feColorMatrix in="SourceAlpha" type="matrix" values="0 0 0 0 0 0 0 0 0 0 0 0 0 0 0 0 0 0 127 0" result="hardAlpha"/>
<feOffset dx="0.519763" dy="2.07905"/>
<feGaussianBlur stdDeviation="1.03953"/>
<feComposite in2="hardAlpha" operator="out"/>
<feColorMatrix type="matrix" values="0 0 0 0 0.0117647 0 0 0 0 0.180392 0 0 0 0 0.490196 0 0 0 1 0"/>
<feBlend mode="normal" in2="BackgroundImageFix" result="effect1_dropShadow_2826_43568"/>
<feBlend mode="normal" in="SourceGraphic" in2="effect1_dropShadow_2826_43568" result="shape"/>
</filter>
<filter id="filter1_d_2826_43568" x="14.3111" y="13.0115" width="108.957" height="108.958" filterUnits="userSpaceOnUse" color-interpolation-filters="sRGB">
<feFlood flood-opacity="0" result="BackgroundImageFix"/>
<feColorMatrix in="SourceAlpha" type="matrix" values="0 0 0 0 0 0 0 0 0 0 0 0 0 0 0 0 0 0 127 0" result="hardAlpha"/>
<feOffset dx="1.03953" dy="1.55929"/>
<feGaussianBlur stdDeviation="1.03953"/>
<feComposite in2="hardAlpha" operator="out"/>
<feColorMatrix type="matrix" values="0 0 0 0 0.00392157 0 0 0 0 0.164706 0 0 0 0 0.482353 0 0 0 1 0"/>
<feBlend mode="normal" in2="BackgroundImageFix" result="effect1_dropShadow_2826_43568"/>
<feBlend mode="normal" in="SourceGraphic" in2="effect1_dropShadow_2826_43568" result="shape"/>
</filter>
<filter id="filter2_d_2826_43568" x="26.6211" y="25.1587" width="83.2967" height="83.2965" filterUnits="userSpaceOnUse" color-interpolation-filters="sRGB">
<feFlood flood-opacity="0" result="BackgroundImageFix"/>
<feColorMatrix in="SourceAlpha" type="matrix" values="0 0 0 0 0 0 0 0 0 0 0 0 0 0 0 0 0 0 127 0" result="hardAlpha"/>
<feOffset dx="0.519763" dy="1.03953"/>
<feGaussianBlur stdDeviation="1.29941"/>
<feComposite in2="hardAlpha" operator="out"/>
<feColorMatrix type="matrix" values="0 0 0 0 0.0196078 0 0 0 0 0.27451 0 0 0 0 0.733333 0 0 0 1 0"/>
<feBlend mode="normal" in2="BackgroundImageFix" result="effect1_dropShadow_2826_43568"/>
<feBlend mode="normal" in="SourceGraphic" in2="effect1_dropShadow_2826_43568" result="shape"/>
</filter>
<linearGradient id="paint0_linear_2826_43568" x1="2" y1="9.47182" x2="149.374" y2="42.0525" gradientUnits="userSpaceOnUse">
<stop stop-color="#197CEC"/>
<stop offset="0.608737" stop-color="#004AD9"/>
</linearGradient>
<linearGradient id="paint1_linear_2826_43568" x1="30.8468" y1="12.7518" x2="99.9753" y2="123.201" gradientUnits="userSpaceOnUse">
<stop stop-color="#75A0F2"/>
<stop offset="1" stop-color="white" stop-opacity="0.8"/>
</linearGradient>
<linearGradient id="paint2_linear_2826_43568" x1="15.3506" y1="21.0659" x2="132.801" y2="47.0311" gradientUnits="userSpaceOnUse">
<stop stop-color="#197CEC"/>
<stop offset="0.608737" stop-color="#004AD9"/>
</linearGradient>
<linearGradient id="paint3_linear_2826_43568" x1="35.4122" y1="18.3221" x2="108.173" y2="108.45" gradientUnits="userSpaceOnUse">
<stop stop-color="#75A0F2"/>
<stop offset="1" stop-color="white" stop-opacity="0.2"/>
</linearGradient>
<linearGradient id="paint4_linear_2826_43568" x1="43.3209" y1="42.8979" x2="102.221" y2="57.2994" gradientUnits="userSpaceOnUse">
<stop stop-color="#197CEC"/>
<stop offset="0.629571" stop-color="#004AD9"/>
</linearGradient>
<linearGradient id="paint5_linear_2826_43568" x1="41.5018" y1="38.22" x2="97.8736" y2="97.4534" gradientUnits="userSpaceOnUse">
<stop stop-color="#75A0F2"/>
<stop offset="1" stop-color="white" stop-opacity="0.5"/>
</linearGradient>
<linearGradient id="paint6_linear_2826_43568" x1="72.1498" y1="59.3847" x2="85.7322" y2="48.3176" gradientUnits="userSpaceOnUse">
<stop offset="0.284375" stop-color="#FF3838"/>
<stop offset="1" stop-color="#EF2525" stop-opacity="0.66"/>
</linearGradient>
<linearGradient id="paint7_linear_2826_43568" x1="70.6406" y1="46.5569" x2="87.7444" y2="59.6363" gradientUnits="userSpaceOnUse">
<stop stop-color="#37538B"/>
<stop offset="1" stop-color="#20396C"/>
</linearGradient>
</defs>
</svg>
