<svg xmlns="http://www.w3.org/2000/svg" width="799" height="335" fill="none" viewBox="0 0 799 335"><g clip-path="url(#clip0_1234_23396)"><rect width="799" height="335" fill="#000515" rx="15"/><g filter="url(#filter0_f_1234_23396)"><path fill="url(#paint0_linear_1234_23396)" d="M608.204 634.752c-215.253 58.384-325.733-8.457-354.32-113.854-28.587-105.397 405.468-186.833 620.721-245.217 215.255-58.384 11.809 68.162 40.396 173.559 28.587 105.397-91.544 127.129-306.797 185.512Z"/></g><rect width="184.58" height="178.58" x="66.21" y="65.21" fill="#000A28" rx="14.506"/><g opacity=".8"><rect width="55.168" height="55.168" x="130.916" y="97.515" fill="url(#paint1_linear_1234_23396)" rx="18.389"/><rect width="53.329" height="53.329" x="131.835" y="98.434" stroke="url(#paint2_linear_1234_23396)" stroke-opacity=".5" stroke-width="1.839" rx="17.47"/></g><path fill="url(#paint3_linear_1234_23396)" d="M162.236 126.535h-7.471c-5.078 0-9.195 4.158-9.195 9.236 0 2.031 1.647 3.694 3.678 3.694h18.505c2.031 0 3.677-1.663 3.677-3.694 0-5.078-4.116-9.236-9.194-9.236Z"/><circle cx="158.5" cy="117.197" r="6.465" fill="url(#paint4_linear_1234_23396)"/><path fill="#fff" d="M112.812 196.683h-1.969l3.585-10.182h2.277l3.589 10.182h-1.969l-2.719-8.094h-.08l-2.714 8.094Zm.064-3.993h5.37v1.482h-5.37v-1.482Zm11.281 4.127c-.6 0-1.137-.154-1.611-.463-.474-.308-.848-.755-1.123-1.342-.276-.586-.413-1.299-.413-2.138 0-.848.139-1.564.418-2.147.281-.587.661-1.029 1.138-1.328a2.93 2.93 0 0 1 1.596-.452c.447 0 .815.076 1.104.229.288.149.517.329.686.541.169.209.3.406.392.592h.075v-3.808h1.805v10.182h-1.77v-1.204h-.11a3.058 3.058 0 0 1-.402.592 2.218 2.218 0 0 1-.696.527c-.289.146-.652.219-1.089.219Zm.502-1.477c.381 0 .706-.102.975-.308.268-.209.472-.499.611-.87s.209-.804.209-1.298c0-.493-.07-.923-.209-1.287-.136-.365-.338-.648-.607-.85-.265-.203-.591-.304-.979-.304-.401 0-.736.105-1.004.314-.269.208-.471.497-.607.865a3.623 3.623 0 0 0-.204 1.262c0 .478.068.904.204 1.278.14.371.343.665.612.88.272.212.605.318.999.318Zm8.316 1.477c-.6 0-1.137-.154-1.61-.463-.474-.308-.849-.755-1.124-1.342-.275-.586-.413-1.299-.413-2.138 0-.848.14-1.564.418-2.147.282-.587.661-1.029 1.138-1.328a2.934 2.934 0 0 1 1.596-.452c.448 0 .816.076 1.104.229.288.149.517.329.686.541.169.209.3.406.393.592h.074v-3.808h1.805v10.182h-1.77v-1.204h-.109a3.067 3.067 0 0 1-.403.592 2.218 2.218 0 0 1-.696.527c-.288.146-.651.219-1.089.219Zm.502-1.477c.382 0 .706-.102.975-.308.268-.209.472-.499.611-.87.14-.371.209-.804.209-1.298 0-.493-.069-.923-.209-1.287-.136-.365-.338-.648-.606-.85-.265-.203-.592-.304-.98-.304-.401 0-.735.105-1.004.314-.268.208-.47.497-.606.865a3.623 3.623 0 0 0-.204 1.262c0 .478.068.904.204 1.278.139.371.343.665.611.88.272.212.605.318.999.318Zm12.286 1.492c-.762 0-1.416-.168-1.963-.502a3.352 3.352 0 0 1-1.258-1.387c-.292-.594-.438-1.276-.438-2.049 0-.775.15-1.46.448-2.053a3.33 3.33 0 0 1 1.263-1.392c.547-.335 1.193-.502 1.939-.502.619 0 1.168.114 1.645.343.481.225.864.545 1.149.959.285.411.447.892.487 1.442h-1.72a1.65 1.65 0 0 0-.498-.92c-.258-.248-.604-.372-1.039-.372-.367 0-.691.099-.969.298-.278.195-.496.477-.651.845-.153.368-.229.809-.229 1.322 0 .521.076.968.229 1.343.152.371.366.658.641.86.278.199.605.298.979.298.266 0 .503-.05.711-.149.212-.103.39-.25.532-.442.143-.193.241-.426.294-.701h1.72a2.995 2.995 0 0 1-.477 1.436c-.276.415-.65.739-1.124.975-.474.232-1.031.348-1.671.348Zm8.081 0c-.746 0-1.392-.164-1.939-.492a3.352 3.352 0 0 1-1.273-1.378c-.298-.59-.448-1.279-.448-2.068 0-.789.15-1.48.448-2.073a3.338 3.338 0 0 1 1.273-1.382c.547-.328 1.193-.492 1.939-.492.745 0 1.392.164 1.938.492.547.328.97.789 1.268 1.382.302.593.453 1.284.453 2.073 0 .789-.151 1.478-.453 2.068a3.315 3.315 0 0 1-1.268 1.378c-.546.328-1.193.492-1.938.492Zm.01-1.442c.404 0 .742-.111 1.014-.333.272-.225.474-.527.606-.905a3.71 3.71 0 0 0 .204-1.263c0-.467-.068-.89-.204-1.267a1.993 1.993 0 0 0-.606-.91c-.272-.226-.61-.338-1.014-.338-.415 0-.759.112-1.035.338a2.041 2.041 0 0 0-.611.91c-.133.377-.199.8-.199 1.267 0 .464.066.885.199 1.263.136.378.34.68.611.905.276.222.62.333 1.035.333Zm6.976-3.182v4.475h-1.8v-7.637h1.72v1.298h.09c.176-.428.456-.767.84-1.019.388-.252.867-.378 1.437-.378.527 0 .986.113 1.377.338.394.225.699.552.915.979.218.428.326.947.323 1.556v4.863h-1.8v-4.584c0-.511-.132-.91-.398-1.198-.261-.289-.624-.433-1.088-.433-.315 0-.595.07-.841.209a1.45 1.45 0 0 0-.571.592c-.136.258-.204.571-.204.939Zm10.545-3.162v1.392h-4.39v-1.392h4.39Zm-3.306-1.829h1.799v7.169c0 .242.037.427.11.557a.584.584 0 0 0 .298.258c.123.046.258.07.408.07.112 0 .215-.009.308-.025.096-.017.169-.032.219-.045l.303 1.407c-.096.033-.234.07-.413.109a3.38 3.38 0 0 1-.646.07 2.94 2.94 0 0 1-1.218-.204 1.894 1.894 0 0 1-.86-.706c-.209-.318-.312-.716-.308-1.193v-7.467Zm4.811 9.466v-7.637h1.745v1.273h.079c.14-.441.378-.781.716-1.019a1.972 1.972 0 0 1 1.169-.363c.099 0 .21.005.333.015.126.006.23.018.313.035v1.655a1.866 1.866 0 0 0-.363-.069 3.222 3.222 0 0 0-.472-.035c-.328 0-.623.071-.885.214a1.563 1.563 0 0 0-.612.581 1.64 1.64 0 0 0-.223.86v4.49h-1.8Zm7.611.154c-.484 0-.919-.086-1.307-.259a2.126 2.126 0 0 1-.915-.775c-.222-.342-.333-.763-.333-1.263 0-.431.079-.787.239-1.069.159-.282.376-.507.651-.676.275-.169.585-.297.93-.383a7.656 7.656 0 0 1 1.078-.194 42.49 42.49 0 0 0 1.089-.124c.279-.04.481-.1.607-.179.129-.083.194-.211.194-.383v-.03c0-.374-.111-.664-.334-.87-.222-.205-.541-.308-.959-.308-.441 0-.791.096-1.049.288-.255.193-.428.42-.517.681l-1.681-.238c.133-.464.352-.852.657-1.164.305-.314.678-.55 1.118-.706a4.283 4.283 0 0 1 1.462-.238c.368 0 .734.043 1.099.129.364.086.697.229.999.428.302.195.544.462.726.8.185.338.278.761.278 1.268v5.111h-1.73v-1.049h-.06a2.176 2.176 0 0 1-1.203 1.039 2.993 2.993 0 0 1-1.039.164Zm.468-1.323c.361 0 .674-.071.939-.213.265-.146.469-.339.612-.577a1.47 1.47 0 0 0 .219-.781v-.9a.847.847 0 0 1-.289.13 4.315 4.315 0 0 1-.447.104c-.166.03-.33.056-.492.08l-.423.059a3.156 3.156 0 0 0-.721.179 1.203 1.203 0 0 0-.502.348c-.123.146-.184.335-.184.567 0 .331.121.582.363.751.242.169.55.253.925.253Zm8.705 1.318c-.762 0-1.417-.168-1.964-.502a3.359 3.359 0 0 1-1.258-1.387c-.291-.594-.437-1.276-.437-2.049 0-.775.149-1.46.447-2.053a3.336 3.336 0 0 1 1.263-1.392c.547-.335 1.193-.502 1.939-.502.62 0 1.168.114 1.646.343.48.225.863.545 1.148.959.285.411.447.892.487 1.442h-1.72a1.649 1.649 0 0 0-.497-.92c-.259-.248-.605-.372-1.039-.372-.368 0-.691.099-.97.298-.278.195-.495.477-.651.845-.152.368-.229.809-.229 1.322 0 .521.077.968.229 1.343.153.371.366.658.641.86.279.199.605.298.98.298.265 0 .502-.05.711-.149.212-.103.389-.25.532-.442a1.71 1.71 0 0 0 .293-.701h1.72a2.995 2.995 0 0 1-.477 1.436c-.275.415-.65.739-1.124.975-.474.232-1.03.348-1.67.348Zm8.562-7.786v1.392h-4.39v-1.392h4.39Zm-3.306-1.829h1.8v7.169c0 .242.036.427.109.557a.588.588 0 0 0 .298.258c.123.046.259.07.408.07.113 0 .216-.009.308-.025.097-.017.169-.032.219-.045l.303 1.407c-.096.033-.233.07-.412.109a3.39 3.39 0 0 1-.647.07 2.945 2.945 0 0 1-1.218-.204 1.894 1.894 0 0 1-.86-.706c-.208-.318-.311-.716-.308-1.193v-7.467Zm10.737 3.848-1.64.179a1.331 1.331 0 0 0-.244-.468 1.218 1.218 0 0 0-.457-.353 1.675 1.675 0 0 0-.706-.134c-.375 0-.689.081-.945.244-.252.162-.376.373-.373.631a.661.661 0 0 0 .244.542c.169.139.447.254.835.343l1.303.279c.722.155 1.259.402 1.611.74.354.338.533.781.537 1.328-.004.48-.145.905-.423 1.272-.275.365-.658.65-1.148.856-.491.205-1.054.308-1.691.308-.934 0-1.687-.196-2.257-.587-.57-.394-.91-.943-1.019-1.645l1.755-.17c.079.345.248.605.507.781.259.176.595.264 1.009.264.428 0 .771-.088 1.029-.264.262-.176.393-.393.393-.651 0-.219-.084-.4-.253-.542-.166-.143-.425-.252-.776-.328l-1.303-.274c-.732-.152-1.274-.409-1.625-.77-.352-.365-.526-.826-.522-1.382-.004-.471.124-.879.383-1.223.261-.348.624-.617 1.088-.806.468-.192 1.006-.288 1.616-.288.895 0 1.599.19 2.113.572a2.4 2.4 0 0 1 .959 1.546Z"/><rect width="184.58" height="178.58" x="66.21" y="65.21" stroke="url(#paint5_linear_1234_23396)" stroke-width=".42" rx="14.506"/><rect width="184.58" height="178.58" x="66.21" y="65.21" stroke="url(#paint6_linear_1234_23396)" stroke-width=".42" rx="14.506"/><rect width="184.58" height="179.58" x="307.109" y="65.21" fill="#000A28" rx="14.506"/><g clip-path="url(#clip1_1234_23396)"><g opacity=".8"><rect width="53.589" height="53.589" x="372.604" y="98.805" fill="url(#paint7_linear_1234_23396)" rx="17.863"/><rect width="51.803" height="51.803" x="373.498" y="99.698" stroke="url(#paint8_linear_1234_23396)" stroke-opacity=".5" stroke-width="1.786" rx="16.97"/></g><circle cx="395.413" cy="124.073" r="4.077" fill="url(#paint9_linear_1234_23396)"/><circle cx="408.718" cy="134.064" r="4.077" fill="url(#paint10_linear_1234_23396)"/><path stroke="url(#paint11_linear_1234_23396)" stroke-width=".841" d="M0-.42h10.968" transform="rotate(-8.223 1140.346 -2671.322)"/><path stroke="url(#paint12_linear_1234_23396)" stroke-width=".841" d="M0-.42h8.563" transform="rotate(-147.11 222.405 5.34)"/><path stroke="url(#paint13_linear_1234_23396)" stroke-width=".841" d="M0-.42h6.52" transform="rotate(145.639 183.791 121.334)"/><circle cx="407.532" cy="115.918" r="4.077" fill="url(#paint14_linear_1234_23396)"/><circle cx="390.079" cy="136.453" r="4.077" fill="url(#paint15_linear_1234_23396)"/></g><path fill="#fff" d="M339.904 196.394v-10.182h3.818c.782 0 1.438.136 1.969.407.533.272.936.653 1.208 1.144.275.487.412 1.056.412 1.705 0 .653-.139 1.22-.417 1.7-.275.478-.681.847-1.218 1.109-.537.259-1.197.388-1.979.388h-2.719v-1.531h2.47c.458 0 .832-.063 1.124-.189a1.34 1.34 0 0 0 .646-.562c.143-.249.214-.554.214-.915s-.071-.669-.214-.925a1.354 1.354 0 0 0-.651-.586c-.292-.136-.668-.204-1.129-.204h-1.69v8.641h-1.844Zm5.26-4.614 2.52 4.614h-2.058l-2.476-4.614h2.014Zm8.633 1.402v-4.425h1.8v7.637h-1.746v-1.358h-.079a2.29 2.29 0 0 1-.85 1.049c-.391.272-.874.408-1.447.408-.5 0-.943-.111-1.327-.333a2.304 2.304 0 0 1-.895-.98c-.216-.43-.323-.951-.323-1.561v-4.862h1.799v4.584c0 .484.133.868.398 1.153.265.285.613.428 1.044.428.265 0 .522-.065.771-.194.248-.129.452-.321.611-.577.163-.258.244-.581.244-.969Zm5.45-1.263v4.475h-1.8v-7.637h1.72v1.298h.09c.175-.428.456-.768.84-1.019.388-.252.867-.378 1.437-.378.527 0 .986.112 1.377.338.394.225.699.552.915.979.218.428.326.946.323 1.556v4.863h-1.8v-4.584c0-.511-.132-.91-.398-1.198-.261-.289-.624-.433-1.088-.433-.315 0-.595.07-.841.209a1.453 1.453 0 0 0-.571.591c-.136.259-.204.572-.204.94Zm10.284-5.707h2.257l3.022 7.378h.12l3.023-7.378h2.257v10.182h-1.77v-6.995h-.095l-2.814 6.965h-1.322l-2.814-6.98h-.094v7.01h-1.77v-10.182Zm14.805 10.336c-.484 0-.92-.087-1.308-.259a2.136 2.136 0 0 1-.914-.775c-.222-.342-.333-.763-.333-1.263 0-.431.079-.787.238-1.069.159-.282.376-.507.652-.676.275-.169.585-.297.929-.383.348-.09.708-.154 1.079-.194.448-.046.81-.088 1.089-.124.278-.04.48-.1.606-.179.13-.083.194-.211.194-.383v-.03c0-.374-.111-.664-.333-.87-.222-.205-.542-.308-.959-.308-.441 0-.791.096-1.049.288-.256.192-.428.42-.517.681l-1.681-.238c.133-.464.352-.852.656-1.164.305-.315.678-.55 1.119-.706a4.283 4.283 0 0 1 1.462-.238c.368 0 .734.043 1.098.129.365.086.698.229 1 .428.301.195.543.462.726.8.185.338.278.761.278 1.268v5.111h-1.73v-1.049h-.06a2.176 2.176 0 0 1-1.203 1.039 2.993 2.993 0 0 1-1.039.164Zm.467-1.323c.362 0 .675-.071.94-.214.265-.145.469-.338.611-.576a1.47 1.47 0 0 0 .219-.781v-.9a.831.831 0 0 1-.288.13 4.337 4.337 0 0 1-.448.104c-.165.03-.329.056-.492.08a61.48 61.48 0 0 1-.422.059 3.156 3.156 0 0 0-.721.179c-.212.083-.38.199-.502.348-.123.146-.184.335-.184.567 0 .331.121.582.363.751.242.169.55.253.924.253Zm8.706 1.318c-.763 0-1.417-.168-1.964-.502a3.355 3.355 0 0 1-1.258-1.388c-.292-.593-.437-1.276-.437-2.048 0-.775.149-1.46.447-2.053a3.33 3.33 0 0 1 1.263-1.392c.547-.335 1.193-.502 1.939-.502.619 0 1.168.114 1.645.343.481.225.864.545 1.149.959.285.411.447.892.487 1.442h-1.72a1.655 1.655 0 0 0-.497-.92c-.259-.248-.605-.373-1.039-.373-.368 0-.692.1-.97.299-.278.195-.495.477-.651.845-.153.368-.229.809-.229 1.322 0 .521.076.968.229 1.343.152.371.366.658.641.86.279.199.605.298.98.298.265 0 .502-.05.71-.149.213-.103.39-.25.532-.443.143-.192.241-.425.294-.701h1.72a2.995 2.995 0 0 1-.477 1.437c-.275.415-.65.739-1.124.975-.474.232-1.031.348-1.67.348Zm6.548-4.624v4.475h-1.799v-10.182h1.76v3.843h.089c.179-.431.456-.771.83-1.019.378-.252.859-.378 1.442-.378.53 0 .993.111 1.387.333.395.222.7.547.915.974.219.428.328.95.328 1.566v4.863h-1.8v-4.584c0-.514-.132-.913-.397-1.198-.262-.289-.63-.433-1.104-.433-.318 0-.603.07-.855.209a1.465 1.465 0 0 0-.587.591c-.139.259-.209.572-.209.94Zm8.984 4.629c-.484 0-.92-.087-1.307-.259a2.133 2.133 0 0 1-.915-.775c-.222-.342-.333-.763-.333-1.263 0-.431.079-.787.238-1.069.159-.282.377-.507.652-.676.275-.169.585-.297.929-.383.348-.09.708-.154 1.079-.194a42.49 42.49 0 0 0 1.089-.124c.278-.04.481-.1.606-.179.13-.083.194-.211.194-.383v-.03c0-.374-.111-.664-.333-.87-.222-.205-.542-.308-.959-.308-.441 0-.791.096-1.049.288-.255.192-.428.42-.517.681l-1.681-.238c.133-.464.352-.852.657-1.164.304-.315.677-.55 1.118-.706a4.283 4.283 0 0 1 1.462-.238c.368 0 .734.043 1.099.129.364.086.697.229.999.428.301.195.543.462.726.8.185.338.278.761.278 1.268v5.111h-1.73v-1.049h-.06a2.176 2.176 0 0 1-1.203 1.039 2.993 2.993 0 0 1-1.039.164Zm.467-1.323c.362 0 .675-.071.94-.214.265-.145.469-.338.612-.576.145-.239.218-.499.218-.781v-.9a.831.831 0 0 1-.288.13 4.376 4.376 0 0 1-.447.104c-.166.03-.33.056-.493.08a61.48 61.48 0 0 1-.422.059 3.156 3.156 0 0 0-.721.179c-.212.083-.38.199-.502.348-.123.146-.184.335-.184.567 0 .331.121.582.363.751.242.169.55.253.924.253Zm10.647-3.306v4.475h-1.8v-7.637h1.721v1.298h.089a2.18 2.18 0 0 1 .84-1.019c.388-.252.867-.378 1.437-.378.527 0 .986.112 1.377.338.395.225.699.552.915.979.219.428.326.946.323 1.556v4.863h-1.8v-4.584c0-.511-.132-.91-.397-1.198-.262-.289-.625-.433-1.089-.433-.315 0-.595.07-.84.209a1.449 1.449 0 0 0-.572.591c-.136.259-.204.572-.204.94Zm10.063 4.624c-.746 0-1.392-.164-1.939-.492a3.352 3.352 0 0 1-1.273-1.378c-.298-.59-.447-1.279-.447-2.068 0-.789.149-1.48.447-2.073a3.338 3.338 0 0 1 1.273-1.382c.547-.328 1.193-.492 1.939-.492.745 0 1.392.164 1.939.492.546.328.969.789 1.267 1.382.302.593.453 1.284.453 2.073 0 .789-.151 1.478-.453 2.068a3.319 3.319 0 0 1-1.267 1.378c-.547.328-1.194.492-1.939.492Zm.01-1.442c.404 0 .742-.111 1.014-.333.272-.226.474-.527.606-.905a3.71 3.71 0 0 0 .204-1.263c0-.467-.068-.89-.204-1.268a1.995 1.995 0 0 0-.606-.909c-.272-.226-.61-.338-1.014-.338-.415 0-.759.112-1.035.338a2.043 2.043 0 0 0-.611.909 3.804 3.804 0 0 0-.199 1.268c0 .464.066.885.199 1.263.136.378.34.679.611.905.276.222.62.333 1.035.333Zm8.01 1.427c-.6 0-1.137-.154-1.611-.463-.474-.308-.848-.755-1.123-1.342-.275-.587-.413-1.299-.413-2.138 0-.848.139-1.564.418-2.147.281-.587.661-1.03 1.138-1.328a2.93 2.93 0 0 1 1.596-.452c.447 0 .815.076 1.104.228.288.15.517.33.686.542.169.209.3.406.393.592h.074v-3.808h1.805v10.182h-1.77v-1.204h-.109a3.113 3.113 0 0 1-.403.592 2.218 2.218 0 0 1-.696.527c-.289.146-.651.219-1.089.219Zm.502-1.477c.381 0 .706-.103.975-.308.268-.209.472-.499.611-.87s.209-.804.209-1.298c0-.493-.07-.923-.209-1.287-.136-.365-.338-.648-.606-.85-.266-.203-.592-.304-.98-.304-.401 0-.736.105-1.004.314-.269.208-.471.497-.607.865a3.62 3.62 0 0 0-.203 1.262c0 .478.067.904.203 1.278.14.371.343.665.612.88.272.212.605.318.999.318Zm8.863 1.492c-.765 0-1.427-.159-1.983-.478a3.223 3.223 0 0 1-1.278-1.362c-.298-.59-.448-1.284-.448-2.083 0-.785.15-1.475.448-2.068a3.37 3.37 0 0 1 1.263-1.392c.54-.335 1.175-.502 1.904-.502.47 0 .915.076 1.332.228.421.15.792.382 1.114.696.325.315.58.716.765 1.204.186.484.279 1.06.279 1.73v.552h-6.259v-1.214h4.534a1.94 1.94 0 0 0-.224-.919 1.63 1.63 0 0 0-.612-.642 1.723 1.723 0 0 0-.904-.233c-.368 0-.691.089-.97.268a1.86 1.86 0 0 0-.651.696c-.153.285-.23.598-.234.94v1.059c0 .444.081.825.244 1.143.162.315.389.557.681.726.292.166.633.249 1.024.249.262 0 .499-.037.711-.11.212-.076.396-.187.552-.333.156-.146.273-.326.353-.542l1.68.189a2.627 2.627 0 0 1-.606 1.164 2.954 2.954 0 0 1-1.134.765c-.46.179-.987.269-1.581.269Zm10.954-5.767-1.641.179a1.312 1.312 0 0 0-.243-.468 1.212 1.212 0 0 0-.458-.353 1.672 1.672 0 0 0-.706-.134c-.374 0-.689.081-.944.244-.252.162-.376.373-.373.631a.663.663 0 0 0 .243.542c.169.139.448.254.836.343l1.302.278c.723.156 1.26.403 1.611.741.355.338.534.781.537 1.328a2.07 2.07 0 0 1-.423 1.272c-.275.365-.658.65-1.148.855-.491.206-1.054.309-1.69.309-.935 0-1.687-.196-2.257-.587-.571-.394-.91-.943-1.02-1.646l1.755-.169c.08.345.249.605.507.781.259.176.595.263 1.01.263.427 0 .77-.087 1.029-.263.262-.176.393-.393.393-.651 0-.219-.085-.4-.254-.542-.166-.143-.424-.252-.776-.328l-1.302-.274c-.733-.152-1.275-.409-1.626-.77-.351-.365-.525-.826-.522-1.382-.003-.471.124-.879.383-1.223.262-.349.625-.617 1.089-.806.467-.192 1.006-.288 1.615-.288.895 0 1.6.19 2.113.571.517.382.837.897.96 1.547Z"/><rect width="184.58" height="179.58" x="307.109" y="65.21" stroke="url(#paint16_linear_1234_23396)" stroke-width=".42" rx="14.506"/><rect width="184.58" height="179.58" x="307.109" y="65.21" stroke="url(#paint17_linear_1234_23396)" stroke-width=".42" rx="14.506"/><rect width="184.58" height="179.58" x="548.109" y="65.21" fill="#000A28" rx="14.506"/><g clip-path="url(#clip2_1234_23396)"><g opacity=".8"><rect width="53.589" height="53.589" x="613.604" y="98.805" fill="url(#paint18_linear_1234_23396)" rx="17.863"/><rect width="51.803" height="51.803" x="614.498" y="99.698" stroke="url(#paint19_linear_1234_23396)" stroke-opacity=".5" stroke-width="1.786" rx="16.97"/></g><path fill="url(#paint20_linear_1234_23396)" fill-rule="evenodd" d="M626.526 126.151a1.396 1.396 0 0 1 1.783-.847l11.157 3.967a2.791 2.791 0 0 0 1.87 0l11.157-3.967a1.395 1.395 0 1 1 .936 2.629l-11.158 3.968c-1.209.43-2.53.43-3.74 0l-11.157-3.968a1.396 1.396 0 0 1-.848-1.782Z" clip-rule="evenodd"/><path fill="url(#paint21_linear_1234_23396)" fill-rule="evenodd" d="M626.526 132.08a1.397 1.397 0 0 1 1.783-.848l11.157 3.967a2.791 2.791 0 0 0 1.87 0l11.157-3.967a1.396 1.396 0 0 1 .936 2.63l-11.158 3.967c-1.209.43-2.53.43-3.74 0l-11.157-3.967a1.396 1.396 0 0 1-.848-1.782Z" clip-rule="evenodd"/><path fill="url(#paint22_linear_1234_23396)" d="M642.784 113.468a6.979 6.979 0 0 0-4.769 0l-9.837 3.577c-2.45.891-2.45 4.355 0 5.246l9.837 3.577c1.54.56 3.228.56 4.769 0l9.836-3.577c2.45-.891 2.45-4.355.001-5.246l-9.837-3.577Z"/></g><path fill="#fff" d="M572.322 186.212h1.844v6.652c0 .729-.172 1.37-.517 1.924a3.492 3.492 0 0 1-1.441 1.297c-.62.309-1.344.463-2.173.463-.832 0-1.558-.154-2.177-.463a3.489 3.489 0 0 1-1.442-1.297c-.342-.554-.512-1.195-.512-1.924v-6.652h1.844v6.498c0 .424.093.802.279 1.133.188.332.454.592.795.781.341.185.746.278 1.213.278.467 0 .872-.093 1.213-.278.345-.189.61-.449.796-.781.185-.331.278-.709.278-1.133v-6.498Zm9.805 4.564-1.64.179a1.331 1.331 0 0 0-.244-.468 1.216 1.216 0 0 0-.457-.353 1.678 1.678 0 0 0-.706-.134c-.375 0-.69.081-.945.244-.252.162-.376.373-.373.631a.661.661 0 0 0 .244.542c.169.139.447.254.835.343l1.303.278c.722.156 1.259.403 1.61.741.355.338.534.781.537 1.328-.003.48-.144.904-.422 1.272-.275.365-.658.65-1.149.855-.49.206-1.054.309-1.69.309-.935 0-1.687-.196-2.257-.587-.57-.394-.91-.943-1.019-1.646l1.755-.169c.079.345.248.605.507.781.258.176.595.263 1.009.263.428 0 .771-.087 1.029-.263.262-.176.393-.393.393-.651 0-.219-.085-.4-.254-.542-.165-.143-.424-.252-.775-.328l-1.303-.274c-.732-.152-1.274-.409-1.626-.77-.351-.365-.525-.826-.522-1.382-.003-.471.125-.879.383-1.223.262-.349.625-.617 1.089-.806.467-.192 1.006-.288 1.616-.288.895 0 1.599.19 2.113.571.517.382.837.897.959 1.547Zm5.029 5.767c-.766 0-1.427-.159-1.984-.478a3.227 3.227 0 0 1-1.277-1.362c-.299-.59-.448-1.284-.448-2.083 0-.785.149-1.475.448-2.068a3.374 3.374 0 0 1 1.262-1.392c.541-.335 1.175-.502 1.905-.502.47 0 .914.076 1.332.228.421.15.792.382 1.114.696.324.315.58.716.765 1.204.186.484.279 1.06.279 1.73v.552h-6.26v-1.214h4.534a1.928 1.928 0 0 0-.223-.919 1.63 1.63 0 0 0-.612-.642 1.725 1.725 0 0 0-.905-.233 1.75 1.75 0 0 0-.969.268 1.851 1.851 0 0 0-.651.696 1.993 1.993 0 0 0-.234.94v1.059c0 .444.081.825.244 1.143.162.315.389.557.681.726.291.166.633.249 1.024.249.262 0 .499-.037.711-.11.212-.076.396-.187.552-.333.155-.146.273-.326.353-.542l1.68.189a2.619 2.619 0 0 1-.607 1.164 2.95 2.95 0 0 1-1.133.765c-.461.179-.988.269-1.581.269Zm14.004-7.532a1.357 1.357 0 0 0-.587-1.014c-.341-.242-.785-.363-1.332-.363-.385 0-.715.058-.99.174a1.463 1.463 0 0 0-.631.472c-.146.199-.22.426-.224.681 0 .212.048.396.144.552.1.156.234.288.403.398.169.106.356.195.562.268.205.073.413.134.621.184l.955.239c.384.089.754.21 1.109.363.357.152.677.344.959.576.285.232.51.512.676.84.166.329.249.713.249 1.154 0 .596-.153 1.122-.458 1.576-.305.451-.745.804-1.322 1.059-.573.252-1.268.378-2.083.378-.792 0-1.48-.123-2.063-.368-.58-.245-1.034-.603-1.363-1.074-.324-.471-.5-1.044-.527-1.72h1.815c.027.354.136.649.328.885.192.235.443.411.751.527a2.97 2.97 0 0 0 1.044.174c.401 0 .752-.06 1.054-.179a1.72 1.72 0 0 0 .716-.507c.172-.219.26-.474.263-.766a.972.972 0 0 0-.233-.656 1.717 1.717 0 0 0-.642-.438 6.222 6.222 0 0 0-.954-.318l-1.159-.298c-.838-.216-1.501-.542-1.988-.98-.484-.44-.726-1.025-.726-1.755 0-.6.162-1.125.487-1.576.328-.45.774-.8 1.337-1.049.564-.252 1.202-.377 1.915-.377.722 0 1.355.125 1.899.377.547.249.976.595 1.287 1.039.312.441.473.948.483 1.522h-1.775Zm7.008 7.383h-3.45v-10.182h3.52c1.011 0 1.879.204 2.605.611a4.099 4.099 0 0 1 1.681 1.745c.391.759.586 1.667.586 2.725 0 1.06-.197 1.972-.591 2.734a4.1 4.1 0 0 1-1.696 1.755c-.736.408-1.62.612-2.655.612Zm-1.605-1.596h1.516c.709 0 1.301-.13 1.775-.388.474-.262.83-.651 1.069-1.168.238-.521.358-1.17.358-1.949 0-.779-.12-1.425-.358-1.939a2.45 2.45 0 0 0-1.059-1.159c-.464-.258-1.041-.387-1.73-.387h-1.571v6.99Zm8.3 1.596v-10.182h1.844v4.678h.124l3.973-4.678h2.252l-3.938 4.569 3.973 5.613h-2.218l-3.037-4.366-1.129 1.333v3.033h-1.844Zm15.87-1.631v-6.881h1.561v6.881h-1.561Zm-2.66-2.66v-1.561h6.881v1.561h-6.881Zm19.451-2.64a2.641 2.641 0 0 0-.344-.721 2.21 2.21 0 0 0-.517-.552 2.095 2.095 0 0 0-.686-.343 2.876 2.876 0 0 0-.845-.119 2.64 2.64 0 0 0-1.461.413c-.428.275-.764.679-1.01 1.213-.242.53-.363 1.176-.363 1.939 0 .769.121 1.42.363 1.954.242.533.579.939 1.01 1.218.43.275.931.412 1.501.412.517 0 .964-.099 1.342-.298.381-.199.675-.481.88-.845.206-.368.309-.799.309-1.293l.417.065h-2.764v-1.442h4.131v1.223c0 .872-.185 1.626-.557 2.262a3.805 3.805 0 0 1-1.531 1.472c-.649.341-1.395.512-2.237.512-.938 0-1.762-.211-2.471-.632-.706-.424-1.258-1.025-1.655-1.804-.395-.783-.592-1.711-.592-2.784 0-.822.116-1.557.348-2.203a4.751 4.751 0 0 1 .984-1.645 4.201 4.201 0 0 1 1.482-1.035 4.728 4.728 0 0 1 1.849-.357c.564 0 1.089.082 1.576.248.488.163.92.395 1.298.696.381.302.694.66.94 1.074.245.414.406.872.482 1.372h-1.879Zm3.667 6.931v-7.637h1.745v1.273h.08c.139-.441.378-.781.716-1.019a1.97 1.97 0 0 1 1.168-.363c.1 0 .211.005.333.015.126.006.231.018.313.035v1.655a1.932 1.932 0 0 0-.362-.07 3.376 3.376 0 0 0-.473-.034c-.328 0-.623.071-.885.213a1.576 1.576 0 0 0-.835 1.442v4.49h-1.8Zm7.612.154c-.484 0-.92-.087-1.308-.259a2.136 2.136 0 0 1-.914-.775c-.223-.342-.334-.763-.334-1.263 0-.431.08-.787.239-1.069.159-.282.376-.507.651-.676.275-.169.585-.297.93-.383.348-.09.708-.154 1.079-.194.447-.046.81-.088 1.089-.124.278-.04.48-.1.606-.179.129-.083.194-.211.194-.383v-.03c0-.374-.111-.664-.333-.87-.222-.205-.542-.308-.96-.308-.44 0-.79.096-1.049.288-.255.192-.427.42-.517.681l-1.68-.238c.133-.464.351-.852.656-1.164.305-.315.678-.55 1.119-.706a4.283 4.283 0 0 1 1.462-.238c.367 0 .734.043 1.098.129.365.086.698.229 1 .428.301.195.543.462.725.8.186.338.279.761.279 1.268v5.111h-1.73v-1.049h-.06a2.176 2.176 0 0 1-1.203 1.039 2.993 2.993 0 0 1-1.039.164Zm.467-1.323c.361 0 .675-.071.94-.214.265-.145.469-.338.611-.576a1.47 1.47 0 0 0 .219-.781v-.9a.831.831 0 0 1-.288.13 4.337 4.337 0 0 1-.448.104c-.165.03-.33.056-.492.08l-.423.059a3.16 3.16 0 0 0-.72.179 1.2 1.2 0 0 0-.503.348c-.122.146-.183.335-.183.567 0 .331.12.582.362.751.242.169.551.253.925.253Zm5.374 4.032v-10.5h1.77v1.263h.105c.093-.186.223-.383.392-.592.17-.212.398-.392.687-.542.288-.152.656-.228 1.103-.228.59 0 1.122.151 1.596.452.477.298.855.741 1.134 1.328.281.583.422 1.299.422 2.147 0 .839-.137 1.551-.412 2.138-.275.587-.65 1.034-1.124 1.342a2.884 2.884 0 0 1-1.611.463c-.437 0-.8-.073-1.089-.219a2.218 2.218 0 0 1-.696-.527 3.412 3.412 0 0 1-.402-.592h-.075v4.067h-1.8Zm1.765-6.682c0 .494.07.927.209 1.298.143.371.347.661.612.87.268.205.593.308.974.308.398 0 .731-.106.999-.318.269-.215.471-.509.607-.88.139-.374.209-.8.209-1.278a3.62 3.62 0 0 0-.204-1.262c-.136-.368-.338-.657-.607-.865-.268-.209-.603-.314-1.004-.314-.384 0-.711.101-.979.304-.269.202-.473.485-.612.85-.136.364-.204.794-.204 1.287Zm8.785-.656v4.475h-1.8v-10.182h1.76v3.843h.09c.179-.431.456-.771.83-1.019.378-.252.859-.378 1.442-.378.53 0 .993.111 1.387.333.394.222.699.547.915.974.218.428.328.95.328 1.566v4.863h-1.8v-4.584c0-.514-.132-.913-.398-1.198-.261-.289-.629-.433-1.103-.433-.318 0-.603.07-.855.209a1.459 1.459 0 0 0-.587.591c-.139.259-.209.572-.209.94Zm11.646 4.475h-1.969l3.585-10.182h2.277l3.589 10.182h-1.968l-2.72-8.094h-.079l-2.715 8.094Zm.065-3.993h5.369v1.482h-5.369v-1.482Zm8.758 3.993v-10.182h3.819c.782 0 1.438.146 1.968.437.534.292.937.693 1.208 1.203.276.507.413 1.084.413 1.73 0 .653-.137 1.233-.413 1.741a2.95 2.95 0 0 1-1.218 1.198c-.537.288-1.198.432-1.983.432h-2.531v-1.516h2.282c.458 0 .832-.08 1.124-.239.291-.159.507-.378.646-.656a2.07 2.07 0 0 0 .214-.96c0-.361-.071-.679-.214-.954a1.448 1.448 0 0 0-.651-.641c-.292-.156-.668-.234-1.129-.234h-1.69v8.641h-1.845Zm10.855-10.182v10.182h-1.845v-10.182h1.845Zm7.953 4.564-1.641.179a1.312 1.312 0 0 0-.243-.468 1.212 1.212 0 0 0-.458-.353 1.672 1.672 0 0 0-.706-.134c-.374 0-.689.081-.944.244-.252.162-.376.373-.373.631a.661.661 0 0 0 .244.542c.169.139.447.254.835.343l1.302.278c.723.156 1.26.403 1.611.741.355.338.534.781.537 1.328a2.07 2.07 0 0 1-.423 1.272c-.275.365-.657.65-1.148.855-.491.206-1.054.309-1.69.309-.935 0-1.687-.196-2.257-.587-.571-.394-.91-.943-1.02-1.646l1.755-.169c.08.345.249.605.507.781.259.176.595.263 1.01.263.427 0 .77-.087 1.029-.263.262-.176.393-.393.393-.651 0-.219-.085-.4-.254-.542-.166-.143-.424-.252-.776-.328l-1.302-.274c-.733-.152-1.274-.409-1.626-.77-.351-.365-.525-.826-.522-1.382-.003-.471.124-.879.383-1.223.262-.349.625-.617 1.089-.806.467-.192 1.006-.288 1.616-.288.894 0 1.599.19 2.112.571.517.382.837.897.96 1.547Z"/><rect width="184.58" height="179.58" x="548.109" y="65.21" stroke="url(#paint23_linear_1234_23396)" stroke-width=".42" rx="14.506"/><rect width="184.58" height="179.58" x="548.109" y="65.21" stroke="url(#paint24_linear_1234_23396)" stroke-width=".42" rx="14.506"/></g><rect width="798" height="334" x=".5" y=".5" stroke="#061232" rx="14.5"/><defs><linearGradient id="paint0_linear_1234_23396" x1="907.225" x2="1271.42" y1="928.616" y2="333.368" gradientUnits="userSpaceOnUse"><stop stop-color="#004AD9"/><stop offset="1" stop-color="#0C64E8"/></linearGradient><linearGradient id="paint1_linear_1234_23396" x1="134.594" x2="185.552" y1="104.242" y2="146.312" gradientUnits="userSpaceOnUse"><stop stop-color="#0D2147" stop-opacity=".66"/><stop offset="1" stop-color="#0B2049" stop-opacity=".15"/></linearGradient><linearGradient id="paint2_linear_1234_23396" x1="141.477" x2="179.779" y1="100.037" y2="147.481" gradientUnits="userSpaceOnUse"><stop stop-color="#353C54"/><stop offset="1" stop-color="#071F4E" stop-opacity=".76"/></linearGradient><linearGradient id="paint3_linear_1234_23396" x1="145.57" x2="170.998" y1="127.465" y2="138.707" gradientUnits="userSpaceOnUse"><stop stop-color="#197CEC"/><stop offset=".609" stop-color="#004AD9"/></linearGradient><linearGradient id="paint4_linear_1234_23396" x1="152.035" x2="166.526" y1="111.662" y2="114.866" gradientUnits="userSpaceOnUse"><stop stop-color="#197CEC"/><stop offset=".609" stop-color="#004AD9"/></linearGradient><linearGradient id="paint5_linear_1234_23396" x1="78.333" x2="244.619" y1="86.829" y2="228.712" gradientUnits="userSpaceOnUse"><stop stop-color="#0D2147" stop-opacity=".66"/><stop offset="1" stop-color="#0B2049" stop-opacity=".15"/></linearGradient><linearGradient id="paint6_linear_1234_23396" x1="117.388" x2="24.924" y1="212.631" y2="146.938" gradientUnits="userSpaceOnUse"><stop stop-opacity="0"/><stop offset="1" stop-color="#246BFD"/></linearGradient><linearGradient id="paint7_linear_1234_23396" x1="376.177" x2="425.676" y1="105.34" y2="146.205" gradientUnits="userSpaceOnUse"><stop stop-color="#0D2147" stop-opacity=".66"/><stop offset="1" stop-color="#0B2049" stop-opacity=".15"/></linearGradient><linearGradient id="paint8_linear_1234_23396" x1="382.863" x2="420.069" y1="101.254" y2="147.341" gradientUnits="userSpaceOnUse"><stop stop-color="#353C54"/><stop offset="1" stop-color="#071F4E" stop-opacity=".76"/></linearGradient><linearGradient id="paint9_linear_1234_23396" x1="391.336" x2="399.49" y1="124.846" y2="124.862" gradientUnits="userSpaceOnUse"><stop stop-color="#197CEC"/><stop offset=".788" stop-color="#004AD9"/></linearGradient><linearGradient id="paint10_linear_1234_23396" x1="404.641" x2="412.795" y1="134.836" y2="134.853" gradientUnits="userSpaceOnUse"><stop stop-color="#197CEC"/><stop offset=".788" stop-color="#004AD9"/></linearGradient><linearGradient id="paint11_linear_1234_23396" x1="0" x2="10.962" y1=".595" y2=".834" gradientUnits="userSpaceOnUse"><stop stop-color="#197CEC"/><stop offset=".788" stop-color="#004AD9"/></linearGradient><linearGradient id="paint12_linear_1234_23396" x1="0" x2="8.56" y1=".595" y2=".741" gradientUnits="userSpaceOnUse"><stop stop-color="#197CEC"/><stop offset=".788" stop-color="#004AD9"/></linearGradient><linearGradient id="paint13_linear_1234_23396" x1="0" x2="6.519" y1=".595" y2=".679" gradientUnits="userSpaceOnUse"><stop stop-color="#197CEC"/><stop offset=".788" stop-color="#004AD9"/></linearGradient><linearGradient id="paint14_linear_1234_23396" x1="403.455" x2="411.61" y1="116.691" y2="116.707" gradientUnits="userSpaceOnUse"><stop stop-color="#197CEC"/><stop offset=".788" stop-color="#004AD9"/></linearGradient><linearGradient id="paint15_linear_1234_23396" x1="386.002" x2="394.156" y1="137.226" y2="137.242" gradientUnits="userSpaceOnUse"><stop stop-color="#197CEC"/><stop offset=".788" stop-color="#004AD9"/></linearGradient><linearGradient id="paint16_linear_1234_23396" x1="319.233" x2="486.298" y1="86.951" y2="228.708" gradientUnits="userSpaceOnUse"><stop stop-color="#0D2147" stop-opacity=".66"/><stop offset="1" stop-color="#0B2049" stop-opacity=".15"/></linearGradient><linearGradient id="paint17_linear_1234_23396" x1="358.287" x2="265.478" y1="213.456" y2="147.884" gradientUnits="userSpaceOnUse"><stop stop-opacity="0"/><stop offset="1" stop-color="#246BFD"/></linearGradient><linearGradient id="paint18_linear_1234_23396" x1="617.177" x2="666.676" y1="105.34" y2="146.205" gradientUnits="userSpaceOnUse"><stop stop-color="#0D2147" stop-opacity=".66"/><stop offset="1" stop-color="#0B2049" stop-opacity=".15"/></linearGradient><linearGradient id="paint19_linear_1234_23396" x1="623.863" x2="661.069" y1="101.254" y2="147.341" gradientUnits="userSpaceOnUse"><stop stop-color="#353C54"/><stop offset="1" stop-color="#071F4E" stop-opacity=".76"/></linearGradient><linearGradient id="paint20_linear_1234_23396" x1="626.445" x2="654.355" y1="129.386" y2="129.608" gradientUnits="userSpaceOnUse"><stop stop-color="#197CEC"/><stop offset=".788" stop-color="#004AD9"/></linearGradient><linearGradient id="paint21_linear_1234_23396" x1="626.445" x2="654.355" y1="135.315" y2="135.537" gradientUnits="userSpaceOnUse"><stop stop-color="#197CEC"/><stop offset=".788" stop-color="#004AD9"/></linearGradient><linearGradient id="paint22_linear_1234_23396" x1="626.341" x2="654.457" y1="120.923" y2="121.042" gradientUnits="userSpaceOnUse"><stop stop-color="#197CEC"/><stop offset=".788" stop-color="#004AD9"/></linearGradient><linearGradient id="paint23_linear_1234_23396" x1="560.233" x2="727.298" y1="86.951" y2="228.708" gradientUnits="userSpaceOnUse"><stop stop-color="#0D2147" stop-opacity=".66"/><stop offset="1" stop-color="#0B2049" stop-opacity=".15"/></linearGradient><linearGradient id="paint24_linear_1234_23396" x1="599.287" x2="506.478" y1="213.456" y2="147.884" gradientUnits="userSpaceOnUse"><stop stop-opacity="0"/><stop offset="1" stop-color="#246BFD"/></linearGradient><clipPath id="clip0_1234_23396"><rect width="799" height="335" fill="#fff" rx="15"/></clipPath><clipPath id="clip1_1234_23396"><path fill="#fff" d="M372.604 98.805h53.589v53.589h-53.589z"/></clipPath><clipPath id="clip2_1234_23396"><path fill="#fff" d="M613.604 98.805h53.589v53.589h-53.589z"/></clipPath><filter id="filter0_f_1234_23396" width="926.579" height="599.964" x="150.311" y="158.688" color-interpolation-filters="sRGB" filterUnits="userSpaceOnUse"><feFlood flood-opacity="0" result="BackgroundImageFix"/><feBlend in="SourceGraphic" in2="BackgroundImageFix" mode="normal" result="shape"/><feGaussianBlur result="effect1_foregroundBlur_1234_23396" stdDeviation="51.114"/></filter></defs></svg>