<svg width="799" height="335" viewBox="0 0 799 335" fill="none" xmlns="http://www.w3.org/2000/svg">
<g clip-path="url(#clip0_2314_106864)">
<rect width="799" height="335" rx="15" fill="#DDECFD"/>
<g filter="url(#filter0_f_2314_106864)">
<path d="M608.203 634.752C392.95 693.136 282.47 626.295 253.883 520.898C225.296 415.501 659.351 334.065 874.604 275.681C1089.86 217.297 886.413 343.843 915 449.24C943.587 554.637 823.456 576.369 608.203 634.752Z" fill="url(#paint0_linear_2314_106864)"/>
</g>
<rect x="66.2098" y="65.2098" width="184.58" height="178.58" rx="14.5062" fill="url(#paint1_linear_2314_106864)"/>
<g filter="url(#filter1_d_2314_106864)">
<rect x="130.914" y="97.5146" width="55.1683" height="55.1683" rx="19.16" fill="url(#paint2_linear_2314_106864)"/>
<rect x="131.414" y="98.0146" width="54.1683" height="54.1683" rx="18.66" stroke="white"/>
</g>
<path d="M162.232 126.536H154.761C149.683 126.536 145.566 130.693 145.566 135.771C145.566 137.803 147.213 139.466 149.244 139.466H167.749C169.78 139.466 171.427 137.803 171.427 135.771C171.427 130.693 167.31 126.536 162.232 126.536Z" fill="white"/>
<circle cx="158.496" cy="117.197" r="6.46504" fill="white"/>
<path d="M112.812 196.683H110.843L114.428 186.501H116.705L120.294 196.683H118.325L115.606 188.589H115.526L112.812 196.683ZM112.876 192.691H118.246V194.172H112.876V192.691ZM124.157 196.817C123.557 196.817 123.02 196.663 122.546 196.355C122.072 196.047 121.698 195.599 121.423 195.013C121.147 194.426 121.01 193.713 121.01 192.875C121.01 192.026 121.149 191.31 121.428 190.727C121.709 190.14 122.089 189.698 122.566 189.4C123.043 189.098 123.575 188.947 124.162 188.947C124.609 188.947 124.977 189.024 125.266 189.176C125.554 189.325 125.783 189.506 125.952 189.718C126.121 189.927 126.252 190.124 126.344 190.31H126.419V186.501H128.224V196.683H126.454V195.48H126.344C126.252 195.666 126.117 195.863 125.942 196.072C125.766 196.277 125.534 196.453 125.246 196.599C124.957 196.744 124.594 196.817 124.157 196.817ZM124.659 195.341C125.04 195.341 125.365 195.238 125.634 195.033C125.902 194.824 126.106 194.534 126.245 194.163C126.384 193.791 126.454 193.359 126.454 192.865C126.454 192.371 126.384 191.942 126.245 191.577C126.109 191.213 125.907 190.929 125.638 190.727C125.373 190.525 125.047 190.424 124.659 190.424C124.258 190.424 123.923 190.528 123.655 190.737C123.386 190.946 123.184 191.234 123.048 191.602C122.912 191.97 122.844 192.391 122.844 192.865C122.844 193.342 122.912 193.768 123.048 194.143C123.188 194.514 123.391 194.807 123.66 195.023C123.932 195.235 124.265 195.341 124.659 195.341ZM132.975 196.817C132.375 196.817 131.838 196.663 131.365 196.355C130.891 196.047 130.516 195.599 130.241 195.013C129.966 194.426 129.828 193.713 129.828 192.875C129.828 192.026 129.968 191.31 130.246 190.727C130.528 190.14 130.907 189.698 131.384 189.4C131.862 189.098 132.394 188.947 132.98 188.947C133.428 188.947 133.796 189.024 134.084 189.176C134.372 189.325 134.601 189.506 134.77 189.718C134.939 189.927 135.07 190.124 135.163 190.31H135.237V186.501H137.042V196.683H135.272V195.48H135.163C135.07 195.666 134.936 195.863 134.76 196.072C134.584 196.277 134.352 196.453 134.064 196.599C133.776 196.744 133.413 196.817 132.975 196.817ZM133.477 195.341C133.859 195.341 134.183 195.238 134.452 195.033C134.72 194.824 134.924 194.534 135.063 194.163C135.203 193.791 135.272 193.359 135.272 192.865C135.272 192.371 135.203 191.942 135.063 191.577C134.927 191.213 134.725 190.929 134.457 190.727C134.192 190.525 133.865 190.424 133.477 190.424C133.076 190.424 132.742 190.528 132.473 190.737C132.205 190.946 132.003 191.234 131.867 191.602C131.731 191.97 131.663 192.391 131.663 192.865C131.663 193.342 131.731 193.768 131.867 194.143C132.006 194.514 132.21 194.807 132.478 195.023C132.75 195.235 133.083 195.341 133.477 195.341ZM145.763 196.832C145.001 196.832 144.347 196.665 143.8 196.33C143.256 195.995 142.837 195.533 142.542 194.943C142.25 194.35 142.104 193.667 142.104 192.895C142.104 192.119 142.254 191.435 142.552 190.841C142.85 190.245 143.271 189.781 143.815 189.449C144.362 189.115 145.008 188.947 145.754 188.947C146.373 188.947 146.922 189.062 147.399 189.29C147.88 189.516 148.263 189.836 148.548 190.25C148.833 190.661 148.995 191.141 149.035 191.692H147.315C147.245 191.324 147.079 191.017 146.817 190.772C146.559 190.523 146.213 190.399 145.778 190.399C145.411 190.399 145.087 190.498 144.809 190.697C144.531 190.893 144.313 191.175 144.158 191.542C144.005 191.91 143.929 192.351 143.929 192.865C143.929 193.385 144.005 193.833 144.158 194.207C144.31 194.578 144.524 194.865 144.799 195.067C145.077 195.266 145.404 195.366 145.778 195.366C146.044 195.366 146.281 195.316 146.489 195.216C146.701 195.114 146.879 194.966 147.021 194.774C147.164 194.582 147.262 194.348 147.315 194.073H149.035C148.992 194.613 148.833 195.092 148.558 195.51C148.282 195.924 147.908 196.249 147.434 196.484C146.96 196.716 146.403 196.832 145.763 196.832ZM153.844 196.832C153.098 196.832 152.452 196.668 151.905 196.34C151.358 196.012 150.934 195.553 150.632 194.963C150.334 194.373 150.184 193.684 150.184 192.895C150.184 192.106 150.334 191.415 150.632 190.822C150.934 190.228 151.358 189.768 151.905 189.439C152.452 189.111 153.098 188.947 153.844 188.947C154.589 188.947 155.236 189.111 155.782 189.439C156.329 189.768 156.752 190.228 157.05 190.822C157.352 191.415 157.503 192.106 157.503 192.895C157.503 193.684 157.352 194.373 157.05 194.963C156.752 195.553 156.329 196.012 155.782 196.34C155.236 196.668 154.589 196.832 153.844 196.832ZM153.854 195.39C154.258 195.39 154.596 195.279 154.868 195.057C155.14 194.832 155.342 194.53 155.474 194.153C155.61 193.775 155.678 193.354 155.678 192.89C155.678 192.422 155.61 192 155.474 191.622C155.342 191.241 155.14 190.938 154.868 190.712C154.596 190.487 154.258 190.374 153.854 190.374C153.439 190.374 153.095 190.487 152.819 190.712C152.548 190.938 152.344 191.241 152.208 191.622C152.075 192 152.009 192.422 152.009 192.89C152.009 193.354 152.075 193.775 152.208 194.153C152.344 194.53 152.548 194.832 152.819 195.057C153.095 195.279 153.439 195.39 153.854 195.39ZM160.83 192.209V196.683H159.03V189.047H160.75V190.344H160.84C161.016 189.917 161.296 189.577 161.68 189.325C162.068 189.073 162.547 188.947 163.117 188.947C163.644 188.947 164.103 189.06 164.494 189.285C164.888 189.511 165.193 189.837 165.409 190.265C165.627 190.692 165.735 191.211 165.732 191.821V196.683H163.932V192.099C163.932 191.589 163.8 191.189 163.534 190.901C163.273 190.613 162.91 190.469 162.446 190.469C162.131 190.469 161.851 190.538 161.605 190.677C161.364 190.813 161.173 191.011 161.034 191.269C160.898 191.528 160.83 191.841 160.83 192.209ZM171.375 189.047V190.439H166.985V189.047H171.375ZM168.069 187.217H169.868V194.386C169.868 194.628 169.905 194.814 169.978 194.943C170.054 195.069 170.153 195.155 170.276 195.202C170.399 195.248 170.534 195.271 170.684 195.271C170.796 195.271 170.899 195.263 170.992 195.246C171.088 195.23 171.161 195.215 171.211 195.202L171.514 196.609C171.418 196.642 171.28 196.678 171.101 196.718C170.926 196.758 170.71 196.781 170.455 196.788C170.004 196.801 169.598 196.733 169.237 196.584C168.876 196.431 168.589 196.196 168.377 195.878C168.168 195.56 168.065 195.162 168.069 194.685V187.217ZM172.88 196.683V189.047H174.625V190.319H174.704C174.844 189.879 175.082 189.539 175.42 189.3C175.762 189.058 176.151 188.937 176.589 188.937C176.688 188.937 176.799 188.942 176.922 188.952C177.048 188.959 177.152 188.971 177.235 188.987V190.643C177.159 190.616 177.038 190.593 176.872 190.573C176.71 190.55 176.552 190.538 176.4 190.538C176.072 190.538 175.777 190.609 175.515 190.752C175.256 190.891 175.052 191.085 174.903 191.334C174.754 191.582 174.68 191.869 174.68 192.194V196.683H172.88ZM180.491 196.837C180.007 196.837 179.572 196.751 179.184 196.579C178.799 196.403 178.494 196.145 178.269 195.803C178.047 195.462 177.936 195.041 177.936 194.54C177.936 194.109 178.015 193.753 178.175 193.471C178.334 193.19 178.551 192.964 178.826 192.795C179.101 192.626 179.411 192.499 179.756 192.413C180.104 192.323 180.463 192.258 180.834 192.219C181.282 192.172 181.645 192.131 181.923 192.094C182.202 192.055 182.404 191.995 182.53 191.915C182.659 191.832 182.724 191.705 182.724 191.533V191.503C182.724 191.128 182.613 190.838 182.39 190.633C182.168 190.427 181.849 190.324 181.431 190.324C180.99 190.324 180.64 190.421 180.382 190.613C180.127 190.805 179.954 191.032 179.865 191.294L178.184 191.055C178.317 190.591 178.536 190.203 178.841 189.892C179.146 189.577 179.519 189.342 179.959 189.186C180.4 189.027 180.887 188.947 181.421 188.947C181.789 188.947 182.155 188.99 182.52 189.077C182.884 189.163 183.217 189.305 183.519 189.504C183.821 189.7 184.063 189.966 184.245 190.305C184.43 190.643 184.523 191.065 184.523 191.572V196.683H182.793V195.634H182.733C182.624 195.846 182.47 196.045 182.271 196.231C182.076 196.413 181.829 196.56 181.53 196.673C181.235 196.783 180.889 196.837 180.491 196.837ZM180.959 195.515C181.32 195.515 181.633 195.444 181.898 195.301C182.163 195.155 182.367 194.963 182.51 194.724C182.656 194.486 182.729 194.225 182.729 193.944V193.044C182.672 193.09 182.576 193.133 182.44 193.173C182.308 193.213 182.158 193.248 181.993 193.278C181.827 193.307 181.663 193.334 181.501 193.357C181.338 193.38 181.197 193.4 181.078 193.417C180.809 193.453 180.569 193.513 180.357 193.596C180.145 193.679 179.978 193.795 179.855 193.944C179.732 194.09 179.671 194.279 179.671 194.511C179.671 194.842 179.792 195.092 180.034 195.261C180.276 195.43 180.584 195.515 180.959 195.515ZM189.664 196.832C188.902 196.832 188.247 196.665 187.7 196.33C187.157 195.995 186.737 195.533 186.442 194.943C186.151 194.35 186.005 193.667 186.005 192.895C186.005 192.119 186.154 191.435 186.452 190.841C186.751 190.245 187.171 189.781 187.715 189.449C188.262 189.115 188.908 188.947 189.654 188.947C190.274 188.947 190.822 189.062 191.3 189.29C191.78 189.516 192.163 189.836 192.448 190.25C192.733 190.661 192.895 191.141 192.935 191.692H191.215C191.145 191.324 190.98 191.017 190.718 190.772C190.459 190.523 190.113 190.399 189.679 190.399C189.311 190.399 188.988 190.498 188.709 190.697C188.431 190.893 188.214 191.175 188.058 191.542C187.906 191.91 187.829 192.351 187.829 192.865C187.829 193.385 187.906 193.833 188.058 194.207C188.211 194.578 188.424 194.865 188.699 195.067C188.978 195.266 189.304 195.366 189.679 195.366C189.944 195.366 190.181 195.316 190.39 195.216C190.602 195.114 190.779 194.966 190.922 194.774C191.064 194.582 191.162 194.348 191.215 194.073H192.935C192.892 194.613 192.733 195.092 192.458 195.51C192.183 195.924 191.808 196.249 191.334 196.484C190.86 196.716 190.304 196.832 189.664 196.832ZM198.226 189.047V190.439H193.836V189.047H198.226ZM194.92 187.217H196.72V194.386C196.72 194.628 196.756 194.814 196.829 194.943C196.905 195.069 197.005 195.155 197.127 195.202C197.25 195.248 197.386 195.271 197.535 195.271C197.648 195.271 197.751 195.263 197.843 195.246C197.94 195.23 198.012 195.215 198.062 195.202L198.365 196.609C198.269 196.642 198.132 196.678 197.953 196.718C197.777 196.758 197.562 196.781 197.306 196.788C196.856 196.801 196.45 196.733 196.088 196.584C195.727 196.431 195.44 196.196 195.228 195.878C195.02 195.56 194.917 195.162 194.92 194.685V187.217ZM205.657 191.065L204.017 191.244C203.97 191.078 203.889 190.923 203.773 190.777C203.661 190.631 203.508 190.513 203.316 190.424C203.124 190.334 202.888 190.29 202.61 190.29C202.235 190.29 201.921 190.371 201.665 190.533C201.413 190.696 201.289 190.906 201.292 191.165C201.289 191.387 201.37 191.567 201.536 191.707C201.705 191.846 201.983 191.96 202.371 192.05L203.674 192.328C204.396 192.484 204.933 192.731 205.285 193.069C205.639 193.407 205.818 193.849 205.822 194.396C205.818 194.877 205.677 195.301 205.399 195.669C205.124 196.033 204.741 196.319 204.251 196.524C203.76 196.73 203.197 196.832 202.56 196.832C201.626 196.832 200.873 196.637 200.303 196.246C199.733 195.851 199.393 195.303 199.284 194.6L201.039 194.431C201.118 194.776 201.287 195.036 201.546 195.212C201.805 195.387 202.141 195.475 202.555 195.475C202.983 195.475 203.326 195.387 203.584 195.212C203.846 195.036 203.977 194.819 203.977 194.56C203.977 194.341 203.893 194.161 203.724 194.018C203.558 193.876 203.299 193.766 202.948 193.69L201.645 193.417C200.913 193.264 200.371 193.007 200.02 192.646C199.668 192.282 199.494 191.821 199.498 191.264C199.494 190.793 199.622 190.386 199.881 190.041C200.142 189.693 200.505 189.425 200.969 189.236C201.437 189.043 201.975 188.947 202.585 188.947C203.48 188.947 204.184 189.138 204.698 189.519C205.215 189.9 205.535 190.416 205.657 191.065Z" fill="white"/>
<rect x="66.2098" y="65.2098" width="184.58" height="178.58" rx="14.5062" stroke="url(#paint3_linear_2314_106864)" stroke-width="0.419594"/>
<rect x="66.2098" y="65.2098" width="184.58" height="178.58" rx="14.5062" stroke="url(#paint4_linear_2314_106864)" stroke-width="0.419594"/>
<rect x="307.108" y="65.2098" width="184.58" height="179.58" rx="14.5062" fill="url(#paint5_linear_2314_106864)"/>
<g filter="url(#filter2_d_2314_106864)">
<rect x="372.602" y="98.8042" width="53.5889" height="53.5889" rx="19.16" fill="url(#paint6_linear_2314_106864)"/>
<rect x="373.102" y="99.3042" width="52.5889" height="52.5889" rx="18.66" stroke="white"/>
</g>
<ellipse cx="395.405" cy="124.072" rx="4.07725" ry="4.07723" fill="white"/>
<ellipse cx="408.714" cy="134.063" rx="4.07725" ry="4.07723" fill="white"/>
<line y1="-0.42044" x2="10.9677" y2="-0.42044" transform="matrix(0.989719 -0.143024 0.143026 0.989719 393.785 135.632)" stroke="white" stroke-width="0.84088"/>
<line y1="-0.42044" x2="8.5629" y2="-0.42044" transform="matrix(-0.839716 -0.543026 0.543029 -0.839714 406.262 130.594)" stroke="white" stroke-width="0.84088"/>
<line y1="-0.42044" x2="6.51992" y2="-0.42044" transform="matrix(-0.825498 0.564405 -0.564408 -0.825496 403.988 117.763)" stroke="white" stroke-width="0.84088"/>
<ellipse cx="407.526" cy="115.918" rx="4.07725" ry="4.07723" fill="white"/>
<ellipse cx="390.077" cy="136.452" rx="4.07725" ry="4.07723" fill="white"/>
<path d="M339.903 196.393V186.211H343.721C344.503 186.211 345.159 186.347 345.69 186.619C346.223 186.891 346.626 187.272 346.898 187.762C347.173 188.25 347.31 188.818 347.31 189.468C347.31 190.121 347.171 190.687 346.893 191.168C346.618 191.645 346.212 192.015 345.675 192.277C345.138 192.535 344.478 192.664 343.696 192.664H340.977V191.133H343.447C343.905 191.133 344.279 191.07 344.571 190.944C344.863 190.815 345.078 190.628 345.217 190.382C345.36 190.134 345.431 189.829 345.431 189.468C345.431 189.106 345.36 188.798 345.217 188.543C345.075 188.284 344.858 188.089 344.566 187.956C344.274 187.82 343.898 187.752 343.438 187.752H341.747V196.393H339.903ZM345.163 191.779L347.683 196.393H345.625L343.149 191.779H345.163ZM353.796 193.181V188.757H355.596V196.393H353.85V195.036H353.771C353.599 195.463 353.315 195.813 352.921 196.085C352.53 196.357 352.047 196.492 351.474 196.492C350.974 196.492 350.531 196.381 350.147 196.159C349.766 195.934 349.467 195.608 349.252 195.18C349.036 194.749 348.929 194.229 348.929 193.619V188.757H350.728V193.341C350.728 193.824 350.861 194.209 351.126 194.494C351.391 194.779 351.739 194.921 352.17 194.921C352.435 194.921 352.692 194.857 352.941 194.728C353.189 194.598 353.393 194.406 353.552 194.151C353.715 193.892 353.796 193.569 353.796 193.181ZM359.246 191.919V196.393H357.446V188.757H359.166V190.054H359.256C359.432 189.627 359.712 189.287 360.096 189.035C360.484 188.783 360.963 188.657 361.533 188.657C362.06 188.657 362.519 188.77 362.91 188.995C363.304 189.221 363.609 189.547 363.825 189.975C364.044 190.402 364.151 190.921 364.148 191.531V196.393H362.348V191.809C362.348 191.299 362.216 190.899 361.95 190.611C361.689 190.323 361.326 190.179 360.862 190.179C360.547 190.179 360.267 190.248 360.021 190.387C359.78 190.523 359.589 190.72 359.45 190.979C359.314 191.238 359.246 191.551 359.246 191.919ZM369.53 186.211H371.787L374.809 193.589H374.929L377.952 186.211H380.209V196.393H378.439V189.398H378.344L375.53 196.363H374.208L371.394 189.383H371.3V196.393H369.53V186.211ZM384.335 196.547C383.851 196.547 383.415 196.461 383.028 196.289C382.643 196.113 382.338 195.854 382.113 195.513C381.891 195.172 381.78 194.751 381.78 194.25C381.78 193.819 381.859 193.463 382.018 193.181C382.177 192.9 382.394 192.674 382.67 192.505C382.945 192.336 383.255 192.209 383.599 192.122C383.947 192.033 384.307 191.968 384.678 191.929C385.126 191.882 385.488 191.841 385.767 191.804C386.045 191.765 386.247 191.705 386.373 191.625C386.503 191.542 386.567 191.415 386.567 191.242V191.213C386.567 190.838 386.456 190.548 386.234 190.343C386.012 190.137 385.692 190.034 385.275 190.034C384.834 190.034 384.484 190.131 384.226 190.323C383.97 190.515 383.798 190.742 383.709 191.004L382.028 190.765C382.161 190.301 382.38 189.913 382.684 189.602C382.989 189.287 383.362 189.052 383.803 188.896C384.244 188.737 384.731 188.657 385.265 188.657C385.633 188.657 385.999 188.7 386.363 188.787C386.728 188.873 387.061 189.015 387.363 189.214C387.664 189.41 387.906 189.676 388.089 190.015C388.274 190.353 388.367 190.775 388.367 191.282V196.393H386.637V195.344H386.577C386.468 195.556 386.314 195.755 386.115 195.941C385.919 196.123 385.672 196.27 385.374 196.383C385.079 196.492 384.733 196.547 384.335 196.547ZM384.802 195.225C385.164 195.225 385.477 195.153 385.742 195.011C386.007 194.865 386.211 194.673 386.354 194.434C386.499 194.196 386.572 193.935 386.572 193.654V192.754C386.516 192.8 386.42 192.843 386.284 192.883C386.151 192.923 386.002 192.958 385.836 192.988C385.671 193.017 385.507 193.044 385.344 193.067C385.182 193.09 385.041 193.11 384.922 193.127C384.653 193.163 384.413 193.223 384.201 193.306C383.989 193.389 383.821 193.505 383.699 193.654C383.576 193.8 383.515 193.988 383.515 194.22C383.515 194.552 383.636 194.802 383.878 194.971C384.12 195.14 384.428 195.225 384.802 195.225ZM393.508 196.542C392.745 196.542 392.091 196.375 391.544 196.04C391 195.705 390.581 195.243 390.286 194.653C389.994 194.06 389.849 193.377 389.849 192.605C389.849 191.829 389.998 191.145 390.296 190.551C390.594 189.955 391.015 189.491 391.559 189.159C392.106 188.825 392.752 188.657 393.498 188.657C394.117 188.657 394.666 188.772 395.143 189C395.624 189.226 396.007 189.546 396.292 189.96C396.577 190.371 396.739 190.851 396.779 191.402H395.059C394.989 191.034 394.823 190.727 394.562 190.482C394.303 190.233 393.957 190.109 393.523 190.109C393.155 190.109 392.831 190.208 392.553 190.407C392.275 190.603 392.058 190.885 391.902 191.252C391.749 191.62 391.673 192.061 391.673 192.575C391.673 193.095 391.749 193.543 391.902 193.917C392.054 194.288 392.268 194.575 392.543 194.777C392.822 194.976 393.148 195.076 393.523 195.076C393.788 195.076 394.025 195.026 394.233 194.926C394.446 194.824 394.623 194.676 394.765 194.484C394.908 194.292 395.006 194.058 395.059 193.783H396.779C396.736 194.323 396.577 194.802 396.302 195.22C396.027 195.634 395.652 195.959 395.178 196.194C394.704 196.426 394.147 196.542 393.508 196.542ZM400.056 191.919V196.393H398.257V186.211H400.017V190.054H400.106C400.285 189.623 400.562 189.284 400.936 189.035C401.314 188.783 401.795 188.657 402.378 188.657C402.908 188.657 403.371 188.768 403.765 188.99C404.16 189.212 404.465 189.537 404.68 189.965C404.899 190.392 405.008 190.914 405.008 191.531V196.393H403.208V191.809C403.208 191.296 403.076 190.896 402.811 190.611C402.549 190.323 402.181 190.179 401.707 190.179C401.389 190.179 401.104 190.248 400.852 190.387C400.603 190.523 400.408 190.72 400.265 190.979C400.126 191.238 400.056 191.551 400.056 191.919ZM409.04 196.547C408.556 196.547 408.12 196.461 407.733 196.289C407.348 196.113 407.043 195.854 406.818 195.513C406.596 195.172 406.485 194.751 406.485 194.25C406.485 193.819 406.564 193.463 406.723 193.181C406.882 192.9 407.1 192.674 407.375 192.505C407.65 192.336 407.96 192.209 408.304 192.122C408.652 192.033 409.012 191.968 409.383 191.929C409.831 191.882 410.194 191.841 410.472 191.804C410.75 191.765 410.953 191.705 411.078 191.625C411.208 191.542 411.272 191.415 411.272 191.242V191.213C411.272 190.838 411.161 190.548 410.939 190.343C410.717 190.137 410.397 190.034 409.98 190.034C409.539 190.034 409.189 190.131 408.931 190.323C408.676 190.515 408.503 190.742 408.414 191.004L406.733 190.765C406.866 190.301 407.085 189.913 407.39 189.602C407.694 189.287 408.067 189.052 408.508 188.896C408.949 188.737 409.436 188.657 409.97 188.657C410.338 188.657 410.704 188.7 411.069 188.787C411.433 188.873 411.766 189.015 412.068 189.214C412.369 189.41 412.611 189.676 412.794 190.015C412.979 190.353 413.072 190.775 413.072 191.282V196.393H411.342V195.344H411.282C411.173 195.556 411.019 195.755 410.82 195.941C410.624 196.123 410.377 196.27 410.079 196.383C409.784 196.492 409.438 196.547 409.04 196.547ZM409.507 195.225C409.869 195.225 410.182 195.153 410.447 195.011C410.712 194.865 410.916 194.673 411.059 194.434C411.204 194.196 411.277 193.935 411.277 193.654V192.754C411.221 192.8 411.125 192.843 410.989 192.883C410.856 192.923 410.707 192.958 410.542 192.988C410.376 193.017 410.212 193.044 410.049 193.067C409.887 193.09 409.746 193.11 409.627 193.127C409.358 193.163 409.118 193.223 408.906 193.306C408.694 193.389 408.526 193.505 408.404 193.654C408.281 193.8 408.22 193.988 408.22 194.22C408.22 194.552 408.341 194.802 408.583 194.971C408.825 195.14 409.133 195.225 409.507 195.225ZM420.154 191.919V196.393H418.354V188.757H420.075V190.054H420.164C420.34 189.627 420.62 189.287 421.004 189.035C421.392 188.783 421.871 188.657 422.441 188.657C422.968 188.657 423.427 188.77 423.818 188.995C424.213 189.221 424.518 189.547 424.733 189.975C424.952 190.402 425.059 190.921 425.056 191.531V196.393H423.256V191.809C423.256 191.299 423.124 190.899 422.859 190.611C422.597 190.323 422.234 190.179 421.77 190.179C421.455 190.179 421.175 190.248 420.93 190.387C420.688 190.523 420.497 190.72 420.358 190.979C420.222 191.238 420.154 191.551 420.154 191.919ZM430.217 196.542C429.471 196.542 428.825 196.378 428.278 196.05C427.731 195.722 427.307 195.263 427.005 194.673C426.707 194.083 426.558 193.394 426.558 192.605C426.558 191.816 426.707 191.125 427.005 190.532C427.307 189.938 427.731 189.478 428.278 189.149C428.825 188.821 429.471 188.657 430.217 188.657C430.962 188.657 431.609 188.821 432.156 189.149C432.702 189.478 433.125 189.938 433.423 190.532C433.725 191.125 433.876 191.816 433.876 192.605C433.876 193.394 433.725 194.083 433.423 194.673C433.125 195.263 432.702 195.722 432.156 196.05C431.609 196.378 430.962 196.542 430.217 196.542ZM430.227 195.1C430.631 195.1 430.969 194.989 431.241 194.767C431.513 194.542 431.715 194.24 431.847 193.863C431.983 193.485 432.051 193.064 432.051 192.6C432.051 192.132 431.983 191.71 431.847 191.332C431.715 190.951 431.513 190.648 431.241 190.422C430.969 190.197 430.631 190.084 430.227 190.084C429.812 190.084 429.468 190.197 429.192 190.422C428.921 190.648 428.717 190.951 428.581 191.332C428.448 191.71 428.382 192.132 428.382 192.6C428.382 193.064 428.448 193.485 428.581 193.863C428.717 194.24 428.921 194.542 429.192 194.767C429.468 194.989 429.812 195.1 430.227 195.1ZM438.237 196.527C437.637 196.527 437.1 196.373 436.626 196.065C436.152 195.757 435.778 195.309 435.503 194.723C435.228 194.136 435.09 193.423 435.09 192.585C435.09 191.736 435.229 191.02 435.508 190.437C435.789 189.85 436.169 189.408 436.646 189.11C437.123 188.808 437.655 188.657 438.242 188.657C438.689 188.657 439.057 188.734 439.346 188.886C439.634 189.035 439.863 189.216 440.032 189.428C440.201 189.637 440.332 189.834 440.425 190.019H440.499V186.211H442.304V196.393H440.534V195.19H440.425C440.332 195.376 440.198 195.573 440.022 195.782C439.846 195.987 439.614 196.163 439.326 196.309C439.037 196.454 438.675 196.527 438.237 196.527ZM438.739 195.051C439.12 195.051 439.445 194.948 439.714 194.742C439.982 194.534 440.186 194.244 440.325 193.872C440.464 193.501 440.534 193.069 440.534 192.575C440.534 192.081 440.464 191.652 440.325 191.287C440.189 190.923 439.987 190.639 439.719 190.437C439.453 190.235 439.127 190.134 438.739 190.134C438.338 190.134 438.003 190.238 437.735 190.447C437.466 190.656 437.264 190.944 437.128 191.312C436.992 191.68 436.925 192.101 436.925 192.575C436.925 193.052 436.992 193.478 437.128 193.853C437.268 194.224 437.471 194.517 437.74 194.733C438.012 194.945 438.345 195.051 438.739 195.051ZM447.602 196.542C446.837 196.542 446.175 196.383 445.619 196.065C445.065 195.743 444.639 195.289 444.341 194.703C444.043 194.113 443.893 193.418 443.893 192.62C443.893 191.834 444.043 191.145 444.341 190.551C444.643 189.955 445.063 189.491 445.604 189.159C446.144 188.825 446.779 188.657 447.508 188.657C447.978 188.657 448.423 188.734 448.84 188.886C449.261 189.035 449.632 189.267 449.954 189.582C450.279 189.897 450.534 190.298 450.719 190.785C450.905 191.269 450.998 191.846 450.998 192.515V193.067H444.739V191.854H449.273C449.269 191.509 449.195 191.203 449.049 190.934C448.903 190.662 448.699 190.449 448.438 190.293C448.179 190.137 447.877 190.059 447.533 190.059C447.165 190.059 446.842 190.149 446.563 190.328C446.285 190.503 446.068 190.735 445.912 191.024C445.759 191.309 445.682 191.622 445.678 191.963V193.022C445.678 193.466 445.759 193.848 445.922 194.166C446.084 194.481 446.311 194.723 446.603 194.892C446.895 195.057 447.236 195.14 447.627 195.14C447.889 195.14 448.126 195.104 448.338 195.031C448.55 194.955 448.734 194.844 448.89 194.698C449.046 194.552 449.163 194.371 449.243 194.156L450.923 194.345C450.817 194.789 450.615 195.177 450.317 195.508C450.022 195.836 449.644 196.091 449.183 196.274C448.723 196.453 448.196 196.542 447.602 196.542ZM458.556 190.775L456.915 190.954C456.869 190.788 456.788 190.633 456.672 190.487C456.559 190.341 456.407 190.223 456.214 190.134C456.022 190.044 455.787 190 455.508 190C455.134 190 454.819 190.081 454.564 190.243C454.312 190.406 454.188 190.616 454.191 190.875C454.188 191.097 454.269 191.277 454.434 191.417C454.604 191.556 454.882 191.67 455.27 191.76L456.572 192.038C457.295 192.194 457.832 192.441 458.183 192.779C458.538 193.117 458.717 193.559 458.72 194.106C458.717 194.587 458.576 195.011 458.297 195.379C458.022 195.743 457.64 196.028 457.149 196.234C456.658 196.439 456.095 196.542 455.459 196.542C454.524 196.542 453.772 196.347 453.202 195.956C452.631 195.561 452.292 195.013 452.182 194.31L453.937 194.141C454.017 194.486 454.186 194.746 454.444 194.921C454.703 195.097 455.039 195.185 455.454 195.185C455.881 195.185 456.224 195.097 456.483 194.921C456.745 194.746 456.876 194.529 456.876 194.27C456.876 194.051 456.791 193.871 456.622 193.728C456.456 193.586 456.198 193.476 455.846 193.4L454.544 193.127C453.811 192.974 453.269 192.717 452.918 192.356C452.567 191.992 452.393 191.531 452.396 190.974C452.393 190.503 452.52 190.096 452.779 189.751C453.041 189.403 453.404 189.135 453.868 188.946C454.335 188.753 454.874 188.657 455.483 188.657C456.378 188.657 457.083 188.848 457.596 189.229C458.113 189.61 458.433 190.126 458.556 190.775Z" fill="white"/>
<rect x="307.108" y="65.2098" width="184.58" height="179.58" rx="14.5062" stroke="url(#paint7_linear_2314_106864)" stroke-width="0.419594"/>
<rect x="548.108" y="65.2098" width="184.58" height="179.58" rx="14.5062" fill="url(#paint8_linear_2314_106864)"/>
<g filter="url(#filter3_d_2314_106864)">
<rect x="613.602" y="98.8042" width="53.5889" height="53.5889" rx="19.16" fill="url(#paint9_linear_2314_106864)"/>
<rect x="614.102" y="99.3042" width="52.5889" height="52.5889" rx="18.66" stroke="white"/>
</g>
<path fill-rule="evenodd" clip-rule="evenodd" d="M626.522 126.15C626.781 125.423 627.579 125.044 628.305 125.302L639.462 129.269C640.067 129.484 640.727 129.484 641.332 129.269L652.49 125.302C653.216 125.044 654.014 125.423 654.272 126.15C654.53 126.876 654.151 127.674 653.425 127.932L642.267 131.899C641.058 132.329 639.737 132.329 638.527 131.899L627.37 127.932C626.644 127.674 626.264 126.876 626.522 126.15Z" fill="white"/>
<path fill-rule="evenodd" clip-rule="evenodd" d="M626.522 132.08C626.781 131.354 627.579 130.975 628.305 131.233L639.462 135.2C640.067 135.415 640.727 135.415 641.332 135.2L652.49 131.233C653.216 130.975 654.014 131.354 654.272 132.08C654.53 132.806 654.151 133.604 653.425 133.863L642.267 137.83C641.058 138.26 639.737 138.26 638.527 137.83L627.37 133.863C626.644 133.604 626.264 132.806 626.522 132.08Z" fill="white"/>
<path d="M642.779 113.468C641.239 112.908 639.55 112.908 638.01 113.468L628.173 117.045C625.724 117.936 625.724 121.401 628.173 122.291L638.01 125.868C639.55 126.429 641.239 126.429 642.779 125.868L652.616 122.291C655.065 121.401 655.065 117.936 652.616 117.045L642.779 113.468Z" fill="white"/>
<path d="M572.321 186.211H574.165V192.863C574.165 193.592 573.993 194.234 573.648 194.787C573.307 195.341 572.826 195.773 572.207 196.085C571.587 196.393 570.863 196.547 570.034 196.547C569.202 196.547 568.476 196.393 567.857 196.085C567.237 195.773 566.756 195.341 566.415 194.787C566.073 194.234 565.903 193.592 565.903 192.863V186.211H567.747V192.709C567.747 193.133 567.84 193.511 568.026 193.843C568.214 194.174 568.48 194.434 568.821 194.623C569.162 194.809 569.567 194.902 570.034 194.902C570.501 194.902 570.906 194.809 571.247 194.623C571.592 194.434 571.857 194.174 572.043 193.843C572.228 193.511 572.321 193.133 572.321 192.709V186.211ZM582.126 190.775L580.486 190.954C580.439 190.788 580.358 190.633 580.242 190.487C580.129 190.341 579.977 190.223 579.785 190.134C579.592 190.044 579.357 190 579.079 190C578.704 190 578.389 190.081 578.134 190.243C577.882 190.406 577.758 190.616 577.761 190.875C577.758 191.097 577.839 191.277 578.005 191.417C578.174 191.556 578.452 191.67 578.84 191.76L580.143 192.038C580.865 192.194 581.402 192.441 581.753 192.779C582.108 193.117 582.287 193.559 582.29 194.106C582.287 194.587 582.146 195.011 581.868 195.379C581.593 195.743 581.21 196.028 580.719 196.234C580.229 196.439 579.665 196.542 579.029 196.542C578.094 196.542 577.342 196.347 576.772 195.956C576.202 195.561 575.862 195.013 575.753 194.31L577.508 194.141C577.587 194.486 577.756 194.746 578.015 194.921C578.273 195.097 578.61 195.185 579.024 195.185C579.452 195.185 579.795 195.097 580.053 194.921C580.315 194.746 580.446 194.529 580.446 194.27C580.446 194.051 580.361 193.871 580.192 193.728C580.027 193.586 579.768 193.476 579.417 193.4L578.114 193.127C577.382 192.974 576.84 192.717 576.488 192.356C576.137 191.992 575.963 191.531 575.966 190.974C575.963 190.503 576.091 190.096 576.349 189.751C576.611 189.403 576.974 189.135 577.438 188.946C577.905 188.753 578.444 188.657 579.054 188.657C579.949 188.657 580.653 188.848 581.167 189.229C581.684 189.61 582.004 190.126 582.126 190.775ZM587.155 196.542C586.389 196.542 585.728 196.383 585.171 196.065C584.618 195.743 584.192 195.289 583.894 194.703C583.595 194.113 583.446 193.418 583.446 192.62C583.446 191.834 583.595 191.145 583.894 190.551C584.195 189.955 584.616 189.491 585.156 189.159C585.697 188.825 586.331 188.657 587.061 188.657C587.531 188.657 587.975 188.734 588.393 188.886C588.814 189.035 589.185 189.267 589.507 189.582C589.831 189.897 590.087 190.298 590.272 190.785C590.458 191.269 590.551 191.846 590.551 192.515V193.067H584.291V191.854H588.825C588.822 191.509 588.748 191.203 588.602 190.934C588.456 190.662 588.252 190.449 587.99 190.293C587.732 190.137 587.43 190.059 587.085 190.059C586.718 190.059 586.394 190.149 586.116 190.328C585.838 190.503 585.62 190.735 585.465 191.024C585.312 191.309 585.234 191.622 585.231 191.963V193.022C585.231 193.466 585.312 193.848 585.475 194.166C585.637 194.481 585.864 194.723 586.156 194.892C586.447 195.057 586.789 195.14 587.18 195.14C587.442 195.14 587.679 195.104 587.891 195.031C588.103 194.955 588.287 194.844 588.443 194.698C588.598 194.552 588.716 194.371 588.796 194.156L590.476 194.345C590.37 194.789 590.168 195.177 589.869 195.508C589.575 195.836 589.197 196.091 588.736 196.274C588.275 196.453 587.748 196.542 587.155 196.542ZM601.159 189.01C601.112 188.576 600.917 188.238 600.572 187.996C600.231 187.754 599.787 187.633 599.24 187.633C598.855 187.633 598.525 187.691 598.25 187.807C597.975 187.923 597.765 188.081 597.619 188.279C597.473 188.478 597.399 188.705 597.395 188.961C597.395 189.173 597.443 189.357 597.539 189.512C597.639 189.668 597.773 189.801 597.942 189.91C598.111 190.016 598.298 190.106 598.504 190.179C598.709 190.251 598.917 190.313 599.125 190.363L600.08 190.601C600.464 190.691 600.834 190.812 601.189 190.964C601.547 191.117 601.866 191.309 602.148 191.541C602.433 191.773 602.658 192.053 602.824 192.381C602.99 192.709 603.073 193.094 603.073 193.534C603.073 194.131 602.92 194.656 602.615 195.11C602.31 195.561 601.87 195.914 601.293 196.169C600.72 196.421 600.025 196.547 599.21 196.547C598.418 196.547 597.73 196.425 597.147 196.179C596.567 195.934 596.113 195.576 595.784 195.105C595.46 194.635 595.284 194.061 595.257 193.385H597.072C597.099 193.74 597.208 194.035 597.4 194.27C597.592 194.506 597.843 194.681 598.151 194.797C598.462 194.913 598.81 194.971 599.195 194.971C599.596 194.971 599.947 194.912 600.249 194.792C600.554 194.67 600.792 194.501 600.965 194.285C601.137 194.066 601.225 193.811 601.228 193.519C601.225 193.254 601.147 193.036 600.995 192.863C600.842 192.688 600.628 192.542 600.353 192.426C600.082 192.306 599.763 192.2 599.399 192.108L598.24 191.809C597.402 191.594 596.739 191.267 596.252 190.83C595.768 190.389 595.526 189.804 595.526 189.075C595.526 188.475 595.688 187.95 596.013 187.499C596.341 187.048 596.787 186.698 597.35 186.45C597.914 186.198 598.552 186.072 599.265 186.072C599.987 186.072 600.62 186.198 601.164 186.45C601.711 186.698 602.14 187.045 602.451 187.489C602.763 187.93 602.924 188.437 602.934 189.01H601.159ZM608.167 196.393H604.717V186.211H608.237C609.248 186.211 610.116 186.415 610.842 186.823C611.571 187.227 612.131 187.809 612.523 188.568C612.914 189.327 613.109 190.235 613.109 191.292C613.109 192.353 612.912 193.264 612.518 194.027C612.126 194.789 611.561 195.374 610.822 195.782C610.086 196.189 609.202 196.393 608.167 196.393ZM606.562 194.797H608.078C608.787 194.797 609.379 194.668 609.853 194.409C610.327 194.148 610.683 193.758 610.922 193.241C611.16 192.721 611.28 192.071 611.28 191.292C611.28 190.513 611.16 189.867 610.922 189.353C610.683 188.836 610.33 188.45 609.863 188.195C609.399 187.936 608.822 187.807 608.133 187.807H606.562V194.797ZM614.862 196.393V186.211H616.706V190.89H616.83L620.803 186.211H623.055L619.117 190.78L623.09 196.393H620.872L617.835 192.028L616.706 193.36V196.393H614.862ZM630.732 194.762V187.882H632.293V194.762H630.732ZM628.072 192.103V190.542H634.953V192.103H628.072ZM647.523 189.463C647.44 189.194 647.325 188.954 647.18 188.742C647.037 188.526 646.865 188.342 646.662 188.19C646.464 188.037 646.235 187.923 645.976 187.847C645.718 187.767 645.436 187.728 645.131 187.728C644.584 187.728 644.097 187.865 643.67 188.14C643.242 188.415 642.906 188.82 642.66 189.353C642.418 189.884 642.297 190.53 642.297 191.292C642.297 192.061 642.418 192.712 642.66 193.246C642.902 193.78 643.239 194.186 643.67 194.464C644.1 194.739 644.601 194.877 645.171 194.877C645.688 194.877 646.135 194.777 646.513 194.578C646.894 194.38 647.188 194.098 647.393 193.733C647.599 193.365 647.702 192.934 647.702 192.441L648.119 192.505H645.355V191.064H649.486V192.287C649.486 193.158 649.301 193.912 648.93 194.549C648.558 195.185 648.048 195.676 647.398 196.02C646.749 196.362 646.003 196.532 645.161 196.532C644.223 196.532 643.399 196.322 642.69 195.901C641.984 195.477 641.432 194.875 641.035 194.096C640.64 193.314 640.443 192.386 640.443 191.312C640.443 190.49 640.559 189.756 640.791 189.11C641.026 188.463 641.354 187.915 641.775 187.464C642.196 187.01 642.69 186.665 643.257 186.43C643.824 186.191 644.44 186.072 645.106 186.072C645.67 186.072 646.195 186.155 646.682 186.321C647.17 186.483 647.602 186.715 647.98 187.017C648.361 187.318 648.674 187.676 648.92 188.091C649.165 188.505 649.326 188.962 649.402 189.463H647.523ZM651.19 196.393V188.757H652.935V190.029H653.015C653.154 189.589 653.393 189.249 653.731 189.01C654.072 188.768 654.462 188.647 654.899 188.647C654.999 188.647 655.11 188.652 655.232 188.662C655.358 188.669 655.463 188.68 655.545 188.697V190.353C655.469 190.326 655.348 190.303 655.183 190.283C655.02 190.26 654.863 190.248 654.71 190.248C654.382 190.248 654.087 190.319 653.825 190.462C653.567 190.601 653.363 190.795 653.214 191.044C653.065 191.292 652.99 191.579 652.99 191.904V196.393H651.19ZM658.802 196.547C658.318 196.547 657.882 196.461 657.494 196.289C657.11 196.113 656.805 195.854 656.58 195.513C656.357 195.172 656.246 194.751 656.246 194.25C656.246 193.819 656.326 193.463 656.485 193.181C656.644 192.9 656.861 192.674 657.136 192.505C657.411 192.336 657.721 192.209 658.066 192.122C658.414 192.033 658.774 191.968 659.145 191.929C659.592 191.882 659.955 191.841 660.234 191.804C660.512 191.765 660.714 191.705 660.84 191.625C660.969 191.542 661.034 191.415 661.034 191.242V191.213C661.034 190.838 660.923 190.548 660.701 190.343C660.479 190.137 660.159 190.034 659.741 190.034C659.301 190.034 658.951 190.131 658.692 190.323C658.437 190.515 658.265 190.742 658.175 191.004L656.495 190.765C656.628 190.301 656.846 189.913 657.151 189.602C657.456 189.287 657.829 189.052 658.27 188.896C658.711 188.737 659.198 188.657 659.732 188.657C660.099 188.657 660.466 188.7 660.83 188.787C661.195 188.873 661.528 189.015 661.83 189.214C662.131 189.41 662.373 189.676 662.555 190.015C662.741 190.353 662.834 190.775 662.834 191.282V196.393H661.104V195.344H661.044C660.935 195.556 660.781 195.755 660.582 195.941C660.386 196.123 660.139 196.27 659.841 196.383C659.546 196.492 659.2 196.547 658.802 196.547ZM659.269 195.225C659.63 195.225 659.944 195.153 660.209 195.011C660.474 194.865 660.678 194.673 660.82 194.434C660.966 194.196 661.039 193.935 661.039 193.654V192.754C660.983 192.8 660.887 192.843 660.751 192.883C660.618 192.923 660.469 192.958 660.303 192.988C660.138 193.017 659.973 193.044 659.811 193.067C659.649 193.09 659.508 193.11 659.388 193.127C659.12 193.163 658.88 193.223 658.668 193.306C658.455 193.389 658.288 193.505 658.165 193.654C658.043 193.8 657.982 193.988 657.982 194.22C657.982 194.552 658.103 194.802 658.344 194.971C658.586 195.14 658.895 195.225 659.269 195.225ZM664.643 199.257V188.757H666.413V190.019H666.518C666.611 189.834 666.741 189.637 666.911 189.428C667.08 189.216 667.308 189.035 667.597 188.886C667.885 188.734 668.253 188.657 668.7 188.657C669.29 188.657 669.822 188.808 670.296 189.11C670.773 189.408 671.151 189.85 671.43 190.437C671.711 191.02 671.852 191.736 671.852 192.585C671.852 193.423 671.715 194.136 671.44 194.723C671.165 195.309 670.79 195.757 670.316 196.065C669.842 196.373 669.305 196.527 668.705 196.527C668.268 196.527 667.905 196.454 667.616 196.309C667.328 196.163 667.096 195.987 666.92 195.782C666.748 195.573 666.614 195.376 666.518 195.19H666.443V199.257H664.643ZM666.408 192.575C666.408 193.069 666.478 193.501 666.617 193.872C666.76 194.244 666.964 194.534 667.229 194.742C667.497 194.948 667.822 195.051 668.203 195.051C668.601 195.051 668.934 194.945 669.202 194.733C669.471 194.517 669.673 194.224 669.809 193.853C669.948 193.478 670.018 193.052 670.018 192.575C670.018 192.101 669.95 191.68 669.814 191.312C669.678 190.944 669.476 190.656 669.207 190.447C668.939 190.238 668.604 190.134 668.203 190.134C667.819 190.134 667.492 190.235 667.224 190.437C666.955 190.639 666.751 190.923 666.612 191.287C666.476 191.652 666.408 192.081 666.408 192.575ZM675.193 191.919V196.393H673.393V186.211H675.153V190.054H675.243C675.422 189.623 675.699 189.284 676.073 189.035C676.451 188.783 676.932 188.657 677.515 188.657C678.045 188.657 678.508 188.768 678.902 188.99C679.296 189.212 679.601 189.537 679.817 189.965C680.036 190.392 680.145 190.914 680.145 191.531V196.393H678.345V191.809C678.345 191.296 678.213 190.896 677.947 190.611C677.686 190.323 677.318 190.179 676.844 190.179C676.526 190.179 676.241 190.248 675.989 190.387C675.74 190.523 675.545 190.72 675.402 190.979C675.263 191.238 675.193 191.551 675.193 191.919ZM686.839 196.393H684.87L688.455 186.211H690.732L694.321 196.393H692.353L689.633 188.299H689.554L686.839 196.393ZM686.904 192.401H692.273V193.882H686.904V192.401ZM695.662 196.393V186.211H699.481C700.263 186.211 700.919 186.357 701.449 186.649C701.983 186.94 702.386 187.341 702.657 187.852C702.933 188.359 703.07 188.936 703.07 189.582C703.07 190.235 702.933 190.815 702.657 191.322C702.382 191.829 701.976 192.229 701.439 192.52C700.903 192.809 700.241 192.953 699.456 192.953H696.925V191.436H699.207C699.665 191.436 700.039 191.357 700.331 191.198C700.622 191.039 700.838 190.82 700.977 190.542C701.12 190.263 701.191 189.943 701.191 189.582C701.191 189.221 701.12 188.903 700.977 188.627C700.838 188.352 700.621 188.139 700.326 187.986C700.034 187.83 699.658 187.752 699.197 187.752H697.507V196.393H695.662ZM706.517 186.211V196.393H704.672V186.211H706.517ZM714.47 190.775L712.829 190.954C712.783 190.788 712.702 190.633 712.586 190.487C712.473 190.341 712.321 190.223 712.128 190.134C711.936 190.044 711.701 190 711.422 190C711.048 190 710.733 190.081 710.478 190.243C710.226 190.406 710.102 190.616 710.105 190.875C710.102 191.097 710.183 191.277 710.349 191.417C710.518 191.556 710.796 191.67 711.184 191.76L712.486 192.038C713.209 192.194 713.746 192.441 714.097 192.779C714.452 193.117 714.631 193.559 714.634 194.106C714.631 194.587 714.49 195.011 714.211 195.379C713.936 195.743 713.554 196.028 713.063 196.234C712.573 196.439 712.009 196.542 711.373 196.542C710.438 196.542 709.686 196.347 709.116 195.956C708.546 195.561 708.206 195.013 708.096 194.31L709.851 194.141C709.931 194.486 710.1 194.746 710.358 194.921C710.617 195.097 710.953 195.185 711.368 195.185C711.795 195.185 712.138 195.097 712.397 194.921C712.659 194.746 712.79 194.529 712.79 194.27C712.79 194.051 712.705 193.871 712.536 193.728C712.37 193.586 712.112 193.476 711.76 193.4L710.458 193.127C709.725 192.974 709.184 192.717 708.832 192.356C708.481 191.992 708.307 191.531 708.31 190.974C708.307 190.503 708.434 190.096 708.693 189.751C708.955 189.403 709.318 189.135 709.782 188.946C710.249 188.753 710.788 188.657 711.398 188.657C712.292 188.657 712.997 188.848 713.51 189.229C714.028 189.61 714.347 190.126 714.47 190.775Z" fill="white"/>
<rect x="548.108" y="65.2098" width="184.58" height="179.58" rx="14.5062" stroke="url(#paint10_linear_2314_106864)" stroke-width="0.419594"/>
<rect x="548.108" y="65.2098" width="184.58" height="179.58" rx="14.5062" stroke="url(#paint11_linear_2314_106864)" stroke-width="0.419594"/>
</g>
<rect x="0.5" y="0.5" width="798" height="334" rx="14.5" stroke="#E2E2E2"/>
<defs>
<filter id="filter0_f_2314_106864" x="150.312" y="158.688" width="926.579" height="599.964" filterUnits="userSpaceOnUse" color-interpolation-filters="sRGB">
<feFlood flood-opacity="0" result="BackgroundImageFix"/>
<feBlend mode="normal" in="SourceGraphic" in2="BackgroundImageFix" result="shape"/>
<feGaussianBlur stdDeviation="51.1136" result="effect1_foregroundBlur_2314_106864"/>
</filter>
<filter id="filter1_d_2314_106864" x="122.094" y="91.8723" width="72.808" height="72.8085" filterUnits="userSpaceOnUse" color-interpolation-filters="sRGB">
<feFlood flood-opacity="0" result="BackgroundImageFix"/>
<feColorMatrix in="SourceAlpha" type="matrix" values="0 0 0 0 0 0 0 0 0 0 0 0 0 0 0 0 0 0 127 0" result="hardAlpha"/>
<feOffset dy="3.1777"/>
<feGaussianBlur stdDeviation="4.41"/>
<feComposite in2="hardAlpha" operator="out"/>
<feColorMatrix type="matrix" values="0 0 0 0 0 0 0 0 0 0 0 0 0 0 0 0 0 0 0.3 0"/>
<feBlend mode="normal" in2="BackgroundImageFix" result="effect1_dropShadow_2314_106864"/>
<feBlend mode="normal" in="SourceGraphic" in2="effect1_dropShadow_2314_106864" result="shape"/>
</filter>
<filter id="filter2_d_2314_106864" x="363.782" y="93.1619" width="71.2298" height="71.2289" filterUnits="userSpaceOnUse" color-interpolation-filters="sRGB">
<feFlood flood-opacity="0" result="BackgroundImageFix"/>
<feColorMatrix in="SourceAlpha" type="matrix" values="0 0 0 0 0 0 0 0 0 0 0 0 0 0 0 0 0 0 127 0" result="hardAlpha"/>
<feOffset dy="3.1777"/>
<feGaussianBlur stdDeviation="4.41"/>
<feComposite in2="hardAlpha" operator="out"/>
<feColorMatrix type="matrix" values="0 0 0 0 0 0 0 0 0 0 0 0 0 0 0 0 0 0 0.3 0"/>
<feBlend mode="normal" in2="BackgroundImageFix" result="effect1_dropShadow_2314_106864"/>
<feBlend mode="normal" in="SourceGraphic" in2="effect1_dropShadow_2314_106864" result="shape"/>
</filter>
<filter id="filter3_d_2314_106864" x="604.782" y="93.1619" width="71.2298" height="71.2289" filterUnits="userSpaceOnUse" color-interpolation-filters="sRGB">
<feFlood flood-opacity="0" result="BackgroundImageFix"/>
<feColorMatrix in="SourceAlpha" type="matrix" values="0 0 0 0 0 0 0 0 0 0 0 0 0 0 0 0 0 0 127 0" result="hardAlpha"/>
<feOffset dy="3.1777"/>
<feGaussianBlur stdDeviation="4.41"/>
<feComposite in2="hardAlpha" operator="out"/>
<feColorMatrix type="matrix" values="0 0 0 0 0 0 0 0 0 0 0 0 0 0 0 0 0 0 0.3 0"/>
<feBlend mode="normal" in2="BackgroundImageFix" result="effect1_dropShadow_2314_106864"/>
<feBlend mode="normal" in="SourceGraphic" in2="effect1_dropShadow_2314_106864" result="shape"/>
</filter>
<linearGradient id="paint0_linear_2314_106864" x1="907.224" y1="928.616" x2="1271.42" y2="333.368" gradientUnits="userSpaceOnUse">
<stop stop-color="#004AD9"/>
<stop offset="1" stop-color="#0C64E8"/>
</linearGradient>
<linearGradient id="paint1_linear_2314_106864" x1="66" y1="171.464" x2="250.999" y2="171.845" gradientUnits="userSpaceOnUse">
<stop stop-color="#197CEC"/>
<stop offset="0.787639" stop-color="#004AD9"/>
</linearGradient>
<linearGradient id="paint2_linear_2314_106864" x1="136.929" y1="96.6851" x2="192.927" y2="165.749" gradientUnits="userSpaceOnUse">
<stop stop-color="#197CEC"/>
<stop offset="0.841023" stop-color="#004AD9"/>
</linearGradient>
<linearGradient id="paint3_linear_2314_106864" x1="78.3333" y1="86.8293" x2="244.619" y2="228.712" gradientUnits="userSpaceOnUse">
<stop stop-color="#0D2147" stop-opacity="0.66"/>
<stop offset="1" stop-color="#0B2049" stop-opacity="0.15"/>
</linearGradient>
<linearGradient id="paint4_linear_2314_106864" x1="117.388" y1="212.631" x2="24.9235" y2="146.938" gradientUnits="userSpaceOnUse">
<stop stop-opacity="0"/>
<stop offset="1" stop-color="#246BFD"/>
</linearGradient>
<linearGradient id="paint5_linear_2314_106864" x1="306.898" y1="172.059" x2="491.898" y2="172.438" gradientUnits="userSpaceOnUse">
<stop stop-color="#197CEC"/>
<stop offset="0.787639" stop-color="#004AD9"/>
</linearGradient>
<linearGradient id="paint6_linear_2314_106864" x1="378.444" y1="97.9984" x2="432.839" y2="165.085" gradientUnits="userSpaceOnUse">
<stop stop-color="#197CEC"/>
<stop offset="0.841023" stop-color="#004AD9"/>
</linearGradient>
<linearGradient id="paint7_linear_2314_106864" x1="358.286" y1="213.456" x2="265.477" y2="147.884" gradientUnits="userSpaceOnUse">
<stop stop-opacity="0"/>
<stop offset="1" stop-color="#246BFD"/>
</linearGradient>
<linearGradient id="paint8_linear_2314_106864" x1="547.898" y1="172.059" x2="732.898" y2="172.438" gradientUnits="userSpaceOnUse">
<stop stop-color="#197CEC"/>
<stop offset="0.787639" stop-color="#004AD9"/>
</linearGradient>
<linearGradient id="paint9_linear_2314_106864" x1="619.444" y1="97.9984" x2="673.839" y2="165.085" gradientUnits="userSpaceOnUse">
<stop stop-color="#197CEC"/>
<stop offset="0.841023" stop-color="#004AD9"/>
</linearGradient>
<linearGradient id="paint10_linear_2314_106864" x1="560.232" y1="86.9512" x2="727.297" y2="228.708" gradientUnits="userSpaceOnUse">
<stop stop-color="#0D2147" stop-opacity="0.66"/>
<stop offset="1" stop-color="#0B2049" stop-opacity="0.15"/>
</linearGradient>
<linearGradient id="paint11_linear_2314_106864" x1="599.286" y1="213.456" x2="506.477" y2="147.884" gradientUnits="userSpaceOnUse">
<stop stop-opacity="0"/>
<stop offset="1" stop-color="#246BFD"/>
</linearGradient>
<clipPath id="clip0_2314_106864">
<rect width="799" height="335" rx="15" fill="white"/>
</clipPath>
</defs>
</svg>
