<svg width="33" height="32" viewBox="0 0 33 32" fill="none" xmlns="http://www.w3.org/2000/svg">
<g opacity="0.8">
<path d="M13.5713 4V10.8047L7.67871 7.40234L4.67871 12.5996L10.5713 16L4.67871 19.4004L7.67871 24.5977L13.5713 21.1953V28H19.5713V21.1953L25.4639 24.5977L28.4639 19.4004L22.5713 16L28.4639 12.5996L25.4639 7.40234L19.5713 10.8047V4H13.5713ZM15.5713 6H17.5713V14.2695L24.7314 10.1348L25.7314 11.8652L18.5713 16L25.7314 20.1348L24.7314 21.8652L17.5713 17.7305V26H15.5713V17.7305L8.41113 21.8652L7.41113 20.1348L14.5713 16L7.41113 11.8652L8.41113 10.1348L15.5713 14.2695V6Z" fill="#0B0B0B"/>
<path d="M15.5713 6H17.5713V14.2695L24.7314 10.1348L25.7314 11.8652L18.5713 16L25.7314 20.1348L24.7314 21.8652L17.5713 17.7305V26H15.5713V17.7305L8.41113 21.8652L7.41113 20.1348L14.5713 16L7.41113 11.8652L8.41113 10.1348L15.5713 14.2695V6Z" fill="#0B0B0B"/>
</g>
</svg>
