<svg width="212" height="156" viewBox="0 0 212 156" fill="none" xmlns="http://www.w3.org/2000/svg">
<g clip-path="url(#clip0_2427_46765)">
<rect x="0.210938" y="0.375" width="210.928" height="154.68" rx="13.3588" fill="#DDECFD"/>
<g filter="url(#filter0_f_2427_46765)">
<path d="M52.1012 144.741C31.3949 125.595 4.83319 120.763 41.5302 81.0767C78.2273 41.3906 124.762 24.7403 145.468 43.887C166.175 63.0338 201.204 87.8016 164.507 127.488C127.81 167.174 72.8075 163.888 52.1012 144.741Z" fill="url(#paint0_linear_2427_46765)"/>
</g>
<g filter="url(#filter1_d_2427_46765)">
<rect x="78.5195" y="50.6699" width="54.3131" height="54.0898" rx="27.0449" fill="url(#paint1_linear_2427_46765)"/>
<rect x="78.7745" y="50.9249" width="53.8031" height="53.5798" rx="26.7899" stroke="white" stroke-width="0.51"/>
</g>
<path d="M105.678 83.5637C105.262 83.5637 104.913 83.4233 104.631 83.1425C104.349 82.8617 104.209 82.5146 104.21 82.1012V71.644L101.456 74.3863C101.162 74.6788 100.82 74.825 100.428 74.825C100.037 74.825 99.6816 74.6666 99.3635 74.3497C99.0697 74.0572 98.9292 73.7101 98.942 73.3084C98.9547 72.9067 99.0952 72.5712 99.3635 72.3021L104.65 67.037C104.797 66.8907 104.956 66.7874 105.128 66.7269C105.299 66.6665 105.483 66.6357 105.678 66.6348C105.874 66.6348 106.058 66.6655 106.229 66.7269C106.4 66.7883 106.56 66.8917 106.706 67.037L111.993 72.3021C112.287 72.5946 112.428 72.9422 112.416 73.3449C112.404 73.7476 112.263 74.0825 111.993 74.3497C111.7 74.6422 111.351 74.7948 110.946 74.8075C110.542 74.8201 110.193 74.6797 109.901 74.3863L107.147 71.644V82.1012C107.147 82.5156 107.006 82.8632 106.724 83.144C106.442 83.4248 106.093 83.5647 105.678 83.5637ZM96.8669 89.4139C96.0591 89.4139 95.3674 89.1273 94.7917 88.5539C94.2161 87.9806 93.9287 87.2923 93.9297 86.4888V83.5637C93.9297 83.1494 94.0707 82.8018 94.3526 82.5209C94.6346 82.2401 94.9832 82.1002 95.3983 82.1012C95.8144 82.1012 96.1634 82.2416 96.4454 82.5224C96.7273 82.8032 96.8678 83.1503 96.8669 83.5637V86.4888H114.49V83.5637C114.49 83.1494 114.631 82.8018 114.913 82.5209C115.195 82.2401 115.543 82.1002 115.958 82.1012C116.375 82.1012 116.724 82.2416 117.006 82.5224C117.288 82.8032 117.428 83.1503 117.427 83.5637V86.4888C117.427 87.2932 117.139 87.9821 116.564 88.5554C115.988 89.1287 115.297 89.4149 114.49 89.4139H96.8669Z" fill="white"/>
</g>
<defs>
<filter id="filter0_f_2427_46765" x="-69.1939" y="-56.521" width="342.181" height="307.479" filterUnits="userSpaceOnUse" color-interpolation-filters="sRGB">
<feFlood flood-opacity="0" result="BackgroundImageFix"/>
<feBlend mode="normal" in="SourceGraphic" in2="BackgroundImageFix" result="shape"/>
<feGaussianBlur stdDeviation="46.2317" result="effect1_foregroundBlur_2427_46765"/>
</filter>
<filter id="filter1_d_2427_46765" x="61.9451" y="43.1361" width="75.4073" height="75.1846" filterUnits="userSpaceOnUse" color-interpolation-filters="sRGB">
<feFlood flood-opacity="0" result="BackgroundImageFix"/>
<feColorMatrix in="SourceAlpha" type="matrix" values="0 0 0 0 0 0 0 0 0 0 0 0 0 0 0 0 0 0 127 0" result="hardAlpha"/>
<feOffset dx="-6.02708" dy="3.01354"/>
<feGaussianBlur stdDeviation="5.2737"/>
<feComposite in2="hardAlpha" operator="out"/>
<feColorMatrix type="matrix" values="0 0 0 0 0 0 0 0 0 0 0 0 0 0 0 0 0 0 0.35 0"/>
<feBlend mode="normal" in2="BackgroundImageFix" result="effect1_dropShadow_2427_46765"/>
<feBlend mode="normal" in="SourceGraphic" in2="effect1_dropShadow_2427_46765" result="shape"/>
</filter>
<linearGradient id="paint0_linear_2427_46765" x1="-41.8431" y1="270.9" x2="61.1584" y2="328.45" gradientUnits="userSpaceOnUse">
<stop stop-color="#004AD9"/>
<stop offset="1" stop-color="#0C64E8"/>
</linearGradient>
<linearGradient id="paint1_linear_2427_46765" x1="78.5195" y1="82.841" x2="132.832" y2="82.9497" gradientUnits="userSpaceOnUse">
<stop stop-color="#197CEC"/>
<stop offset="0.787639" stop-color="#004AD9"/>
</linearGradient>
<clipPath id="clip0_2427_46765">
<rect x="0.210938" y="0.374023" width="210.928" height="154.68" rx="10" fill="white"/>
</clipPath>
</defs>
</svg>
