<svg width="583" height="266" viewBox="0 0 583 266" fill="none" xmlns="http://www.w3.org/2000/svg">
<g clip-path="url(#clip0_2251_57562)">
<path fill-rule="evenodd" clip-rule="evenodd" d="M327.287 145.165C336.416 133.522 340.837 120.684 340.837 105.829C340.837 70.5604 312.246 41.9695 276.977 41.9695C241.708 41.9695 213.117 70.5604 213.117 105.829C213.117 141.098 241.708 169.689 276.977 169.689C291.832 169.689 304.671 165.268 316.314 156.139L329.321 169.145C329.406 169.231 329.493 169.314 329.581 169.394C326.503 172.509 326.514 177.529 329.615 180.629L359.763 210.778C362.875 213.89 367.92 213.89 371.032 210.778L381.926 199.884C385.038 196.772 385.038 191.727 381.926 188.615L351.777 158.466C348.677 155.366 343.658 155.355 340.543 158.432C340.463 158.344 340.38 158.257 340.294 158.172L327.287 145.165ZM276.977 155.498C304.408 155.498 326.646 133.26 326.646 105.829C326.646 78.3979 304.408 56.1605 276.977 56.1605C249.546 56.1605 227.308 78.3979 227.308 105.829C227.308 133.26 249.546 155.498 276.977 155.498Z" fill="#9FABC8"/>
<g clip-path="url(#clip1_2251_57562)">
<path fill-rule="evenodd" clip-rule="evenodd" d="M254.448 109.57C253.762 108.884 253.762 107.771 254.448 107.085L264.629 96.9049L254.448 86.7246C253.762 86.0383 253.762 84.9256 254.448 84.2393C255.135 83.553 256.247 83.553 256.934 84.2393L267.114 94.4196C268.486 95.7922 268.486 98.0176 267.114 99.3902L256.934 109.57C256.247 110.257 255.135 110.257 254.448 109.57Z" fill="#9FABC8"/>
</g>
<g clip-path="url(#clip2_2251_57562)">
<path fill-rule="evenodd" clip-rule="evenodd" d="M301.247 109.57C301.933 108.884 301.933 107.771 301.247 107.085L291.067 96.9049L301.247 86.7246C301.933 86.0383 301.933 84.9256 301.247 84.2393C300.561 83.553 299.448 83.553 298.762 84.2393L288.581 94.4196C287.209 95.7922 287.209 98.0176 288.581 99.3902L298.762 109.57C299.448 110.257 300.561 110.257 301.247 109.57Z" fill="#9FABC8"/>
</g>
<path d="M210.859 187.82C210.859 187.82 211.335 192.265 213.19 194.12C215.045 195.975 219.491 196.452 219.491 196.452C219.491 196.452 215.045 196.928 213.19 198.783C211.335 200.638 210.859 205.084 210.859 205.084C210.859 205.084 210.382 200.638 208.527 198.783C206.672 196.928 202.227 196.452 202.227 196.452C202.227 196.452 206.672 195.975 208.527 194.12C210.382 192.265 210.859 187.82 210.859 187.82Z" fill="#9FABC8"/>
<path d="M388.073 56.678C388.073 56.678 388.377 59.5158 389.561 60.7001C390.746 61.8844 393.583 62.1885 393.583 62.1885C393.583 62.1885 390.746 62.4925 389.561 63.6768C388.377 64.8611 388.073 67.699 388.073 67.699C388.073 67.699 387.769 64.8611 386.585 63.6768C385.4 62.4925 382.562 62.1885 382.562 62.1885C382.562 62.1885 385.4 61.8844 386.585 60.7001C387.769 59.5158 388.073 56.678 388.073 56.678Z" fill="#9FABC8"/>
<g filter="url(#filter0_f_2251_57562)">
<path d="M388.073 56.678C388.073 56.678 388.377 59.5158 389.561 60.7001C390.746 61.8844 393.583 62.1885 393.583 62.1885C393.583 62.1885 390.746 62.4925 389.561 63.6768C388.377 64.8611 388.073 67.699 388.073 67.699C388.073 67.699 387.769 64.8611 386.585 63.6768C385.4 62.4925 382.562 62.1885 382.562 62.1885C382.562 62.1885 385.4 61.8844 386.585 60.7001C387.769 59.5158 388.073 56.678 388.073 56.678Z" fill="#9FABC8"/>
</g>
<g filter="url(#filter1_d_2251_57562)">
<circle cx="132.551" cy="40.5911" r="6.11533" transform="rotate(116.773 132.551 40.5911)" fill="white" fill-opacity="0.96" shape-rendering="crispEdges"/>
</g>
<circle cx="202.43" cy="23.9474" r="5.8704" transform="rotate(116.773 202.43 23.9474)" stroke="#9FABC8" stroke-width="0.809421"/>
<rect x="364.352" y="240.759" width="1.26381" height="9.68924" rx="0.631907" transform="rotate(-171.282 364.352 240.759)" fill="#246BFD"/>
<rect width="1.26411" height="9.69155" rx="0.632057" transform="matrix(0.151576 -0.988446 -0.988446 -0.151576 369.152 237.234)" fill="#246BFD"/>
<rect x="183.422" y="77.5037" width="2.16537" height="16.6012" rx="0.673081" transform="rotate(-171.282 183.422 77.5037)" fill="#D9D9D9"/>
<rect width="2.16588" height="16.6051" rx="0.673081" transform="matrix(0.151576 -0.988446 -0.988446 -0.151576 191.648 71.4626)" fill="#D9D9D9"/>
<circle cx="316.918" cy="223.15" r="5.70274" transform="rotate(-108.227 316.918 223.15)" fill="#1B2D59"/>
<circle cx="424.512" cy="250.485" r="2.2811" transform="rotate(71.7726 424.512 250.485)" fill="white" fill-opacity="0.96"/>
<circle cx="400.703" cy="179.512" r="8.1782" transform="rotate(-108.227 400.703 179.512)" stroke="#1B2D59" stroke-width="1.32802"/>
<g filter="url(#filter2_d_2251_57562)">
<path d="M341.732 78.3242C341.732 71.8372 332.694 58.432 328.527 52.5965C327.505 51.1657 325.43 51.1657 324.408 52.5965C320.241 58.432 311.203 71.8372 311.203 78.3242C311.203 86.7545 318.037 93.5886 326.468 93.5886C334.898 93.5886 341.732 86.7545 341.732 78.3242Z" fill="white"/>
</g>
</g>
<defs>
<filter id="filter0_f_2251_57562" x="378.578" y="52.6939" width="18.9876" height="18.9891" filterUnits="userSpaceOnUse" color-interpolation-filters="sRGB">
<feFlood flood-opacity="0" result="BackgroundImageFix"/>
<feBlend mode="normal" in="SourceGraphic" in2="BackgroundImageFix" result="shape"/>
<feGaussianBlur stdDeviation="1.99203" result="effect1_foregroundBlur_2251_57562"/>
</filter>
<filter id="filter1_d_2251_57562" x="122.434" y="31.4744" width="20.2344" height="20.2334" filterUnits="userSpaceOnUse" color-interpolation-filters="sRGB">
<feFlood flood-opacity="0" result="BackgroundImageFix"/>
<feColorMatrix in="SourceAlpha" type="matrix" values="0 0 0 0 0 0 0 0 0 0 0 0 0 0 0 0 0 0 127 0" result="hardAlpha"/>
<feOffset dy="1"/>
<feGaussianBlur stdDeviation="2"/>
<feComposite in2="hardAlpha" operator="out"/>
<feColorMatrix type="matrix" values="0 0 0 0 0 0 0 0 0 0 0 0 0 0 0 0 0 0 0.08 0"/>
<feBlend mode="normal" in2="BackgroundImageFix" result="effect1_dropShadow_2251_57562"/>
<feBlend mode="normal" in="SourceGraphic" in2="effect1_dropShadow_2251_57562" result="shape"/>
</filter>
<filter id="filter2_d_2251_57562" x="304.563" y="51.5234" width="38.4955" height="50.0333" filterUnits="userSpaceOnUse" color-interpolation-filters="sRGB">
<feFlood flood-opacity="0" result="BackgroundImageFix"/>
<feColorMatrix in="SourceAlpha" type="matrix" values="0 0 0 0 0 0 0 0 0 0 0 0 0 0 0 0 0 0 127 0" result="hardAlpha"/>
<feOffset dx="-2.65604" dy="3.98405"/>
<feGaussianBlur stdDeviation="1.99203"/>
<feComposite in2="hardAlpha" operator="out"/>
<feColorMatrix type="matrix" values="0 0 0 0 0 0 0 0 0 0 0 0 0 0 0 0 0 0 0.35 0"/>
<feBlend mode="normal" in2="BackgroundImageFix" result="effect1_dropShadow_2251_57562"/>
<feBlend mode="normal" in="SourceGraphic" in2="effect1_dropShadow_2251_57562" result="shape"/>
</filter>
<clipPath id="clip0_2251_57562">
<rect width="583" height="265.604" fill="white" transform="translate(0 0.198242)"/>
</clipPath>
<clipPath id="clip1_2251_57562">
<rect width="26.6563" height="26.6563" fill="white" transform="matrix(-1 0 0 1 274.367 83.5735)"/>
</clipPath>
<clipPath id="clip2_2251_57562">
<rect width="26.6563" height="26.6563" fill="white" transform="translate(281.008 83.5735)"/>
</clipPath>
</defs>
</svg>
