<svg width="583" height="267" viewBox="0 0 583 267" fill="none" xmlns="http://www.w3.org/2000/svg">
<g clip-path="url(#clip0_2084_73042)">
<path fill-rule="evenodd" clip-rule="evenodd" d="M327.287 145.664C336.416 134.021 340.837 121.183 340.837 106.328C340.837 71.0597 312.246 42.4688 276.977 42.4688C241.708 42.4688 213.117 71.0597 213.117 106.328C213.117 141.597 241.708 170.188 276.977 170.188C291.832 170.188 304.671 165.767 316.314 156.638L329.321 169.645C329.406 169.73 329.493 169.813 329.581 169.894C326.503 173.008 326.514 178.028 329.615 181.128L359.763 211.277C362.875 214.389 367.92 214.389 371.032 211.277L381.926 200.383C385.038 197.271 385.038 192.226 381.926 189.114L351.777 158.966C348.677 155.865 343.658 155.854 340.543 158.932C340.463 158.843 340.38 158.756 340.294 158.671L327.287 145.664ZM276.977 155.997C304.408 155.997 326.646 133.76 326.646 106.328C326.646 78.8972 304.408 56.6598 276.977 56.6598C249.546 56.6598 227.308 78.8972 227.308 106.328C227.308 133.76 249.546 155.997 276.977 155.997Z" fill="url(#paint0_linear_2084_73042)"/>
<g clip-path="url(#clip1_2084_73042)">
<path fill-rule="evenodd" clip-rule="evenodd" d="M254.447 110.069C253.761 109.383 253.761 108.27 254.447 107.584L264.628 97.4037L254.447 87.2234C253.761 86.5371 253.761 85.4244 254.447 84.7381C255.134 84.0518 256.246 84.0518 256.933 84.7381L267.113 94.9184C268.486 96.291 268.486 98.5164 267.113 99.889L256.933 110.069C256.246 110.756 255.134 110.756 254.447 110.069Z" fill="url(#paint1_linear_2084_73042)"/>
</g>
<g clip-path="url(#clip2_2084_73042)">
<path fill-rule="evenodd" clip-rule="evenodd" d="M301.247 110.069C301.933 109.383 301.933 108.27 301.247 107.584L291.067 97.4037L301.247 87.2234C301.933 86.5371 301.933 85.4244 301.247 84.7381C300.561 84.0518 299.448 84.0518 298.762 84.7381L288.581 94.9184C287.209 96.291 287.209 98.5164 288.581 99.889L298.762 110.069C299.448 110.756 300.561 110.756 301.247 110.069Z" fill="url(#paint2_linear_2084_73042)"/>
</g>
<path d="M210.862 188.318C210.862 188.318 211.338 192.764 213.193 194.619C215.048 196.474 219.494 196.95 219.494 196.95C219.494 196.95 215.048 197.427 213.193 199.282C211.338 201.137 210.862 205.583 210.862 205.583C210.862 205.583 210.385 201.137 208.53 199.282C206.675 197.427 202.229 196.95 202.229 196.95C202.229 196.95 206.675 196.474 208.53 194.619C210.385 192.764 210.862 188.318 210.862 188.318Z" fill="white"/>
<path d="M388.075 57.1777C388.075 57.1777 388.379 60.0156 389.563 61.1999C390.748 62.3842 393.585 62.6882 393.585 62.6882C393.585 62.6882 390.748 62.9923 389.563 64.1766C388.379 65.3609 388.075 68.1987 388.075 68.1987C388.075 68.1987 387.771 65.3609 386.587 64.1766C385.402 62.9923 382.564 62.6882 382.564 62.6882C382.564 62.6882 385.402 62.3842 386.587 61.1999C387.771 60.0156 388.075 57.1777 388.075 57.1777Z" fill="white"/>
<g filter="url(#filter0_f_2084_73042)">
<path d="M388.075 57.1777C388.075 57.1777 388.379 60.0156 389.563 61.1999C390.748 62.3842 393.585 62.6882 393.585 62.6882C393.585 62.6882 390.748 62.9923 389.563 64.1766C388.379 65.3609 388.075 68.1987 388.075 68.1987C388.075 68.1987 387.771 65.3609 386.587 64.1766C385.402 62.9923 382.564 62.6882 382.564 62.6882C382.564 62.6882 385.402 62.3842 386.587 61.1999C387.771 60.0156 388.075 57.1777 388.075 57.1777Z" fill="white"/>
</g>
<circle cx="132.552" cy="41.0899" r="6.11533" transform="rotate(116.773 132.552 41.0899)" fill="white" fill-opacity="0.96"/>
<circle cx="202.432" cy="24.4457" r="5.8704" transform="rotate(116.773 202.432 24.4457)" stroke="white" stroke-width="0.809421"/>
<rect x="364.354" y="241.258" width="1.26381" height="9.68924" rx="0.631907" transform="rotate(-171.282 364.354 241.258)" fill="#246BFD"/>
<rect width="1.26411" height="9.69155" rx="0.632057" transform="matrix(0.151576 -0.988446 -0.988446 -0.151576 369.156 237.732)" fill="#246BFD"/>
<rect x="183.423" y="78.0039" width="2.16537" height="16.6012" rx="0.673081" transform="rotate(-171.282 183.423 78.0039)" fill="#D9D9D9"/>
<rect width="2.16588" height="16.6051" rx="0.673081" transform="matrix(0.151576 -0.988446 -0.988446 -0.151576 191.651 71.9629)" fill="#D9D9D9"/>
<circle cx="316.921" cy="223.649" r="5.70274" transform="rotate(-108.227 316.921 223.649)" fill="#1B2D59"/>
<circle cx="424.516" cy="250.984" r="2.2811" transform="rotate(71.7726 424.516 250.984)" fill="white" fill-opacity="0.96"/>
<circle cx="400.707" cy="180.012" r="8.1782" transform="rotate(-108.227 400.707 180.012)" stroke="#1B2D59" stroke-width="1.32802"/>
<g filter="url(#filter1_d_2084_73042)">
<path d="M341.736 78.8235C341.736 72.3365 332.698 58.9313 328.531 53.0958C327.509 51.665 325.434 51.665 324.412 53.0958C320.245 58.9313 311.207 72.3365 311.207 78.8235C311.207 87.2538 318.041 94.0879 326.471 94.0879C334.902 94.0879 341.736 87.2538 341.736 78.8235Z" fill="white"/>
</g>
</g>
<defs>
<filter id="filter0_f_2084_73042" x="378.58" y="53.1937" width="18.9886" height="18.9896" filterUnits="userSpaceOnUse" color-interpolation-filters="sRGB">
<feFlood flood-opacity="0" result="BackgroundImageFix"/>
<feBlend mode="normal" in="SourceGraphic" in2="BackgroundImageFix" result="shape"/>
<feGaussianBlur stdDeviation="1.99203" result="effect1_foregroundBlur_2084_73042"/>
</filter>
<filter id="filter1_d_2084_73042" x="304.567" y="52.0234" width="38.4974" height="50.0326" filterUnits="userSpaceOnUse" color-interpolation-filters="sRGB">
<feFlood flood-opacity="0" result="BackgroundImageFix"/>
<feColorMatrix in="SourceAlpha" type="matrix" values="0 0 0 0 0 0 0 0 0 0 0 0 0 0 0 0 0 0 127 0" result="hardAlpha"/>
<feOffset dx="-2.65604" dy="3.98405"/>
<feGaussianBlur stdDeviation="1.99203"/>
<feComposite in2="hardAlpha" operator="out"/>
<feColorMatrix type="matrix" values="0 0 0 0 0 0 0 0 0 0 0 0 0 0 0 0 0 0 0.35 0"/>
<feBlend mode="normal" in2="BackgroundImageFix" result="effect1_dropShadow_2084_73042"/>
<feBlend mode="normal" in="SourceGraphic" in2="effect1_dropShadow_2084_73042" result="shape"/>
</filter>
<linearGradient id="paint0_linear_2084_73042" x1="213.117" y1="144.259" x2="384.259" y2="144.6" gradientUnits="userSpaceOnUse">
<stop stop-color="#197CEC"/>
<stop offset="0.787639" stop-color="#004AD9"/>
</linearGradient>
<linearGradient id="paint1_linear_2084_73042" x1="254.954" y1="110.584" x2="265.833" y2="84.0587" gradientUnits="userSpaceOnUse">
<stop stop-color="#197CEC"/>
<stop offset="0.608737" stop-color="#004AD9"/>
</linearGradient>
<linearGradient id="paint2_linear_2084_73042" x1="300.74" y1="110.584" x2="289.862" y2="84.0587" gradientUnits="userSpaceOnUse">
<stop stop-color="#197CEC"/>
<stop offset="0.608737" stop-color="#004AD9"/>
</linearGradient>
<clipPath id="clip0_2084_73042">
<rect width="583" height="265.604" fill="white" transform="translate(0 0.697266)"/>
</clipPath>
<clipPath id="clip1_2084_73042">
<rect width="26.6563" height="26.6563" fill="white" transform="matrix(-1 0 0 1 274.367 84.0723)"/>
</clipPath>
<clipPath id="clip2_2084_73042">
<rect width="26.6563" height="26.6563" fill="white" transform="translate(281.008 84.0723)"/>
</clipPath>
</defs>
</svg>
