<svg width="40" height="40" viewBox="0 0 40 40" fill="none" xmlns="http://www.w3.org/2000/svg">
<g filter="url(#filter0_ii_2489_48710)">
<rect width="40" height="40" rx="9.87429" fill="url(#paint0_linear_2489_48710)"/>
</g>
<path d="M14.729 12.7084C14.7288 13.2609 14.509 13.7907 14.1181 14.1812C13.7272 14.5717 13.1972 14.791 12.6447 14.7907C12.0921 14.7904 11.5623 14.5707 11.1718 14.1798C10.7813 13.7889 10.5621 13.2588 10.5624 12.7063C10.5627 12.1538 10.7824 11.624 11.1733 11.2335C11.5642 10.843 12.0942 10.6237 12.6468 10.624C13.1993 10.6243 13.7291 10.8441 14.1196 11.235C14.5101 11.6259 14.7293 12.1559 14.729 12.7084ZM14.7915 16.3334H10.6249V29.3751H14.7915V16.3334ZM21.3749 16.3334H17.229V29.3751H21.3332V22.5313C21.3332 18.7188 26.302 18.3646 26.302 22.5313V29.3751H30.4165V21.1146C30.4165 14.6876 23.0624 14.9271 21.3332 18.0834L21.3749 16.3334Z" fill="white"/>
<defs>
<filter id="filter0_ii_2489_48710" x="-0.246857" y="-0.246857" width="40.4937" height="40.4937" filterUnits="userSpaceOnUse" color-interpolation-filters="sRGB">
<feFlood flood-opacity="0" result="BackgroundImageFix"/>
<feBlend mode="normal" in="SourceGraphic" in2="BackgroundImageFix" result="shape"/>
<feColorMatrix in="SourceAlpha" type="matrix" values="0 0 0 0 0 0 0 0 0 0 0 0 0 0 0 0 0 0 127 0" result="hardAlpha"/>
<feOffset dx="0.246857" dy="0.246857"/>
<feGaussianBlur stdDeviation="0.987429"/>
<feComposite in2="hardAlpha" operator="arithmetic" k2="-1" k3="1"/>
<feColorMatrix type="matrix" values="0 0 0 0 1 0 0 0 0 1 0 0 0 0 1 0 0 0 0.5 0"/>
<feBlend mode="normal" in2="shape" result="effect1_innerShadow_2489_48710"/>
<feColorMatrix in="SourceAlpha" type="matrix" values="0 0 0 0 0 0 0 0 0 0 0 0 0 0 0 0 0 0 127 0" result="hardAlpha"/>
<feOffset dx="-0.246857" dy="-0.246857"/>
<feGaussianBlur stdDeviation="0.987429"/>
<feComposite in2="hardAlpha" operator="arithmetic" k2="-1" k3="1"/>
<feColorMatrix type="matrix" values="0 0 0 0 1 0 0 0 0 1 0 0 0 0 1 0 0 0 0.5 0"/>
<feBlend mode="normal" in2="effect1_innerShadow_2489_48710" result="effect2_innerShadow_2489_48710"/>
</filter>
<linearGradient id="paint0_linear_2489_48710" x1="4.3609" y1="-0.601503" x2="44.9624" y2="49.4737" gradientUnits="userSpaceOnUse">
<stop stop-color="#197CEC"/>
<stop offset="0.841023" stop-color="#004AD9"/>
</linearGradient>
</defs>
</svg>
