<svg width="40" height="40" viewBox="0 0 40 40" fill="none" xmlns="http://www.w3.org/2000/svg">
<g filter="url(#filter0_ii_2491_48748)">
<rect width="40" height="40" rx="9.87429" fill="url(#paint0_linear_2491_48748)"/>
</g>
<path d="M27.2915 15.3125V18.4375M27.2915 18.4375V21.5625M27.2915 18.4375H30.4165M27.2915 18.4375H24.1665M21.8228 14.1406C21.8228 14.6023 21.7318 15.0595 21.5551 15.486C21.3785 15.9125 21.1195 16.3001 20.7931 16.6265C20.4666 16.953 20.079 17.212 19.6525 17.3886C19.226 17.5653 18.7688 17.6562 18.3071 17.6562C17.8455 17.6562 17.3883 17.5653 16.9618 17.3886C16.5352 17.212 16.1477 16.953 15.8212 16.6265C15.4948 16.3001 15.2358 15.9125 15.0591 15.486C14.8824 15.0595 14.7915 14.6023 14.7915 14.1406C14.7915 13.2082 15.1619 12.314 15.8212 11.6547C16.4805 10.9954 17.3747 10.625 18.3071 10.625C19.2395 10.625 20.1337 10.9954 20.7931 11.6547C21.4524 12.314 21.8228 13.2082 21.8228 14.1406ZM11.6665 27.5365V27.4219C11.6665 25.6607 12.3661 23.9716 13.6115 22.7262C14.8569 21.4809 16.5459 20.7812 18.3071 20.7812C20.0683 20.7812 21.7574 21.4809 23.0028 22.7262C24.2481 23.9716 24.9478 25.6607 24.9478 27.4219V27.5354C22.943 28.7428 20.6463 29.3789 18.3061 29.375C15.878 29.375 13.6061 28.7031 11.6665 27.5354V27.5365Z" stroke="white" stroke-width="1.5" stroke-linecap="round" stroke-linejoin="round"/>
<defs>
<filter id="filter0_ii_2491_48748" x="-0.246857" y="-0.246857" width="40.4937" height="40.4937" filterUnits="userSpaceOnUse" color-interpolation-filters="sRGB">
<feFlood flood-opacity="0" result="BackgroundImageFix"/>
<feBlend mode="normal" in="SourceGraphic" in2="BackgroundImageFix" result="shape"/>
<feColorMatrix in="SourceAlpha" type="matrix" values="0 0 0 0 0 0 0 0 0 0 0 0 0 0 0 0 0 0 127 0" result="hardAlpha"/>
<feOffset dx="0.246857" dy="0.246857"/>
<feGaussianBlur stdDeviation="0.987429"/>
<feComposite in2="hardAlpha" operator="arithmetic" k2="-1" k3="1"/>
<feColorMatrix type="matrix" values="0 0 0 0 1 0 0 0 0 1 0 0 0 0 1 0 0 0 0.5 0"/>
<feBlend mode="normal" in2="shape" result="effect1_innerShadow_2491_48748"/>
<feColorMatrix in="SourceAlpha" type="matrix" values="0 0 0 0 0 0 0 0 0 0 0 0 0 0 0 0 0 0 127 0" result="hardAlpha"/>
<feOffset dx="-0.246857" dy="-0.246857"/>
<feGaussianBlur stdDeviation="0.987429"/>
<feComposite in2="hardAlpha" operator="arithmetic" k2="-1" k3="1"/>
<feColorMatrix type="matrix" values="0 0 0 0 1 0 0 0 0 1 0 0 0 0 1 0 0 0 0.5 0"/>
<feBlend mode="normal" in2="effect1_innerShadow_2491_48748" result="effect2_innerShadow_2491_48748"/>
</filter>
<linearGradient id="paint0_linear_2491_48748" x1="4.3609" y1="-0.601503" x2="44.9624" y2="49.4737" gradientUnits="userSpaceOnUse">
<stop stop-color="#197CEC"/>
<stop offset="0.841023" stop-color="#004AD9"/>
</linearGradient>
</defs>
</svg>
