<svg width="40" height="40" viewBox="0 0 40 40" fill="none" xmlns="http://www.w3.org/2000/svg">
<g clip-path="url(#clip0_1333_60541)">
<g opacity="0.8">
<rect x="0.000427246" width="40" height="40" rx="9.87087" fill="url(#paint0_linear_1333_60541)"/>
<rect x="0.500427" y="0.5" width="39" height="39" rx="9.37087" stroke="url(#paint1_linear_1333_60541)" stroke-opacity="0.5"/>
</g>
<path d="M26.3113 20.4807C25.8682 20.9133 25.615 21.5358 25.6783 22.2005C25.7733 23.34 26.8178 24.1735 27.9572 24.1735H29.9619V25.429C29.9619 27.613 28.1788 29.3961 25.9948 29.3961H15.328C15.6551 29.1218 15.94 28.7842 16.1615 28.4043C16.5519 27.7713 16.7735 27.0222 16.7735 26.2309C16.7735 23.8992 14.8849 22.0106 12.5532 22.0106C11.5614 22.0106 10.6435 22.3588 9.91553 22.9391V18.3284C9.91553 16.1444 11.6986 14.3613 13.8826 14.3613H25.9948C28.1788 14.3613 29.9619 16.1444 29.9619 18.3284V19.8477H27.8306C27.2398 19.8477 26.7017 20.0798 26.3113 20.4807Z" stroke="url(#paint2_linear_1333_60541)" stroke-width="1.34167" stroke-linecap="round" stroke-linejoin="round"/>
<path d="M9.91553 19.2784V14.4567C9.91553 13.2012 10.6857 12.0827 11.8569 11.6396L20.2341 8.4744C21.5424 7.97851 22.9457 8.94921 22.9457 10.3525V14.3617" stroke="url(#paint3_linear_1333_60541)" stroke-width="1.34167" stroke-linecap="round" stroke-linejoin="round"/>
<path d="M31.0798 20.9249V23.0984C31.0798 23.6787 30.6156 24.1534 30.0248 24.1745H27.9568C26.8173 24.1745 25.7728 23.341 25.6779 22.2016C25.6146 21.5369 25.8678 20.9144 26.3109 20.4818C26.7013 20.0809 27.2394 19.8488 27.8302 19.8488H30.0248C30.6156 19.8699 31.0798 20.3446 31.0798 20.9249Z" stroke="url(#paint4_linear_1333_60541)" stroke-width="1.34167" stroke-linecap="round" stroke-linejoin="round"/>
<path d="M16.7739 26.2308C16.7739 27.0221 16.5524 27.7712 16.162 28.4042C15.9404 28.7841 15.6555 29.1217 15.3285 29.396C14.5899 30.0607 13.6193 30.4511 12.5536 30.4511C11.0132 30.4511 9.67328 29.6281 8.94529 28.4042C8.55491 27.7712 8.33334 27.0221 8.33334 26.2308C8.33334 24.9014 8.94528 23.7092 9.91595 22.939C10.644 22.3587 11.5619 22.0105 12.5536 22.0105C14.8853 22.0105 16.7739 23.8991 16.7739 26.2308Z" stroke="url(#paint5_linear_1333_60541)" stroke-width="1.34167" stroke-miterlimit="10" stroke-linecap="round" stroke-linejoin="round"/>
<path d="M13.6825 27.3279L11.4458 25.1017" stroke="url(#paint6_linear_1333_60541)" stroke-width="1.34167" stroke-miterlimit="10" stroke-linecap="round" stroke-linejoin="round"/>
<path d="M13.6609 25.1337L11.4241 27.3598" stroke="url(#paint7_linear_1333_60541)" stroke-width="1.34167" stroke-miterlimit="10" stroke-linecap="round" stroke-linejoin="round"/>
</g>
<defs>
<linearGradient id="paint0_linear_1333_60541" x1="2.66709" y1="4.87805" x2="39.6141" y2="35.3806" gradientUnits="userSpaceOnUse">
<stop stop-color="#0D2147" stop-opacity="0.66"/>
<stop offset="1" stop-color="#0B2049" stop-opacity="0.15"/>
</linearGradient>
<linearGradient id="paint1_linear_1333_60541" x1="7.65757" y1="1.82857" x2="35.429" y2="36.2286" gradientUnits="userSpaceOnUse">
<stop stop-color="#353C54"/>
<stop offset="1" stop-color="#071F4E" stop-opacity="0.76"/>
</linearGradient>
<linearGradient id="paint2_linear_1333_60541" x1="9.91553" y1="23.3036" x2="29.9617" y2="23.3568" gradientUnits="userSpaceOnUse">
<stop stop-color="#197CEC"/>
<stop offset="0.787639" stop-color="#004AD9"/>
</linearGradient>
<linearGradient id="paint3_linear_1333_60541" x1="9.91553" y1="14.8471" x2="22.9456" y2="14.878" gradientUnits="userSpaceOnUse">
<stop stop-color="#197CEC"/>
<stop offset="0.787639" stop-color="#004AD9"/>
</linearGradient>
<linearGradient id="paint4_linear_1333_60541" x1="25.6682" y1="22.4216" x2="31.0798" y2="22.4351" gradientUnits="userSpaceOnUse">
<stop stop-color="#197CEC"/>
<stop offset="0.787639" stop-color="#004AD9"/>
</linearGradient>
<linearGradient id="paint5_linear_1333_60541" x1="8.33334" y1="27.0307" x2="16.7739" y2="27.0475" gradientUnits="userSpaceOnUse">
<stop stop-color="#197CEC"/>
<stop offset="0.787639" stop-color="#004AD9"/>
</linearGradient>
<linearGradient id="paint6_linear_1333_60541" x1="11.4458" y1="26.4258" x2="13.6825" y2="26.4302" gradientUnits="userSpaceOnUse">
<stop stop-color="#197CEC"/>
<stop offset="0.787639" stop-color="#004AD9"/>
</linearGradient>
<linearGradient id="paint7_linear_1333_60541" x1="11.4241" y1="26.4577" x2="13.6609" y2="26.4622" gradientUnits="userSpaceOnUse">
<stop stop-color="#197CEC"/>
<stop offset="0.787639" stop-color="#004AD9"/>
</linearGradient>
<clipPath id="clip0_1333_60541">
<rect width="40" height="40" rx="9.87087" fill="white"/>
</clipPath>
</defs>
</svg>
