<svg width="40" height="40" viewBox="0 0 40 40" fill="none" xmlns="http://www.w3.org/2000/svg">
<g opacity="0.8">
<rect width="40" height="40" rx="10" fill="url(#paint0_linear_5008_82860)"/>
<rect x="0.5" y="0.5" width="39" height="39" rx="9.5" stroke="url(#paint1_linear_5008_82860)" stroke-opacity="0.5"/>
</g>
<path d="M24.8957 25.5208C24.7047 25.7118 24.4658 25.8073 24.179 25.8073C23.8922 25.8073 23.645 25.7031 23.4374 25.4948C23.229 25.2864 23.1249 25.0392 23.1249 24.7531C23.1249 24.467 23.229 24.2194 23.4374 24.0104L27.4738 19.9739L23.4113 15.9114C23.2204 15.7204 23.129 15.4819 23.1374 15.1958C23.1457 14.9097 23.2457 14.6708 23.4374 14.4791C23.6283 14.2882 23.8714 14.1927 24.1665 14.1927C24.4617 14.1927 24.7047 14.2882 24.8957 14.4791L29.6874 19.2708C29.8957 19.4791 29.9999 19.7222 29.9999 20C29.9999 20.2777 29.8957 20.5208 29.6874 20.7291L24.8957 25.5208ZM15.104 25.5208L10.3124 20.7291C10.104 20.5208 9.99988 20.2777 9.99988 20C9.99988 19.7222 10.104 19.4791 10.3124 19.2708L15.104 14.4791C15.295 14.2882 15.5381 14.1885 15.8332 14.1802C16.1283 14.1718 16.3801 14.2715 16.5884 14.4791C16.7968 14.6875 16.9009 14.935 16.9009 15.2218C16.9009 15.5086 16.7968 15.7559 16.5884 15.9635L12.5259 20.026L16.5884 24.0885C16.7794 24.2795 16.8707 24.5184 16.8624 24.8052C16.854 25.092 16.754 25.3305 16.5624 25.5208C16.3714 25.7118 16.1283 25.8073 15.8332 25.8073C15.5381 25.8073 15.295 25.7118 15.104 25.5208Z" fill="url(#paint2_linear_5008_82860)"/>
<defs>
<linearGradient id="paint0_linear_5008_82860" x1="2.66667" y1="4.87805" x2="39.6137" y2="35.3806" gradientUnits="userSpaceOnUse">
<stop stop-color="#0D2147" stop-opacity="0.66"/>
<stop offset="1" stop-color="#0B2049" stop-opacity="0.15"/>
</linearGradient>
<linearGradient id="paint1_linear_5008_82860" x1="7.65714" y1="1.82857" x2="35.4286" y2="36.2286" gradientUnits="userSpaceOnUse">
<stop stop-color="#353C54"/>
<stop offset="1" stop-color="#071F4E" stop-opacity="0.76"/>
</linearGradient>
<linearGradient id="paint2_linear_5008_82860" x1="9.99988" y1="15.0157" x2="30.5397" y2="22.8261" gradientUnits="userSpaceOnUse">
<stop stop-color="#197CEC"/>
<stop offset="0.608737" stop-color="#004AD9"/>
</linearGradient>
</defs>
</svg>
