<svg width="40" height="40" viewBox="0 0 40 40" fill="none" xmlns="http://www.w3.org/2000/svg">
<g clip-path="url(#clip0_1524_62190)">
<g opacity="0.8">
<rect x="0.000427246" width="40" height="40" rx="9.87087" fill="url(#paint0_linear_1524_62190)"/>
<rect x="0.500427" y="0.5" width="39" height="39" rx="9.37087" stroke="url(#paint1_linear_1524_62190)" stroke-opacity="0.5"/>
</g>
<g clip-path="url(#clip1_1524_62190)">
<path d="M19.9874 8.27637C13.5474 8.27637 8.3324 13.503 8.3324 19.943C8.3324 26.383 13.5474 31.6097 19.9874 31.6097C26.4391 31.6097 31.6657 26.383 31.6657 19.943C31.6657 13.503 26.4391 8.27637 19.9874 8.27637ZM28.0724 15.2764H24.6307C24.2574 13.818 23.7207 12.418 23.0207 11.123C25.1674 11.858 26.9524 13.3514 28.0724 15.2764ZM19.9991 10.6564C20.9674 12.0564 21.7257 13.608 22.2274 15.2764H17.7707C18.2724 13.608 19.0307 12.0564 19.9991 10.6564ZM10.9691 22.2764C10.7824 21.5297 10.6657 20.748 10.6657 19.943C10.6657 19.138 10.7824 18.3564 10.9691 17.6097H14.9124C14.8191 18.3797 14.7491 19.1497 14.7491 19.943C14.7491 20.7364 14.8191 21.5064 14.9124 22.2764H10.9691ZM11.9257 24.6097H15.3674C15.7407 26.068 16.2774 27.468 16.9774 28.763C14.8307 28.028 13.0457 26.5464 11.9257 24.6097V24.6097ZM15.3674 15.2764H11.9257C13.0457 13.3397 14.8307 11.858 16.9774 11.123C16.2774 12.418 15.7407 13.818 15.3674 15.2764V15.2764ZM19.9991 29.2297C19.0307 27.8297 18.2724 26.278 17.7707 24.6097H22.2274C21.7257 26.278 20.9674 27.8297 19.9991 29.2297ZM22.7291 22.2764H17.2691C17.1641 21.5064 17.0824 20.7364 17.0824 19.943C17.0824 19.1497 17.1641 18.368 17.2691 17.6097H22.7291C22.8341 18.368 22.9157 19.1497 22.9157 19.943C22.9157 20.7364 22.8341 21.5064 22.7291 22.2764ZM23.0207 28.763C23.7207 27.468 24.2574 26.068 24.6307 24.6097H28.0724C26.9524 26.5347 25.1674 28.028 23.0207 28.763V28.763ZM25.0857 22.2764C25.1791 21.5064 25.2491 20.7364 25.2491 19.943C25.2491 19.1497 25.1791 18.3797 25.0857 17.6097H29.0291C29.2157 18.3564 29.3324 19.138 29.3324 19.943C29.3324 20.748 29.2157 21.5297 29.0291 22.2764H25.0857Z" fill="url(#paint2_linear_1524_62190)"/>
</g>
</g>
<defs>
<linearGradient id="paint0_linear_1524_62190" x1="2.66709" y1="4.87805" x2="39.6141" y2="35.3806" gradientUnits="userSpaceOnUse">
<stop stop-color="#0D2147" stop-opacity="0.66"/>
<stop offset="1" stop-color="#0B2049" stop-opacity="0.15"/>
</linearGradient>
<linearGradient id="paint1_linear_1524_62190" x1="7.65757" y1="1.82857" x2="35.429" y2="36.2286" gradientUnits="userSpaceOnUse">
<stop stop-color="#353C54"/>
<stop offset="1" stop-color="#071F4E" stop-opacity="0.76"/>
</linearGradient>
<linearGradient id="paint2_linear_1524_62190" x1="8.3324" y1="22.1544" x2="31.6656" y2="22.2009" gradientUnits="userSpaceOnUse">
<stop stop-color="#197CEC"/>
<stop offset="0.787639" stop-color="#004AD9"/>
</linearGradient>
<clipPath id="clip0_1524_62190">
<rect width="40" height="40" rx="9.87087" fill="white"/>
</clipPath>
<clipPath id="clip1_1524_62190">
<rect width="28" height="28" fill="white" transform="translate(6 5.94287)"/>
</clipPath>
</defs>
</svg>
