<svg width="352" height="169" viewBox="0 0 352 169" fill="none" xmlns="http://www.w3.org/2000/svg">
<g clip-path="url(#clip0_1122_17716)">
<g filter="url(#filter0_dd_1122_17716)">
<rect width="353" height="184" rx="8.46115" fill="#020A21"/>
<circle cx="18.6441" cy="18.6441" r="2.64411" fill="#14244B"/>
<circle cx="29.9332" cy="18.6441" r="2.64411" fill="#14244B"/>
<circle cx="41.2203" cy="18.6441" r="2.64411" fill="#14244B"/>
<rect x="16" y="35.2881" width="320" height="24" rx="4.73929" fill="#020A21" stroke="#022F60" stroke-width="0.592412"/>
<path fill-rule="evenodd" clip-rule="evenodd" d="M36.1615 50.0239C36.8912 49.1118 37.3275 47.9548 37.3275 46.696C37.3275 43.7513 34.9404 41.3643 31.9958 41.3643C29.0511 41.3643 26.6641 43.7513 26.6641 46.696C26.6641 49.6406 29.0511 52.0277 31.9958 52.0277C33.2547 52.0277 34.4116 51.5914 35.3237 50.8617L36.9086 52.4466C37.1399 52.6779 37.515 52.6779 37.7464 52.4466C37.9777 52.2152 37.9777 51.8401 37.7464 51.6088L36.1615 50.0239ZM36.1426 46.696C36.1426 48.9862 34.286 50.8428 31.9958 50.8428C29.7055 50.8428 27.8489 48.9862 27.8489 46.696C27.8489 44.4057 29.7055 42.5491 31.9958 42.5491C34.286 42.5491 36.1426 44.4057 36.1426 46.696Z" fill="#022F60"/>
<path d="M44.0936 46.4377C44.074 46.2641 43.9934 46.1296 43.8516 46.0343C43.7097 45.9377 43.5313 45.8894 43.3161 45.8894C43.1621 45.8894 43.0288 45.9139 42.9164 45.9628C42.8039 46.0105 42.7165 46.0765 42.6542 46.1608C42.593 46.2439 42.5625 46.3387 42.5625 46.445C42.5625 46.5343 42.5833 46.6113 42.6248 46.6761C42.6676 46.7409 42.7232 46.7953 42.7917 46.8393C42.8614 46.8821 42.9359 46.9181 43.0154 46.9475C43.0949 46.9756 43.1713 46.9988 43.2446 47.0171L43.6113 47.1125C43.7311 47.1418 43.854 47.1816 43.9799 47.2317C44.1058 47.2818 44.2226 47.3478 44.3301 47.4297C44.4377 47.5116 44.5245 47.6131 44.5905 47.7341C44.6578 47.8551 44.6914 48 44.6914 48.1687C44.6914 48.3814 44.6364 48.5703 44.5263 48.7353C44.4175 48.9003 44.2592 49.0305 44.0514 49.1259C43.8448 49.2212 43.5948 49.2689 43.3015 49.2689C43.0203 49.2689 42.777 49.2243 42.5717 49.135C42.3663 49.0458 42.2055 48.9193 42.0894 48.7555C41.9733 48.5904 41.9091 48.3948 41.8969 48.1687H42.4653C42.4763 48.3044 42.5203 48.4175 42.5973 48.5079C42.6756 48.5972 42.7752 48.6638 42.8962 48.7078C43.0185 48.7506 43.1523 48.772 43.2978 48.772C43.4579 48.772 43.6003 48.7469 43.725 48.6968C43.8509 48.6454 43.95 48.5745 44.0221 48.4841C44.0942 48.3924 44.1303 48.2854 44.1303 48.1632C44.1303 48.0519 44.0985 47.9609 44.0349 47.89C43.9726 47.8191 43.8876 47.7604 43.78 47.7139C43.6737 47.6675 43.5533 47.6265 43.4188 47.5911L42.9751 47.4701C42.6743 47.3882 42.436 47.2677 42.2599 47.1088C42.0851 46.9499 41.9977 46.7396 41.9977 46.478C41.9977 46.2617 42.0564 46.0728 42.1737 45.9114C42.2911 45.7501 42.45 45.6248 42.6505 45.5355C42.851 45.4451 43.0771 45.3998 43.329 45.3998C43.5832 45.3998 43.8075 45.4445 44.0019 45.5337C44.1975 45.6229 44.3515 45.7458 44.464 45.9023C44.5765 46.0575 44.6351 46.236 44.64 46.4377H44.0936ZM46.5383 49.2634C46.2608 49.2634 46.0219 49.2041 45.8214 49.0855C45.6221 48.9657 45.4681 48.7976 45.3593 48.5813C45.2517 48.3637 45.1979 48.1088 45.1979 47.8166C45.1979 47.5281 45.2517 47.2739 45.3593 47.0538C45.4681 46.8338 45.6197 46.662 45.814 46.5386C46.0096 46.4151 46.2382 46.3534 46.4998 46.3534C46.6587 46.3534 46.8128 46.3796 46.9619 46.4322C47.1111 46.4848 47.2449 46.5673 47.3635 46.6797C47.4821 46.7922 47.5756 46.9383 47.644 47.118C47.7125 47.2965 47.7467 47.5135 47.7467 47.7689V47.9633H45.5078V47.5526H47.2095C47.2095 47.4083 47.1801 47.2806 47.1214 47.1693C47.0628 47.0569 46.9802 46.9682 46.8739 46.9035C46.7688 46.8387 46.6453 46.8063 46.5035 46.8063C46.3495 46.8063 46.215 46.8442 46.1001 46.92C45.9864 46.9945 45.8984 47.0923 45.836 47.2133C45.7749 47.3331 45.7444 47.4633 45.7444 47.6039V47.9248C45.7444 48.1131 45.7774 48.2732 45.8434 48.4052C45.9106 48.5373 46.0041 48.6381 46.1239 48.7078C46.2437 48.7762 46.3837 48.8105 46.5438 48.8105C46.6477 48.8105 46.7425 48.7958 46.8281 48.7665C46.9136 48.7359 46.9876 48.6907 47.0499 48.6308C47.1123 48.5709 47.1599 48.4969 47.193 48.4089L47.7119 48.5024C47.6703 48.6552 47.5958 48.7891 47.4882 48.904C47.3818 49.0177 47.248 49.1063 47.0866 49.1699C46.9265 49.2322 46.7437 49.2634 46.5383 49.2634ZM49.1747 49.2689C48.9962 49.2689 48.8349 49.2359 48.6906 49.1699C48.5464 49.1026 48.4321 49.0055 48.3477 48.8783C48.2646 48.7512 48.223 48.5953 48.223 48.4107C48.223 48.2518 48.2536 48.121 48.3147 48.0183C48.3758 47.9156 48.4583 47.8343 48.5622 47.7744C48.6662 47.7145 48.7823 47.6693 48.9106 47.6388C49.039 47.6082 49.1698 47.585 49.303 47.5691C49.4717 47.5495 49.6087 47.5336 49.7138 47.5214C49.8189 47.508 49.8953 47.4866 49.943 47.4572C49.9907 47.4279 50.0145 47.3802 50.0145 47.3142V47.3014C50.0145 47.1412 49.9693 47.0171 49.8788 46.9291C49.7896 46.8411 49.6563 46.7971 49.4791 46.7971C49.2945 46.7971 49.149 46.8381 49.0427 46.92C48.9375 47.0006 48.8648 47.0905 48.8245 47.1895L48.3092 47.0722C48.3703 46.901 48.4596 46.7629 48.5769 46.6577C48.6955 46.5514 48.8318 46.4744 48.9858 46.4267C49.1399 46.3778 49.3018 46.3534 49.4717 46.3534C49.5842 46.3534 49.7034 46.3668 49.8293 46.3937C49.9564 46.4194 50.075 46.467 50.185 46.5367C50.2963 46.6064 50.3874 46.706 50.4583 46.8356C50.5292 46.964 50.5646 47.1308 50.5646 47.3362V49.2065H50.0292V48.8215H50.0072C49.9717 48.8924 49.9185 48.9621 49.8476 49.0305C49.7767 49.099 49.6857 49.1558 49.5744 49.201C49.4632 49.2463 49.3299 49.2689 49.1747 49.2689ZM49.2939 48.8288C49.4455 48.8288 49.575 48.7989 49.6826 48.739C49.7914 48.6791 49.8739 48.6008 49.9302 48.5042C49.9876 48.4065 50.0163 48.3019 50.0163 48.1907V47.8276C49.9968 47.8472 49.9589 47.8655 49.9027 47.8826C49.8476 47.8985 49.7847 47.9126 49.7138 47.9248C49.6429 47.9358 49.5738 47.9462 49.5066 47.956C49.4394 47.9645 49.3831 47.9719 49.3379 47.978C49.2315 47.9914 49.1344 48.014 49.0463 48.0458C48.9595 48.0776 48.8899 48.1235 48.8373 48.1834C48.786 48.242 48.7603 48.3203 48.7603 48.4181C48.7603 48.5538 48.8104 48.6564 48.9106 48.7261C49.0109 48.7946 49.1386 48.8288 49.2939 48.8288ZM51.2949 49.2065V46.39H51.8248V46.8374H51.8541C51.9055 46.6859 51.9959 46.5667 52.1255 46.4799C52.2563 46.3919 52.4042 46.3479 52.5693 46.3479C52.6035 46.3479 52.6438 46.3491 52.6903 46.3515C52.738 46.354 52.7753 46.357 52.8021 46.3607V46.8851C52.7801 46.879 52.741 46.8723 52.6848 46.8649C52.6286 46.8564 52.5723 46.8521 52.5161 46.8521C52.3865 46.8521 52.271 46.8796 52.1695 46.9346C52.0693 46.9884 51.9898 47.0636 51.9312 47.1602C51.8725 47.2555 51.8431 47.3643 51.8431 47.4866V49.2065H51.2949ZM54.3621 49.2634C54.0895 49.2634 53.8548 49.2017 53.658 49.0782C53.4624 48.9535 53.3121 48.7817 53.2069 48.5629C53.1018 48.3441 53.0492 48.0935 53.0492 47.8111C53.0492 47.5251 53.103 47.2726 53.2106 47.0538C53.3182 46.8338 53.4698 46.662 53.6653 46.5386C53.8609 46.4151 54.0914 46.3534 54.3566 46.3534C54.5706 46.3534 54.7613 46.3931 54.9287 46.4725C55.0962 46.5508 55.2313 46.6608 55.334 46.8026C55.4379 46.9444 55.4996 47.11 55.5192 47.2995H54.9856C54.9562 47.1675 54.889 47.0538 54.7839 46.9585C54.68 46.8631 54.5406 46.8154 54.3658 46.8154C54.213 46.8154 54.0791 46.8558 53.9642 46.9365C53.8505 47.0159 53.7619 47.1296 53.6984 47.2775C53.6348 47.4242 53.603 47.5978 53.603 47.7983C53.603 48.0037 53.6342 48.1809 53.6965 48.33C53.7589 48.4792 53.8469 48.5947 53.9606 48.6766C54.0755 48.7585 54.2106 48.7995 54.3658 48.7995C54.4697 48.7995 54.5638 48.7805 54.6482 48.7426C54.7338 48.7035 54.8053 48.6479 54.8627 48.5758C54.9214 48.5036 54.9624 48.4168 54.9856 48.3154H55.5192C55.4996 48.4975 55.4403 48.6601 55.3413 48.8031C55.2423 48.9462 55.1097 49.0586 54.9434 49.1405C54.7784 49.2224 54.5846 49.2634 54.3621 49.2634ZM56.6538 47.5342V49.2065H56.1055V45.4512H56.6464V46.8484H56.6813C56.7473 46.6969 56.8481 46.5765 56.9838 46.4872C57.1195 46.398 57.2968 46.3534 57.5156 46.3534C57.7087 46.3534 57.8774 46.3931 58.0217 46.4725C58.1672 46.552 58.2796 46.6706 58.3591 46.8283C58.4398 46.9847 58.4801 47.1803 58.4801 47.415V49.2065H57.9318V47.4811C57.9318 47.2745 57.8787 47.1143 57.7723 47.0006C57.666 46.8857 57.518 46.8283 57.3286 46.8283C57.199 46.8283 57.0828 46.8558 56.9802 46.9108C56.8787 46.9658 56.7986 47.0465 56.7399 47.1528C56.6825 47.258 56.6538 47.3851 56.6538 47.5342ZM63.6533 45.4512V49.2065H63.1326L61.2237 46.4524H61.1889V49.2065H60.6223V45.4512H61.1467L63.0574 48.209H63.0922V45.4512H63.6533ZM64.4799 49.2065V45.4512H66.8086V45.9389H65.0465V47.0832H66.6418V47.5691H65.0465V49.2065H64.4799ZM67.3202 45.9389V45.4512H70.2266V45.9389H69.0549V49.2065H68.4901V45.9389H67.3202ZM72.5521 47.0777L72.0552 47.1657C72.0344 47.1021 72.0014 47.0416 71.9562 46.9841C71.9122 46.9267 71.8523 46.8796 71.7765 46.8429C71.7007 46.8063 71.606 46.7879 71.4923 46.7879C71.337 46.7879 71.2074 46.8228 71.1035 46.8925C70.9996 46.9609 70.9477 47.0495 70.9477 47.1583C70.9477 47.2525 70.9825 47.3283 71.0522 47.3857C71.1219 47.4432 71.2343 47.4902 71.3896 47.5269L71.837 47.6296C72.0962 47.6895 72.2893 47.7818 72.4164 47.9065C72.5436 48.0312 72.6071 48.1931 72.6071 48.3924C72.6071 48.5611 72.5582 48.7115 72.4604 48.8435C72.3639 48.9743 72.2288 49.077 72.0552 49.1515C71.8828 49.2261 71.683 49.2634 71.4556 49.2634C71.1402 49.2634 70.8829 49.1962 70.6836 49.0617C70.4844 48.926 70.3621 48.7335 70.3169 48.4841L70.8468 48.4034C70.8798 48.5415 70.9477 48.6461 71.0504 48.717C71.153 48.7866 71.2869 48.8215 71.4519 48.8215C71.6316 48.8215 71.7753 48.7842 71.8828 48.7096C71.9904 48.6338 72.0442 48.5415 72.0442 48.4327C72.0442 48.3447 72.0112 48.2708 71.9452 48.2109C71.8804 48.151 71.7808 48.1057 71.6463 48.0752L71.1695 47.9707C70.9067 47.9108 70.7124 47.8154 70.5864 47.6846C70.4618 47.5538 70.3994 47.3882 70.3994 47.1877C70.3994 47.0214 70.4459 46.8759 70.5388 46.7513C70.6317 46.6266 70.76 46.5294 70.9238 46.4597C71.0876 46.3888 71.2753 46.3534 71.4868 46.3534C71.7912 46.3534 72.0308 46.4194 72.2056 46.5514C72.3804 46.6822 72.4959 46.8576 72.5521 47.0777ZM73.9233 48.6931L73.8958 48.893C73.8774 49.0397 73.8462 49.1925 73.8022 49.3514C73.7595 49.5115 73.7148 49.6601 73.6684 49.797C73.6231 49.9339 73.5859 50.0427 73.5565 50.1234H73.1678C73.1837 50.0476 73.2057 49.9449 73.2338 49.8153C73.2619 49.687 73.2894 49.5433 73.3163 49.3844C73.3432 49.2255 73.3634 49.0635 73.3768 48.8985L73.3952 48.6931H73.9233ZM76.0476 49.2065V45.4512H76.5958V46.8466H76.6288C76.6606 46.7879 76.7065 46.7201 76.7664 46.6431C76.8263 46.5661 76.9094 46.4988 77.0157 46.4414C77.1221 46.3827 77.2627 46.3534 77.4375 46.3534C77.6649 46.3534 77.8678 46.4108 78.0463 46.5257C78.2247 46.6406 78.3647 46.8063 78.4662 47.0226C78.5689 47.239 78.6202 47.4994 78.6202 47.8038C78.6202 48.1082 78.5695 48.3692 78.468 48.5868C78.3665 48.8031 78.2272 48.97 78.0499 49.0874C77.8727 49.2035 77.6704 49.2616 77.443 49.2616C77.2718 49.2616 77.1319 49.2328 77.0231 49.1754C76.9155 49.1179 76.8312 49.0507 76.77 48.9737C76.7089 48.8967 76.6618 48.8282 76.6288 48.7683H76.583V49.2065H76.0476ZM76.5848 47.7983C76.5848 47.9963 76.6136 48.1699 76.671 48.319C76.7285 48.4682 76.8116 48.5849 76.9204 48.6693C77.0292 48.7524 77.1624 48.794 77.3201 48.794C77.4839 48.794 77.6209 48.7506 77.7309 48.6638C77.8409 48.5758 77.924 48.4566 77.9803 48.3062C78.0377 48.1559 78.0664 47.9865 78.0664 47.7983C78.0664 47.6125 78.0383 47.4456 77.9821 47.2977C77.9271 47.1498 77.844 47.033 77.7327 46.9475C77.6227 46.8619 77.4852 46.8191 77.3201 46.8191C77.1612 46.8191 77.0267 46.8601 76.9167 46.942C76.8079 47.0239 76.7254 47.1382 76.6692 47.2849C76.6129 47.4316 76.5848 47.6027 76.5848 47.7983ZM79.7841 45.4512V49.2065H79.2359V45.4512H79.7841ZM81.7081 49.2634C81.4441 49.2634 81.2136 49.2029 81.0168 49.0819C80.82 48.9608 80.6672 48.7915 80.5584 48.5739C80.4496 48.3563 80.3952 48.1021 80.3952 47.8111C80.3952 47.519 80.4496 47.2635 80.5584 47.0446C80.6672 46.8258 80.82 46.6559 81.0168 46.5349C81.2136 46.4139 81.4441 46.3534 81.7081 46.3534C81.9721 46.3534 82.2026 46.4139 82.3994 46.5349C82.5962 46.6559 82.749 46.8258 82.8578 47.0446C82.9666 47.2635 83.021 47.519 83.021 47.8111C83.021 48.1021 82.9666 48.3563 82.8578 48.5739C82.749 48.7915 82.5962 48.9608 82.3994 49.0819C82.2026 49.2029 81.9721 49.2634 81.7081 49.2634ZM81.7099 48.8031C81.8811 48.8031 82.0229 48.7579 82.1353 48.6674C82.2478 48.577 82.3309 48.4566 82.3847 48.3062C82.4397 48.1559 82.4672 47.9902 82.4672 47.8093C82.4672 47.6296 82.4397 47.4646 82.3847 47.3142C82.3309 47.1626 82.2478 47.041 82.1353 46.9493C82.0229 46.8576 81.8811 46.8118 81.7099 46.8118C81.5376 46.8118 81.3945 46.8576 81.2809 46.9493C81.1684 47.041 81.0847 47.1626 81.0296 47.3142C80.9759 47.4646 80.949 47.6296 80.949 47.8093C80.949 47.9902 80.9759 48.1559 81.0296 48.3062C81.0847 48.4566 81.1684 48.577 81.2809 48.6674C81.3945 48.7579 81.5376 48.8031 81.7099 48.8031ZM84.8139 50.3214C84.5902 50.3214 84.3976 50.2921 84.2363 50.2334C84.0761 50.1747 83.9453 50.0971 83.8439 50.0005C83.7424 49.9039 83.6666 49.7982 83.6165 49.6833L84.0877 49.4889C84.1208 49.5427 84.1648 49.5996 84.2198 49.6595C84.276 49.7206 84.3518 49.7725 84.4471 49.8153C84.5437 49.8581 84.6678 49.8795 84.8194 49.8795C85.0272 49.8795 85.1989 49.8288 85.3346 49.7273C85.4703 49.6271 85.5382 49.4669 85.5382 49.2469V48.6931H85.5033C85.4703 48.753 85.4227 48.8196 85.3603 48.893C85.2992 48.9663 85.2148 49.0299 85.1073 49.0837C84.9997 49.1375 84.8597 49.1644 84.6874 49.1644C84.4649 49.1644 84.2644 49.1124 84.0859 49.0085C83.9087 48.9034 83.7681 48.7487 83.6642 48.5446C83.5615 48.3392 83.5101 48.0868 83.5101 47.7873C83.5101 47.4878 83.5609 47.2311 83.6623 47.0171C83.765 46.8032 83.9056 46.6394 84.0841 46.5257C84.2626 46.4108 84.4649 46.3534 84.691 46.3534C84.8658 46.3534 85.007 46.3827 85.1146 46.4414C85.2222 46.4988 85.3059 46.5661 85.3658 46.6431C85.4269 46.7201 85.474 46.7879 85.507 46.8466H85.5473V46.39H86.0846V49.2689C86.0846 49.5109 86.0284 49.7096 85.9159 49.8648C85.8034 50.0201 85.6513 50.135 85.4593 50.2096C85.2686 50.2841 85.0535 50.3214 84.8139 50.3214ZM84.8084 48.7096C84.9661 48.7096 85.0993 48.6729 85.2081 48.5996C85.3181 48.525 85.4013 48.4187 85.4575 48.2805C85.5149 48.1412 85.5437 47.9743 85.5437 47.7799C85.5437 47.5905 85.5156 47.4236 85.4593 47.2794C85.4031 47.1351 85.3206 47.0226 85.2118 46.942C85.103 46.8601 84.9685 46.8191 84.8084 46.8191C84.6433 46.8191 84.5058 46.8619 84.3958 46.9475C84.2858 47.0318 84.2027 47.1467 84.1464 47.2922C84.0914 47.4377 84.0639 47.6002 84.0639 47.7799C84.0639 47.9645 84.092 48.1265 84.1483 48.2659C84.2045 48.4052 84.2876 48.514 84.3976 48.5923C84.5089 48.6705 84.6458 48.7096 84.8084 48.7096ZM88.9305 47.0777L88.4335 47.1657C88.4128 47.1021 88.3798 47.0416 88.3345 46.9841C88.2905 46.9267 88.2306 46.8796 88.1548 46.8429C88.079 46.8063 87.9843 46.7879 87.8706 46.7879C87.7154 46.7879 87.5858 46.8228 87.4819 46.8925C87.378 46.9609 87.326 47.0495 87.326 47.1583C87.326 47.2525 87.3608 47.3283 87.4305 47.3857C87.5002 47.4432 87.6127 47.4902 87.7679 47.5269L88.2153 47.6296C88.4745 47.6895 88.6676 47.7818 88.7948 47.9065C88.9219 48.0312 88.9855 48.1931 88.9855 48.3924C88.9855 48.5611 88.9366 48.7115 88.8388 48.8435C88.7422 48.9743 88.6071 49.077 88.4335 49.1515C88.2612 49.2261 88.0613 49.2634 87.8339 49.2634C87.5185 49.2634 87.2612 49.1962 87.062 49.0617C86.8627 48.926 86.7405 48.7335 86.6952 48.4841L87.2252 48.4034C87.2582 48.5415 87.326 48.6461 87.4287 48.717C87.5314 48.7866 87.6652 48.8215 87.8303 48.8215C88.01 48.8215 88.1536 48.7842 88.2612 48.7096C88.3687 48.6338 88.4225 48.5415 88.4225 48.4327C88.4225 48.3447 88.3895 48.2708 88.3235 48.2109C88.2587 48.151 88.1591 48.1057 88.0246 48.0752L87.5479 47.9707C87.2851 47.9108 87.0907 47.8154 86.9648 47.6846C86.8401 47.5538 86.7777 47.3882 86.7777 47.1877C86.7777 47.0214 86.8242 46.8759 86.9171 46.7513C87.01 46.6266 87.1384 46.5294 87.3022 46.4597C87.466 46.3888 87.6536 46.3534 87.8651 46.3534C88.1695 46.3534 88.4091 46.4194 88.5839 46.5514C88.7587 46.6822 88.8742 46.8576 88.9305 47.0777Z" fill="#192346"/>
<rect x="41.2784" y="78.1426" width="81.4735" height="80.24" rx="5.88932" fill="#020A21"/>
<rect x="50.8691" y="85.8813" width="19.7366" height="9.25153" rx="4.62576" fill="#0857B0"/>
<path d="M59.1056 88.5268V92.1152H58.5274L56.8365 89.6709H56.8067V92.1152H56.1567V88.5268H56.7384L58.4275 90.9728H58.459V88.5268H59.1056ZM59.8139 92.1152V88.5268H62.1128V89.0717H60.464V90.0459H61.9551V90.5908H60.464V92.1152H59.8139ZM62.5473 89.0717V88.5268H65.4104V89.0717H64.3013V92.1152H63.6565V89.0717H62.5473Z" fill="white" fill-opacity="0.6"/>
<rect x="52.7207" y="141.391" width="32.6887" height="1.85031" rx="0.925153" fill="#1B2D59"/>
<rect x="52.7207" y="145.091" width="17.8863" height="1.85031" rx="0.925153" fill="#1B2D59"/>
<rect x="50.8691" y="97.6001" width="61.0601" height="40.09" rx="3.08384" fill="#071F4E" fill-opacity="0.76"/>
<circle cx="107.92" cy="143.549" r="2.77546" fill="#1B2D59"/>
<rect x="41.2784" y="78.1426" width="81.4735" height="80.24" rx="5.88932" stroke="#033369" stroke-width="0.556733"/>
<rect x="135.386" y="78.1427" width="81.5033" height="80.2693" rx="5.89147" fill="#020A21"/>
<circle cx="151.757" cy="95.931" r="8.14777" fill="#071F4E"/>
<rect x="147.861" y="113.997" width="43.2186" height="2.83401" rx="1.417" fill="#14244B"/>
<rect x="147.861" y="120.374" width="58.8056" height="2.83401" rx="1.417" fill="#14244B"/>
<rect x="147.861" y="126.751" width="40.3846" height="2.83401" rx="1.417" fill="#14244B"/>
<rect x="181.162" y="140.212" width="28.3401" height="8.50202" rx="2.83401" fill="#14244B"/>
<rect x="163.449" y="92.0342" width="21.255" height="2.83401" rx="1.417" fill="#14244B"/>
<rect x="163.449" y="99.1196" width="43.2186" height="4.25101" rx="2.1255" fill="#14244B"/>
<rect x="135.386" y="78.1427" width="81.5033" height="80.2693" rx="5.89147" stroke="#033369" stroke-width="0.556936"/>
<rect x="229.523" y="78.1427" width="81.5033" height="80.2693" rx="5.89147" fill="#020A21"/>
<circle cx="245.894" cy="95.931" r="8.14777" fill="#071F4E"/>
<rect x="241.998" y="113.997" width="43.2186" height="2.83401" rx="1.417" fill="#14244B"/>
<rect x="241.998" y="120.374" width="58.8056" height="2.83401" rx="1.417" fill="#14244B"/>
<rect x="241.998" y="126.751" width="40.3846" height="2.83401" rx="1.417" fill="#14244B"/>
<rect x="275.299" y="140.212" width="28.3401" height="8.50202" rx="2.83401" fill="#14244B"/>
<rect x="257.586" y="92.0342" width="21.255" height="2.83401" rx="1.417" fill="#14244B"/>
<rect x="257.586" y="99.1196" width="43.2186" height="4.25101" rx="2.1255" fill="#14244B"/>
<rect x="229.523" y="78.1427" width="81.5033" height="80.2693" rx="5.89147" stroke="#033369" stroke-width="0.556936"/>
<rect x="0.538283" y="0.538283" width="351.923" height="182.923" rx="7.92287" stroke="#033369" stroke-width="1.07657"/>
</g>
</g>
<defs>
<filter id="filter0_dd_1122_17716" x="-0.85341" y="-0.85341" width="354.707" height="185.707" filterUnits="userSpaceOnUse" color-interpolation-filters="sRGB">
<feFlood flood-opacity="0" result="BackgroundImageFix"/>
<feColorMatrix in="SourceAlpha" type="matrix" values="0 0 0 0 0 0 0 0 0 0 0 0 0 0 0 0 0 0 127 0" result="hardAlpha"/>
<feOffset/>
<feGaussianBlur stdDeviation="0.426705"/>
<feComposite in2="hardAlpha" operator="out"/>
<feColorMatrix type="matrix" values="0 0 0 0 0 0 0 0 0 0.290196 0 0 0 0 0.85098 0 0 0 0.7 0"/>
<feBlend mode="normal" in2="BackgroundImageFix" result="effect1_dropShadow_1122_17716"/>
<feColorMatrix in="SourceAlpha" type="matrix" values="0 0 0 0 0 0 0 0 0 0 0 0 0 0 0 0 0 0 127 0" result="hardAlpha"/>
<feOffset/>
<feGaussianBlur stdDeviation="0.426705"/>
<feComposite in2="hardAlpha" operator="out"/>
<feColorMatrix type="matrix" values="0 0 0 0 0 0 0 0 0 0.290196 0 0 0 0 0.85098 0 0 0 0.7 0"/>
<feBlend mode="normal" in2="effect1_dropShadow_1122_17716" result="effect2_dropShadow_1122_17716"/>
<feBlend mode="normal" in="SourceGraphic" in2="effect2_dropShadow_1122_17716" result="shape"/>
</filter>
<clipPath id="clip0_1122_17716">
<rect width="352" height="169" fill="white"/>
</clipPath>
</defs>
</svg>
