<svg width="106" height="106" viewBox="0 0 106 106" fill="none" xmlns="http://www.w3.org/2000/svg">
<g filter="url(#filter0_d_2314_110850)">
<path d="M21.6641 29.5V53C21.6641 53 21.6641 64.75 49.0807 64.75C76.4974 64.75 76.4974 53 76.4974 53V29.5" stroke="white" stroke-width="7" stroke-linecap="round" stroke-linejoin="round"/>
<path d="M49.0807 17.75C76.4974 17.75 76.4974 29.5 76.4974 29.5C76.4974 29.5 76.4974 41.25 49.0807 41.25C21.6641 41.25 21.6641 29.5 21.6641 29.5C21.6641 29.5 21.6641 17.75 49.0807 17.75Z" stroke="white" stroke-width="7" stroke-linecap="round" stroke-linejoin="round"/>
<path d="M49.0807 88.25C21.6641 88.25 21.6641 76.5 21.6641 76.5V53" stroke="white" stroke-width="7" stroke-linecap="round" stroke-linejoin="round"/>
<path d="M80.4141 92.1665V68.6665M80.4141 68.6665L92.1641 80.4165M80.4141 68.6665L68.6641 80.4165" stroke="#112C60" stroke-opacity="0.76" stroke-width="6.5" stroke-linecap="round" stroke-linejoin="round"/>
</g>
<defs>
<filter id="filter0_d_2314_110850" x="2" y="6" width="102" height="102" filterUnits="userSpaceOnUse" color-interpolation-filters="sRGB">
<feFlood flood-opacity="0" result="BackgroundImageFix"/>
<feColorMatrix in="SourceAlpha" type="matrix" values="0 0 0 0 0 0 0 0 0 0 0 0 0 0 0 0 0 0 127 0" result="hardAlpha"/>
<feOffset dy="4"/>
<feGaussianBlur stdDeviation="2"/>
<feComposite in2="hardAlpha" operator="out"/>
<feColorMatrix type="matrix" values="0 0 0 0 0 0 0 0 0 0 0 0 0 0 0 0 0 0 0.25 0"/>
<feBlend mode="normal" in2="BackgroundImageFix" result="effect1_dropShadow_2314_110850"/>
<feBlend mode="normal" in="SourceGraphic" in2="effect1_dropShadow_2314_110850" result="shape"/>
</filter>
</defs>
</svg>
