<svg width="20" height="20" viewBox="0 0 20 20" fill="none" xmlns="http://www.w3.org/2000/svg">
<path fill-rule="evenodd" clip-rule="evenodd" d="M15.0267 13.8481C16.053 12.565 16.6667 10.9375 16.6667 9.16669C16.6667 5.02455 13.3089 1.66669 9.16675 1.66669C5.02461 1.66669 1.66675 5.02455 1.66675 9.16669C1.66675 13.3088 5.02461 16.6667 9.16675 16.6667C10.9376 16.6667 12.5651 16.053 13.8482 15.0266L16.0775 17.2559C16.4029 17.5814 16.9306 17.5814 17.256 17.2559C17.5814 16.9305 17.5814 16.4029 17.256 16.0774L15.0267 13.8481ZM15.0001 9.16669C15.0001 12.3883 12.3884 15 9.16675 15C5.94509 15 3.33341 12.3883 3.33341 9.16669C3.33341 5.94503 5.94509 3.33335 9.16675 3.33335C12.3884 3.33335 15.0001 5.94503 15.0001 9.16669Z" fill="url(#paint0_linear_309_8282)"/>
<defs>
<linearGradient id="paint0_linear_309_8282" x1="1.66675" y1="2.80503" x2="19.4115" y2="6.72792" gradientUnits="userSpaceOnUse">
<stop stop-color="#197CEC"/>
<stop offset="0.608737" stop-color="#004AD9"/>
</linearGradient>
</defs>
</svg>
