<svg width="24" height="24" viewBox="0 0 24 24" fill="none" xmlns="http://www.w3.org/2000/svg">
<path d="M8.83493 3.39126V20.6087C8.83493 21.3391 8.29928 21.913 7.61754 21.913C6.9358 21.913 6.40015 21.3391 6.40015 20.6087V3.39126C6.40015 2.66083 6.9358 2.08691 7.61754 2.08691C8.29928 2.08691 8.83493 2.66083 8.83493 3.39126ZM16.3828 2.08691C15.701 2.08691 15.1654 2.66083 15.1654 3.39126V20.6087C15.1654 21.3391 15.701 21.913 16.3828 21.913C17.0645 21.913 17.6001 21.3391 17.6001 20.6087V3.39126C17.6001 2.66083 17.0645 2.08691 16.3828 2.08691Z" fill="url(#paint0_linear_309_8230)"/>
<defs>
<linearGradient id="paint0_linear_309_8230" x1="6.40015" y1="3.51232" x2="19.3635" y2="5.13127" gradientUnits="userSpaceOnUse">
<stop stop-color="#197CEC"/>
<stop offset="0.608737" stop-color="#004AD9"/>
</linearGradient>
</defs>
</svg>
