<svg width="45" height="44" viewBox="0 0 45 44" fill="none" xmlns="http://www.w3.org/2000/svg">
<g filter="url(#filter0_ii_1893_27539)">
<rect x="0.5" width="44" height="44" rx="10.8617" fill="url(#paint0_linear_1893_27539)"/>
</g>
<path d="M22.2761 10.1211C15.8361 10.1211 10.6211 15.3478 10.6211 21.7878C10.6211 28.2278 15.8361 33.4544 22.2761 33.4544C28.7278 33.4544 33.9544 28.2278 33.9544 21.7878C33.9544 15.3478 28.7278 10.1211 22.2761 10.1211ZM30.3611 17.1211H26.9194C26.5461 15.6628 26.0094 14.2628 25.3094 12.9678C27.4561 13.7028 29.2411 15.1961 30.3611 17.1211ZM22.2878 12.5011C23.2561 13.9011 24.0144 15.4528 24.5161 17.1211H20.0594C20.5611 15.4528 21.3194 13.9011 22.2878 12.5011ZM13.2578 24.1211C13.0711 23.3744 12.9544 22.5928 12.9544 21.7878C12.9544 20.9828 13.0711 20.2011 13.2578 19.4544H17.2011C17.1078 20.2244 17.0378 20.9944 17.0378 21.7878C17.0378 22.5811 17.1078 23.3511 17.2011 24.1211H13.2578ZM14.2144 26.4544H17.6561C18.0294 27.9128 18.5661 29.3128 19.2661 30.6078C17.1194 29.8728 15.3344 28.3911 14.2144 26.4544V26.4544ZM17.6561 17.1211H14.2144C15.3344 15.1844 17.1194 13.7028 19.2661 12.9678C18.5661 14.2628 18.0294 15.6628 17.6561 17.1211V17.1211ZM22.2878 31.0744C21.3194 29.6744 20.5611 28.1228 20.0594 26.4544H24.5161C24.0144 28.1228 23.2561 29.6744 22.2878 31.0744ZM25.0178 24.1211H19.5578C19.4528 23.3511 19.3711 22.5811 19.3711 21.7878C19.3711 20.9944 19.4528 20.2128 19.5578 19.4544H25.0178C25.1228 20.2128 25.2044 20.9944 25.2044 21.7878C25.2044 22.5811 25.1228 23.3511 25.0178 24.1211ZM25.3094 30.6078C26.0094 29.3128 26.5461 27.9128 26.9194 26.4544H30.3611C29.2411 28.3794 27.4561 29.8728 25.3094 30.6078V30.6078ZM27.3744 24.1211C27.4678 23.3511 27.5378 22.5811 27.5378 21.7878C27.5378 20.9944 27.4678 20.2244 27.3744 19.4544H31.3178C31.5044 20.2011 31.6211 20.9828 31.6211 21.7878C31.6211 22.5928 31.5044 23.3744 31.3178 24.1211H27.3744Z" fill="#F7F7F7"/>
<defs>
<filter id="filter0_ii_1893_27539" x="0.228457" y="-0.271543" width="44.5431" height="44.5431" filterUnits="userSpaceOnUse" color-interpolation-filters="sRGB">
<feFlood flood-opacity="0" result="BackgroundImageFix"/>
<feBlend mode="normal" in="SourceGraphic" in2="BackgroundImageFix" result="shape"/>
<feColorMatrix in="SourceAlpha" type="matrix" values="0 0 0 0 0 0 0 0 0 0 0 0 0 0 0 0 0 0 127 0" result="hardAlpha"/>
<feOffset dx="0.271543" dy="0.271543"/>
<feGaussianBlur stdDeviation="1.08617"/>
<feComposite in2="hardAlpha" operator="arithmetic" k2="-1" k3="1"/>
<feColorMatrix type="matrix" values="0 0 0 0 1 0 0 0 0 1 0 0 0 0 1 0 0 0 0.5 0"/>
<feBlend mode="normal" in2="shape" result="effect1_innerShadow_1893_27539"/>
<feColorMatrix in="SourceAlpha" type="matrix" values="0 0 0 0 0 0 0 0 0 0 0 0 0 0 0 0 0 0 127 0" result="hardAlpha"/>
<feOffset dx="-0.271543" dy="-0.271543"/>
<feGaussianBlur stdDeviation="1.08617"/>
<feComposite in2="hardAlpha" operator="arithmetic" k2="-1" k3="1"/>
<feColorMatrix type="matrix" values="0 0 0 0 1 0 0 0 0 1 0 0 0 0 1 0 0 0 0.5 0"/>
<feBlend mode="normal" in2="effect1_innerShadow_1893_27539" result="effect2_innerShadow_1893_27539"/>
</filter>
<linearGradient id="paint0_linear_1893_27539" x1="5.29699" y1="-0.661653" x2="49.9586" y2="54.421" gradientUnits="userSpaceOnUse">
<stop stop-color="#197CEC"/>
<stop offset="0.841023" stop-color="#004AD9"/>
</linearGradient>
</defs>
</svg>
