<svg width="45" height="45" viewBox="0 0 45 45" fill="none" xmlns="http://www.w3.org/2000/svg">
<g filter="url(#filter0_ii_2264_65326)">
<rect width="45" height="45" rx="12.6955" fill="url(#paint0_linear_2264_65326)"/>
</g>
<path fill-rule="evenodd" clip-rule="evenodd" d="M29.5686 27.9114C31.0119 26.107 31.875 23.8184 31.875 21.3281C31.875 15.5032 27.153 10.7812 21.3281 10.7812C15.5032 10.7812 10.7812 15.5032 10.7812 21.3281C10.7812 27.153 15.5032 31.875 21.3281 31.875C23.8184 31.875 26.107 31.0119 27.9114 29.5686L31.0464 32.7036C31.504 33.1613 32.246 33.1613 32.7036 32.7036C33.1613 32.246 33.1613 31.504 32.7036 31.0464L29.5686 27.9114ZM29.5312 21.3281C29.5312 25.8586 25.8586 29.5312 21.3281 29.5312C16.7977 29.5312 13.125 25.8586 13.125 21.3281C13.125 16.7977 16.7977 13.125 21.3281 13.125C25.8586 13.125 29.5312 16.7977 29.5312 21.3281Z" fill="white"/>
<defs>
<filter id="filter0_ii_2264_65326" x="-0.317388" y="-0.317388" width="45.6348" height="45.6348" filterUnits="userSpaceOnUse" color-interpolation-filters="sRGB">
<feFlood flood-opacity="0" result="BackgroundImageFix"/>
<feBlend mode="normal" in="SourceGraphic" in2="BackgroundImageFix" result="shape"/>
<feColorMatrix in="SourceAlpha" type="matrix" values="0 0 0 0 0 0 0 0 0 0 0 0 0 0 0 0 0 0 127 0" result="hardAlpha"/>
<feOffset dx="0.317388" dy="0.317388"/>
<feGaussianBlur stdDeviation="1.26955"/>
<feComposite in2="hardAlpha" operator="arithmetic" k2="-1" k3="1"/>
<feColorMatrix type="matrix" values="0 0 0 0 1 0 0 0 0 1 0 0 0 0 1 0 0 0 0.5 0"/>
<feBlend mode="normal" in2="shape" result="effect1_innerShadow_2264_65326"/>
<feColorMatrix in="SourceAlpha" type="matrix" values="0 0 0 0 0 0 0 0 0 0 0 0 0 0 0 0 0 0 127 0" result="hardAlpha"/>
<feOffset dx="-0.317388" dy="-0.317388"/>
<feGaussianBlur stdDeviation="1.26955"/>
<feComposite in2="hardAlpha" operator="arithmetic" k2="-1" k3="1"/>
<feColorMatrix type="matrix" values="0 0 0 0 1 0 0 0 0 1 0 0 0 0 1 0 0 0 0.5 0"/>
<feBlend mode="normal" in2="effect1_innerShadow_2264_65326" result="effect2_innerShadow_2264_65326"/>
</filter>
<linearGradient id="paint0_linear_2264_65326" x1="4.90601" y1="-0.676691" x2="50.5827" y2="55.6579" gradientUnits="userSpaceOnUse">
<stop stop-color="#197CEC"/>
<stop offset="0.841023" stop-color="#004AD9"/>
</linearGradient>
</defs>
</svg>
