<svg width="28" height="29" viewBox="0 0 28 29" fill="none" xmlns="http://www.w3.org/2000/svg">
<g clip-path="url(#clip0_1886_22821)">
<g opacity="0.8">
<rect x="0.000976562" y="0.981323" width="28" height="27.9997" rx="6.99996" fill="url(#paint0_linear_1886_22821)"/>
<rect x="0.350975" y="1.33132" width="27.3" height="27.2997" rx="6.64997" stroke="url(#paint1_linear_1886_22821)" stroke-opacity="0.5" stroke-width="0.699996"/>
</g>
<g filter="url(#filter0_f_1886_22821)">
<ellipse cx="12.9513" cy="15.3312" rx="6.65" ry="6.64993" fill="#1D994A"/>
</g>
<g clip-path="url(#clip1_1886_22821)">
<path d="M9.39048 11.6328C9.285 11.6328 9.18384 11.5909 9.10925 11.5163C9.03466 11.4417 8.99276 11.3406 8.99276 11.2351C8.99276 11.1296 9.03466 11.0284 9.10925 10.9539C9.18384 10.8793 9.285 10.8374 9.39048 10.8374H18.1404C18.2459 10.8374 18.3471 10.8793 18.4217 10.9539C18.4963 11.0284 18.5382 11.1296 18.5382 11.2351C18.5382 11.3406 18.4963 11.4417 18.4217 11.5163C18.3471 11.5909 18.2459 11.6328 18.1404 11.6328H9.39048ZM10.9814 10.0419C10.8759 10.0419 10.7747 10 10.7001 9.92542C10.6256 9.85083 10.5837 9.74967 10.5837 9.64419C10.5837 9.5387 10.6256 9.43754 10.7001 9.36295C10.7747 9.28836 10.8759 9.24646 10.9814 9.24646H16.5495C16.655 9.24646 16.7562 9.28836 16.8308 9.36295C16.9054 9.43754 16.9473 9.5387 16.9473 9.64419C16.9473 9.74967 16.9054 9.85083 16.8308 9.92542C16.7562 10 16.655 10.0419 16.5495 10.0419H10.9814ZM7.40186 19.1896C7.40186 19.506 7.52756 19.8095 7.75133 20.0333C7.97509 20.2571 8.27858 20.3828 8.59503 20.3828H18.9359C19.2523 20.3828 19.5558 20.2571 19.7796 20.0333C20.0034 19.8095 20.1291 19.506 20.1291 19.1896V13.6214C20.1291 13.305 20.0034 13.0015 19.7796 12.7777C19.5558 12.554 19.2523 12.4283 18.9359 12.4283H8.59503C8.27858 12.4283 7.97509 12.554 7.75133 12.7777C7.52756 13.0015 7.40186 13.305 7.40186 13.6214V19.1896ZM8.59503 19.5873C8.48955 19.5873 8.38838 19.5454 8.3138 19.4708C8.23921 19.3962 8.19731 19.2951 8.19731 19.1896V13.6214C8.19731 13.516 8.23921 13.4148 8.3138 13.3402C8.38838 13.2656 8.48955 13.2237 8.59503 13.2237H18.9359C19.0414 13.2237 19.1425 13.2656 19.2171 13.3402C19.2917 13.4148 19.3336 13.516 19.3336 13.6214V19.1896C19.3336 19.2951 19.2917 19.3962 19.2171 19.4708C19.1425 19.5454 19.0414 19.5873 18.9359 19.5873H8.59503Z" fill="url(#paint2_linear_1886_22821)"/>
</g>
</g>
<defs>
<filter id="filter0_f_1886_22821" x="-9.79865" y="-7.41864" width="45.4996" height="45.4996" filterUnits="userSpaceOnUse" color-interpolation-filters="sRGB">
<feFlood flood-opacity="0" result="BackgroundImageFix"/>
<feBlend mode="normal" in="SourceGraphic" in2="BackgroundImageFix" result="shape"/>
<feGaussianBlur stdDeviation="8.04996" result="effect1_foregroundBlur_1886_22821"/>
</filter>
<linearGradient id="paint0_linear_1886_22821" x1="1.86764" y1="4.39592" x2="27.7303" y2="25.7478" gradientUnits="userSpaceOnUse">
<stop stop-color="#0D2147" stop-opacity="0.66"/>
<stop offset="1" stop-color="#0B2049" stop-opacity="0.15"/>
</linearGradient>
<linearGradient id="paint1_linear_1886_22821" x1="5.36098" y1="2.26131" x2="24.8007" y2="26.3413" gradientUnits="userSpaceOnUse">
<stop stop-color="#353C54"/>
<stop offset="1" stop-color="#071F4E" stop-opacity="0.76"/>
</linearGradient>
<linearGradient id="paint2_linear_1886_22821" x1="7.08367" y1="9.52487" x2="17.7768" y2="24.8633" gradientUnits="userSpaceOnUse">
<stop stop-color="#04D231"/>
<stop offset="0.444166" stop-color="#90F3B2"/>
<stop offset="0.814214" stop-color="#197237"/>
</linearGradient>
<clipPath id="clip0_1886_22821">
<rect y="0.981201" width="28" height="27.9997" rx="6.99996" fill="white"/>
</clipPath>
<clipPath id="clip1_1886_22821">
<rect width="12.7272" height="12.7272" fill="white" transform="translate(7.40186 8.84875)"/>
</clipPath>
</defs>
</svg>
