<svg width="28" height="29" viewBox="0 0 28 29" fill="none" xmlns="http://www.w3.org/2000/svg">
<g clip-path="url(#clip0_1835_24623)">
<g opacity="0.8">
<rect y="0.988647" width="27.9998" height="27.9998" rx="6.99995" fill="url(#paint0_linear_1835_24623)"/>
<rect x="0.349997" y="1.33864" width="27.2998" height="27.2998" rx="6.64995" stroke="url(#paint1_linear_1835_24623)" stroke-opacity="0.5" stroke-width="0.699994"/>
</g>
<g filter="url(#filter0_f_1835_24623)">
<ellipse cx="12.9507" cy="15.3382" rx="6.64995" ry="6.64995" fill="#6B10DF" fill-opacity="0.9"/>
</g>
<path d="M16.6635 11.7963H13.4088C12.8909 11.7963 12.3942 11.9727 12.028 12.2866C11.6618 12.6005 11.456 13.0262 11.456 13.4701C11.456 13.9141 11.6618 14.3398 12.028 14.6537C12.3942 14.9676 12.8909 15.144 13.4088 15.144H14.7107C15.2286 15.144 15.7253 15.3203 16.0915 15.6342C16.4578 15.9481 16.6635 16.3739 16.6635 16.8178C16.6635 17.2617 16.4578 17.6875 16.0915 18.0014C15.7253 18.3153 15.2286 18.4916 14.7107 18.4916H11.456M14.0598 18.4916V19.6075M14.0598 10.6804V11.7963M22.0941 15.1439C22.0941 19.5811 18.497 23.1782 14.0598 23.1782C9.6225 23.1782 6.02539 19.5811 6.02539 15.1439C6.02539 10.7066 9.6225 7.1095 14.0598 7.1095C18.497 7.1095 22.0941 10.7066 22.0941 15.1439Z" stroke="url(#paint2_linear_1835_24623)" stroke-width="1.50644" stroke-linecap="round" stroke-linejoin="round"/>
</g>
<defs>
<filter id="filter0_f_1835_24623" x="-9.79909" y="-7.41164" width="45.4996" height="45.4997" filterUnits="userSpaceOnUse" color-interpolation-filters="sRGB">
<feFlood flood-opacity="0" result="BackgroundImageFix"/>
<feBlend mode="normal" in="SourceGraphic" in2="BackgroundImageFix" result="shape"/>
<feGaussianBlur stdDeviation="8.04994" result="effect1_foregroundBlur_1835_24623"/>
</filter>
<linearGradient id="paint0_linear_1835_24623" x1="1.86665" y1="4.40326" x2="27.7293" y2="25.7549" gradientUnits="userSpaceOnUse">
<stop stop-color="#0D2147" stop-opacity="0.66"/>
<stop offset="1" stop-color="#0B2049" stop-opacity="0.15"/>
</linearGradient>
<linearGradient id="paint1_linear_1835_24623" x1="5.35996" y1="2.26864" x2="24.7998" y2="26.3484" gradientUnits="userSpaceOnUse">
<stop stop-color="#353C54"/>
<stop offset="1" stop-color="#071F4E" stop-opacity="0.76"/>
</linearGradient>
<linearGradient id="paint2_linear_1835_24623" x1="20.8227" y1="7.36404" x2="6.89417" y2="11.763" gradientUnits="userSpaceOnUse">
<stop stop-color="#B47BFF"/>
<stop offset="1" stop-color="#7619F0"/>
</linearGradient>
<clipPath id="clip0_1835_24623">
<rect y="0.988647" width="27.9998" height="27.9998" rx="6.99995" fill="white"/>
</clipPath>
</defs>
</svg>
