<svg width="136" height="137" viewBox="0 0 136 137" fill="none" xmlns="http://www.w3.org/2000/svg">
<mask id="mask0_2194_31030" style="mask-type:luminance" maskUnits="userSpaceOnUse" x="1" y="3" width="133" height="132">
<path d="M67.5746 134.693C103.824 134.693 133.21 105.307 133.21 69.057C133.21 32.8073 103.824 3.42114 67.5746 3.42114C31.3249 3.42114 1.93867 32.8073 1.93867 69.057C1.93867 105.307 31.3249 134.693 67.5746 134.693Z" fill="white"/>
</mask>
<g mask="url(#mask0_2194_31030)">
<path d="M139.425 -2.79395H-4.27625V140.908H139.425V-2.79395Z" fill="url(#paint0_linear_2194_31030)"/>
</g>
<path d="M86.557 83.2204L105.127 72.4978C106.11 71.9296 106.719 70.8737 106.719 69.7374V48.2947C106.719 47.161 106.108 46.1024 105.127 45.5343L86.557 34.8116C85.5734 34.2434 84.354 34.2461 83.3705 34.8116L64.8008 45.5343C63.8172 46.1024 63.2088 47.161 63.2088 48.2947V86.616L50.1867 94.1334L37.1646 86.616V71.5785L50.1867 64.0611L58.7761 69.0191V58.9316L51.7786 54.8928C51.2962 54.6141 50.7442 54.4667 50.184 54.4667C49.6239 54.4667 49.0718 54.6141 48.5921 54.8928L30.0224 65.6155C29.0388 66.1837 28.4305 67.2396 28.4305 68.3759V89.8186C28.4305 90.9522 29.0415 92.0108 30.0224 92.579L48.5921 103.302C49.573 103.867 50.7951 103.867 51.7786 103.302L70.3484 92.5817C71.3319 92.0135 71.9403 90.9549 71.9403 89.8213V51.5L72.1761 51.366L84.9624 43.9826L97.9845 51.5V66.5374L84.9624 74.0548L76.3864 69.1022V79.1897L83.3705 83.2231C84.354 83.7886 85.5734 83.7886 86.557 83.2231V83.2204Z" fill="white"/>
<defs>
<linearGradient id="paint0_linear_2194_31030" x1="-30.5376" y1="9.01681" x2="117.811" y2="99.7991" gradientUnits="userSpaceOnUse">
<stop stop-color="#A229C5"/>
<stop offset="1" stop-color="#7B3FE4"/>
</linearGradient>
</defs>
</svg>
