<svg width="28" height="29" viewBox="0 0 28 29" fill="none" xmlns="http://www.w3.org/2000/svg">
<g clip-path="url(#clip0_1886_22825)">
<g opacity="0.8">
<rect x="-0.000976562" y="0.981934" width="28" height="27.9997" rx="6.99996" fill="url(#paint0_linear_1886_22825)"/>
<rect x="0.349022" y="1.33193" width="27.3" height="27.2997" rx="6.64997" stroke="url(#paint1_linear_1886_22825)" stroke-opacity="0.5" stroke-width="0.699996"/>
</g>
<g filter="url(#filter0_f_1886_22825)">
<ellipse cx="12.9493" cy="15.3318" rx="6.65" ry="6.64993" fill="#1339B0"/>
</g>
<path fill-rule="evenodd" clip-rule="evenodd" d="M19.0442 11.7684V11.0668C19.0442 10.0739 18.2393 9.26892 17.2463 9.26892H10.0547C9.06178 9.26892 8.25684 10.0739 8.25684 11.0668V19.457C8.25684 20.45 9.06178 21.2549 10.0547 21.2549H18.4449C19.4379 21.2549 20.2428 20.45 20.2428 19.457V13.464C20.2428 12.6812 19.7425 12.0152 19.0442 11.7684ZM9.45544 11.0668C9.45544 10.7358 9.72375 10.4675 10.0547 10.4675H17.2463C17.5773 10.4675 17.8456 10.7358 17.8456 11.0668V11.6661H10.0547C9.72375 11.6661 9.45544 11.3978 9.45544 11.0668ZM9.45544 12.7624C9.64288 12.8287 9.8446 12.8647 10.0547 12.8647H18.4449C18.7759 12.8647 19.0442 13.133 19.0442 13.464V14.6626H17.2463C16.2534 14.6626 15.4484 15.4676 15.4484 16.4605C15.4484 17.4535 16.2534 18.2584 17.2463 18.2584H19.0442V19.457C19.0442 19.788 18.7759 20.0563 18.4449 20.0563H10.0547C9.72375 20.0563 9.45544 19.788 9.45544 19.457V12.7624ZM17.2463 15.8612H19.0442V17.0598H17.2463C16.9154 17.0598 16.647 16.7915 16.647 16.4605C16.647 16.1295 16.9154 15.8612 17.2463 15.8612Z" fill="url(#paint2_linear_1886_22825)"/>
<path fill-rule="evenodd" clip-rule="evenodd" d="M19.0442 11.7684V11.0668C19.0442 10.0739 18.2393 9.26892 17.2463 9.26892H10.0547C9.06178 9.26892 8.25684 10.0739 8.25684 11.0668V19.457C8.25684 20.45 9.06178 21.2549 10.0547 21.2549H18.4449C19.4379 21.2549 20.2428 20.45 20.2428 19.457V13.464C20.2428 12.6812 19.7425 12.0152 19.0442 11.7684ZM9.45544 11.0668C9.45544 10.7358 9.72375 10.4675 10.0547 10.4675H17.2463C17.5773 10.4675 17.8456 10.7358 17.8456 11.0668V11.6661H10.0547C9.72375 11.6661 9.45544 11.3978 9.45544 11.0668ZM9.45544 12.7624C9.64288 12.8287 9.8446 12.8647 10.0547 12.8647H18.4449C18.7759 12.8647 19.0442 13.133 19.0442 13.464V14.6626H17.2463C16.2534 14.6626 15.4484 15.4676 15.4484 16.4605C15.4484 17.4535 16.2534 18.2584 17.2463 18.2584H19.0442V19.457C19.0442 19.788 18.7759 20.0563 18.4449 20.0563H10.0547C9.72375 20.0563 9.45544 19.788 9.45544 19.457V12.7624ZM17.2463 15.8612H19.0442V17.0598H17.2463C16.9154 17.0598 16.647 16.7915 16.647 16.4605C16.647 16.1295 16.9154 15.8612 17.2463 15.8612Z" fill="url(#paint3_linear_1886_22825)"/>
</g>
<defs>
<filter id="filter0_f_1886_22825" x="-9.8006" y="-7.41803" width="45.4996" height="45.4996" filterUnits="userSpaceOnUse" color-interpolation-filters="sRGB">
<feFlood flood-opacity="0" result="BackgroundImageFix"/>
<feBlend mode="normal" in="SourceGraphic" in2="BackgroundImageFix" result="shape"/>
<feGaussianBlur stdDeviation="8.04996" result="effect1_foregroundBlur_1886_22825"/>
</filter>
<linearGradient id="paint0_linear_1886_22825" x1="1.86569" y1="4.39653" x2="27.7284" y2="25.7484" gradientUnits="userSpaceOnUse">
<stop stop-color="#0D2147" stop-opacity="0.66"/>
<stop offset="1" stop-color="#0B2049" stop-opacity="0.15"/>
</linearGradient>
<linearGradient id="paint1_linear_1886_22825" x1="5.35902" y1="2.26192" x2="24.7988" y2="26.3419" gradientUnits="userSpaceOnUse">
<stop stop-color="#353C54"/>
<stop offset="1" stop-color="#071F4E" stop-opacity="0.76"/>
</linearGradient>
<linearGradient id="paint2_linear_1886_22825" x1="8.25684" y1="10.1307" x2="21.6898" y2="13.1003" gradientUnits="userSpaceOnUse">
<stop stop-color="#197CEC"/>
<stop offset="0.608737" stop-color="#004AD9"/>
</linearGradient>
<linearGradient id="paint3_linear_1886_22825" x1="10.8788" y1="9.26892" x2="17.7233" y2="23.2691" gradientUnits="userSpaceOnUse">
<stop stop-color="#0629A6"/>
<stop offset="1" stop-color="#74B2F9"/>
</linearGradient>
<clipPath id="clip0_1886_22825">
<rect y="0.981812" width="28" height="27.9997" rx="6.99996" fill="white"/>
</clipPath>
</defs>
</svg>
