<svg width="28" height="29" viewBox="0 0 28 29" fill="none" xmlns="http://www.w3.org/2000/svg">
<g clip-path="url(#clip0_1835_24613)">
<g opacity="0.8">
<rect x="0.000976562" y="0.989014" width="27.9998" height="27.9998" rx="6.90956" fill="url(#paint0_linear_1835_24613)"/>
<rect x="0.350974" y="1.33901" width="27.2998" height="27.2998" rx="6.55956" stroke="url(#paint1_linear_1835_24613)" stroke-opacity="0.5" stroke-width="0.699994"/>
</g>
<g filter="url(#filter0_f_1835_24613)">
<ellipse cx="12.9507" cy="15.3385" rx="6.64995" ry="6.64995" fill="url(#paint2_linear_1835_24613)" fill-opacity="0.9"/>
</g>
<g clip-path="url(#clip1_1835_24613)">
<path d="M16.0685 11.4036H11.5491V15.9229M16.0685 11.4036V15.9229M16.0685 11.4036H20.5878V15.9229H16.0685M16.0685 15.9229H11.5491M16.0685 15.9229V20.4422H11.5491M11.5491 15.9229V20.4422M11.5491 15.9229H7.02979V20.4422H11.5491" stroke="url(#paint3_linear_1835_24613)" stroke-width="1.20516" stroke-linecap="round" stroke-linejoin="round"/>
</g>
</g>
<defs>
<filter id="filter0_f_1835_24613" x="-9.79909" y="-7.41128" width="45.4996" height="45.4997" filterUnits="userSpaceOnUse" color-interpolation-filters="sRGB">
<feFlood flood-opacity="0" result="BackgroundImageFix"/>
<feBlend mode="normal" in="SourceGraphic" in2="BackgroundImageFix" result="shape"/>
<feGaussianBlur stdDeviation="8.04994" result="effect1_foregroundBlur_1835_24613"/>
</filter>
<linearGradient id="paint0_linear_1835_24613" x1="1.86763" y1="4.40362" x2="27.7303" y2="25.7553" gradientUnits="userSpaceOnUse">
<stop stop-color="#0D2147" stop-opacity="0.66"/>
<stop offset="1" stop-color="#0B2049" stop-opacity="0.15"/>
</linearGradient>
<linearGradient id="paint1_linear_1835_24613" x1="5.36094" y1="2.269" x2="24.8008" y2="26.3488" gradientUnits="userSpaceOnUse">
<stop stop-color="#353C54"/>
<stop offset="1" stop-color="#071F4E" stop-opacity="0.76"/>
</linearGradient>
<linearGradient id="paint2_linear_1835_24613" x1="12.9507" y1="8.6886" x2="12.9507" y2="21.9885" gradientUnits="userSpaceOnUse">
<stop stop-color="#DFB210"/>
<stop offset="1" stop-color="#C0D56D" stop-opacity="0"/>
</linearGradient>
<linearGradient id="paint3_linear_1835_24613" x1="8.45015" y1="11.9161" x2="10.6852" y2="25.7454" gradientUnits="userSpaceOnUse">
<stop stop-color="#D7D251"/>
<stop offset="1" stop-color="#EDEAB5" stop-opacity="0"/>
</linearGradient>
<clipPath id="clip0_1835_24613">
<rect y="0.989014" width="27.9998" height="27.9998" rx="6.90956" fill="white"/>
</clipPath>
<clipPath id="clip1_1835_24613">
<rect width="18.0773" height="18.0773" fill="white" transform="translate(5.021 6.62866)"/>
</clipPath>
</defs>
</svg>
