<svg width="28" height="29" viewBox="0 0 28 29" fill="none" xmlns="http://www.w3.org/2000/svg">
<g clip-path="url(#clip0_1886_22822)">
<g opacity="0.8">
<rect x="0.000976562" y="0.97998" width="28" height="27.9999" rx="6.99999" fill="url(#paint0_linear_1886_22822)"/>
<rect x="0.350976" y="1.32998" width="27.3" height="27.2999" rx="6.64999" stroke="url(#paint1_linear_1886_22822)" stroke-opacity="0.5" stroke-width="0.699999"/>
</g>
<g filter="url(#filter0_f_1886_22822)">
<ellipse cx="12.9493" cy="15.3299" rx="6.65" ry="6.64999" fill="#8F1D99"/>
</g>
<path d="M9.89379 8.66121C10.2458 8.66121 10.5944 8.73055 10.9197 8.86527C11.2449 9 11.5405 9.19746 11.7894 9.4464C12.0384 9.69534 12.2358 9.99087 12.3705 10.3161C12.5053 10.6414 12.5746 10.99 12.5746 11.342V14.0228H9.89379C9.18279 14.0228 8.50091 13.7404 7.99816 13.2376C7.49541 12.7349 7.21297 12.053 7.21297 11.342C7.21297 10.631 7.49541 9.94915 7.99816 9.4464C8.50091 8.94365 9.18279 8.66121 9.89379 8.66121ZM9.89379 16.398H12.5746V19.0788C12.5746 19.6091 12.4174 20.1274 12.1228 20.5682C11.8282 21.0091 11.4095 21.3527 10.9197 21.5556C10.4298 21.7585 9.89081 21.8116 9.37078 21.7081C8.85076 21.6047 8.37308 21.3494 7.99816 20.9745C7.62324 20.5995 7.36792 20.1219 7.26448 19.6018C7.16104 19.0818 7.21413 18.5428 7.41703 18.0529C7.61994 17.5631 7.96354 17.1444 8.4044 16.8498C8.84526 16.5553 9.36357 16.398 9.89379 16.398ZM17.6306 8.66121C18.3416 8.66121 19.0235 8.94365 19.5263 9.4464C20.029 9.94915 20.3114 10.631 20.3114 11.342C20.3114 12.053 20.029 12.7349 19.5263 13.2376C19.0235 13.7404 18.3416 14.0228 17.6306 14.0228H14.9498V11.342C14.9498 10.631 15.2322 9.94915 15.735 9.4464C16.2378 8.94365 16.9196 8.66121 17.6306 8.66121ZM14.9498 16.398H17.6306C18.1608 16.398 18.6792 16.5553 19.12 16.8498C19.5609 17.1444 19.9045 17.5631 20.1074 18.0529C20.3103 18.5428 20.3634 19.0818 20.2599 19.6018C20.1565 20.1219 19.9012 20.5995 19.5263 20.9745C19.1513 21.3494 18.6737 21.6047 18.1536 21.7081C17.6336 21.8116 17.0946 21.7585 16.6047 21.5556C16.1149 21.3527 15.6962 21.0091 15.4016 20.5682C15.107 20.1274 14.9498 19.6091 14.9498 19.0788V16.398Z" stroke="url(#paint2_linear_1886_22822)" stroke-width="0.901514"/>
</g>
<defs>
<filter id="filter0_f_1886_22822" x="-9.80067" y="-7.42005" width="45.4998" height="45.5" filterUnits="userSpaceOnUse" color-interpolation-filters="sRGB">
<feFlood flood-opacity="0" result="BackgroundImageFix"/>
<feBlend mode="normal" in="SourceGraphic" in2="BackgroundImageFix" result="shape"/>
<feGaussianBlur stdDeviation="8.04999" result="effect1_foregroundBlur_1886_22822"/>
</filter>
<linearGradient id="paint0_linear_1886_22822" x1="1.86764" y1="4.39461" x2="27.7305" y2="25.7464" gradientUnits="userSpaceOnUse">
<stop stop-color="#0D2147" stop-opacity="0.66"/>
<stop offset="1" stop-color="#0B2049" stop-opacity="0.15"/>
</linearGradient>
<linearGradient id="paint1_linear_1886_22822" x1="5.36098" y1="2.25998" x2="24.8009" y2="26.34" gradientUnits="userSpaceOnUse">
<stop stop-color="#353C54"/>
<stop offset="1" stop-color="#071F4E" stop-opacity="0.76"/>
</linearGradient>
<linearGradient id="paint2_linear_1886_22822" x1="6.76221" y1="9.21698" x2="22.4523" y2="12.6857" gradientUnits="userSpaceOnUse">
<stop stop-color="#EF39FF"/>
<stop offset="0.608737" stop-color="#F796FF" stop-opacity="0.58"/>
</linearGradient>
<clipPath id="clip0_1886_22822">
<rect y="0.97998" width="28" height="27.9999" rx="6.99999" fill="white"/>
</clipPath>
</defs>
</svg>
