<svg width="28" height="28" viewBox="0 0 28 28" fill="none" xmlns="http://www.w3.org/2000/svg">
<g clip-path="url(#clip0_1835_24577)">
<g opacity="0.8">
<rect x="0.000488281" width="27.9951" height="27.9951" rx="13.9975" fill="url(#paint0_linear_1835_24577)"/>
<rect x="0.350427" y="0.349939" width="27.2952" height="27.2952" rx="13.6476" stroke="url(#paint1_linear_1835_24577)" stroke-opacity="0.5" stroke-width="0.699877"/>
</g>
<g filter="url(#filter0_f_1835_24577)">
<circle cx="12.9482" cy="14.3471" r="6.64884" fill="#1057DF" fill-opacity="0.9"/>
</g>
<path d="M17.653 18.1193C17.5104 18.2618 17.3321 18.3331 17.118 18.3331C16.9039 18.3331 16.7193 18.2553 16.5643 18.0998C16.4088 17.9443 16.331 17.7597 16.331 17.5461C16.331 17.3325 16.4088 17.1477 16.5643 16.9917L19.5777 13.9783L16.5448 10.9455C16.4023 10.8029 16.3341 10.6249 16.3403 10.4113C16.3466 10.1977 16.4212 10.0193 16.5643 9.87625C16.7069 9.73369 16.8883 9.6624 17.1086 9.6624C17.329 9.6624 17.5104 9.73369 17.653 9.87625L21.2301 13.4534C21.3857 13.6089 21.4634 13.7904 21.4634 13.9978C21.4634 14.2051 21.3857 14.3866 21.2301 14.5421L17.653 18.1193ZM10.3432 18.1193L6.76601 14.5421C6.61048 14.3866 6.53271 14.2051 6.53271 13.9978C6.53271 13.7904 6.61048 13.6089 6.76601 13.4534L10.3432 9.87625C10.4857 9.73369 10.6672 9.65929 10.8875 9.65307C11.1078 9.64685 11.2958 9.72124 11.4513 9.87625C11.6068 10.0318 11.6846 10.2166 11.6846 10.4307C11.6846 10.6448 11.6068 10.8294 11.4513 10.9844L8.4185 14.0172L11.4513 17.05C11.5939 17.1926 11.662 17.3709 11.6558 17.585C11.6496 17.7991 11.5749 17.9772 11.4319 18.1193C11.2893 18.2618 11.1078 18.3331 10.8875 18.3331C10.6672 18.3331 10.4857 18.2618 10.3432 18.1193Z" fill="url(#paint2_linear_1835_24577)"/>
</g>
<defs>
<filter id="filter0_f_1835_24577" x="-9.79786" y="-8.39894" width="45.4922" height="45.4921" filterUnits="userSpaceOnUse" color-interpolation-filters="sRGB">
<feFlood flood-opacity="0" result="BackgroundImageFix"/>
<feBlend mode="normal" in="SourceGraphic" in2="BackgroundImageFix" result="shape"/>
<feGaussianBlur stdDeviation="8.04859" result="effect1_foregroundBlur_1835_24577"/>
</filter>
<linearGradient id="paint0_linear_1835_24577" x1="1.86683" y1="3.41404" x2="27.7252" y2="24.7621" gradientUnits="userSpaceOnUse">
<stop stop-color="#0D2147" stop-opacity="0.66"/>
<stop offset="1" stop-color="#0B2049" stop-opacity="0.15"/>
</linearGradient>
<linearGradient id="paint1_linear_1835_24577" x1="5.35955" y1="1.27978" x2="24.7961" y2="25.3556" gradientUnits="userSpaceOnUse">
<stop stop-color="#353C54"/>
<stop offset="1" stop-color="#071F4E" stop-opacity="0.76"/>
</linearGradient>
<linearGradient id="paint2_linear_1835_24577" x1="9.79881" y1="9.65271" x2="13.1025" y2="21.2762" gradientUnits="userSpaceOnUse">
<stop stop-color="#0629A6"/>
<stop offset="1" stop-color="#74B2F9"/>
</linearGradient>
<clipPath id="clip0_1835_24577">
<rect width="27.9951" height="27.9951" rx="13.9975" fill="white"/>
</clipPath>
</defs>
</svg>
