<svg width="28" height="29" viewBox="0 0 28 29" fill="none" xmlns="http://www.w3.org/2000/svg">
<g clip-path="url(#clip0_1886_22823)">
<g opacity="0.8">
<rect x="0.000976562" y="0.981689" width="28" height="27.9997" rx="6.99996" fill="url(#paint0_linear_1886_22823)"/>
<rect x="0.350975" y="1.33169" width="27.3" height="27.2997" rx="6.64997" stroke="url(#paint1_linear_1886_22823)" stroke-opacity="0.5" stroke-width="0.699996"/>
</g>
<g filter="url(#filter0_f_1886_22823)">
<ellipse cx="12.9513" cy="15.3315" rx="6.65" ry="6.64993" fill="#97991D"/>
</g>
<path d="M14.2822 15.17C14.2822 15.2801 14.2495 15.3878 14.1883 15.4793C14.1272 15.5709 14.0402 15.6423 13.9384 15.6844C13.8367 15.7266 13.7247 15.7376 13.6167 15.7161C13.5087 15.6946 13.4095 15.6416 13.3316 15.5637C13.2538 15.4858 13.2007 15.3866 13.1792 15.2786C13.1578 15.1706 13.1688 15.0586 13.2109 14.9569C13.2531 14.8552 13.3244 14.7682 13.416 14.707C13.5076 14.6458 13.6152 14.6132 13.7254 14.6132C13.873 14.6132 14.0147 14.6718 14.1191 14.7763C14.2235 14.8807 14.2822 15.0223 14.2822 15.17ZM10.6629 14.6132C10.5527 14.6132 10.4451 14.6458 10.3535 14.707C10.2619 14.7682 10.1906 14.8552 10.1484 14.9569C10.1063 15.0586 10.0953 15.1706 10.1167 15.2786C10.1382 15.3866 10.1913 15.4858 10.2691 15.5637C10.347 15.6416 10.4462 15.6946 10.5542 15.7161C10.6622 15.7376 10.7742 15.7266 10.8759 15.6844C10.9777 15.6423 11.0647 15.5709 11.1258 15.4793C11.187 15.3878 11.2197 15.2801 11.2197 15.17C11.2197 15.0223 11.161 14.8807 11.0566 14.7763C10.9522 14.6718 10.8105 14.6132 10.6629 14.6132ZM16.7879 14.6132C16.6777 14.6132 16.5701 14.6458 16.4785 14.707C16.3869 14.7682 16.3156 14.8552 16.2734 14.9569C16.2313 15.0586 16.2203 15.1706 16.2417 15.2786C16.2632 15.3866 16.3163 15.4858 16.3941 15.5637C16.472 15.6416 16.5712 15.6946 16.6792 15.7161C16.7872 15.7376 16.8992 15.7266 17.001 15.6844C17.1027 15.6423 17.1897 15.5709 17.2508 15.4793C17.312 15.3878 17.3447 15.2801 17.3447 15.17C17.3447 15.0223 17.286 14.8807 17.1816 14.7763C17.0772 14.6718 16.9355 14.6132 16.7879 14.6132ZM20.6856 15.17C20.6858 16.3817 20.3697 17.5725 19.7685 18.6245C19.1673 19.6766 18.3019 20.5534 17.2579 21.1684C16.2138 21.7834 15.0273 22.1151 13.8157 22.1308C12.604 22.1466 11.4093 21.8457 10.3497 21.258L7.86555 22.0863C7.71839 22.1354 7.56046 22.1425 7.40948 22.1069C7.25849 22.0712 7.12042 21.9942 7.01072 21.8846C6.90103 21.7749 6.82405 21.6368 6.78842 21.4858C6.75279 21.3348 6.75991 21.1769 6.80899 21.0297L7.63725 18.5457C7.12238 17.6164 6.82704 16.5817 6.77386 15.5207C6.72069 14.4597 6.91109 13.4006 7.33048 12.4246C7.74987 11.4485 8.38712 10.5814 9.19341 9.88974C9.99969 9.19804 10.9536 8.70008 11.9821 8.434C13.0106 8.16793 14.0863 8.14081 15.1269 8.35472C16.1675 8.56863 17.1453 9.0179 17.9854 9.6681C18.8255 10.3183 19.5056 11.1522 19.9737 12.1058C20.4417 13.0595 20.6852 14.1077 20.6856 15.17ZM20.1288 15.17C20.1285 14.1877 19.9022 13.2187 19.4675 12.3379C19.0327 11.4571 18.4012 10.6881 17.6217 10.0904C16.8422 9.49273 15.9356 9.08239 14.9722 8.89113C14.0087 8.69988 13.0142 8.73283 12.0655 8.98746C11.1168 9.24208 10.2394 9.71153 9.50117 10.3595C8.76295 11.0075 8.1837 11.8166 7.80823 12.7243C7.43276 13.6319 7.27114 14.6138 7.33588 15.5939C7.40061 16.574 7.68996 17.5261 8.18154 18.3765C8.20127 18.4107 8.21352 18.4486 8.21748 18.4879C8.22144 18.5271 8.21702 18.5667 8.20451 18.6041L7.33727 21.2058C7.32091 21.2549 7.31853 21.3075 7.33041 21.3579C7.34229 21.4082 7.36795 21.4542 7.40451 21.4908C7.44108 21.5273 7.4871 21.553 7.53743 21.5649C7.58776 21.5767 7.6404 21.5744 7.68946 21.558L10.2912 20.6908C10.3197 20.6811 10.3495 20.6761 10.3796 20.6762C10.4285 20.6764 10.4764 20.6894 10.5188 20.7137C11.4922 21.2769 12.5968 21.5738 13.7214 21.5744C14.846 21.5751 15.951 21.2796 16.9251 20.7177C17.8993 20.1557 18.7082 19.3471 19.2706 18.3733C19.833 17.3994 20.129 16.2946 20.1288 15.17Z" stroke="url(#paint2_linear_1886_22823)" stroke-width="0.63636" stroke-linecap="round" stroke-linejoin="round"/>
</g>
<defs>
<filter id="filter0_f_1886_22823" x="-9.79865" y="-7.4184" width="45.4996" height="45.4996" filterUnits="userSpaceOnUse" color-interpolation-filters="sRGB">
<feFlood flood-opacity="0" result="BackgroundImageFix"/>
<feBlend mode="normal" in="SourceGraphic" in2="BackgroundImageFix" result="shape"/>
<feGaussianBlur stdDeviation="8.04996" result="effect1_foregroundBlur_1886_22823"/>
</filter>
<linearGradient id="paint0_linear_1886_22823" x1="1.86764" y1="4.39629" x2="27.7303" y2="25.7481" gradientUnits="userSpaceOnUse">
<stop stop-color="#0D2147" stop-opacity="0.66"/>
<stop offset="1" stop-color="#0B2049" stop-opacity="0.15"/>
</linearGradient>
<linearGradient id="paint1_linear_1886_22823" x1="5.36098" y1="2.26168" x2="24.8007" y2="26.3416" gradientUnits="userSpaceOnUse">
<stop stop-color="#353C54"/>
<stop offset="1" stop-color="#071F4E" stop-opacity="0.76"/>
</linearGradient>
<linearGradient id="paint2_linear_1886_22823" x1="6.76514" y1="9.21289" x2="22.3659" y2="12.6621" gradientUnits="userSpaceOnUse">
<stop stop-color="#FFF739"/>
<stop offset="0.608737" stop-color="#FFFB96" stop-opacity="0.58"/>
</linearGradient>
<clipPath id="clip0_1886_22823">
<rect y="0.981445" width="28" height="27.9997" rx="6.99996" fill="white"/>
</clipPath>
</defs>
</svg>
