<svg width="28" height="29" viewBox="0 0 28 29" fill="none" xmlns="http://www.w3.org/2000/svg">
<g clip-path="url(#clip0_1835_24606)">
<g opacity="0.8">
<rect x="0.000976562" y="0.989258" width="27.9998" height="27.9998" rx="6.90956" fill="url(#paint0_linear_1835_24606)"/>
<rect x="0.350974" y="1.33926" width="27.2998" height="27.2998" rx="6.55956" stroke="url(#paint1_linear_1835_24606)" stroke-opacity="0.5" stroke-width="0.699994"/>
</g>
<g filter="url(#filter0_f_1835_24606)">
<ellipse cx="12.9507" cy="15.3387" rx="6.64995" ry="6.64995" fill="url(#paint2_linear_1835_24606)" fill-opacity="0.9"/>
</g>
<g clip-path="url(#clip1_1835_24606)">
<path fill-rule="evenodd" clip-rule="evenodd" d="M12.6466 8.8942C12.8447 8.91902 13.0249 9.02151 13.1475 9.17914C13.2701 9.33677 13.3251 9.53663 13.3004 9.73479L12.9358 12.6543H15.9366L16.3253 9.54799C16.3354 9.44809 16.3654 9.35121 16.4135 9.26305C16.4615 9.1749 16.5268 9.09724 16.6053 9.03466C16.6838 8.97208 16.7741 8.92583 16.8707 8.89863C16.9674 8.87144 17.0685 8.86385 17.1681 8.8763C17.2678 8.88875 17.3639 8.92101 17.4509 8.97116C17.5379 9.02131 17.614 9.08835 17.6747 9.16834C17.7354 9.24833 17.7795 9.33964 17.8044 9.43692C17.8293 9.5342 17.8345 9.63548 17.8197 9.73479L17.4551 12.6543H20.0854C20.2852 12.6543 20.4767 12.7336 20.618 12.8749C20.7593 13.0162 20.8386 13.2077 20.8386 13.4075C20.8386 13.6073 20.7593 13.7989 20.618 13.9401C20.4767 14.0814 20.2852 14.1607 20.0854 14.1607H17.2668L16.8902 17.1736H19.7088C19.9086 17.1736 20.1001 17.253 20.2414 17.3942C20.3826 17.5355 20.462 17.7271 20.462 17.9268C20.462 18.1266 20.3826 18.3182 20.2414 18.4594C20.1001 18.6007 19.9086 18.6801 19.7088 18.6801H16.7019L16.3133 21.7863C16.3032 21.8863 16.2732 21.9831 16.2251 22.0713C16.177 22.1594 16.1118 22.2371 16.0333 22.2997C15.9548 22.3623 15.8645 22.4085 15.7678 22.4357C15.6712 22.4629 15.5701 22.4705 15.4704 22.458C15.3708 22.4456 15.2746 22.4133 15.1876 22.3632C15.1007 22.313 15.0246 22.246 14.9639 22.166C14.9032 22.086 14.8591 21.9947 14.8342 21.8974C14.8093 21.8001 14.8041 21.6989 14.8189 21.5995L15.1834 18.6801H12.1826L11.7939 21.7863C11.7838 21.8863 11.7539 21.9831 11.7058 22.0713C11.6577 22.1594 11.5925 22.2371 11.514 22.2997C11.4354 22.3623 11.3452 22.4085 11.2485 22.4357C11.1519 22.4629 11.0507 22.4705 10.9511 22.458C10.8515 22.4456 10.7553 22.4133 10.6683 22.3632C10.5813 22.313 10.5052 22.246 10.4445 22.166C10.3838 22.086 10.3397 21.9947 10.3148 21.8974C10.2899 21.8001 10.2847 21.6989 10.2995 21.5995L10.6641 18.6801H8.41045C8.21068 18.6801 8.0191 18.6007 7.87784 18.4594C7.73658 18.3182 7.65723 18.1266 7.65723 17.9268C7.65723 17.7271 7.73658 17.5355 7.87784 17.3942C8.0191 17.253 8.21068 17.1736 8.41045 17.1736H10.8524L11.229 14.1607H8.78706C8.58729 14.1607 8.39571 14.0814 8.25445 13.9401C8.11319 13.7989 8.03384 13.6073 8.03384 13.4075C8.03384 13.2077 8.11319 13.0162 8.25445 12.8749C8.39571 12.7336 8.58729 12.6543 8.78706 12.6543H11.4173L11.806 9.54799C11.8308 9.34985 11.9333 9.16967 12.0909 9.04707C12.2486 8.92447 12.4484 8.86948 12.6466 8.8942ZM15.3717 17.1736L15.7483 14.1607H12.7475L12.3709 17.1736H15.3717Z" fill="url(#paint3_linear_1835_24606)"/>
</g>
</g>
<defs>
<filter id="filter0_f_1835_24606" x="-9.79909" y="-7.41115" width="45.4996" height="45.4997" filterUnits="userSpaceOnUse" color-interpolation-filters="sRGB">
<feFlood flood-opacity="0" result="BackgroundImageFix"/>
<feBlend mode="normal" in="SourceGraphic" in2="BackgroundImageFix" result="shape"/>
<feGaussianBlur stdDeviation="8.04994" result="effect1_foregroundBlur_1835_24606"/>
</filter>
<linearGradient id="paint0_linear_1835_24606" x1="1.86763" y1="4.40387" x2="27.7303" y2="25.7555" gradientUnits="userSpaceOnUse">
<stop stop-color="#0D2147" stop-opacity="0.66"/>
<stop offset="1" stop-color="#0B2049" stop-opacity="0.15"/>
</linearGradient>
<linearGradient id="paint1_linear_1835_24606" x1="5.36094" y1="2.26925" x2="24.8008" y2="26.3491" gradientUnits="userSpaceOnUse">
<stop stop-color="#353C54"/>
<stop offset="1" stop-color="#071F4E" stop-opacity="0.76"/>
</linearGradient>
<linearGradient id="paint2_linear_1835_24606" x1="12.9507" y1="8.68872" x2="12.9507" y2="21.9886" gradientUnits="userSpaceOnUse">
<stop stop-color="#DFB210"/>
<stop offset="1" stop-color="#C0D56D" stop-opacity="0"/>
</linearGradient>
<linearGradient id="paint3_linear_1835_24606" x1="9.03813" y1="9.64136" x2="14.0596" y2="29.7273" gradientUnits="userSpaceOnUse">
<stop stop-color="#D7D251"/>
<stop offset="1" stop-color="#EDEAB5" stop-opacity="0"/>
</linearGradient>
<clipPath id="clip0_1835_24606">
<rect y="0.989258" width="27.9998" height="27.9998" rx="6.90956" fill="white"/>
</clipPath>
<clipPath id="clip1_1835_24606">
<rect width="18.0773" height="18.0773" fill="white" transform="translate(5.021 6.62842)"/>
</clipPath>
</defs>
</svg>
