<svg width="293" height="176" viewBox="0 0 293 176" fill="none" xmlns="http://www.w3.org/2000/svg">
<g clip-path="url(#clip0_2313_57038)">
<mask id="mask0_2313_57038" style="mask-type:luminance" maskUnits="userSpaceOnUse" x="0" y="-43" width="293" height="294">
<path d="M293 -42.7065H0V250.293H293V-42.7065Z" fill="white"/>
</mask>
<g mask="url(#mask0_2313_57038)">
<mask id="mask1_2313_57038" style="mask-type:luminance" maskUnits="userSpaceOnUse" x="92" y="75" width="78" height="79">
<path d="M93.2867 148.064C91.9748 151.478 95.3359 154.829 98.747 153.507L169.862 123.322L120.913 75.644L93.2867 148.064Z" fill="white"/>
</mask>
<g mask="url(#mask1_2313_57038)">
<path d="M93.1617 147.94C91.8498 151.355 95.2109 154.707 98.6219 153.385L169.736 123.199L120.787 75.521L93.1617 147.94Z" fill="#197CEC"/>
</g>
<mask id="mask2_2313_57038" style="mask-type:luminance" maskUnits="userSpaceOnUse" x="120" y="72" width="52" height="53">
<path d="M122.084 73.5048C117.642 77.8761 124.891 92.4474 138.276 106.051C151.661 119.654 166.113 127.138 170.555 122.767C174.998 118.396 167.749 103.824 154.364 90.2211C143.567 79.2481 132.077 72.2566 125.705 72.2573C124.178 72.2576 122.943 72.6595 122.084 73.5048Z" fill="white"/>
</mask>
<g mask="url(#mask2_2313_57038)">
<path d="M121.963 73.3842C117.521 77.7555 124.77 92.3268 138.155 105.93C151.54 119.534 165.992 127.018 170.434 122.646C174.877 118.275 167.628 103.704 154.243 90.1005C143.446 79.1274 131.956 72.136 125.584 72.1367C124.057 72.137 122.822 72.5389 121.963 73.3842Z" fill="#112C60" fill-opacity="0.76"/>
</g>
<mask id="mask3_2313_57038" style="mask-type:luminance" maskUnits="userSpaceOnUse" x="114" y="84" width="47" height="47">
<path d="M115.317 90.3161L114.81 91.6446C114.81 91.6468 114.81 91.649 114.808 91.6531C113.872 96.5137 119.525 106.601 128.878 116.106C137.95 125.326 147.628 131.075 152.649 130.627L155.045 129.61L160.404 127.337C159.204 127.526 157.736 127.36 156.066 126.879C150.088 125.163 141.526 119.392 133.397 111.131C125.516 103.121 119.982 94.7413 118.175 88.7656C117.676 87.1214 117.462 85.6581 117.56 84.4365L115.317 90.3161Z" fill="white"/>
</mask>
<g mask="url(#mask3_2313_57038)">
<path d="M115.192 90.1969L114.685 91.5254C114.685 91.5276 114.685 91.5298 114.683 91.534C113.747 96.3946 119.4 106.482 128.753 115.987C137.825 125.207 147.503 130.956 152.524 130.508L154.92 129.491L160.279 127.217C159.079 127.407 157.612 127.241 155.941 126.76C149.963 125.044 141.401 119.273 133.272 111.012C125.391 103.002 119.857 94.6224 118.05 88.6467C117.551 87.0025 117.337 85.5389 117.435 84.3174L115.192 90.1969Z" fill="#0D2147" fill-opacity="0.66"/>
</g>
<mask id="mask4_2313_57038" style="mask-type:luminance" maskUnits="userSpaceOnUse" x="108" y="102" width="35" height="36">
<path d="M108.361 108.544L108.199 108.967C108.199 108.969 108.199 108.971 108.197 108.973C107.217 112.39 111.372 119.955 118.373 127.074C125.503 134.319 133.147 138.62 136.487 137.486C136.494 137.483 136.498 137.481 136.502 137.479L136.846 137.335L142.948 134.744C141.792 135.203 140.142 135.042 138.168 134.352C133.811 132.827 127.886 128.718 122.241 122.982C116.716 117.368 112.753 111.508 111.224 107.153C110.547 105.217 110.346 103.579 110.708 102.395L108.361 108.544Z" fill="white"/>
</mask>
<g mask="url(#mask4_2313_57038)">
<path d="M108.239 108.424L108.078 108.846C108.078 108.849 108.078 108.851 108.076 108.853C107.096 112.27 111.251 119.835 118.252 126.954C125.382 134.199 133.026 138.5 136.366 137.366C136.373 137.363 136.377 137.361 136.381 137.359L136.725 137.215L142.827 134.624C141.671 135.083 140.02 134.922 138.047 134.232C133.69 132.707 127.764 128.598 122.12 122.862C116.595 117.248 112.632 111.388 111.103 107.033C110.426 105.097 110.226 103.459 110.587 102.274L108.239 108.424Z" fill="#0D2147" fill-opacity="0.66"/>
</g>
<mask id="mask5_2313_57038" style="mask-type:luminance" maskUnits="userSpaceOnUse" x="101" y="119" width="26" height="26">
<path d="M102.208 124.681V124.684L101.842 125.642C101.548 128.054 104.257 132.806 108.669 137.29C113.334 142.031 118.327 144.873 120.596 144.233L121.04 144.045L126.482 141.735C125.287 142.005 123.514 141.528 121.445 140.45C118.725 139.034 115.492 136.58 112.382 133.418C109.34 130.326 106.975 127.127 105.59 124.42C104.497 122.29 104.011 120.465 104.283 119.242L102.208 124.681Z" fill="white"/>
</mask>
<g mask="url(#mask5_2313_57038)">
<path d="M102.087 124.557V124.559L101.721 125.517C101.427 127.93 104.136 132.682 108.548 137.166C113.213 141.906 118.206 144.748 120.475 144.108L120.919 143.921L126.361 141.61C125.166 141.88 123.393 141.403 121.324 140.325C118.604 138.91 115.371 136.456 112.261 133.294C109.219 130.202 106.854 127.003 105.469 124.295C104.376 122.166 103.89 120.341 104.162 119.117L102.087 124.557Z" fill="#0D2147" fill-opacity="0.66"/>
</g>
<mask id="mask6_2313_57038" style="mask-type:luminance" maskUnits="userSpaceOnUse" x="96" y="134" width="16" height="17">
<path d="M96.7636 138.945C96.7636 138.945 96.7636 138.947 96.7614 138.947L96.5546 139.493C96.3934 140.857 97.92 143.535 100.407 146.061C102.933 148.629 105.631 150.21 106.977 150.012H106.979L107.493 149.792L111.885 147.928C110.714 148.158 108.667 147.253 106.428 145.56C105.433 144.814 104.401 143.91 103.39 142.882C102.432 141.908 101.583 140.915 100.873 139.96C99.2463 137.767 98.336 135.752 98.4491 134.526L96.7636 138.945Z" fill="white"/>
</mask>
<g mask="url(#mask6_2313_57038)">
<path d="M96.6464 138.82C96.6464 138.82 96.6464 138.822 96.6442 138.822L96.4374 139.369C96.2763 140.732 97.8028 143.411 100.29 145.937C102.816 148.504 105.514 150.085 106.86 149.887H106.862L107.376 149.667L111.768 147.803C110.597 148.034 108.55 147.128 106.311 145.436C105.316 144.689 104.283 143.785 103.273 142.757C102.315 141.784 101.466 140.79 100.756 139.835C99.1291 137.642 98.2188 135.627 98.3319 134.401L96.6464 138.82Z" fill="#0D2147" fill-opacity="0.66"/>
</g>
<mask id="mask7_2313_57038" style="mask-type:luminance" maskUnits="userSpaceOnUse" x="194" y="105" width="7" height="7">
<path d="M194.449 108.544C194.449 110.145 195.747 111.443 197.348 111.443C198.949 111.443 200.247 110.145 200.247 108.544C200.247 106.943 198.949 105.646 197.348 105.646C195.747 105.646 194.449 106.943 194.449 108.544Z" fill="white"/>
</mask>
<g mask="url(#mask7_2313_57038)">
<path d="M194.328 108.426C194.328 110.027 195.626 111.324 197.227 111.324C198.828 111.324 200.126 110.027 200.126 108.426C200.126 106.824 198.828 105.526 197.227 105.526C195.626 105.526 194.328 106.824 194.328 108.426Z" fill="#9FABC8"/>
</g>
<mask id="mask8_2313_57038" style="mask-type:luminance" maskUnits="userSpaceOnUse" x="190" y="84" width="9" height="10">
<path d="M190.363 88.955C190.363 91.2128 192.194 93.0431 194.451 93.0431C196.709 93.0431 198.539 91.2128 198.539 88.955C198.539 86.6972 196.709 84.8672 194.451 84.8672C192.194 84.8672 190.363 86.6972 190.363 88.955Z" fill="white"/>
</mask>
<g mask="url(#mask8_2313_57038)">
<path d="M190.242 88.833C190.242 91.0908 192.072 92.9213 194.33 92.9213C196.588 92.9213 198.418 91.0908 198.418 88.833C198.418 86.5751 196.588 84.7451 194.33 84.7451C192.072 84.7451 190.242 86.5751 190.242 88.833Z" fill="#F2F5FD"/>
</g>
<mask id="mask9_2313_57038" style="mask-type:luminance" maskUnits="userSpaceOnUse" x="172" y="133" width="9" height="9">
<path d="M172.332 137.831C172.332 140.089 174.163 141.919 176.42 141.919C178.678 141.919 180.508 140.089 180.508 137.831C180.508 135.573 178.678 133.743 176.42 133.743C174.163 133.743 172.332 135.573 172.332 137.831Z" fill="white"/>
</mask>
<g mask="url(#mask9_2313_57038)">
<path d="M172.211 137.709C172.211 139.966 174.041 141.797 176.299 141.797C178.557 141.797 180.387 139.966 180.387 137.709C180.387 135.451 178.557 133.621 176.299 133.621C174.041 133.621 172.211 135.451 172.211 137.709Z" fill="#DDECFD"/>
</g>
<mask id="mask10_2313_57038" style="mask-type:luminance" maskUnits="userSpaceOnUse" x="149" y="123" width="12" height="13">
<path d="M149.246 129.354C149.246 132.556 151.842 135.152 155.044 135.152C158.246 135.152 160.842 132.556 160.842 129.354C160.842 126.151 158.246 123.556 155.044 123.556C151.842 123.556 149.246 126.151 149.246 129.354Z" fill="white"/>
</mask>
<g mask="url(#mask10_2313_57038)">
<path d="M149.125 129.233C149.125 132.435 151.721 135.031 154.923 135.031C158.125 135.031 160.72 132.435 160.72 129.233C160.72 126.031 158.125 123.435 154.923 123.435C151.721 123.435 149.125 126.031 149.125 129.233Z" fill="#78B5FA"/>
</g>
<mask id="mask11_2313_57038" style="mask-type:luminance" maskUnits="userSpaceOnUse" x="169" y="79" width="13" height="13">
<path d="M169.984 85.5848C169.984 88.7868 172.58 91.3828 175.783 91.3828C178.985 91.3828 181.58 88.7868 181.58 85.5848C181.58 82.3826 178.985 79.7866 175.783 79.7866C172.58 79.7866 169.984 82.3826 169.984 85.5848Z" fill="white"/>
</mask>
<g mask="url(#mask11_2313_57038)">
<path d="M169.863 85.463C169.863 88.665 172.459 91.261 175.661 91.261C178.863 91.261 181.459 88.665 181.459 85.463C181.459 82.2608 178.863 79.6646 175.661 79.6646C172.459 79.6646 169.863 82.2608 169.863 85.463Z" fill="white"/>
</g>
<mask id="mask12_2313_57038" style="mask-type:luminance" maskUnits="userSpaceOnUse" x="172" y="55" width="7" height="7">
<path d="M172.883 58.1837C172.883 59.7849 174.181 61.0826 175.782 61.0826C177.383 61.0826 178.681 59.7849 178.681 58.1837C178.681 56.5827 177.383 55.2847 175.782 55.2847C174.181 55.2847 172.883 56.5827 172.883 58.1837Z" fill="white"/>
</mask>
<g mask="url(#mask12_2313_57038)">
<path d="M172.762 58.0621C172.762 59.6633 174.059 60.9611 175.661 60.9611C177.262 60.9611 178.56 59.6633 178.56 58.0621C178.56 56.4611 177.262 55.1631 175.661 55.1631C174.059 55.1631 172.762 56.4611 172.762 58.0621Z" fill="#9FABC8"/>
</g>
<mask id="mask13_2313_57038" style="mask-type:luminance" maskUnits="userSpaceOnUse" x="103" y="84" width="10" height="10">
<path d="M103.969 88.955C103.969 91.2128 105.799 93.0431 108.057 93.0431C110.315 93.0431 112.145 91.2128 112.145 88.955C112.145 86.6972 110.315 84.8672 108.057 84.8672C105.799 84.8672 103.969 86.6972 103.969 88.955Z" fill="white"/>
</mask>
<g mask="url(#mask13_2313_57038)">
<path d="M103.844 88.833C103.844 91.0908 105.674 92.9213 107.932 92.9213C110.19 92.9213 112.02 91.0908 112.02 88.833C112.02 86.5751 110.19 84.7451 107.932 84.7451C105.674 84.7451 103.844 86.5751 103.844 88.833Z" fill="#F4F4F4"/>
</g>
<mask id="mask14_2313_57038" style="mask-type:luminance" maskUnits="userSpaceOnUse" x="103" y="65" width="7" height="7">
<path d="M103.691 68.6693C103.691 70.2705 104.989 71.5682 106.59 71.5682C108.191 71.5682 109.489 70.2705 109.489 68.6693C109.489 67.0683 108.191 65.7705 106.59 65.7705C104.989 65.7705 103.691 67.0683 103.691 68.6693Z" fill="white"/>
</mask>
<g mask="url(#mask14_2313_57038)">
<path d="M103.566 68.5496C103.566 70.1509 104.864 71.4484 106.465 71.4484C108.066 71.4484 109.364 70.1509 109.364 68.5496C109.364 66.9486 108.066 65.6509 106.465 65.6509C104.864 65.6509 103.566 66.9486 103.566 68.5496Z" fill="white"/>
</g>
<mask id="mask15_2313_57038" style="mask-type:luminance" maskUnits="userSpaceOnUse" x="126" y="51" width="14" height="36">
<path d="M127.385 52.3836C126.516 53.4587 126.682 55.0358 127.758 55.9055C135.895 62.4875 137.16 74.4621 130.578 82.5992C129.708 83.6745 129.874 85.2514 130.95 86.1211C131.413 86.4961 131.97 86.6785 132.523 86.6785C133.253 86.6785 133.977 86.3609 134.472 85.749C142.791 75.4647 141.192 60.33 130.907 52.0113C130.444 51.6362 129.887 51.4541 129.334 51.4541C128.604 51.4541 127.88 51.7718 127.385 52.3836Z" fill="white"/>
</mask>
<g mask="url(#mask15_2313_57038)">
<path d="M129.211 53.9033C138.436 61.3655 139.865 74.8936 132.403 84.1189" stroke="#0030D9" stroke-width="5.00859" stroke-miterlimit="10" stroke-linecap="round"/>
</g>
<mask id="mask16_2313_57038" style="mask-type:luminance" maskUnits="userSpaceOnUse" x="141" y="57" width="26" height="42">
<path d="M161.469 59.477C161.137 59.8725 159.152 60.1326 158.198 60.2578C155.521 60.6085 151.854 61.0887 150.794 64.5303C149.734 67.9718 152.494 70.4325 154.51 72.2291C155.228 72.8693 156.723 74.2017 156.774 74.7147C156.443 75.1102 154.458 75.37 153.504 75.4953C150.826 75.8462 147.16 76.3264 146.1 79.768C145.04 83.2097 147.8 85.6702 149.815 87.467C150.533 88.1072 152.028 89.4401 152.08 89.9531C151.749 90.3487 149.763 90.6092 148.809 90.7342C146.131 91.0851 142.465 91.5658 141.405 95.0074C140.997 96.3293 141.737 97.7305 143.059 98.1378C143.305 98.2133 143.553 98.2494 143.797 98.2494C144.867 98.2494 145.857 97.5577 146.188 96.4814C146.52 96.0858 148.505 95.8256 149.459 95.7003C152.137 95.3494 155.803 94.8687 156.864 91.4271C157.924 87.9854 155.163 85.5249 153.148 83.7281C152.43 83.0876 150.935 81.7552 150.883 81.242C151.215 80.8464 153.2 80.5866 154.154 80.4616C156.832 80.1105 160.498 79.6302 161.558 76.1887C162.618 72.7472 159.858 70.2867 157.842 68.4902C157.124 67.8499 155.63 66.5173 155.578 66.0043C155.909 65.609 157.895 65.349 158.849 65.2239C161.526 64.8731 165.192 64.3926 166.252 60.951C166.66 59.6294 165.92 58.2278 164.598 57.8208C164.352 57.7451 164.104 57.709 163.86 57.709C162.79 57.709 161.801 58.401 161.469 59.477Z" fill="white"/>
</mask>
<g mask="url(#mask16_2313_57038)">
<path d="M163.874 60.1582C162.7 63.9674 154.376 61.403 153.202 65.2122C152.028 69.0217 160.353 71.5862 159.179 75.3957C158.006 79.2051 149.681 76.6404 148.508 80.4497C147.334 84.2596 155.658 86.8244 154.485 90.6341C153.311 94.4441 144.986 91.8793 143.812 95.6893" stroke="#197CEC" stroke-width="5.00859" stroke-miterlimit="10" stroke-linecap="round"/>
</g>
<mask id="mask17_2313_57038" style="mask-type:luminance" maskUnits="userSpaceOnUse" x="152" y="103" width="36" height="14">
<path d="M152.95 109.711C151.899 110.61 151.777 112.191 152.676 113.242C153.576 114.293 155.156 114.415 156.207 113.516C160.059 110.219 164.964 108.619 170.018 109.012C175.073 109.403 179.672 111.741 182.969 115.592C183.464 116.171 184.166 116.468 184.873 116.468C185.449 116.468 186.028 116.27 186.5 115.866C187.551 114.967 187.673 113.386 186.774 112.335C182.607 107.467 176.794 104.513 170.405 104.018C169.771 103.969 169.14 103.944 168.511 103.944C162.8 103.944 157.335 105.957 152.95 109.711Z" fill="white"/>
</mask>
<g mask="url(#mask17_2313_57038)">
<path d="M154.594 111.608C163.608 103.892 177.17 104.944 184.886 113.958" stroke="#5647FF" stroke-width="5.00859" stroke-miterlimit="10" stroke-linecap="round"/>
</g>
</g>
</g>
<defs>
<clipPath id="clip0_2313_57038">
<rect width="293" height="181.768" fill="white" transform="translate(0 -6.08301)"/>
</clipPath>
</defs>
</svg>
