<svg width="30" height="30" viewBox="0 0 30 30" fill="none" xmlns="http://www.w3.org/2000/svg">
<rect opacity="0.8" x="0.42" y="0.42" width="29.1597" height="29.1597" rx="7.84" fill="#F2F5FD" stroke="#9FABC8" stroke-width="0.84"/>
<path fill-rule="evenodd" clip-rule="evenodd" d="M9.53124 11.8748C9.09977 11.8748 8.75 12.2245 8.75 12.656V20.4684C8.75 21.7628 9.79932 22.8121 11.0937 22.8121H18.9061C20.2005 22.8121 21.2499 21.7628 21.2499 20.4684V12.656C21.2499 12.2245 20.9001 11.8748 20.4686 11.8748H9.53124ZM12.6562 14.2185C13.0877 14.2185 13.4374 14.5683 13.4374 14.9997V19.6872C13.4374 20.1186 13.0877 20.4684 12.6562 20.4684C12.2247 20.4684 11.875 20.1186 11.875 19.6872V14.9997C11.875 14.5683 12.2247 14.2185 12.6562 14.2185ZM18.1249 14.9997C18.1249 14.5683 17.7751 14.2185 17.3437 14.2185C16.9122 14.2185 16.5624 14.5683 16.5624 14.9997V19.6872C16.5624 20.1186 16.9122 20.4684 17.3437 20.4684C17.7751 20.4684 18.1249 20.1186 18.1249 19.6872V14.9997Z" fill="#1B2D59"/>
<path d="M8.74999 10.3122C8.31852 10.3122 7.96875 9.96245 7.96875 9.53098C7.96875 9.09951 8.31852 8.74974 8.74999 8.74974H11.2271C11.5488 7.83944 12.417 7.18726 13.4374 7.18726H16.5624C17.5829 7.18726 18.451 7.83944 18.7728 8.74974H21.2499C21.6813 8.74974 22.0311 9.09951 22.0311 9.53098C22.0311 9.96245 21.6813 10.3122 21.2499 10.3122H8.74999Z" fill="#1B2D59"/>
</svg>
