<svg width="28" height="28" viewBox="0 0 28 28" fill="none" xmlns="http://www.w3.org/2000/svg">
<g clip-path="url(#clip0_2313_59166)">
<rect opacity="0.8" x="0.42" y="0.42" width="27.035" height="27.035" rx="13.5175" fill="#F2F5FD" stroke="#9FABC8" stroke-width="0.84"/>
<path d="M17.5745 18.042C17.4326 18.184 17.255 18.255 17.0418 18.255C16.8286 18.255 16.6448 18.1775 16.4905 18.0227C16.3356 17.8678 16.2582 17.6841 16.2582 17.4714C16.2582 17.2587 16.3356 17.0747 16.4905 16.9193L19.4909 13.9189L16.4711 10.8991C16.3292 10.7571 16.2613 10.5798 16.2675 10.3671C16.2737 10.1544 16.348 9.97687 16.4905 9.8344C16.6325 9.69244 16.8131 9.62147 17.0325 9.62147C17.2519 9.62147 17.4326 9.69244 17.5745 9.8344L21.1363 13.3962C21.2912 13.5511 21.3686 13.7317 21.3686 13.9382C21.3686 14.1447 21.2912 14.3254 21.1363 14.4802L17.5745 18.042ZM10.2961 18.042L6.73424 14.4802C6.57938 14.3254 6.50195 14.1447 6.50195 13.9382C6.50195 13.7317 6.57938 13.5511 6.73424 13.3962L10.2961 9.8344C10.438 9.69244 10.6187 9.61837 10.8381 9.61217C11.0575 9.60598 11.2446 9.68006 11.3994 9.8344C11.5543 9.98926 11.6317 10.1733 11.6317 10.3865C11.6317 10.5997 11.5543 10.7834 11.3994 10.9378L8.37964 13.9576L11.3994 16.9774C11.5414 17.1193 11.6093 17.2969 11.6031 17.5101C11.5969 17.7233 11.5226 17.9006 11.3801 18.042C11.2381 18.184 11.0575 18.255 10.8381 18.255C10.6187 18.255 10.438 18.184 10.2961 18.042Z" fill="#1B2D59"/>
</g>
<defs>
<clipPath id="clip0_2313_59166">
<rect width="27.875" height="27.875" rx="13.9375" fill="white"/>
</clipPath>
</defs>
</svg>
