<svg width="24" height="24" viewBox="0 0 24 24" fill="none" xmlns="http://www.w3.org/2000/svg">
<path d="M18.4509 5.54907C18.0993 5.1975 17.6224 5 17.1252 5C16.628 5 16.1511 5.1975 15.7995 5.54907L14.9731 6.3755L17.6245 9.02693L18.4509 8.2005C18.8025 7.84888 19 7.37201 19 6.87478C19 6.37756 18.8025 5.90069 18.4509 5.54907ZM16.8666 9.78479L14.2152 7.13336L5.53661 15.8119C5.09579 16.2525 4.77174 16.7961 4.59375 17.3934L4.02232 19.3112C3.99474 19.4038 3.99268 19.5021 4.01637 19.5957C4.04006 19.6893 4.08862 19.7748 4.15691 19.8431C4.2252 19.9114 4.31067 19.9599 4.4043 19.9836C4.49792 20.0073 4.59621 20.0053 4.68876 19.9777L6.60662 19.4062C7.20392 19.2283 7.74745 18.9042 8.18805 18.4634L16.8666 9.78479Z" fill="#1B2D59"/>
</svg>
