<svg width="30" height="31" viewBox="0 0 30 31" fill="none" xmlns="http://www.w3.org/2000/svg">
<rect opacity="0.8" x="0.42" y="1.26131" width="29.1597" height="29.1597" rx="7.84" fill="#F2F5FD" stroke="#9FABC8" stroke-width="0.84"/>
<path d="M20.0397 10.8013C19.765 10.5266 19.3924 10.3723 19.004 10.3723C18.6155 10.3723 18.243 10.5266 17.9683 10.8013L17.3226 11.4469L19.394 13.5183L20.0397 12.8727C20.3143 12.598 20.4686 12.2254 20.4686 11.837C20.4686 11.4485 20.3143 11.076 20.0397 10.8013ZM18.802 14.1104L16.7305 12.039L9.95047 18.8191C9.60608 19.1633 9.35291 19.5879 9.21387 20.0545L8.76744 21.5529C8.74589 21.6252 8.74428 21.7019 8.76279 21.7751C8.7813 21.8482 8.81923 21.915 8.87258 21.9684C8.92593 22.0217 8.99271 22.0596 9.06585 22.0781C9.139 22.0967 9.21578 22.095 9.28808 22.0735L10.7864 21.6271C11.253 21.488 11.6777 21.2349 12.0219 20.8905L18.802 14.1104Z" fill="#1B2D59"/>
</svg>
