<svg width="28" height="29" viewBox="0 0 28 29" fill="none" xmlns="http://www.w3.org/2000/svg">
<g clip-path="url(#clip0_2313_59167)">
<rect opacity="0.8" x="0.42" y="1.295" width="27.035" height="27.035" rx="13.5175" fill="#F2F5FD" stroke="#9FABC8" stroke-width="0.84"/>
<path d="M13.0075 10.1749C12.9866 10.0105 13.0096 9.84458 13.0751 9.68768C13.1405 9.53079 13.247 9.38645 13.3876 9.26398C13.5283 9.1415 13.6999 9.04361 13.8915 8.97661C14.0831 8.90962 14.2904 8.875 14.5 8.875C14.7096 8.875 14.9169 8.90962 15.1085 8.97661C15.3001 9.04361 15.4717 9.1415 15.6124 9.26398C15.753 9.38645 15.8595 9.53079 15.9249 9.68768C15.9904 9.84458 16.0134 10.0105 15.9925 10.1749L15.4105 17.6795C15.388 17.8575 15.2824 18.0225 15.1141 18.1425C14.9459 18.2625 14.727 18.329 14.5 18.329C14.273 18.329 14.0541 18.2625 13.8859 18.1425C13.7176 18.0225 13.612 17.8575 13.5895 17.6795L13.0075 10.1749ZM13 20.6932C13 20.3797 13.158 20.0791 13.4393 19.8575C13.7206 19.6359 14.1022 19.5113 14.5 19.5113C14.8978 19.5113 15.2794 19.6359 15.5607 19.8575C15.842 20.0791 16 20.3797 16 20.6932C16 21.0066 15.842 21.3072 15.5607 21.5288C15.2794 21.7505 14.8978 21.875 14.5 21.875C14.1022 21.875 13.7206 21.7505 13.4393 21.5288C13.158 21.3072 13 21.0066 13 20.6932Z" fill="#1B2D59"/>
</g>
<defs>
<clipPath id="clip0_2313_59167">
<rect y="0.875" width="27.875" height="27.875" rx="13.9375" fill="white"/>
</clipPath>
</defs>
</svg>
