<svg width="28" height="29" viewBox="0 0 28 29" fill="none" xmlns="http://www.w3.org/2000/svg">
<g clip-path="url(#clip0_2342_49579)">
<rect x="0.480368" y="0.841875" width="27.04" height="27.04" rx="6.46" fill="#F2F5FD" stroke="#9FABC8" stroke-width="0.84"/>
<path d="M14.0512 6.25024C9.56248 6.25024 5.92762 9.89323 5.92762 14.3819C5.92762 18.8706 9.56248 22.5136 14.0512 22.5136C18.548 22.5136 22.191 18.8706 22.191 14.3819C22.191 9.89323 18.548 6.25024 14.0512 6.25024ZM19.6864 11.1292H17.2876C17.0273 10.1128 16.6533 9.13699 16.1654 8.23437C17.6616 8.74667 18.9058 9.78752 19.6864 11.1292ZM14.0593 7.9091C14.7342 8.8849 15.2628 9.96642 15.6124 11.1292H12.5061C12.8558 9.96642 13.3844 8.8849 14.0593 7.9091ZM7.76538 16.0082C7.63527 15.4878 7.55396 14.943 7.55396 14.3819C7.55396 13.8208 7.63527 13.276 7.76538 12.7556H10.5139C10.4488 13.2923 10.4 13.829 10.4 14.3819C10.4 14.9349 10.4488 15.4716 10.5139 16.0082H7.76538ZM8.43218 17.6346H10.831C11.0912 18.651 11.4653 19.6268 11.9532 20.5295C10.457 20.0172 9.21282 18.9844 8.43218 17.6346V17.6346ZM10.831 11.1292H8.43218C9.21282 9.77939 10.457 8.74667 11.9532 8.23437C11.4653 9.13699 11.0912 10.1128 10.831 11.1292V11.1292ZM14.0593 20.8547C13.3844 19.8789 12.8558 18.7974 12.5061 17.6346H15.6124C15.2628 18.7974 14.7342 19.8789 14.0593 20.8547ZM15.9621 16.0082H12.1565C12.0833 15.4716 12.0264 14.9349 12.0264 14.3819C12.0264 13.829 12.0833 13.2841 12.1565 12.7556H15.9621C16.0353 13.2841 16.0922 13.829 16.0922 14.3819C16.0922 14.9349 16.0353 15.4716 15.9621 16.0082ZM16.1654 20.5295C16.6533 19.6268 17.0273 18.651 17.2876 17.6346H19.6864C18.9058 18.9763 17.6616 20.0172 16.1654 20.5295V20.5295ZM17.6047 16.0082C17.6698 15.4716 17.7185 14.9349 17.7185 14.3819C17.7185 13.829 17.6698 13.2923 17.6047 12.7556H20.3532C20.4833 13.276 20.5646 13.8208 20.5646 14.3819C20.5646 14.943 20.4833 15.4878 20.3532 16.0082H17.6047Z" fill="#1B2D59"/>
</g>
<defs>
<clipPath id="clip0_2342_49579">
<rect x="0.0599365" y="0.421875" width="27.88" height="27.88" rx="6.88" fill="white"/>
</clipPath>
</defs>
</svg>
