<svg width="1135" height="748" viewBox="0 0 1135 748" fill="none" xmlns="http://www.w3.org/2000/svg">
<g clip-path="url(#clip0_1781_59184)">
<rect width="1135" height="748" transform="matrix(1 0 0 -1 0 748)" fill="url(#paint0_linear_1781_59184)"/>
<g filter="url(#filter0_f_1781_59184)">
<path d="M296.579 -148.145C170.816 -31.8551 26.3357 15.7085 186.364 188.771C346.392 361.833 578.071 407.856 703.833 291.566C829.595 175.276 1035.84 17.8068 875.813 -155.256C715.785 -328.318 422.341 -264.436 296.579 -148.145Z" fill="url(#paint1_linear_1781_59184)"/>
</g>
<g style="mix-blend-mode:color-dodge" opacity="0.17">
<line y1="-0.634055" x2="1520.46" y2="-0.634055" transform="matrix(1 -4.37114e-08 -4.37114e-08 -1 -227.73 81.002)" stroke="#C7C7C8" stroke-width="1.26811"/>
<line y1="-0.634055" x2="1520.46" y2="-0.634055" transform="matrix(1 -4.37114e-08 -4.37114e-08 -1 -227.73 233.175)" stroke="#C7C7C8" stroke-width="1.26811"/>
<line y1="-0.634055" x2="1520.46" y2="-0.634055" transform="matrix(1 -4.22896e-08 -4.5181e-08 -1 -227.73 385.348)" stroke="#C7C7C8" stroke-width="1.26811"/>
<line y1="-0.634055" x2="1520.46" y2="-0.634055" transform="matrix(1 -4.22896e-08 -4.5181e-08 -1 -227.73 537.521)" stroke="#C7C7C8" stroke-width="1.26811"/>
<line y1="-0.634055" x2="1520.46" y2="-0.634055" transform="matrix(1 -4.22896e-08 -4.5181e-08 -1 -227.73 689.695)" stroke="#C7C7C8" stroke-width="1.26811"/>
</g>
<g style="mix-blend-mode:color-dodge" opacity="0.17">
<line y1="-0.634055" x2="1471.01" y2="-0.634055" transform="matrix(-4.37114e-08 -1 -1 4.37114e-08 75.3462 1029.55)" stroke="#C7C7C8" stroke-width="1.26811"/>
<line y1="-0.634055" x2="1471.01" y2="-0.634055" transform="matrix(-4.37114e-08 -1 -1 4.37114e-08 227.52 1029.55)" stroke="#C7C7C8" stroke-width="1.26811"/>
<line y1="-0.634055" x2="1471.01" y2="-0.634055" transform="matrix(-4.37114e-08 -1 -1 4.37114e-08 379.693 1029.55)" stroke="#C7C7C8" stroke-width="1.26811"/>
<line y1="-0.634055" x2="1471.01" y2="-0.634055" transform="matrix(-4.37114e-08 -1 -1 4.37114e-08 531.866 1029.55)" stroke="#C7C7C8" stroke-width="1.26811"/>
<line y1="-0.634055" x2="1471.01" y2="-0.634055" transform="matrix(-4.37114e-08 -1 -1 4.37114e-08 684.04 1029.55)" stroke="#C7C7C8" stroke-width="1.26811"/>
<line y1="-0.634055" x2="1471.01" y2="-0.634055" transform="matrix(-4.37114e-08 -1 -1 4.37114e-08 836.213 1029.55)" stroke="#C7C7C8" stroke-width="1.26811"/>
<line y1="-0.634055" x2="1471.01" y2="-0.634055" transform="matrix(-4.37114e-08 -1 -1 4.37114e-08 988.386 1029.55)" stroke="url(#paint2_linear_1781_59184)" stroke-width="1.26811"/>
</g>
<g filter="url(#filter1_f_1781_59184)">
<path d="M261.579 -191.145C135.816 -74.8551 -8.66425 -27.2915 151.364 145.771C311.392 318.833 543.071 364.856 668.833 248.566C794.595 132.276 1000.84 -25.1932 840.813 -198.256C680.785 -371.318 387.341 -307.436 261.579 -191.145Z" fill="url(#paint3_linear_1781_59184)"/>
</g>
<g filter="url(#filter2_f_1781_59184)">
<path d="M345.249 150.348C188.837 294.979 -7.18012 336.48 252.763 617.596C512.706 898.712 850.229 1009.35 1006.64 864.723C1163.05 720.092 1425.87 531.068 1165.93 249.952C905.983 -31.1645 501.66 5.71621 345.249 150.348Z" fill="url(#paint4_linear_1781_59184)"/>
</g>
<line x1="0.5" y1="-0.5" x2="188.5" y2="-0.5" transform="matrix(1 -8.74228e-08 -8.74228e-08 -1 89 81.6553)" stroke="url(#paint5_linear_1781_59184)" stroke-linecap="round"/>
<path d="M836.711 139.031L836.711 273.065" stroke="url(#paint6_linear_1781_59184)" stroke-linecap="round"/>
<g filter="url(#filter3_f_1781_59184)">
<path d="M1561.54 226.632C1353.43 -6.48665 951.232 260.192 1286.91 417.955C1286.91 679.323 1410.06 891.203 1561.97 891.203C1713.89 891.203 1943 918.267 1943 656.9C1943 395.532 1859.84 442.597 1561.54 226.632Z" fill="url(#paint7_linear_1781_59184)"/>
</g>
<path d="M123.901 56.7965C124.261 56.8905 124.61 56.974 124.942 57.0479C124.61 57.1217 124.261 57.2052 123.901 57.2992C121.79 57.8506 119.211 58.7882 117.659 60.3405C116.107 61.8928 115.169 64.4721 114.618 66.5826C114.524 66.9422 114.44 67.2913 114.366 67.6232C114.292 67.2913 114.209 66.9422 114.115 66.5826C113.563 64.4721 112.626 61.8928 111.074 60.3405C109.521 58.7882 106.942 57.8506 104.831 57.2992C104.472 57.2052 104.123 57.1217 103.791 57.0479C104.123 56.974 104.472 56.8905 104.831 56.7965C106.942 56.2451 109.521 55.3075 111.074 53.7552C112.626 52.2029 113.563 49.6236 114.115 47.5131C114.209 47.1535 114.292 46.8044 114.366 46.4725C114.44 46.8044 114.524 47.1535 114.618 47.5131C115.169 49.6236 116.107 52.2029 117.659 53.7552C119.211 55.3075 121.79 56.2451 123.901 56.7965Z" stroke="white"/>
<path d="M262.808 126.825C263.126 126.909 263.435 126.982 263.729 127.048C263.435 127.113 263.126 127.187 262.808 127.27C260.939 127.759 258.656 128.589 257.281 129.963C255.907 131.337 255.077 133.621 254.589 135.489C254.506 135.808 254.432 136.117 254.366 136.411C254.301 136.117 254.227 135.808 254.144 135.489C253.655 133.621 252.825 131.337 251.451 129.963C250.077 128.589 247.793 127.759 245.925 127.27C245.606 127.187 245.297 127.113 245.003 127.048C245.297 126.982 245.606 126.909 245.925 126.825C247.793 126.337 250.077 125.507 251.451 124.133C252.825 122.758 253.655 120.475 254.144 118.606C254.227 118.288 254.301 117.979 254.366 117.685C254.432 117.979 254.506 118.288 254.589 118.606C255.077 120.475 255.907 122.758 257.281 124.133C258.656 125.507 260.939 126.337 262.808 126.825Z" stroke="white" stroke-width="0.885344"/>
<path d="M1043.54 143.548C1043.54 143.548 1044.28 150.5 1047.19 153.402C1050.09 156.303 1057.04 157.048 1057.04 157.048C1057.04 157.048 1050.09 157.793 1047.19 160.694C1044.28 163.595 1043.54 170.548 1043.54 170.548C1043.54 170.548 1042.79 163.595 1039.89 160.694C1036.99 157.793 1030.04 157.048 1030.04 157.048C1030.04 157.048 1036.99 156.303 1039.89 153.402C1042.79 150.5 1043.54 143.548 1043.54 143.548Z" fill="white"/>
<g filter="url(#filter4_f_1781_59184)">
<path d="M156 467.923C156 467.923 154.896 479.808 150.598 484.767C146.3 489.727 136 491 136 491C136 491 146.3 492.274 150.598 497.233C154.896 502.193 156 514.077 156 514.077C156 514.077 157.104 502.193 161.402 497.233C165.7 492.274 176 491 176 491C176 491 165.7 489.727 161.402 484.767C157.104 479.808 156 467.923 156 467.923Z" fill="white"/>
</g>
<path d="M156 467.923C156 467.923 154.896 479.808 150.598 484.767C146.3 489.727 136 491 136 491C136 491 146.3 492.274 150.598 497.233C154.896 502.193 156 514.077 156 514.077C156 514.077 157.104 502.193 161.402 497.233C165.7 492.274 176 491 176 491C176 491 165.7 489.727 161.402 484.767C157.104 479.808 156 467.923 156 467.923Z" fill="white"/>
<path d="M718 556C718 556 717.338 563.13 714.759 566.106C712.18 569.082 706 569.846 706 569.846C706 569.846 712.18 570.61 714.759 573.585C717.338 576.561 718 583.692 718 583.692C718 583.692 718.662 576.561 721.241 573.585C723.82 570.61 730 569.846 730 569.846C730 569.846 723.82 569.082 721.241 566.106C718.662 563.13 718 556 718 556Z" fill="white"/>
<g filter="url(#filter5_f_1781_59184)">
<path d="M869.968 61.1069L872 83.5L888.757 70.1553L873.5 86L893.397 90.4868L873 87.5L880.395 106.791L870.5 89L859.541 106.791L868 87.5L846.538 90.4868L867.5 85.5L851.179 70.1553L869 83.5L869.968 61.1069Z" fill="#D9D9D9"/>
</g>
<path d="M869.968 61.1069L872 83.5L888.757 70.1553L873.5 86L893.397 90.4868L873 87.5L880.395 106.791L870.5 89L859.541 106.791L868 87.5L846.538 90.4868L867.5 85.5L851.179 70.1553L869 83.5L869.968 61.1069Z" fill="#D9D9D9"/>
</g>
<defs>
<filter id="filter0_f_1781_59184" x="-148.911" y="-526.391" width="1347.71" height="1146.76" filterUnits="userSpaceOnUse" color-interpolation-filters="sRGB">
<feFlood flood-opacity="0" result="BackgroundImageFix"/>
<feBlend mode="normal" in="SourceGraphic" in2="BackgroundImageFix" result="shape"/>
<feGaussianBlur stdDeviation="132.295" result="effect1_foregroundBlur_1781_59184"/>
</filter>
<filter id="filter1_f_1781_59184" x="-183.911" y="-569.391" width="1347.71" height="1146.76" filterUnits="userSpaceOnUse" color-interpolation-filters="sRGB">
<feFlood flood-opacity="0" result="BackgroundImageFix"/>
<feBlend mode="normal" in="SourceGraphic" in2="BackgroundImageFix" result="shape"/>
<feGaussianBlur stdDeviation="132.295" result="effect1_foregroundBlur_1781_59184"/>
</filter>
<filter id="filter2_f_1781_59184" x="-138.455" y="-224.973" width="1678.78" height="1417.82" filterUnits="userSpaceOnUse" color-interpolation-filters="sRGB">
<feFlood flood-opacity="0" result="BackgroundImageFix"/>
<feBlend mode="normal" in="SourceGraphic" in2="BackgroundImageFix" result="shape"/>
<feGaussianBlur stdDeviation="132.295" result="effect1_foregroundBlur_1781_59184"/>
</filter>
<filter id="filter3_f_1781_59184" x="893.41" y="-129.59" width="1314.18" height="1286.18" filterUnits="userSpaceOnUse" color-interpolation-filters="sRGB">
<feFlood flood-opacity="0" result="BackgroundImageFix"/>
<feBlend mode="normal" in="SourceGraphic" in2="BackgroundImageFix" result="shape"/>
<feGaussianBlur stdDeviation="132.295" result="effect1_foregroundBlur_1781_59184"/>
</filter>
<filter id="filter4_f_1781_59184" x="121" y="452.923" width="70" height="76.1538" filterUnits="userSpaceOnUse" color-interpolation-filters="sRGB">
<feFlood flood-opacity="0" result="BackgroundImageFix"/>
<feBlend mode="normal" in="SourceGraphic" in2="BackgroundImageFix" result="shape"/>
<feGaussianBlur stdDeviation="7.5" result="effect1_foregroundBlur_1781_59184"/>
</filter>
<filter id="filter5_f_1781_59184" x="837.538" y="52.1069" width="64.8594" height="63.6846" filterUnits="userSpaceOnUse" color-interpolation-filters="sRGB">
<feFlood flood-opacity="0" result="BackgroundImageFix"/>
<feBlend mode="normal" in="SourceGraphic" in2="BackgroundImageFix" result="shape"/>
<feGaussianBlur stdDeviation="4.5" result="effect1_foregroundBlur_1781_59184"/>
</filter>
<linearGradient id="paint0_linear_1781_59184" x1="567.5" y1="-114.515" x2="-155.322" y2="627.085" gradientUnits="userSpaceOnUse">
<stop stop-color="#00081C"/>
<stop offset="0.367953" stop-color="#000611"/>
<stop offset="1" stop-color="#0041AF"/>
</linearGradient>
<linearGradient id="paint1_linear_1781_59184" x1="-92.1209" y1="-717.688" x2="545.333" y2="-1003.95" gradientUnits="userSpaceOnUse">
<stop stop-color="#004AD9"/>
<stop offset="1" stop-color="#0C64E8"/>
</linearGradient>
<linearGradient id="paint2_linear_1781_59184" x1="849.893" y1="0.389876" x2="1004.39" y2="-36.6108" gradientUnits="userSpaceOnUse">
<stop stop-color="#C7C7C8"/>
<stop offset="1" stop-color="#C7C7C8" stop-opacity="0"/>
</linearGradient>
<linearGradient id="paint3_linear_1781_59184" x1="820" y1="267.156" x2="862.948" y2="155.267" gradientUnits="userSpaceOnUse">
<stop offset="0.780668" stop-color="#0235E9"/>
<stop offset="1" stop-color="#0C64E8"/>
</linearGradient>
<linearGradient id="paint4_linear_1781_59184" x1="-314.446" y1="-748.62" x2="372.791" y2="-872.077" gradientUnits="userSpaceOnUse">
<stop stop-color="#000511"/>
<stop offset="0.841785" stop-color="#000614"/>
</linearGradient>
<linearGradient id="paint5_linear_1781_59184" x1="68.8193" y1="48.3926" x2="86.0197" y2="-22.7881" gradientUnits="userSpaceOnUse">
<stop stop-color="white"/>
<stop offset="1" stop-color="white" stop-opacity="0"/>
</linearGradient>
<linearGradient id="paint6_linear_1781_59184" x1="884" y1="134.155" x2="821.5" y2="174.655" gradientUnits="userSpaceOnUse">
<stop stop-color="white"/>
<stop offset="1" stop-color="white" stop-opacity="0"/>
</linearGradient>
<linearGradient id="paint7_linear_1781_59184" x1="1649.21" y1="1020.14" x2="1751.78" y2="979.7" gradientUnits="userSpaceOnUse">
<stop offset="0.780668" stop-color="#0235E9"/>
<stop offset="1" stop-color="#0C64E8"/>
</linearGradient>
<clipPath id="clip0_1781_59184">
<rect width="1135" height="748" fill="white" transform="matrix(1 0 0 -1 0 748)"/>
</clipPath>
</defs>
</svg>
