<svg width="35" height="35" viewBox="0 0 35 35" fill="none" xmlns="http://www.w3.org/2000/svg">
<rect opacity="0.8" x="0.5" y="0.5" width="34" height="34" rx="9.5" fill="#F5F7FD" stroke="#9FABC8"/>
<path fill-rule="evenodd" clip-rule="evenodd" d="M22.9991 21.7088C24.1217 20.3054 24.793 18.5253 24.793 16.5885C24.793 12.058 21.1203 8.38535 16.5898 8.38535C12.0594 8.38535 8.38672 12.058 8.38672 16.5885C8.38672 21.1189 12.0594 24.7916 16.5898 24.7916C18.5267 24.7916 20.3068 24.1203 21.7101 22.9978L24.1485 25.4361C24.5044 25.792 25.0815 25.792 25.4375 25.4361C25.7934 25.0801 25.7934 24.503 25.4375 24.1471L22.9991 21.7088ZM22.9701 16.5885C22.9701 20.1122 20.1135 22.9687 16.5898 22.9687C13.0662 22.9687 10.2096 20.1122 10.2096 16.5885C10.2096 13.0648 13.0662 10.2083 16.5898 10.2083C20.1135 10.2083 22.9701 13.0648 22.9701 16.5885Z" fill="#9FABC8"/>
</svg>
