<svg width="57" height="57" viewBox="0 0 57 57" fill="none" xmlns="http://www.w3.org/2000/svg">
<rect width="57" height="57" rx="28.5" fill="white"/>
<g clip-path="url(#clip0_481_10750)">
<path d="M42.452 19.272C42.072 19.272 41.768 19.044 41.768 18.816V17.296C41.768 17.068 41.464 16.84 41.084 16.84H17.068C16.688 16.84 16.308 17.068 16.308 17.296V18.74C16.308 18.968 16.004 19.196 15.624 19.196H10.684C10.304 19.272 10 19.5 10 19.728V26.036C10 26.264 10.304 26.492 10.684 26.492H21.932C22.312 26.492 22.616 26.72 22.616 26.948V28.392C22.616 28.62 22.92 28.848 23.3 28.848H34.548C34.928 28.848 35.232 29.076 35.232 29.304V33.18C35.232 33.408 34.928 33.636 34.548 33.636H29.76C29.38 33.636 29.076 33.408 29.076 33.18V31.736C29.076 31.508 28.772 31.28 28.392 31.28H23.528C23.148 31.28 22.844 31.052 22.844 30.824V29.38C22.844 29.152 22.54 28.924 22.16 28.924H10.684C10.304 28.924 10 29.152 10 29.38V33.256C10 33.484 10.304 33.712 10.684 33.712H15.548C15.928 33.712 16.232 33.94 16.232 34.168V35.612C16.232 35.84 16.536 36.068 16.916 36.068H40.78C41.16 36.068 41.464 35.84 41.464 35.612V34.168C41.464 33.94 41.768 33.712 42.148 33.712H47.24C47.62 33.712 48 33.484 48 33.256V26.948C48 26.72 47.62 26.492 47.24 26.492H36.068C35.688 26.492 35.384 26.264 35.384 26.036V24.592C35.384 24.364 35.08 24.136 34.7 24.136H23.376C22.996 24.136 22.692 23.908 22.692 23.68V19.728C22.692 19.5 22.996 19.272 23.376 19.272H28.24C28.62 19.272 28.924 19.5 28.924 19.728V21.172C28.924 21.4 29.228 21.628 29.608 21.628H34.472C34.852 21.628 35.156 21.856 35.156 22.084V23.528C35.156 23.756 35.46 23.984 35.84 23.984H47.088C47.468 23.984 47.772 23.756 47.772 23.528V19.728C47.772 19.5 47.468 19.272 47.088 19.272H42.452ZM24.592 37.36H22.92C22.084 37.36 21.248 37.512 21.248 38.728V39.792C21.248 41.008 22.008 41.16 22.92 41.16H24.592C25.428 41.16 26.264 41.008 26.264 39.792V38.728C26.264 37.588 25.428 37.36 24.592 37.36ZM24.896 39.108V39.488C24.896 39.944 24.82 40.096 24.364 40.096H22.996C22.616 40.096 22.464 40.02 22.464 39.488V39.108C22.464 38.728 22.54 38.5 22.996 38.5H24.212C24.82 38.5 24.896 38.728 24.896 39.108ZM29.912 39.564C29.912 39.944 29.836 40.096 29.456 40.096H28.392C28.012 40.096 27.936 39.944 27.936 39.564V37.436H26.644V39.792C26.644 40.704 27.176 41.16 28.164 41.16H29.684C30.748 41.16 31.204 40.704 31.204 39.792V37.436H29.912V39.564ZM35.232 39.716L33.408 37.436H31.584V41.16H32.8V38.88L34.624 41.16H36.448V37.436H35.156V39.716H35.232ZM40.248 37.436H36.904V41.16H40.248C41.388 41.16 41.768 40.78 41.768 39.868V38.804C41.768 37.816 41.312 37.436 40.248 37.436ZM38.196 38.5H39.944C40.324 38.5 40.476 38.576 40.476 39.032V39.488C40.476 39.868 40.4 40.02 39.944 40.02H38.196V38.5ZM18.74 38.728C18.132 38.728 17.676 38.728 17.6 38.652V38.5C17.6 38.424 17.676 38.348 17.904 38.348H19.12C19.5 38.348 19.5 38.424 19.5 38.5V38.576H20.792V38.424C20.792 37.74 20.564 37.36 19.348 37.36H17.828C16.46 37.36 16.308 37.892 16.308 38.576C16.308 39.564 16.612 39.716 18.208 39.716C19.576 39.716 19.576 39.716 19.576 39.944C19.576 40.096 19.5 40.096 19.272 40.096H17.98C17.752 40.096 17.676 40.096 17.676 39.944V39.868H16.308V40.096C16.308 41.008 16.84 41.16 17.752 41.16H19.044C20.488 41.16 20.868 41.008 20.868 39.944C20.868 39.488 20.792 39.26 20.64 39.032C20.336 38.804 19.804 38.728 18.74 38.728Z" fill="black"/>
</g>
<defs>
<clipPath id="clip0_481_10750">
<rect width="38" height="24.32" fill="white" transform="translate(10 16.84)"/>
</clipPath>
</defs>
</svg>
