<svg width="28" height="29" viewBox="0 0 28 29" fill="none" xmlns="http://www.w3.org/2000/svg">
<g clip-path="url(#clip0_2313_59183)">
<rect opacity="0.8" x="0.418195" y="0.963117" width="27.0436" height="27.0436" rx="7.83771" fill="#F2F5FD" stroke="#9FABC8" stroke-width="0.836391"/>
<path d="M7 11.6126V9.94596C7 9.50394 7.17559 9.08001 7.48816 8.76745C7.80072 8.45489 8.22464 8.2793 8.66667 8.2793H10.3333M7 18.2793V19.946C7 20.388 7.17559 20.8119 7.48816 21.1245C7.80072 21.437 8.22464 21.6126 8.66667 21.6126H10.3333M17 8.2793H18.6667C19.1087 8.2793 19.5326 8.45489 19.8452 8.76745C20.1577 9.08001 20.3333 9.50394 20.3333 9.94596V11.6126M17 21.6126H18.6667C19.1087 21.6126 19.5326 21.437 19.8452 21.1245C20.1577 20.8119 20.3333 20.388 20.3333 19.946V18.2793M11.1667 13.2793H11.175M16.1667 13.2793H16.175M11.5833 17.446C11.8549 17.7231 12.179 17.9433 12.5368 18.0936C12.8945 18.244 13.2786 18.3214 13.6667 18.3214C14.0547 18.3214 14.4388 18.244 14.7966 18.0936C15.1543 17.9433 15.4784 17.7231 15.75 17.446" stroke="#1B2D59" stroke-width="1.26727" stroke-linecap="round" stroke-linejoin="round"/>
</g>
<defs>
<clipPath id="clip0_2313_59183">
<rect y="0.544922" width="27.88" height="27.88" rx="6.88" fill="white"/>
</clipPath>
</defs>
</svg>
