<svg width="28" height="29" viewBox="0 0 28 29" fill="none" xmlns="http://www.w3.org/2000/svg">
<g opacity="0.8">
<g clip-path="url(#clip0_2313_59175)">
<rect y="0.509766" width="27.88" height="27.88" rx="8.25591" fill="#F2F5FD"/>
<rect opacity="0.8" x="0.42" y="0.929766" width="27.04" height="27.04" rx="6.46" fill="#F2F5FD" stroke="#9FABC8" stroke-width="0.84"/>
<g clip-path="url(#clip1_2313_59175)">
<path fill-rule="evenodd" clip-rule="evenodd" d="M12.593 8.38103C12.7903 8.40575 12.9697 8.50781 13.0918 8.66476C13.2139 8.82171 13.2686 9.02072 13.244 9.21803L12.881 12.125H15.869L16.256 9.03203C16.2661 8.93255 16.2959 8.83609 16.3438 8.74831C16.3916 8.66053 16.4566 8.58321 16.5348 8.5209C16.613 8.45858 16.7028 8.41253 16.7991 8.38545C16.8953 8.35837 16.996 8.35081 17.0952 8.36321C17.1944 8.37562 17.2902 8.40773 17.3768 8.45767C17.4634 8.50761 17.5392 8.57436 17.5996 8.654C17.6601 8.73365 17.704 8.82458 17.7288 8.92144C17.7536 9.0183 17.7587 9.11914 17.744 9.21803L17.381 12.125H20C20.1989 12.125 20.3897 12.2041 20.5303 12.3447C20.671 12.4854 20.75 12.6761 20.75 12.875C20.75 13.0739 20.671 13.2647 20.5303 13.4054C20.3897 13.546 20.1989 13.625 20 13.625H17.1935L16.8185 16.625H19.625C19.8239 16.625 20.0147 16.7041 20.1553 16.8447C20.296 16.9854 20.375 17.1761 20.375 17.375C20.375 17.5739 20.296 17.7647 20.1553 17.9054C20.0147 18.046 19.8239 18.125 19.625 18.125H16.631L16.244 21.218C16.2339 21.3175 16.2041 21.414 16.1562 21.5018C16.1084 21.5895 16.0434 21.6669 15.9652 21.7292C15.887 21.7915 15.7972 21.8375 15.7009 21.8646C15.6047 21.8917 15.504 21.8993 15.4048 21.8869C15.3056 21.8745 15.2098 21.8423 15.1232 21.7924C15.0366 21.7425 14.9608 21.6757 14.9004 21.5961C14.8399 21.5164 14.796 21.4255 14.7712 21.3286C14.7464 21.2318 14.7413 21.1309 14.756 21.032L15.119 18.125H12.131L11.744 21.218C11.7339 21.3175 11.7041 21.414 11.6562 21.5018C11.6084 21.5895 11.5434 21.6669 11.4652 21.7292C11.387 21.7915 11.2972 21.8375 11.2009 21.8646C11.1047 21.8917 11.004 21.8993 10.9048 21.8869C10.8056 21.8745 10.7098 21.8423 10.6232 21.7924C10.5366 21.7425 10.4608 21.6757 10.4004 21.5961C10.3399 21.5164 10.296 21.4255 10.2712 21.3286C10.2464 21.2318 10.2413 21.1309 10.256 21.032L10.619 18.125H8.375C8.17609 18.125 7.98532 18.046 7.84467 17.9054C7.70402 17.7647 7.625 17.5739 7.625 17.375C7.625 17.1761 7.70402 16.9854 7.84467 16.8447C7.98532 16.7041 8.17609 16.625 8.375 16.625H10.8065L11.1815 13.625H8.75C8.55109 13.625 8.36032 13.546 8.21967 13.4054C8.07902 13.2647 8 13.0739 8 12.875C8 12.6761 8.07902 12.4854 8.21967 12.3447C8.36032 12.2041 8.55109 12.125 8.75 12.125H11.369L11.756 9.03203C11.7807 8.83474 11.8828 8.65533 12.0397 8.53325C12.1967 8.41118 12.3957 8.35643 12.593 8.38103ZM15.3065 16.625L15.6815 13.625H12.6935L12.3185 16.625H15.3065Z" fill="#1B2D59"/>
</g>
</g>
<rect x="0.418195" y="0.927961" width="27.0436" height="27.0436" rx="7.83771" stroke="#9FABC8" stroke-width="0.836391"/>
</g>
<defs>
<clipPath id="clip0_2313_59175">
<rect y="0.509766" width="27.88" height="27.88" rx="8.25591" fill="white"/>
</clipPath>
<clipPath id="clip1_2313_59175">
<rect width="18" height="18" fill="white" transform="translate(5 6.125)"/>
</clipPath>
</defs>
</svg>
