<svg width="28" height="28" viewBox="0 0 28 28" fill="none" xmlns="http://www.w3.org/2000/svg">
<g clip-path="url(#clip0_2313_59171)">
<rect opacity="0.8" x="0.418195" y="0.418195" width="27.0386" height="27.0386" rx="7.83771" fill="#F2F5FD" stroke="#9FABC8" stroke-width="0.836391"/>
<path d="M13.0075 9.29987C12.9866 9.13554 13.0096 8.96958 13.0751 8.81268C13.1405 8.65579 13.247 8.51145 13.3876 8.38898C13.5283 8.2665 13.6999 8.16861 13.8915 8.10161C14.0831 8.03462 14.2904 8 14.5 8C14.7096 8 14.9169 8.03462 15.1085 8.10161C15.3001 8.16861 15.4717 8.2665 15.6124 8.38898C15.753 8.51145 15.8595 8.65579 15.9249 8.81268C15.9904 8.96958 16.0134 9.13554 15.9925 9.29987L15.4105 16.8045C15.388 16.9825 15.2824 17.1475 15.1141 17.2675C14.9459 17.3875 14.727 17.454 14.5 17.454C14.273 17.454 14.0541 17.3875 13.8859 17.2675C13.7176 17.1475 13.612 16.9825 13.5895 16.8045L13.0075 9.29987ZM13 19.8182C13 19.5047 13.158 19.2041 13.4393 18.9825C13.7206 18.7609 14.1022 18.6363 14.5 18.6363C14.8978 18.6363 15.2794 18.7609 15.5607 18.9825C15.842 19.2041 16 19.5047 16 19.8182C16 20.1316 15.842 20.4322 15.5607 20.6538C15.2794 20.8755 14.8978 21 14.5 21C14.1022 21 13.7206 20.8755 13.4393 20.6538C13.158 20.4322 13 20.1316 13 19.8182Z" fill="#1B2D59"/>
</g>
<defs>
<clipPath id="clip0_2313_59171">
<rect width="27.875" height="27.875" rx="6.8" fill="white"/>
</clipPath>
</defs>
</svg>
