<svg width="28" height="29" viewBox="0 0 28 29" fill="none" xmlns="http://www.w3.org/2000/svg">
<g clip-path="url(#clip0_2313_59178)">
<rect opacity="0.8" x="0.42" y="0.570391" width="27.04" height="27.04" rx="6.55" fill="#F2F5FD" stroke="#9FABC8" stroke-width="0.84"/>
<path d="M16.5926 10.9119H13.3519C12.8362 10.9119 12.3416 11.0875 11.9769 11.4C11.6123 11.7126 11.4074 12.1365 11.4074 12.5786C11.4074 13.0206 11.6123 13.4445 11.9769 13.7571C12.3416 14.0696 12.8362 14.2452 13.3519 14.2452H14.6482C15.1638 14.2452 15.6584 14.4208 16.0231 14.7334C16.3877 15.0459 16.5926 15.4699 16.5926 15.9119C16.5926 16.3539 16.3877 16.7778 16.0231 17.0904C15.6584 17.403 15.1638 17.5786 14.6482 17.5786H11.4074M14 17.5786V18.6897M14 9.80078V10.9119M22 14.2451C22 18.6634 18.4183 22.2451 14 22.2451C9.58172 22.2451 6 18.6634 6 14.2451C6 9.82684 9.58172 6.24512 14 6.24512C18.4183 6.24512 22 9.82684 22 14.2451Z" stroke="#1B2D59" stroke-width="1.5" stroke-linecap="round" stroke-linejoin="round"/>
</g>
<defs>
<clipPath id="clip0_2313_59178">
<rect y="0.150391" width="27.88" height="27.88" rx="6.88" fill="white"/>
</clipPath>
</defs>
</svg>
