<svg width="28" height="29" viewBox="0 0 28 29" fill="none" xmlns="http://www.w3.org/2000/svg">
<g opacity="0.8">
<g clip-path="url(#clip0_2313_59174)">
<rect y="0.629883" width="27.88" height="27.88" rx="8.25591" fill="#F2F5FD"/>
<rect opacity="0.8" x="0.42" y="1.04988" width="27.04" height="27.04" rx="6.46" fill="#F2F5FD" stroke="#9FABC8" stroke-width="0.84"/>
<path d="M7.25472 17.8131C6.87071 17.6215 6.375 17.8849 6.375 18.3141V19.006C6.375 20.8049 9.50248 22.1726 13.5 22.1726C17.4974 22.1726 20.6249 20.8049 20.6249 19.006V18.3141C20.6249 17.8849 20.1292 17.6215 19.7452 17.8131C19.6713 17.85 19.5963 17.8859 19.5203 17.9209C18.0741 18.5865 16.0521 19.006 13.5 19.006C10.9478 19.006 8.92582 18.5865 7.4796 17.9209C7.40361 17.8859 7.32862 17.85 7.25472 17.8131Z" fill="#1B2D59"/>
<path d="M20.6249 10.3657C20.6249 11.7148 17.435 12.6728 13.5 12.6728C9.56495 12.6728 6.375 11.7148 6.375 10.3657C6.375 9.01655 9.56495 7.92285 13.5 7.92285C17.435 7.92285 20.6249 9.01655 20.6249 10.3657Z" fill="#1B2D59"/>
<path d="M13.5 14.2564C15.5745 14.2564 17.527 14.0063 19.0159 13.535C19.2766 13.4525 19.5349 13.3595 19.7851 13.2543C20.1652 13.0945 20.6249 13.3589 20.6249 13.7714V14.6523C20.6249 15.8398 18.2891 17.4231 13.5 17.4231C8.71082 17.4231 6.375 15.8398 6.375 14.6523V13.7714C6.375 13.3589 6.83467 13.0945 7.21484 13.2543C7.46499 13.3595 7.72335 13.4525 7.98403 13.535C9.47288 14.0063 11.4254 14.2564 13.5 14.2564Z" fill="#1B2D59"/>
</g>
<rect x="0.418195" y="1.04808" width="27.0436" height="27.0436" rx="7.83771" stroke="#9FABC8" stroke-width="0.836391"/>
</g>
<defs>
<clipPath id="clip0_2313_59174">
<rect y="0.629883" width="27.88" height="27.88" rx="8.25591" fill="white"/>
</clipPath>
</defs>
</svg>
