<svg width="28" height="29" viewBox="0 0 28 29" fill="none" xmlns="http://www.w3.org/2000/svg">
<g clip-path="url(#clip0_2313_59185)">
<rect opacity="0.8" x="0.42" y="0.724687" width="27.04" height="27.04" rx="6.46" fill="#F2F5FD" stroke="#9FABC8" stroke-width="0.84"/>
<path d="M16 15.2891L13.75 13.7891V10.0391M7 13.7891C7 14.6755 7.17459 15.5532 7.51381 16.3722C7.85303 17.1911 8.35023 17.9352 8.97703 18.562C9.60382 19.1888 10.3479 19.686 11.1669 20.0252C11.9858 20.3645 12.8636 20.5391 13.75 20.5391C14.6364 20.5391 15.5142 20.3645 16.3331 20.0252C17.1521 19.686 17.8962 19.1888 18.523 18.562C19.1498 17.9352 19.647 17.1911 19.9862 16.3722C20.3254 15.5532 20.5 14.6755 20.5 13.7891C20.5 12.9026 20.3254 12.0249 19.9862 11.2059C19.647 10.387 19.1498 9.64289 18.523 9.01609C17.8962 8.3893 17.1521 7.8921 16.3331 7.55288C15.5142 7.21366 14.6364 7.03906 13.75 7.03906C12.8636 7.03906 11.9858 7.21366 11.1669 7.55288C10.3479 7.8921 9.60382 8.3893 8.97703 9.01609C8.35023 9.64289 7.85303 10.387 7.51381 11.2059C7.17459 12.0249 7 12.9026 7 13.7891Z" stroke="#1B2D59" stroke-width="1.5" stroke-linecap="round" stroke-linejoin="round"/>
</g>
<defs>
<clipPath id="clip0_2313_59185">
<rect y="0.304688" width="27.88" height="27.88" rx="6.88" fill="white"/>
</clipPath>
</defs>
</svg>
