<svg width="28" height="28" viewBox="0 0 28 28" fill="none" xmlns="http://www.w3.org/2000/svg">
<g clip-path="url(#clip0_2313_59179)">
<rect opacity="0.8" x="0.418195" y="0.448469" width="27.0436" height="27.0436" rx="7.83771" fill="#F2F5FD" stroke="#9FABC8" stroke-width="0.836391"/>
<path d="M13.5 17.322C13.2733 17.322 13.0831 17.2452 12.9294 17.0916C12.7758 16.9379 12.6992 16.748 12.6997 16.5217V10.7996L11.1992 12.3002C11.0391 12.4602 10.8524 12.5403 10.639 12.5403C10.4256 12.5403 10.2322 12.4536 10.0588 12.2802C9.8987 12.1201 9.82214 11.9302 9.82908 11.7104C9.83601 11.4905 9.91257 11.307 10.0588 11.1598L12.9398 8.27868C13.0199 8.19865 13.1066 8.14209 13.1999 8.10901C13.2933 8.07593 13.3933 8.05913 13.5 8.05859C13.6068 8.05859 13.7068 8.0754 13.8002 8.10901C13.8935 8.14262 13.9802 8.19918 14.0603 8.27868L16.9413 11.1598C17.1014 11.3198 17.1782 11.51 17.1718 11.7304C17.1654 11.9507 17.0886 12.134 16.9413 12.2802C16.7813 12.4402 16.5911 12.5237 16.3707 12.5307C16.1504 12.5376 15.9604 12.4608 15.8009 12.3002L14.3003 10.7996V16.5217C14.3003 16.7485 14.2235 16.9387 14.0699 17.0924C13.9162 17.246 13.7263 17.3226 13.5 17.322ZM8.69825 20.5232C8.25809 20.5232 7.88115 20.3664 7.56743 20.0527C7.25372 19.7389 7.09712 19.3623 7.09766 18.9226V17.322C7.09766 17.0953 7.17449 16.9051 7.32814 16.7514C7.4818 16.5978 7.67174 16.5212 7.89796 16.5217C8.12471 16.5217 8.31491 16.5986 8.46857 16.7522C8.62223 16.9059 8.69879 17.0958 8.69825 17.322V18.9226H18.3018V17.322C18.3018 17.0953 18.3787 16.9051 18.5323 16.7514C18.686 16.5978 18.8759 16.5212 19.1021 16.5217C19.3289 16.5217 19.5191 16.5986 19.6727 16.7522C19.8264 16.9059 19.903 17.0958 19.9024 17.322V18.9226C19.9024 19.3628 19.7456 19.7397 19.4319 20.0535C19.1181 20.3672 18.7415 20.5238 18.3018 20.5232H8.69825Z" fill="#1B2D59"/>
</g>
<defs>
<clipPath id="clip0_2313_59179">
<rect y="0.0302734" width="27.88" height="27.88" rx="6.88" fill="white"/>
</clipPath>
</defs>
</svg>
