<svg width="28" height="29" viewBox="0 0 28 29" fill="none" xmlns="http://www.w3.org/2000/svg">
<g clip-path="url(#clip0_2313_59186)">
<rect opacity="0.8" x="0.42" y="0.605547" width="27.04" height="27.04" rx="6.46" fill="#F2F5FD" stroke="#9FABC8" stroke-width="0.84"/>
<path d="M11 15.2643C10.7829 15.2643 10.5716 15.335 10.3982 15.4657C10.2248 15.5964 10.0986 15.7799 10.0387 15.9887C9.97889 16.1974 9.98859 16.4199 10.0664 16.6226C10.1442 16.8254 10.2859 16.9973 10.47 17.1123L13.157 19.8003C13.2499 19.8932 13.3602 19.9668 13.4816 20.017C13.6029 20.0673 13.733 20.0931 13.8644 20.093C13.9957 20.093 14.1258 20.0671 14.2471 20.0168C14.3684 19.9665 14.4787 19.8928 14.5715 19.7998C14.6643 19.7069 14.738 19.5966 14.7882 19.4753C14.8384 19.3539 14.8642 19.2238 14.8642 19.0925C14.8642 18.9611 14.8382 18.8311 14.7879 18.7098C14.7376 18.5884 14.6639 18.4782 14.571 18.3853L13.451 17.2653L21 17.2653C21.2652 17.2653 21.5196 17.16 21.7071 16.9725C21.8946 16.7849 22 16.5306 22 16.2653C22 16.0001 21.8946 15.7458 21.7071 15.5582C21.5196 15.3707 21.2652 15.2653 21 15.2653L11 15.2643ZM17 13.2963C17.2171 13.2963 17.4284 13.2257 17.6018 13.095C17.7752 12.9643 17.9014 12.7808 17.9613 12.572C18.0211 12.3633 18.0114 12.1408 17.9336 11.938C17.8558 11.7353 17.7141 11.5634 17.53 11.4483L14.843 8.76134C14.7508 8.66583 14.6404 8.58965 14.5184 8.53724C14.3964 8.48483 14.2652 8.45725 14.1324 8.45609C13.9996 8.45494 13.8679 8.48024 13.745 8.53052C13.6221 8.5808 13.5105 8.65505 13.4166 8.74895C13.3227 8.84284 13.2485 8.95449 13.1982 9.07739C13.1479 9.20028 13.1226 9.33196 13.1237 9.46474C13.1249 9.59752 13.1525 9.72874 13.2049 9.85075C13.2573 9.97275 13.3335 10.0831 13.429 10.1753L14.549 11.2963L7 11.2963C6.73478 11.2963 6.48043 11.4017 6.29289 11.5892C6.10536 11.7768 6 12.0311 6 12.2963C6 12.5616 6.10536 12.8159 6.29289 13.0034C6.48043 13.191 6.73478 13.2963 7 13.2963L17 13.2963Z" fill="#1B2D59"/>
</g>
<defs>
<clipPath id="clip0_2313_59186">
<rect y="0.185547" width="27.88" height="27.88" rx="6.88" fill="white"/>
</clipPath>
</defs>
</svg>
