<svg width="28" height="29" viewBox="0 0 28 29" fill="none" xmlns="http://www.w3.org/2000/svg">
<g clip-path="url(#clip0_2313_59182)">
<rect opacity="0.8" x="0.418195" y="1.08812" width="27.0386" height="27.0386" rx="7.83771" fill="#F2F5FD" stroke="#9FABC8" stroke-width="0.836391"/>
<path d="M17.5745 18.7124C17.4326 18.8544 17.255 18.9254 17.0418 18.9254C16.8286 18.9254 16.6448 18.848 16.4905 18.6931C16.3356 18.5382 16.2582 18.3545 16.2582 18.1418C16.2582 17.9291 16.3356 17.7451 16.4905 17.5897L19.4909 14.5893L16.4711 11.5695C16.3292 11.4275 16.2613 11.2502 16.2675 11.0375C16.2737 10.8249 16.348 10.6473 16.4905 10.5048C16.6325 10.3629 16.8131 10.2919 17.0325 10.2919C17.2519 10.2919 17.4326 10.3629 17.5745 10.5048L21.1363 14.0666C21.2912 14.2215 21.3686 14.4021 21.3686 14.6086C21.3686 14.8151 21.2912 14.9958 21.1363 15.1506L17.5745 18.7124ZM10.2961 18.7124L6.73424 15.1506C6.57938 14.9958 6.50195 14.8151 6.50195 14.6086C6.50195 14.4021 6.57938 14.2215 6.73424 14.0666L10.2961 10.5048C10.438 10.3629 10.6187 10.2888 10.8381 10.2826C11.0575 10.2764 11.2446 10.3505 11.3994 10.5048C11.5543 10.6597 11.6317 10.8437 11.6317 11.0569C11.6317 11.2701 11.5543 11.4539 11.3994 11.6082L8.37964 14.628L11.3994 17.6478C11.5414 17.7897 11.6093 17.9673 11.6031 18.1805C11.5969 18.3937 11.5226 18.571 11.3801 18.7124C11.2381 18.8544 11.0575 18.9254 10.8381 18.9254C10.6187 18.9254 10.438 18.8544 10.2961 18.7124Z" fill="#1B2D59"/>
</g>
<defs>
<clipPath id="clip0_2313_59182">
<rect y="0.669922" width="27.875" height="27.875" rx="6.88" fill="white"/>
</clipPath>
</defs>
</svg>
