<svg width="28" height="29" viewBox="0 0 28 29" fill="none" xmlns="http://www.w3.org/2000/svg">
<g clip-path="url(#clip0_2313_59177)">
<rect opacity="0.8" x="0.418195" y="0.687727" width="27.0436" height="27.0436" rx="7.83771" fill="#F2F5FD" stroke="#9FABC8" stroke-width="0.836391"/>
<path d="M20.8978 12.1382L15.1802 17.8558C15.0271 18.0088 14.8195 18.0947 14.603 18.0947C14.3866 18.0947 14.179 18.0088 14.0258 17.8558L11.3358 15.1658L8.3736 18.1281C8.21867 18.2723 8.01387 18.3508 7.80224 18.3472C7.59062 18.3435 7.38865 18.258 7.2388 18.1085C7.08933 17.9586 7.00378 17.7567 7.00012 17.545C6.99647 17.3334 7.07499 17.1286 7.21919 16.9737L10.7586 13.4342C10.9118 13.2813 11.1194 13.1954 11.3358 13.1954C11.5523 13.1954 11.7599 13.2813 11.9131 13.4342L14.603 16.1242L19.7434 10.9838C19.8983 10.8396 20.1031 10.7611 20.3148 10.7648C20.5264 10.7684 20.7284 10.854 20.8782 11.0034C21.0277 11.1533 21.1132 11.3553 21.1169 11.5669C21.1205 11.7785 21.042 11.9833 20.8978 12.1382Z" fill="#1B2D59"/>
</g>
<defs>
<clipPath id="clip0_2313_59177">
<rect y="0.269531" width="27.88" height="27.88" rx="6.88" fill="white"/>
</clipPath>
</defs>
</svg>
