<svg width="57" height="57" viewBox="0 0 57 57" fill="none" xmlns="http://www.w3.org/2000/svg">
<rect width="57" height="57" rx="28.5" fill="white"/>
<path d="M44.8895 12.5293V24.7254L9.00006 39.1365L44.8895 12.5293Z" fill="#00C9FF"/>
<path d="M38.1612 12V33.0392C38.1612 35.9793 36.9795 38.799 34.8761 40.878C32.7727 42.9571 29.9198 44.125 26.9451 44.125C23.9704 44.125 21.1175 42.9571 19.0141 40.878C16.9106 38.799 15.7289 35.9793 15.7289 33.0392V24.1738L22.4575 20.5139V33.0392C22.3945 33.5858 22.4491 34.1394 22.6176 34.6638C22.7862 35.1882 23.0648 35.6713 23.4355 36.0818C23.8062 36.4923 24.2604 36.8207 24.7684 37.0456C25.2764 37.2704 25.8268 37.3867 26.3835 37.3867C26.9401 37.3867 27.4905 37.2704 27.9985 37.0456C28.5065 36.8207 28.9607 36.4923 29.3313 36.0818C29.702 35.6713 29.9808 35.1882 30.1493 34.6638C30.3179 34.1394 30.3724 33.5858 30.3094 33.0392V16.2458L38.1612 12Z" fill="#0D67FE"/>
</svg>
