<svg width="28" height="29" viewBox="0 0 28 29" fill="none" xmlns="http://www.w3.org/2000/svg">
<g clip-path="url(#clip0_2342_49575)">
<rect x="0.480368" y="1.11824" width="27.04" height="27.04" rx="6.46" fill="#F2F5FD" stroke="#9FABC8" stroke-width="0.84"/>
<path d="M18.4589 15.0331C18.1501 15.3346 17.9736 15.7684 18.0177 16.2317C18.0839 17.0259 18.8119 17.6069 19.6061 17.6069H21.0034V18.482C21.0034 20.0043 19.7606 21.2471 18.2383 21.2471H10.8036C11.0316 21.0559 11.2301 20.8205 11.3845 20.5558C11.6566 20.1146 11.8111 19.5924 11.8111 19.0409C11.8111 17.4157 10.4947 16.0994 8.86952 16.0994C8.17826 16.0994 7.53847 16.342 7.03106 16.7465V13.5329C7.03106 12.0106 8.27386 10.7678 9.79611 10.7678H18.2383C19.7606 10.7678 21.0034 12.0106 21.0034 13.5329V14.5918H19.5179C19.1061 14.5918 18.731 14.7536 18.4589 15.0331Z" stroke="#1B2D59" stroke-width="0.935142" stroke-linecap="round" stroke-linejoin="round"/>
<path d="M7.03106 14.1951V10.8344C7.03106 9.95928 7.56789 9.17975 8.38417 8.87088L14.2231 6.66473C15.135 6.3191 16.1131 6.99567 16.1131 7.97374V10.7682" stroke="#1B2D59" stroke-width="0.935142" stroke-linecap="round" stroke-linejoin="round"/>
<path d="M21.7826 15.3426V16.8575C21.7826 17.262 21.459 17.5929 21.0472 17.6076H19.6058C18.8116 17.6076 18.0836 17.0267 18.0174 16.2324C17.9733 15.7691 18.1498 15.3353 18.4586 15.0338C18.7307 14.7543 19.1058 14.5925 19.5176 14.5925H21.0472C21.459 14.6072 21.7826 14.9382 21.7826 15.3426Z" stroke="#1B2D59" stroke-width="0.935142" stroke-linecap="round" stroke-linejoin="round"/>
<path d="M11.8113 19.0409C11.8113 19.5924 11.6569 20.1146 11.3848 20.5558C11.2304 20.8205 11.0318 21.0559 10.8039 21.2471C10.2891 21.7104 9.61255 21.9824 8.86981 21.9824C7.79614 21.9824 6.86221 21.4088 6.35479 20.5558C6.0827 20.1146 5.92827 19.5924 5.92827 19.0409C5.92827 18.1143 6.35479 17.2833 7.03134 16.7465C7.53876 16.342 8.17854 16.0994 8.86981 16.0994C10.495 16.0994 11.8113 17.4157 11.8113 19.0409Z" stroke="#1B2D59" stroke-width="0.935142" stroke-miterlimit="10" stroke-linecap="round" stroke-linejoin="round"/>
<path d="M9.65666 19.8056L8.09764 18.2539" stroke="#1B2D59" stroke-width="0.935142" stroke-miterlimit="10" stroke-linecap="round" stroke-linejoin="round"/>
<path d="M9.64157 18.2761L8.08256 19.8277" stroke="#1B2D59" stroke-width="0.935142" stroke-miterlimit="10" stroke-linecap="round" stroke-linejoin="round"/>
</g>
<defs>
<clipPath id="clip0_2342_49575">
<rect x="0.0599365" y="0.698242" width="27.88" height="27.88" rx="6.88" fill="white"/>
</clipPath>
</defs>
</svg>
