<svg width="24" height="24" viewBox="0 0 24 24" fill="none" xmlns="http://www.w3.org/2000/svg">
<path d="M19.6471 16.7059C19.6471 16.3791 19.5327 16.1013 19.3039 15.8725L16.7549 13.3235C16.5261 13.0948 16.2484 12.9804 15.9216 12.9804C15.5784 12.9804 15.2843 13.1111 15.0392 13.3725C15.0637 13.3971 15.1413 13.4726 15.2721 13.5993C15.4028 13.7259 15.4906 13.8137 15.5355 13.8627C15.5805 13.9118 15.6417 13.9894 15.7194 14.0956C15.797 14.2018 15.8501 14.306 15.8787 14.4081C15.9073 14.5102 15.9216 14.6225 15.9216 14.7451C15.9216 15.0719 15.8072 15.3497 15.5784 15.5784C15.3497 15.8072 15.0719 15.9216 14.7451 15.9216C14.6225 15.9216 14.5102 15.9073 14.4081 15.8787C14.306 15.8501 14.2018 15.797 14.0956 15.7194C13.9894 15.6417 13.9118 15.5805 13.8627 15.5355C13.8137 15.4906 13.7259 15.4028 13.5993 15.2721C13.4726 15.1413 13.3971 15.0637 13.3725 15.0392C13.1029 15.2925 12.9681 15.5907 12.9681 15.9338C12.9681 16.2606 13.0825 16.5384 13.3113 16.7672L15.8358 19.3039C16.0564 19.5245 16.3342 19.6348 16.6691 19.6348C16.9959 19.6348 17.2737 19.5286 17.5025 19.3162L19.3039 17.527C19.5327 17.2982 19.6471 17.0245 19.6471 16.7059ZM11.0319 8.06618C11.0319 7.73938 10.9175 7.4616 10.6887 7.23284L8.16422 4.69608C7.93546 4.46732 7.65768 4.35294 7.33088 4.35294C7.01226 4.35294 6.73448 4.46324 6.49755 4.68382L4.69608 6.47304C4.46732 6.7018 4.35294 6.97549 4.35294 7.29412C4.35294 7.62091 4.46732 7.89869 4.69608 8.12745L7.2451 10.6765C7.46569 10.8971 7.74346 11.0074 8.07843 11.0074C8.42157 11.0074 8.71569 10.8807 8.96078 10.6275C8.93627 10.6029 8.85866 10.5274 8.72794 10.4007C8.59722 10.2741 8.5094 10.1863 8.46446 10.1373C8.41953 10.0882 8.35825 10.0106 8.28064 9.90441C8.20302 9.7982 8.14992 9.69404 8.12132 9.59191C8.09273 9.48979 8.07843 9.37745 8.07843 9.2549C8.07843 8.9281 8.19281 8.65033 8.42157 8.42157C8.65033 8.19281 8.9281 8.07843 9.2549 8.07843C9.37745 8.07843 9.48979 8.09273 9.59191 8.12132C9.69404 8.14992 9.7982 8.20302 9.90441 8.28064C10.0106 8.35825 10.0882 8.41953 10.1373 8.46446C10.1863 8.5094 10.2741 8.59722 10.4007 8.72794C10.5274 8.85866 10.6029 8.93627 10.6275 8.96078C10.8971 8.70752 11.0319 8.40931 11.0319 8.06618ZM22 16.7059C22 17.6863 21.6528 18.5155 20.9583 19.1936L19.1569 20.9828C18.4788 21.6609 17.6495 22 16.6691 22C15.6806 22 14.8472 21.6528 14.1691 20.9583L11.6446 18.4216C10.9665 17.7435 10.6275 16.9142 10.6275 15.9338C10.6275 14.9289 10.9869 14.0752 11.7059 13.3725L10.6275 12.2941C9.92484 13.0131 9.07516 13.3725 8.07843 13.3725C7.09804 13.3725 6.26471 13.0294 5.57843 12.3431L3.02941 9.79412C2.34314 9.10784 2 8.27451 2 7.29412C2 6.31373 2.34722 5.48448 3.04167 4.80637L4.84314 3.01716C5.52124 2.33905 6.35049 2 7.33088 2C8.31944 2 9.15278 2.34722 9.83088 3.04167L12.3554 5.57843C13.0335 6.25654 13.3725 7.08578 13.3725 8.06618C13.3725 9.07108 13.0131 9.92484 12.2941 10.6275L13.3725 11.7059C14.0752 10.9869 14.9248 10.6275 15.9216 10.6275C16.902 10.6275 17.7353 10.9706 18.4216 11.6569L20.9706 14.2059C21.6569 14.8922 22 15.7255 22 16.7059Z" fill="#F7F7F7"/>
</svg>
