<svg width="25" height="24" viewBox="0 0 25 24" fill="none" xmlns="http://www.w3.org/2000/svg">
<path fill-rule="evenodd" clip-rule="evenodd" d="M2.55903 12.3948C2.74406 11.8744 3.31589 11.6025 3.83626 11.7876L11.8312 14.6302C12.2646 14.7843 12.7379 14.7843 13.1713 14.6302L21.1662 11.7876C21.6866 11.6025 22.2584 11.8744 22.4435 12.3948C22.6285 12.9151 22.3566 13.487 21.8363 13.672L13.8413 16.5146C12.9745 16.8228 12.028 16.8228 11.1612 16.5146L3.16624 13.672C2.64587 13.487 2.37401 12.9151 2.55903 12.3948Z" fill="white"/>
<path fill-rule="evenodd" clip-rule="evenodd" d="M2.55903 16.6445C2.74406 16.1241 3.31589 15.8523 3.83626 16.0373L11.8312 18.88C12.2646 19.0341 12.7379 19.0341 13.1713 18.88L21.1662 16.0373C21.6866 15.8523 22.2584 16.1241 22.4435 16.6445C22.6285 17.1649 22.3566 17.7367 21.8363 17.9217L13.8413 20.7644C12.9745 21.0726 12.028 21.0726 11.1612 20.7644L3.16624 17.9217C2.64587 17.7367 2.37401 17.1649 2.55903 16.6445Z" fill="white"/>
<path d="M14.2091 3.30787C13.1053 2.90649 11.8955 2.90649 10.7917 3.30787L3.74309 5.871C1.98774 6.5093 1.98773 8.99186 3.74309 9.63017L10.7917 12.1933C11.8955 12.5947 13.1053 12.5947 14.2091 12.1933L21.2577 9.63017C23.0131 8.99186 23.0131 6.50931 21.2577 5.871L14.2091 3.30787Z" fill="white"/>
</svg>
