<svg width="201" height="201" viewBox="0 0 201 201" fill="none" xmlns="http://www.w3.org/2000/svg">
<rect y="0.00976562" width="200.33" height="200.33" rx="100.165" fill="url(#paint0_linear_1679_24745)"/>
<g clip-path="url(#clip0_1679_24745)">
<g filter="url(#filter0_d_1679_24745)">
<path d="M146.571 128.733C146.571 126.75 145.877 125.064 144.489 123.676L129.02 108.207C127.632 106.819 125.946 106.125 123.963 106.125C121.88 106.125 120.095 106.918 118.608 108.504C118.757 108.653 119.228 109.112 120.021 109.88C120.814 110.649 121.347 111.182 121.62 111.479C121.893 111.777 122.265 112.248 122.736 112.892C123.207 113.537 123.529 114.169 123.702 114.789C123.876 115.408 123.963 116.09 123.963 116.834C123.963 118.817 123.269 120.503 121.88 121.891C120.492 123.279 118.806 123.973 116.823 123.973C116.079 123.973 115.398 123.887 114.778 123.713C114.158 123.54 113.526 123.217 112.882 122.746C112.237 122.275 111.766 121.903 111.469 121.631C111.171 121.358 110.638 120.825 109.87 120.032C109.101 119.239 108.642 118.768 108.494 118.619C106.858 120.156 106.04 121.965 106.04 124.048C106.04 126.031 106.734 127.717 108.122 129.105L123.442 144.499C124.781 145.838 126.466 146.507 128.499 146.507C130.482 146.507 132.168 145.863 133.556 144.574L144.489 133.716C145.877 132.328 146.571 130.667 146.571 128.733ZM94.2891 76.3023C94.2891 74.3191 93.595 72.6334 92.2067 71.2452L76.8866 55.8506C75.4983 54.4624 73.8126 53.7683 71.8294 53.7683C69.8958 53.7683 68.2101 54.4376 66.7722 55.7763L55.8399 66.6343C54.4516 68.0225 53.7575 69.6834 53.7575 71.617C53.7575 73.6002 54.4516 75.2859 55.8399 76.6742L71.3088 92.1431C72.6475 93.4818 74.3332 94.1511 76.366 94.1511C78.4483 94.1511 80.2332 93.3826 81.7206 91.8456C81.5718 91.6969 81.1008 91.2383 80.3076 90.4698C79.5143 89.7013 78.9813 89.1683 78.7086 88.8708C78.4359 88.5734 78.0641 88.1023 77.5931 87.4578C77.1221 86.8133 76.7998 86.1811 76.6263 85.5614C76.4527 84.9416 76.366 84.2599 76.366 83.5162C76.366 81.533 77.0601 79.8473 78.4483 78.4591C79.8366 77.0708 81.5223 76.3767 83.5055 76.3767C84.2492 76.3767 84.9309 76.4635 85.5506 76.637C86.1704 76.8105 86.8025 77.1328 87.4471 77.6038C88.0916 78.0748 88.5626 78.4467 88.8601 78.7194C89.1576 78.992 89.6906 79.525 90.459 80.3183C91.2275 81.1116 91.6861 81.5826 91.8349 81.7313C93.471 80.1944 94.2891 78.3847 94.2891 76.3023ZM160.85 128.733C160.85 134.683 158.743 139.715 154.529 143.83L143.596 154.688C139.481 158.803 134.449 160.861 128.499 160.861C122.5 160.861 117.443 158.754 113.328 154.539L98.0076 139.145C93.8925 135.03 91.8349 129.997 91.8349 124.048C91.8349 117.949 94.0164 112.768 98.3794 108.504L91.8349 101.96C87.571 106.323 82.4147 108.504 76.366 108.504C70.4164 108.504 65.3592 106.422 61.1945 102.257L45.7256 86.7885C41.5609 82.6238 39.4785 77.5666 39.4785 71.617C39.4785 65.6674 41.5857 60.6351 45.8 56.52L56.7323 45.662C60.8475 41.5468 65.8798 39.4893 71.8294 39.4893C77.8286 39.4893 82.8857 41.5964 87.0008 45.8107L102.321 61.2053C106.436 65.3204 108.494 70.3527 108.494 76.3023C108.494 82.4007 106.312 87.5818 101.949 91.8456L108.494 98.3902C112.758 94.0271 117.914 91.8456 123.963 91.8456C129.912 91.8456 134.969 93.928 139.134 98.0927L154.603 113.562C158.768 117.726 160.85 122.783 160.85 128.733Z" fill="#F7F7F7"/>
</g>
</g>
<defs>
<filter id="filter0_d_1679_24745" x="25.3376" y="39.4893" width="140.226" height="140.227" filterUnits="userSpaceOnUse" color-interpolation-filters="sRGB">
<feFlood flood-opacity="0" result="BackgroundImageFix"/>
<feColorMatrix in="SourceAlpha" type="matrix" values="0 0 0 0 0 0 0 0 0 0 0 0 0 0 0 0 0 0 127 0" result="hardAlpha"/>
<feOffset dx="-4.71365" dy="9.4273"/>
<feGaussianBlur stdDeviation="4.71365"/>
<feComposite in2="hardAlpha" operator="out"/>
<feColorMatrix type="matrix" values="0 0 0 0 0 0 0 0 0 0 0 0 0 0 0 0 0 0 0.25 0"/>
<feBlend mode="normal" in2="BackgroundImageFix" result="effect1_dropShadow_1679_24745"/>
<feBlend mode="normal" in="SourceGraphic" in2="effect1_dropShadow_1679_24745" result="shape"/>
</filter>
<linearGradient id="paint0_linear_1679_24745" x1="-3.06336e-07" y1="119.16" x2="200.329" y2="119.56" gradientUnits="userSpaceOnUse">
<stop stop-color="#197CEC"/>
<stop offset="0.787639" stop-color="#004AD9"/>
</linearGradient>
<clipPath id="clip0_1679_24745">
<rect width="143.709" height="143.709" fill="white" transform="translate(28.3105 28.3203)"/>
</clipPath>
</defs>
</svg>
