<svg width="1175" height="797" viewBox="0 0 1175 797" fill="none" xmlns="http://www.w3.org/2000/svg">
<g clip-path="url(#clip0_2209_34817)">
<rect width="1175" height="799" transform="matrix(1 0 0 -1 0 799)" fill="url(#paint0_linear_2209_34817)"/>
<g filter="url(#filter0_f_2209_34817)">
<path d="M296.579 -142.145C170.816 -25.8551 26.3358 21.7085 186.364 194.771C346.392 367.833 578.071 413.856 703.833 297.566C829.595 181.276 1035.84 23.8068 875.813 -149.256C715.785 -322.318 422.341 -258.436 296.579 -142.145Z" fill="url(#paint1_linear_2209_34817)"/>
</g>
<g style="mix-blend-mode:color-dodge" opacity="0.17">
<line y1="-0.634055" x2="1520.46" y2="-0.634055" transform="matrix(1 -4.37114e-08 -4.37114e-08 -1 -227.73 87.002)" stroke="#C7C7C8" stroke-width="1.26811"/>
<line y1="-0.634055" x2="1520.46" y2="-0.634055" transform="matrix(1 -4.37114e-08 -4.37114e-08 -1 -227.73 239.175)" stroke="#C7C7C8" stroke-width="1.26811"/>
<line y1="-0.634055" x2="1520.46" y2="-0.634055" transform="matrix(1 -4.22896e-08 -4.5181e-08 -1 -227.73 391.348)" stroke="#C7C7C8" stroke-width="1.26811"/>
<line y1="-0.634055" x2="1520.46" y2="-0.634055" transform="matrix(1 -4.22896e-08 -4.5181e-08 -1 -227.73 543.521)" stroke="#C7C7C8" stroke-width="1.26811"/>
<line y1="-0.634055" x2="1520.46" y2="-0.634055" transform="matrix(1 -4.22896e-08 -4.5181e-08 -1 -227.73 695.695)" stroke="#C7C7C8" stroke-width="1.26811"/>
</g>
<g style="mix-blend-mode:color-dodge" opacity="0.17">
<line y1="-0.634055" x2="1471.01" y2="-0.634055" transform="matrix(-4.37114e-08 -1 -1 4.37114e-08 75.3477 1035.55)" stroke="#C7C7C8" stroke-width="1.26811"/>
<line y1="-0.634055" x2="1471.01" y2="-0.634055" transform="matrix(-4.37114e-08 -1 -1 4.37114e-08 227.52 1035.55)" stroke="#C7C7C8" stroke-width="1.26811"/>
<line y1="-0.634055" x2="1471.01" y2="-0.634055" transform="matrix(-4.37114e-08 -1 -1 4.37114e-08 379.691 1035.55)" stroke="#C7C7C8" stroke-width="1.26811"/>
<line y1="-0.634055" x2="1471.01" y2="-0.634055" transform="matrix(-4.37114e-08 -1 -1 4.37114e-08 531.867 1035.55)" stroke="#C7C7C8" stroke-width="1.26811"/>
<line y1="-0.634055" x2="1471.01" y2="-0.634055" transform="matrix(-4.37114e-08 -1 -1 4.37114e-08 684.039 1035.55)" stroke="#C7C7C8" stroke-width="1.26811"/>
<line y1="-0.634055" x2="1471.01" y2="-0.634055" transform="matrix(-4.37114e-08 -1 -1 4.37114e-08 836.211 1035.55)" stroke="#C7C7C8" stroke-width="1.26811"/>
<line y1="-0.634055" x2="1471.01" y2="-0.634055" transform="matrix(-4.37114e-08 -1 -1 4.37114e-08 988.387 1035.55)" stroke="url(#paint2_linear_2209_34817)" stroke-width="1.26811"/>
<line y1="-0.634055" x2="1471.01" y2="-0.634055" transform="matrix(-4.37114e-08 -1 -1 4.37114e-08 1140.56 1035.55)" stroke="#5A5A5A" stroke-width="1.26811"/>
</g>
<g filter="url(#filter1_f_2209_34817)">
<path d="M368.579 -94.3439C242.816 21.9464 98.3358 69.51 258.364 242.573C418.392 415.635 650.071 461.658 775.833 345.368C901.595 229.077 1107.84 71.6083 947.813 -101.454C787.785 -274.517 494.341 -210.634 368.579 -94.3439Z" fill="url(#paint3_linear_2209_34817)"/>
</g>
<g filter="url(#filter2_f_2209_34817)">
<path d="M-50.7509 221.347C-207.163 365.979 -403.18 407.48 -143.236 688.596C116.707 969.712 454.23 1080.35 610.641 935.723C767.053 791.092 1029.87 602.067 769.927 320.951C509.984 39.8353 105.661 76.716 -50.7509 221.347Z" fill="url(#paint4_linear_2209_34817)"/>
</g>
<g filter="url(#filter3_f_2209_34817)">
<path d="M355.249 569.347C198.837 713.979 2.82037 755.48 262.764 1036.6C522.707 1317.71 860.23 1428.35 1016.64 1283.72C1173.05 1139.09 1435.87 950.067 1175.93 668.951C915.984 387.835 511.661 424.716 355.249 569.347Z" fill="url(#paint5_linear_2209_34817)"/>
</g>
<line x1="0.5" y1="-0.5" x2="188.5" y2="-0.5" transform="matrix(1 -8.74228e-08 -8.74228e-08 -1 89 87.6553)" stroke="url(#paint6_linear_2209_34817)" stroke-linecap="round"/>
<path d="M836.711 145.031L836.711 279.065" stroke="url(#paint7_linear_2209_34817)" stroke-linecap="round"/>
<g filter="url(#filter4_f_2209_34817)">
<path d="M1431.54 482.632C1223.43 249.513 821.232 516.192 1156.91 673.955C1156.91 935.323 1280.06 1147.2 1431.97 1147.2C1583.89 1147.2 1813 1174.27 1813 912.9C1813 651.532 1729.84 698.597 1431.54 482.632Z" fill="url(#paint8_linear_2209_34817)"/>
</g>
<g filter="url(#filter5_f_2209_34817)">
<path d="M-218.457 -27.3683C-426.566 -260.487 -828.768 6.19169 -493.089 163.955C-493.089 425.323 -369.94 637.203 -218.027 637.203C-66.1147 637.203 163 664.267 163 402.9C163 141.532 79.8443 188.597 -218.457 -27.3683Z" fill="url(#paint9_linear_2209_34817)"/>
</g>
<path d="M123.902 62.7965C124.262 62.8905 124.611 62.974 124.942 63.0479C124.611 63.1217 124.262 63.2052 123.902 63.2992C121.791 63.8506 119.212 64.7882 117.66 66.3405C116.108 67.8928 115.17 70.4721 114.619 72.5826C114.525 72.9422 114.441 73.2913 114.367 73.6232C114.293 73.2913 114.21 72.9422 114.116 72.5826C113.564 70.4721 112.627 67.8928 111.075 66.3405C109.522 64.7882 106.943 63.8506 104.832 63.2992C104.473 63.2052 104.124 63.1217 103.792 63.0479C104.124 62.974 104.473 62.8905 104.832 62.7965C106.943 62.2451 109.522 61.3075 111.075 59.7552C112.627 58.2029 113.564 55.6236 114.116 53.5131C114.21 53.1535 114.293 52.8044 114.367 52.4725C114.441 52.8044 114.525 53.1535 114.619 53.5131C115.17 55.6236 116.108 58.2029 117.66 59.7552C119.212 61.3075 121.791 62.2451 123.902 62.7965Z" stroke="white"/>
<path d="M262.808 122.825C263.126 122.909 263.435 122.982 263.729 123.048C263.435 123.113 263.126 123.187 262.808 123.27C260.939 123.759 258.656 124.589 257.281 125.963C255.907 127.337 255.077 129.621 254.589 131.489C254.506 131.808 254.432 132.117 254.366 132.411C254.301 132.117 254.227 131.808 254.144 131.489C253.655 129.621 252.825 127.337 251.451 125.963C250.077 124.589 247.793 123.759 245.925 123.27C245.606 123.187 245.297 123.113 245.003 123.048C245.297 122.982 245.606 122.909 245.925 122.825C247.793 122.337 250.077 121.507 251.451 120.133C252.825 118.758 253.655 116.475 254.144 114.606C254.227 114.288 254.301 113.979 254.366 113.685C254.432 113.979 254.506 114.288 254.589 114.606C255.077 116.475 255.907 118.758 257.281 120.133C258.656 121.507 260.939 122.337 262.808 122.825Z" stroke="white" stroke-width="0.885344"/>
<path d="M1043.54 149.548C1043.54 149.548 1044.28 156.5 1047.19 159.402C1050.09 162.303 1057.04 163.048 1057.04 163.048C1057.04 163.048 1050.09 163.793 1047.19 166.694C1044.28 169.595 1043.54 176.548 1043.54 176.548C1043.54 176.548 1042.79 169.595 1039.89 166.694C1036.99 163.793 1030.04 163.048 1030.04 163.048C1030.04 163.048 1036.99 162.303 1039.89 159.402C1042.79 156.5 1043.54 149.548 1043.54 149.548Z" fill="white"/>
<g filter="url(#filter6_f_2209_34817)">
<path d="M869.969 67.1069L872.001 89.5L888.758 76.1553L873.501 92L893.398 96.4868L873.001 93.5L880.396 112.791L870.501 95L859.542 112.791L868.001 93.5L846.539 96.4868L867.501 91.5L851.18 76.1553L869.001 89.5L869.969 67.1069Z" fill="#D9D9D9"/>
</g>
<path d="M869.969 67.1069L872.001 89.5L888.758 76.1553L873.501 92L893.398 96.4868L873.001 93.5L880.396 112.791L870.501 95L859.542 112.791L868.001 93.5L846.539 96.4868L867.501 91.5L851.18 76.1553L869.001 89.5L869.969 67.1069Z" fill="#D9D9D9"/>
<path d="M569.163 136.502H564.845V122.428L557.247 135.794C557.061 136.134 556.797 136.393 556.456 136.568C556.127 136.744 555.77 136.832 555.385 136.832C555.012 136.832 554.66 136.744 554.33 136.568C554.012 136.393 553.759 136.134 553.572 135.794L545.942 122.428V136.502H541.657V114.698C541.657 114.204 541.799 113.764 542.085 113.38C542.382 112.995 542.766 112.737 543.239 112.605C543.469 112.55 543.7 112.534 543.931 112.556C544.162 112.567 544.381 112.616 544.59 112.704C544.81 112.781 545.008 112.896 545.183 113.05C545.359 113.193 545.508 113.369 545.628 113.578L555.385 130.536L565.142 113.578C565.394 113.16 565.741 112.863 566.18 112.688C566.63 112.512 567.097 112.484 567.581 112.605C568.042 112.737 568.421 112.995 568.718 113.38C569.015 113.764 569.163 114.204 569.163 114.698V136.502ZM597.345 136.502H593.06V130.701H577.997V136.502H573.712V124.686C573.712 122.961 574.008 121.373 574.602 119.923C575.195 118.472 576.019 117.225 577.074 116.182C578.129 115.138 579.376 114.325 580.815 113.742C582.254 113.16 583.825 112.869 585.529 112.869H595.186C595.483 112.869 595.763 112.924 596.027 113.034C596.29 113.144 596.521 113.297 596.719 113.495C596.917 113.693 597.071 113.924 597.18 114.187C597.29 114.451 597.345 114.731 597.345 115.028V136.502ZM577.997 126.416H593.06V117.154H585.529C585.397 117.154 585.116 117.176 584.688 117.22C584.27 117.253 583.782 117.346 583.221 117.5C582.672 117.654 582.09 117.89 581.474 118.209C580.859 118.527 580.293 118.967 579.777 119.527C579.26 120.088 578.832 120.791 578.491 121.637C578.162 122.472 577.997 123.488 577.997 124.686V126.416ZM623.5 136.502H608.041C607.646 136.502 607.217 136.458 606.756 136.371C606.305 136.272 605.855 136.123 605.404 135.926C604.965 135.728 604.542 135.475 604.135 135.167C603.729 134.849 603.366 134.47 603.048 134.03C602.74 133.58 602.493 133.063 602.306 132.481C602.119 131.888 602.026 131.223 602.026 130.487V118.884C602.026 118.489 602.07 118.066 602.158 117.615C602.257 117.154 602.405 116.703 602.603 116.264C602.8 115.814 603.059 115.385 603.377 114.978C603.696 114.572 604.075 114.215 604.514 113.907C604.965 113.589 605.481 113.336 606.064 113.149C606.646 112.962 607.305 112.869 608.041 112.869H623.5V117.154H608.041C607.481 117.154 607.052 117.302 606.756 117.599C606.459 117.896 606.311 118.335 606.311 118.917V130.487C606.311 131.036 606.459 131.465 606.756 131.772C607.063 132.069 607.492 132.217 608.041 132.217H623.5V136.502ZM631.873 122.527H646.92V112.869H651.205V136.502H646.92V126.845H631.873V136.502H627.588V112.869H631.873V122.527ZM679.42 136.502H675.135V130.701H660.071V136.502H655.786V124.686C655.786 122.961 656.083 121.373 656.676 119.923C657.269 118.472 658.094 117.225 659.148 116.182C660.203 115.138 661.45 114.325 662.889 113.742C664.329 113.16 665.9 112.869 667.603 112.869H677.261C677.557 112.869 677.838 112.924 678.101 113.034C678.365 113.144 678.596 113.297 678.793 113.495C678.991 113.693 679.145 113.924 679.255 114.187C679.365 114.451 679.42 114.731 679.42 115.028V136.502ZM660.071 126.416H675.135V117.154H667.603C667.471 117.154 667.191 117.176 666.762 117.22C666.345 117.253 665.856 117.346 665.296 117.5C664.746 117.654 664.164 117.89 663.549 118.209C662.933 118.527 662.368 118.967 661.851 119.527C661.335 120.088 660.906 120.791 660.566 121.637C660.236 122.472 660.071 123.488 660.071 124.686V126.416Z" fill="white"/>
<rect x="493.359" y="106.396" width="36.6458" height="36.6458" rx="4.82182" fill="url(#paint10_linear_2209_34817)"/>
<path d="M511.622 110.793C503.964 110.793 497.758 117.002 497.758 124.658C497.758 132.313 503.966 138.522 511.622 138.522C519.278 138.522 525.486 132.313 525.486 124.658C525.486 117.002 519.278 110.793 511.622 110.793ZM511.622 116.406C512.999 116.406 514.116 117.523 514.116 118.9C514.116 120.277 512.999 121.392 511.622 121.392C510.245 121.392 509.128 120.275 509.128 118.9C509.128 117.523 510.245 116.406 511.622 116.406ZM505.862 132.909C504.485 132.909 503.368 131.792 503.368 130.415C503.368 129.038 504.485 127.923 505.862 127.923C507.239 127.923 508.356 129.04 508.356 130.415C508.356 131.792 507.239 132.909 505.862 132.909ZM503.356 124.658C503.356 123.28 504.473 122.164 505.85 122.164C507.227 122.164 508.344 123.28 508.344 124.658C508.344 126.035 507.227 127.152 505.85 127.152C504.473 127.152 503.356 126.035 503.356 124.658ZM505.862 121.392C504.485 121.392 503.368 120.275 503.368 118.9C503.368 117.523 504.485 116.406 505.862 116.406C507.239 116.406 508.356 117.523 508.356 118.9C508.356 120.277 507.239 121.392 505.862 121.392ZM511.622 122.164C512.999 122.164 514.116 123.28 514.116 124.658C514.116 126.035 512.999 127.152 511.622 127.152C510.245 127.152 509.128 126.035 509.128 124.658C509.128 123.28 510.245 122.164 511.622 122.164ZM511.622 132.909C510.245 132.909 509.128 131.792 509.128 130.415C509.128 129.038 510.245 127.923 511.622 127.923C512.999 127.923 514.116 129.04 514.116 130.415C514.114 131.792 512.997 132.909 511.622 132.909ZM517.413 132.909C516.036 132.909 514.919 131.792 514.919 130.415C514.919 129.038 516.036 127.923 517.413 127.923C518.791 127.923 519.907 129.04 519.907 130.415C519.905 131.792 518.788 132.909 517.413 132.909ZM514.9 124.658C514.9 123.28 516.017 122.164 517.394 122.164C518.771 122.164 519.888 123.28 519.888 124.658C519.888 126.035 518.771 127.152 517.394 127.152C516.017 127.152 514.9 126.035 514.9 124.658ZM517.413 121.392C516.036 121.392 514.919 120.275 514.919 118.9C514.919 117.523 516.036 116.406 517.413 116.406C518.791 116.406 519.907 117.523 519.907 118.9C519.905 120.277 518.788 121.392 517.413 121.392Z" fill="white"/>
<path d="M505.974 119.522C506.258 119.522 506.488 119.292 506.488 119.009C506.488 118.725 506.258 118.495 505.974 118.495C505.691 118.495 505.461 118.725 505.461 119.009C505.461 119.292 505.691 119.522 505.974 119.522Z" fill="white"/>
<path d="M511.623 119.522C511.906 119.522 512.136 119.292 512.136 119.009C512.136 118.725 511.906 118.495 511.623 118.495C511.339 118.495 511.109 118.725 511.109 119.009C511.109 119.292 511.339 119.522 511.623 119.522Z" fill="white"/>
<path d="M511.623 125.17C511.906 125.17 512.136 124.94 512.136 124.657C512.136 124.373 511.906 124.143 511.623 124.143C511.339 124.143 511.109 124.373 511.109 124.657C511.109 124.94 511.339 125.17 511.623 125.17Z" fill="white"/>
<path d="M511.623 130.819C511.906 130.819 512.136 130.589 512.136 130.306C512.136 130.022 511.906 129.792 511.623 129.792C511.339 129.792 511.109 130.022 511.109 130.306C511.109 130.589 511.339 130.819 511.623 130.819Z" fill="white"/>
<path d="M505.974 130.819C506.258 130.819 506.488 130.589 506.488 130.306C506.488 130.022 506.258 129.792 505.974 129.792C505.691 129.792 505.461 130.022 505.461 130.306C505.461 130.589 505.691 130.819 505.974 130.819Z" fill="white"/>
<path d="M517.271 119.522C517.555 119.522 517.785 119.292 517.785 119.009C517.785 118.725 517.555 118.495 517.271 118.495C516.988 118.495 516.758 118.725 516.758 119.009C516.758 119.292 516.988 119.522 517.271 119.522Z" fill="white"/>
<path d="M517.271 130.819C517.555 130.819 517.785 130.589 517.785 130.306C517.785 130.022 517.555 129.792 517.271 129.792C516.988 129.792 516.758 130.022 516.758 130.306C516.758 130.589 516.988 130.819 517.271 130.819Z" fill="white"/>
<path d="M169.002 200.5L169.108 199.766C173.832 167.14 204.373 144.715 236.917 149.976L302.002 160.5M295.002 267L369.618 279.077C398.597 283.768 425.89 264.072 430.571 235.091V235.091" stroke="url(#paint11_linear_2209_34817)" stroke-opacity="0.5" stroke-width="0.15" stroke-linejoin="round"/>
<path d="M169.002 200.5L169.108 199.766C173.832 167.14 204.373 144.715 236.917 149.976L302.002 160.5M295.002 267L369.618 279.077C398.597 283.768 425.89 264.072 430.571 235.091V235.091" stroke="url(#paint12_linear_2209_34817)" stroke-opacity="0.5" stroke-width="0.75" stroke-linejoin="round"/>
<rect x="168.689" y="159.707" width="263.73" height="105.32" rx="52.66" transform="rotate(0.70539 168.689 159.707)" stroke="url(#paint13_linear_2209_34817)" stroke-opacity="0.5"/>
<path d="M228.094 202.765C227.917 200.983 227.159 199.598 225.818 198.612C224.478 197.625 222.659 197.131 220.361 197.131C218.8 197.131 217.482 197.352 216.406 197.794C215.331 198.221 214.506 198.818 213.932 199.584C213.372 200.35 213.092 201.219 213.092 202.191C213.063 203.001 213.232 203.708 213.6 204.312C213.983 204.916 214.506 205.439 215.169 205.88C215.832 206.308 216.598 206.683 217.467 207.007C218.336 207.316 219.264 207.582 220.251 207.803L224.316 208.775C226.29 209.217 228.101 209.806 229.751 210.542C231.401 211.279 232.829 212.184 234.037 213.26C235.245 214.335 236.18 215.602 236.843 217.06C237.521 218.518 237.867 220.19 237.881 222.075C237.867 224.844 237.16 227.245 235.76 229.278C234.376 231.296 232.373 232.864 229.751 233.984C227.144 235.088 223.999 235.641 220.317 235.641C216.664 235.641 213.483 235.081 210.772 233.962C208.077 232.842 205.971 231.185 204.454 228.99C202.951 226.781 202.163 224.049 202.09 220.794H211.347C211.45 222.311 211.884 223.578 212.65 224.594C213.431 225.595 214.469 226.354 215.766 226.869C217.077 227.37 218.557 227.621 220.206 227.621C221.827 227.621 223.233 227.385 224.426 226.914C225.634 226.442 226.569 225.787 227.232 224.947C227.895 224.108 228.227 223.143 228.227 222.053C228.227 221.037 227.925 220.182 227.321 219.49C226.731 218.798 225.862 218.209 224.714 217.723C223.579 217.237 222.188 216.795 220.538 216.397L215.611 215.16C211.796 214.232 208.784 212.781 206.575 210.807C204.365 208.834 203.268 206.175 203.283 202.831C203.268 200.092 203.997 197.698 205.47 195.651C206.958 193.604 208.998 192.005 211.59 190.857C214.182 189.708 217.128 189.133 220.427 189.133C223.786 189.133 226.717 189.708 229.221 190.857C231.739 192.005 233.698 193.604 235.098 195.651C236.497 197.698 237.219 200.07 237.263 202.765H228.094ZM259.605 235.663C256.114 235.663 253.11 234.956 250.591 233.542C248.087 232.113 246.157 230.095 244.802 227.488C243.447 224.866 242.77 221.766 242.77 218.187C242.77 214.696 243.447 211.632 244.802 208.996C246.157 206.359 248.065 204.304 250.525 202.831C252.999 201.359 255.901 200.622 259.23 200.622C261.468 200.622 263.553 200.983 265.482 201.705C267.426 202.412 269.12 203.48 270.564 204.908C272.022 206.337 273.156 208.134 273.966 210.299C274.776 212.45 275.181 214.968 275.181 217.855V220.44H246.526V214.607H266.322C266.322 213.252 266.027 212.052 265.438 211.006C264.849 209.96 264.031 209.143 262.986 208.554C261.955 207.95 260.754 207.648 259.384 207.648C257.956 207.648 256.689 207.979 255.584 208.642C254.494 209.29 253.64 210.167 253.021 211.271C252.403 212.361 252.086 213.576 252.071 214.917V220.462C252.071 222.141 252.381 223.592 252.999 224.815C253.633 226.037 254.524 226.98 255.673 227.643C256.821 228.306 258.184 228.637 259.76 228.637C260.806 228.637 261.763 228.49 262.632 228.195C263.501 227.901 264.245 227.459 264.864 226.869C265.482 226.28 265.953 225.559 266.278 224.704L274.982 225.279C274.541 227.37 273.635 229.197 272.265 230.758C270.91 232.305 269.157 233.512 267.007 234.381C264.871 235.236 262.404 235.663 259.605 235.663ZM291 235.641C288.835 235.641 286.906 235.265 285.212 234.514C283.518 233.748 282.178 232.621 281.191 231.134C280.219 229.631 279.733 227.761 279.733 225.522C279.733 223.636 280.079 222.053 280.771 220.772C281.463 219.49 282.406 218.459 283.599 217.678C284.792 216.898 286.147 216.309 287.664 215.911C289.196 215.513 290.802 215.233 292.481 215.071C294.454 214.865 296.045 214.674 297.253 214.497C298.461 214.305 299.337 214.026 299.882 213.657C300.427 213.289 300.7 212.744 300.7 212.022V211.89C300.7 210.491 300.258 209.408 299.374 208.642C298.505 207.876 297.268 207.493 295.662 207.493C293.968 207.493 292.621 207.869 291.619 208.62C290.618 209.356 289.955 210.284 289.631 211.404L280.926 210.697C281.368 208.635 282.237 206.853 283.533 205.35C284.829 203.833 286.501 202.669 288.548 201.859C290.61 201.034 292.996 200.622 295.706 200.622C297.592 200.622 299.396 200.843 301.119 201.285C302.857 201.727 304.397 202.412 305.737 203.34C307.092 204.268 308.16 205.461 308.941 206.919C309.721 208.362 310.112 210.093 310.112 212.111V235H301.186V230.294H300.921C300.376 231.355 299.646 232.29 298.733 233.1C297.82 233.895 296.723 234.521 295.441 234.978C294.16 235.42 292.68 235.641 291 235.641ZM293.696 229.145C295.08 229.145 296.303 228.873 297.363 228.328C298.424 227.768 299.256 227.017 299.86 226.074C300.464 225.131 300.766 224.064 300.766 222.871V219.269C300.471 219.461 300.066 219.637 299.551 219.799C299.05 219.947 298.483 220.087 297.85 220.219C297.216 220.337 296.583 220.448 295.949 220.551C295.316 220.639 294.742 220.72 294.226 220.794C293.121 220.956 292.157 221.213 291.332 221.567C290.507 221.92 289.866 222.399 289.41 223.003C288.953 223.592 288.725 224.329 288.725 225.212C288.725 226.494 289.189 227.473 290.117 228.151C291.059 228.814 292.252 229.145 293.696 229.145ZM317.414 235V201.064H326.538V206.985H326.892C327.51 204.879 328.549 203.288 330.007 202.213C331.465 201.123 333.144 200.578 335.044 200.578C335.516 200.578 336.024 200.607 336.569 200.666C337.114 200.725 337.593 200.806 338.005 200.909V209.261C337.563 209.128 336.952 209.01 336.171 208.907C335.391 208.804 334.676 208.753 334.028 208.753C332.644 208.753 331.406 209.055 330.316 209.658C329.241 210.248 328.387 211.072 327.753 212.133C327.135 213.193 326.826 214.416 326.826 215.801V235H317.414ZM356.625 235.663C353.148 235.663 350.158 234.926 347.654 233.453C345.165 231.966 343.25 229.904 341.91 227.267C340.584 224.631 339.922 221.596 339.922 218.165C339.922 214.688 340.592 211.64 341.932 209.018C343.287 206.381 345.209 204.326 347.699 202.854C350.188 201.366 353.148 200.622 356.58 200.622C359.541 200.622 362.133 201.16 364.357 202.235C366.581 203.31 368.342 204.82 369.638 206.764C370.934 208.708 371.648 210.991 371.781 213.613H362.899C362.649 211.919 361.986 210.557 360.911 209.526C359.85 208.48 358.458 207.957 356.735 207.957C355.277 207.957 354.003 208.355 352.913 209.15C351.838 209.931 350.998 211.072 350.394 212.575C349.79 214.077 349.488 215.896 349.488 218.032C349.488 220.197 349.783 222.038 350.372 223.555C350.976 225.073 351.823 226.229 352.913 227.024C354.003 227.82 355.277 228.217 356.735 228.217C357.81 228.217 358.775 227.996 359.629 227.554C360.498 227.113 361.213 226.472 361.772 225.632C362.347 224.778 362.722 223.754 362.899 222.561H371.781C371.634 225.154 370.927 227.437 369.66 229.41C368.408 231.369 366.677 232.901 364.468 234.006C362.258 235.11 359.644 235.663 356.625 235.663ZM387.219 215.381V235H377.807V189.752H386.954V207.051H387.351C388.117 205.048 389.355 203.48 391.063 202.345C392.772 201.197 394.915 200.622 397.493 200.622C399.849 200.622 401.904 201.138 403.657 202.169C405.424 203.185 406.794 204.651 407.766 206.565C408.753 208.465 409.239 210.741 409.224 213.392V235H399.812V215.071C399.827 212.98 399.297 211.352 398.222 210.189C397.161 209.025 395.673 208.443 393.759 208.443C392.477 208.443 391.343 208.716 390.356 209.261C389.384 209.806 388.618 210.601 388.058 211.647C387.513 212.678 387.234 213.923 387.219 215.381ZM431.208 235V189.752H461.167V197.639H440.774V208.421H459.178V216.309H440.774V235H431.208ZM480.267 235.663C476.835 235.663 473.867 234.934 471.363 233.476C468.874 232.003 466.952 229.955 465.597 227.333C464.241 224.697 463.564 221.641 463.564 218.165C463.564 214.659 464.241 211.595 465.597 208.974C466.952 206.337 468.874 204.29 471.363 202.831C473.867 201.359 476.835 200.622 480.267 200.622C483.699 200.622 486.659 201.359 489.149 202.831C491.653 204.29 493.582 206.337 494.937 208.974C496.292 211.595 496.97 214.659 496.97 218.165C496.97 221.641 496.292 224.697 494.937 227.333C493.582 229.955 491.653 232.003 489.149 233.476C486.659 234.934 483.699 235.663 480.267 235.663ZM480.311 228.372C481.872 228.372 483.176 227.93 484.222 227.046C485.267 226.148 486.055 224.925 486.586 223.379C487.131 221.832 487.403 220.072 487.403 218.098C487.403 216.125 487.131 214.364 486.586 212.818C486.055 211.271 485.267 210.049 484.222 209.15C483.176 208.252 481.872 207.803 480.311 207.803C478.735 207.803 477.409 208.252 476.334 209.15C475.274 210.049 474.471 211.271 473.926 212.818C473.396 214.364 473.131 216.125 473.131 218.098C473.131 220.072 473.396 221.832 473.926 223.379C474.471 224.925 475.274 226.148 476.334 227.046C477.409 227.93 478.735 228.372 480.311 228.372ZM503.09 235V201.064H512.214V206.985H512.568C513.187 204.879 514.225 203.288 515.683 202.213C517.141 201.123 518.821 200.578 520.721 200.578C521.192 200.578 521.7 200.607 522.245 200.666C522.79 200.725 523.269 200.806 523.681 200.909V209.261C523.239 209.128 522.628 209.01 521.847 208.907C521.067 208.804 520.352 208.753 519.704 208.753C518.32 208.753 517.082 209.055 515.993 209.658C514.917 210.248 514.063 211.072 513.43 212.133C512.811 213.193 512.502 214.416 512.502 215.801V235H503.09ZM580.97 189.752V235H572.707L553.022 206.521H552.69V235H543.124V189.752H551.519L571.05 218.209H571.448V189.752H580.97ZM604.163 235.663C600.672 235.663 597.668 234.956 595.149 233.542C592.645 232.113 590.716 230.095 589.36 227.488C588.005 224.866 587.328 221.766 587.328 218.187C587.328 214.696 588.005 211.632 589.36 208.996C590.716 206.359 592.623 204.304 595.083 202.831C597.557 201.359 600.459 200.622 603.788 200.622C606.027 200.622 608.111 200.983 610.04 201.705C611.984 202.412 613.678 203.48 615.122 204.908C616.58 206.337 617.714 208.134 618.524 210.299C619.334 212.45 619.739 214.968 619.739 217.855V220.44H591.084V214.607H610.88C610.88 213.252 610.585 212.052 609.996 211.006C609.407 209.96 608.589 209.143 607.544 208.554C606.513 207.95 605.312 207.648 603.942 207.648C602.514 207.648 601.247 207.979 600.142 208.642C599.052 209.29 598.198 210.167 597.579 211.271C596.961 212.361 596.644 213.576 596.629 214.917V220.462C596.629 222.141 596.939 223.592 597.557 224.815C598.191 226.037 599.082 226.98 600.231 227.643C601.379 228.306 602.742 228.637 604.318 228.637C605.364 228.637 606.321 228.49 607.19 228.195C608.059 227.901 608.803 227.459 609.422 226.869C610.04 226.28 610.512 225.559 610.836 224.704L619.541 225.279C619.099 227.37 618.193 229.197 616.823 230.758C615.468 232.305 613.715 233.512 611.565 234.381C609.429 235.236 606.962 235.663 604.163 235.663ZM632.333 235L623.098 201.064H632.62L637.878 223.865H638.188L643.667 201.064H653.013L658.58 223.732H658.868L664.037 201.064H673.538L664.325 235H654.36L648.528 213.657H648.108L642.275 235H632.333ZM702.702 189.752V235H693.135V189.752H702.702ZM719.808 215.381V235H710.396V201.064H719.366V207.051H719.763C720.515 205.078 721.774 203.516 723.542 202.367C725.309 201.204 727.452 200.622 729.971 200.622C732.327 200.622 734.382 201.138 736.135 202.169C737.888 203.2 739.25 204.673 740.222 206.587C741.194 208.487 741.681 210.756 741.681 213.392V235H732.269V215.071C732.283 212.995 731.753 211.374 730.678 210.211C729.603 209.032 728.122 208.443 726.237 208.443C724.97 208.443 723.851 208.716 722.879 209.261C721.921 209.806 721.17 210.601 720.625 211.647C720.095 212.678 719.822 213.923 719.808 215.381ZM767.149 201.064V208.134H746.712V201.064H767.149ZM751.352 192.933H760.764V224.572C760.764 225.441 760.897 226.118 761.162 226.604C761.427 227.076 761.795 227.407 762.266 227.599C762.752 227.79 763.312 227.886 763.946 227.886C764.387 227.886 764.829 227.849 765.271 227.775C765.713 227.687 766.052 227.621 766.287 227.576L767.768 234.58C767.296 234.728 766.634 234.897 765.779 235.088C764.925 235.295 763.887 235.42 762.664 235.464C760.396 235.552 758.407 235.25 756.699 234.558C755.005 233.866 753.687 232.791 752.744 231.332C751.801 229.874 751.337 228.033 751.352 225.809V192.933ZM788.381 235.663C784.89 235.663 781.886 234.956 779.367 233.542C776.863 232.113 774.934 230.095 773.578 227.488C772.223 224.866 771.546 221.766 771.546 218.187C771.546 214.696 772.223 211.632 773.578 208.996C774.934 206.359 776.841 204.304 779.301 202.831C781.775 201.359 784.677 200.622 788.006 200.622C790.245 200.622 792.329 200.983 794.258 201.705C796.202 202.412 797.896 203.48 799.34 204.908C800.798 206.337 801.932 208.134 802.742 210.299C803.552 212.45 803.957 214.968 803.957 217.855V220.44H775.302V214.607H795.098C795.098 213.252 794.803 212.052 794.214 211.006C793.625 209.96 792.807 209.143 791.762 208.554C790.731 207.95 789.53 207.648 788.16 207.648C786.732 207.648 785.465 207.979 784.36 208.642C783.27 209.29 782.416 210.167 781.797 211.271C781.179 212.361 780.862 213.576 780.847 214.917V220.462C780.847 222.141 781.157 223.592 781.775 224.815C782.409 226.037 783.3 226.98 784.449 227.643C785.597 228.306 786.96 228.637 788.536 228.637C789.582 228.637 790.539 228.49 791.408 228.195C792.277 227.901 793.021 227.459 793.64 226.869C794.258 226.28 794.73 225.559 795.054 224.704L803.759 225.279C803.317 227.37 802.411 229.197 801.041 230.758C799.686 232.305 797.933 233.512 795.783 234.381C793.647 235.236 791.18 235.663 788.381 235.663ZM810.099 235V201.064H819.224V206.985H819.578C820.196 204.879 821.235 203.288 822.693 202.213C824.151 201.123 825.83 200.578 827.73 200.578C828.202 200.578 828.71 200.607 829.255 200.666C829.8 200.725 830.278 200.806 830.691 200.909V209.261C830.249 209.128 829.638 209.01 828.857 208.907C828.076 208.804 827.362 208.753 826.714 208.753C825.329 208.753 824.092 209.055 823.002 209.658C821.927 210.248 821.073 211.072 820.439 212.133C819.821 213.193 819.511 214.416 819.511 215.801V235H810.099ZM844.969 215.381V235H835.557V201.064H844.527V207.051H844.925C845.676 205.078 846.935 203.516 848.703 202.367C850.47 201.204 852.613 200.622 855.132 200.622C857.489 200.622 859.544 201.138 861.296 202.169C863.049 203.2 864.412 204.673 865.384 206.587C866.356 208.487 866.842 210.756 866.842 213.392V235H857.43V215.071C857.445 212.995 856.914 211.374 855.839 210.211C854.764 209.032 853.284 208.443 851.398 208.443C850.132 208.443 849.012 208.716 848.04 209.261C847.083 209.806 846.331 210.601 845.786 211.647C845.256 212.678 844.984 213.923 844.969 215.381ZM889.725 235.663C886.235 235.663 883.23 234.956 880.711 233.542C878.207 232.113 876.278 230.095 874.923 227.488C873.568 224.866 872.89 221.766 872.89 218.187C872.89 214.696 873.568 211.632 874.923 208.996C876.278 206.359 878.185 204.304 880.645 202.831C883.119 201.359 886.021 200.622 889.35 200.622C891.589 200.622 893.673 200.983 895.602 201.705C897.547 202.412 899.24 203.48 900.684 204.908C902.142 206.337 903.276 208.134 904.086 210.299C904.897 212.45 905.302 214.968 905.302 217.855V220.44H876.646V214.607H896.442C896.442 213.252 896.147 212.052 895.558 211.006C894.969 209.96 894.152 209.143 893.106 208.554C892.075 207.95 890.874 207.648 889.505 207.648C888.076 207.648 886.809 207.979 885.704 208.642C884.614 209.29 883.76 210.167 883.141 211.271C882.523 212.361 882.206 213.576 882.191 214.917V220.462C882.191 222.141 882.501 223.592 883.119 224.815C883.753 226.037 884.644 226.98 885.793 227.643C886.942 228.306 888.304 228.637 889.88 228.637C890.926 228.637 891.883 228.49 892.752 228.195C893.621 227.901 894.365 227.459 894.984 226.869C895.602 226.28 896.074 225.559 896.398 224.704L905.103 225.279C904.661 227.37 903.755 229.197 902.385 230.758C901.03 232.305 899.277 233.512 897.127 234.381C894.991 235.236 892.524 235.663 889.725 235.663ZM929.494 201.064V208.134H909.057V201.064H929.494ZM913.697 192.933H923.109V224.572C923.109 225.441 923.242 226.118 923.507 226.604C923.772 227.076 924.14 227.407 924.612 227.599C925.098 227.79 925.657 227.886 926.291 227.886C926.733 227.886 927.174 227.849 927.616 227.775C928.058 227.687 928.397 227.621 928.633 227.576L930.113 234.58C929.642 234.728 928.979 234.897 928.124 235.088C927.27 235.295 926.232 235.42 925.009 235.464C922.741 235.552 920.752 235.25 919.044 234.558C917.35 233.866 916.032 232.791 915.089 231.332C914.146 229.874 913.682 228.033 913.697 225.809V192.933Z" fill="white"/>
</g>
<defs>
<filter id="filter0_f_2209_34817" x="-148.91" y="-520.391" width="1347.71" height="1146.76" filterUnits="userSpaceOnUse" color-interpolation-filters="sRGB">
<feFlood flood-opacity="0" result="BackgroundImageFix"/>
<feBlend mode="normal" in="SourceGraphic" in2="BackgroundImageFix" result="shape"/>
<feGaussianBlur stdDeviation="132.295" result="effect1_foregroundBlur_2209_34817"/>
</filter>
<filter id="filter1_f_2209_34817" x="-76.9103" y="-472.589" width="1347.71" height="1146.76" filterUnits="userSpaceOnUse" color-interpolation-filters="sRGB">
<feFlood flood-opacity="0" result="BackgroundImageFix"/>
<feBlend mode="normal" in="SourceGraphic" in2="BackgroundImageFix" result="shape"/>
<feGaussianBlur stdDeviation="132.295" result="effect1_foregroundBlur_2209_34817"/>
</filter>
<filter id="filter2_f_2209_34817" x="-534.453" y="-153.973" width="1678.78" height="1417.82" filterUnits="userSpaceOnUse" color-interpolation-filters="sRGB">
<feFlood flood-opacity="0" result="BackgroundImageFix"/>
<feBlend mode="normal" in="SourceGraphic" in2="BackgroundImageFix" result="shape"/>
<feGaussianBlur stdDeviation="132.295" result="effect1_foregroundBlur_2209_34817"/>
</filter>
<filter id="filter3_f_2209_34817" x="-128.453" y="194.027" width="1678.78" height="1417.82" filterUnits="userSpaceOnUse" color-interpolation-filters="sRGB">
<feFlood flood-opacity="0" result="BackgroundImageFix"/>
<feBlend mode="normal" in="SourceGraphic" in2="BackgroundImageFix" result="shape"/>
<feGaussianBlur stdDeviation="132.295" result="effect1_foregroundBlur_2209_34817"/>
</filter>
<filter id="filter4_f_2209_34817" x="763.41" y="126.41" width="1314.18" height="1286.18" filterUnits="userSpaceOnUse" color-interpolation-filters="sRGB">
<feFlood flood-opacity="0" result="BackgroundImageFix"/>
<feBlend mode="normal" in="SourceGraphic" in2="BackgroundImageFix" result="shape"/>
<feGaussianBlur stdDeviation="132.295" result="effect1_foregroundBlur_2209_34817"/>
</filter>
<filter id="filter5_f_2209_34817" x="-886.59" y="-383.59" width="1314.18" height="1286.18" filterUnits="userSpaceOnUse" color-interpolation-filters="sRGB">
<feFlood flood-opacity="0" result="BackgroundImageFix"/>
<feBlend mode="normal" in="SourceGraphic" in2="BackgroundImageFix" result="shape"/>
<feGaussianBlur stdDeviation="132.295" result="effect1_foregroundBlur_2209_34817"/>
</filter>
<filter id="filter6_f_2209_34817" x="837.539" y="58.1069" width="64.8594" height="63.6846" filterUnits="userSpaceOnUse" color-interpolation-filters="sRGB">
<feFlood flood-opacity="0" result="BackgroundImageFix"/>
<feBlend mode="normal" in="SourceGraphic" in2="BackgroundImageFix" result="shape"/>
<feGaussianBlur stdDeviation="4.5" result="effect1_foregroundBlur_2209_34817"/>
</filter>
<linearGradient id="paint0_linear_2209_34817" x1="587.5" y1="-122.323" x2="-184.847" y2="645.653" gradientUnits="userSpaceOnUse">
<stop stop-color="white"/>
<stop offset="0.367953" stop-color="white"/>
<stop offset="1" stop-color="#0041AF"/>
</linearGradient>
<linearGradient id="paint1_linear_2209_34817" x1="-92.1209" y1="-711.688" x2="545.333" y2="-997.948" gradientUnits="userSpaceOnUse">
<stop stop-color="#004AD9"/>
<stop offset="1" stop-color="#0C64E8"/>
</linearGradient>
<linearGradient id="paint2_linear_2209_34817" x1="849.893" y1="0.389876" x2="1004.39" y2="-36.6108" gradientUnits="userSpaceOnUse">
<stop stop-color="#C7C7C8"/>
<stop offset="1" stop-color="#C7C7C8" stop-opacity="0"/>
</linearGradient>
<linearGradient id="paint3_linear_2209_34817" x1="927" y1="363.957" x2="969.948" y2="252.068" gradientUnits="userSpaceOnUse">
<stop offset="0.780668" stop-color="#0235E9"/>
<stop offset="1" stop-color="#0C64E8"/>
</linearGradient>
<linearGradient id="paint4_linear_2209_34817" x1="-710.446" y1="-677.62" x2="-23.2082" y2="-801.078" gradientUnits="userSpaceOnUse">
<stop stop-color="#F4F5F8"/>
<stop offset="0.841785" stop-color="#C8D8FF"/>
</linearGradient>
<linearGradient id="paint5_linear_2209_34817" x1="-304.446" y1="-329.62" x2="382.792" y2="-453.078" gradientUnits="userSpaceOnUse">
<stop stop-color="#F4F5F8"/>
<stop offset="0.841785" stop-color="#C8D8FF"/>
</linearGradient>
<linearGradient id="paint6_linear_2209_34817" x1="68.8193" y1="48.3926" x2="86.0197" y2="-22.7881" gradientUnits="userSpaceOnUse">
<stop stop-color="white"/>
<stop offset="1" stop-color="white" stop-opacity="0"/>
</linearGradient>
<linearGradient id="paint7_linear_2209_34817" x1="884" y1="140.155" x2="821.5" y2="180.655" gradientUnits="userSpaceOnUse">
<stop stop-color="white"/>
<stop offset="1" stop-color="white" stop-opacity="0"/>
</linearGradient>
<linearGradient id="paint8_linear_2209_34817" x1="1519.21" y1="1276.14" x2="1621.78" y2="1235.7" gradientUnits="userSpaceOnUse">
<stop offset="0.780668" stop-color="#0235E9"/>
<stop offset="1" stop-color="#0C64E8"/>
</linearGradient>
<linearGradient id="paint9_linear_2209_34817" x1="-130.786" y1="766.139" x2="-28.2248" y2="725.7" gradientUnits="userSpaceOnUse">
<stop offset="0.780668" stop-color="#0235E9"/>
<stop offset="1" stop-color="#0C64E8"/>
</linearGradient>
<linearGradient id="paint10_linear_2209_34817" x1="493.359" y1="109.03" x2="534.429" y2="118.11" gradientUnits="userSpaceOnUse">
<stop stop-color="#197CEC"/>
<stop offset="0.608737" stop-color="#004AD9"/>
</linearGradient>
<linearGradient id="paint11_linear_2209_34817" x1="171.502" y1="146.5" x2="393.839" y2="296.737" gradientUnits="userSpaceOnUse">
<stop offset="0.869141" stop-color="white"/>
<stop offset="1" stop-color="white" stop-opacity="0"/>
</linearGradient>
<linearGradient id="paint12_linear_2209_34817" x1="171.502" y1="146.5" x2="393.839" y2="296.737" gradientUnits="userSpaceOnUse">
<stop stop-color="white"/>
<stop offset="0.537202" stop-color="white" stop-opacity="0"/>
</linearGradient>
<linearGradient id="paint13_linear_2209_34817" x1="170.983" y1="198.469" x2="404.956" y2="276.094" gradientUnits="userSpaceOnUse">
<stop offset="0.16704" stop-color="white"/>
<stop offset="1" stop-color="white" stop-opacity="0"/>
</linearGradient>
<clipPath id="clip0_2209_34817">
<rect width="1175" height="799" fill="white" transform="matrix(1 0 0 -1 0 799)"/>
</clipPath>
</defs>
</svg>
