<svg width="1920" height="876" viewBox="0 0 1920 876" fill="none" xmlns="http://www.w3.org/2000/svg">
<g filter="url(#filter0_f_1658_64751)">
<path d="M1738.59 435.573C1941.46 623.162 2162.52 712.864 1949.15 943.614C1735.78 1174.36 1398.35 1209.35 1195.49 1021.76C992.617 834.173 664.556 575.144 877.927 344.394C1091.3 113.645 1535.72 247.983 1738.59 435.573Z" fill="url(#paint0_linear_1658_64751)"/>
</g>
<g filter="url(#filter1_f_1658_64751)">
<path d="M2341.24 73.8753C2508.92 228.929 2701.56 292.347 2488.19 523.097C2274.82 753.847 1965.92 815.211 1798.23 660.157C1630.55 505.103 1355.56 295.145 1568.93 64.3949C1782.3 -166.355 2173.56 -81.1785 2341.24 73.8753Z" fill="url(#paint1_linear_1658_64751)"/>
</g>
<g filter="url(#filter2_f_1658_64751)">
<path d="M728.125 151.169C931.037 338.799 1193.87 383.401 824.777 782.557C455.684 1181.71 -8.01797 1353.19 -210.93 1165.56C-413.843 977.93 -758.094 736.278 -389.001 337.122C-19.9084 -62.0335 525.212 -36.4605 728.125 151.169Z" fill="url(#paint2_linear_1658_64751)"/>
</g>
<defs>
<filter id="filter0_f_1658_64751" x="455.729" y="-130.411" width="1933.28" height="1625.62" filterUnits="userSpaceOnUse" color-interpolation-filters="sRGB">
<feFlood flood-opacity="0" result="BackgroundImageFix"/>
<feBlend mode="normal" in="SourceGraphic" in2="BackgroundImageFix" result="shape"/>
<feGaussianBlur stdDeviation="176.393" result="effect1_foregroundBlur_1658_64751"/>
</filter>
<filter id="filter1_f_1658_64751" x="1138.28" y="-430.452" width="1796.94" height="1529.01" filterUnits="userSpaceOnUse" color-interpolation-filters="sRGB">
<feFlood flood-opacity="0" result="BackgroundImageFix"/>
<feBlend mode="normal" in="SourceGraphic" in2="BackgroundImageFix" result="shape"/>
<feGaussianBlur stdDeviation="176.393" result="effect1_foregroundBlur_1658_64751"/>
</filter>
<filter id="filter2_f_1658_64751" x="-904.984" y="-332.883" width="2267.78" height="1927.28" filterUnits="userSpaceOnUse" color-interpolation-filters="sRGB">
<feFlood flood-opacity="0" result="BackgroundImageFix"/>
<feBlend mode="normal" in="SourceGraphic" in2="BackgroundImageFix" result="shape"/>
<feGaussianBlur stdDeviation="176.393" result="effect1_foregroundBlur_1658_64751"/>
</filter>
<linearGradient id="paint0_linear_1658_64751" x1="2236.05" y1="-343.055" x2="1205.12" y2="-731.238" gradientUnits="userSpaceOnUse">
<stop stop-color="#004AD9"/>
<stop offset="1" stop-color="#0C64E8"/>
</linearGradient>
<linearGradient id="paint1_linear_1658_64751" x1="1596.68" y1="684.944" x2="1539.41" y2="535.758" gradientUnits="userSpaceOnUse">
<stop offset="0.780668" stop-color="#0235E9"/>
<stop offset="1" stop-color="#0C64E8"/>
</linearGradient>
<linearGradient id="paint2_linear_1658_64751" x1="1676.16" y1="-1114.79" x2="769.789" y2="-1315.48" gradientUnits="userSpaceOnUse">
<stop stop-color="#000511"/>
<stop offset="0.841785" stop-color="#000614"/>
</linearGradient>
</defs>
</svg>
