<svg width="1920" height="877" viewBox="0 0 1920 877" fill="none" xmlns="http://www.w3.org/2000/svg">
<g filter="url(#filter0_f_1658_64753)">
<path d="M1738.12 436.094C1940.99 623.684 2162.06 713.385 1948.69 944.135C1735.31 1174.89 1397.89 1209.87 1195.02 1022.28C992.148 834.695 664.088 575.666 877.458 344.916C1090.83 114.166 1535.25 248.505 1738.12 436.094Z" fill="url(#paint0_linear_1658_64753)"/>
</g>
<g filter="url(#filter1_f_1658_64753)">
<path d="M2340.77 74.3963C2508.45 229.45 2701.09 292.868 2487.72 523.618C2274.35 754.368 1965.45 815.732 1797.76 660.678C1630.08 505.624 1355.09 295.666 1568.46 64.9159C1781.83 -165.834 2173.09 -80.6575 2340.77 74.3963Z" fill="url(#paint1_linear_1658_64753)"/>
</g>
<g filter="url(#filter2_f_1658_64753)">
<path d="M897.656 1.69062C1100.57 189.32 1363.4 233.923 994.308 633.079C625.215 1032.23 161.513 1203.71 -41.399 1016.08C-244.311 828.451 -588.563 586.8 -219.47 187.644C149.623 -211.512 694.743 -185.939 897.656 1.69062Z" fill="url(#paint2_linear_1658_64753)"/>
</g>
<defs>
<filter id="filter0_f_1658_64753" x="455.26" y="-129.889" width="1933.28" height="1625.62" filterUnits="userSpaceOnUse" color-interpolation-filters="sRGB">
<feFlood flood-opacity="0" result="BackgroundImageFix"/>
<feBlend mode="normal" in="SourceGraphic" in2="BackgroundImageFix" result="shape"/>
<feGaussianBlur stdDeviation="176.393" result="effect1_foregroundBlur_1658_64753"/>
</filter>
<filter id="filter1_f_1658_64753" x="1137.81" y="-429.931" width="1796.94" height="1529.01" filterUnits="userSpaceOnUse" color-interpolation-filters="sRGB">
<feFlood flood-opacity="0" result="BackgroundImageFix"/>
<feBlend mode="normal" in="SourceGraphic" in2="BackgroundImageFix" result="shape"/>
<feGaussianBlur stdDeviation="176.393" result="effect1_foregroundBlur_1658_64753"/>
</filter>
<filter id="filter2_f_1658_64753" x="-735.453" y="-482.361" width="2267.78" height="1927.28" filterUnits="userSpaceOnUse" color-interpolation-filters="sRGB">
<feFlood flood-opacity="0" result="BackgroundImageFix"/>
<feBlend mode="normal" in="SourceGraphic" in2="BackgroundImageFix" result="shape"/>
<feGaussianBlur stdDeviation="176.393" result="effect1_foregroundBlur_1658_64753"/>
</filter>
<linearGradient id="paint0_linear_1658_64753" x1="2235.58" y1="-342.534" x2="1204.65" y2="-730.716" gradientUnits="userSpaceOnUse">
<stop stop-color="#004AD9"/>
<stop offset="1" stop-color="#0C64E8"/>
</linearGradient>
<linearGradient id="paint1_linear_1658_64753" x1="1596.21" y1="685.465" x2="1538.94" y2="536.279" gradientUnits="userSpaceOnUse">
<stop offset="0.780668" stop-color="#0235E9"/>
<stop offset="1" stop-color="#0C64E8"/>
</linearGradient>
<linearGradient id="paint2_linear_1658_64753" x1="1845.69" y1="-1264.27" x2="939.32" y2="-1464.96" gradientUnits="userSpaceOnUse">
<stop stop-color="#000511"/>
<stop offset="0.841785" stop-color="#000614"/>
</linearGradient>
</defs>
</svg>
