<svg width="1921" height="876" viewBox="0 0 1921 876" fill="none" xmlns="http://www.w3.org/2000/svg">
<g style="mix-blend-mode:color-dodge" opacity="0.17">
<line y1="-0.845407" x2="2027.29" y2="-0.845407" transform="matrix(1 -4.37114e-08 -4.37114e-08 -1 -302.906 147.773)" stroke="#C7C7C8" stroke-width="1.69081"/>
<line y1="-0.845407" x2="2027.29" y2="-0.845407" transform="matrix(1 -4.37114e-08 -4.37114e-08 -1 -302.906 350.671)" stroke="#C7C7C8" stroke-width="1.69081"/>
<line y1="-0.845407" x2="2027.29" y2="-0.845407" transform="matrix(1 -4.37114e-08 -4.37114e-08 -1 -302.906 553.568)" stroke="#C7C7C8" stroke-width="1.69081"/>
<line y1="-0.845407" x2="2027.29" y2="-0.845407" transform="matrix(1 -4.22896e-08 -4.5181e-08 -1 -302.906 756.466)" stroke="#C7C7C8" stroke-width="1.69081"/>
</g>
<g style="mix-blend-mode:color-dodge" opacity="0.17">
<line y1="-0.845407" x2="1961.34" y2="-0.845407" transform="matrix(-4.37114e-08 -1 -1 4.37114e-08 101.195 1615.4)" stroke="#C7C7C8" stroke-width="1.69081"/>
<line y1="-0.845407" x2="1961.34" y2="-0.845407" transform="matrix(-4.37114e-08 -1 -1 4.37114e-08 304.094 1615.4)" stroke="#C7C7C8" stroke-width="1.69081"/>
<line y1="-0.845407" x2="1961.34" y2="-0.845407" transform="matrix(-4.37114e-08 -1 -1 4.37114e-08 506.99 1615.4)" stroke="#C7C7C8" stroke-width="1.69081"/>
<line y1="-0.845407" x2="1961.34" y2="-0.845407" transform="matrix(-4.37114e-08 -1 -1 4.37114e-08 709.889 1615.4)" stroke="#C7C7C8" stroke-width="1.69081"/>
<line y1="-0.845407" x2="1961.34" y2="-0.845407" transform="matrix(-4.37114e-08 -1 -1 4.37114e-08 912.787 1615.4)" stroke="#C7C7C8" stroke-width="1.69081"/>
<line y1="-0.845407" x2="1961.34" y2="-0.845407" transform="matrix(-4.37114e-08 -1 -1 4.37114e-08 1115.68 1615.4)" stroke="#C7C7C8" stroke-width="1.69081"/>
<line y1="-0.845407" x2="1961.34" y2="-0.845407" transform="matrix(-4.37114e-08 -1 -1 4.37114e-08 1318.58 1615.4)" stroke="#C7C7C8" stroke-width="1.69081"/>
<line y1="-0.845407" x2="1961.34" y2="-0.845407" transform="matrix(-4.37114e-08 -1 -1 4.37114e-08 1521.48 1615.4)" stroke="url(#paint0_linear_1543_24127)" stroke-width="1.69081"/>
<line y1="-0.845407" x2="1961.34" y2="-0.845407" transform="matrix(-4.37114e-08 -1 -1 4.37114e-08 1724.38 1615.4)" stroke="#5A5A5A" stroke-width="1.69081"/>
</g>
<line x1="0.666667" y1="-0.666667" x2="251.333" y2="-0.666667" transform="matrix(1 -8.74228e-08 -8.74228e-08 -1 119.4 351.542)" stroke="url(#paint1_linear_1543_24127)" stroke-width="1.33333" stroke-linecap="round"/>
<path d="M1116.35 428.042L1116.35 606.753" stroke="url(#paint2_linear_1543_24127)" stroke-width="1.33333" stroke-linecap="round"/>
<defs>
<linearGradient id="paint0_linear_1543_24127" x1="1133.19" y1="0.389876" x2="1330.85" y2="-62.7263" gradientUnits="userSpaceOnUse">
<stop stop-color="#C7C7C8"/>
<stop offset="1" stop-color="#C7C7C8" stop-opacity="0"/>
</linearGradient>
<linearGradient id="paint1_linear_1543_24127" x1="91.7591" y1="48.3926" x2="104.978" y2="-24.5486" gradientUnits="userSpaceOnUse">
<stop stop-color="white"/>
<stop offset="1" stop-color="white" stop-opacity="0"/>
</linearGradient>
<linearGradient id="paint2_linear_1543_24127" x1="1163.64" y1="421.54" x2="1091.85" y2="456.429" gradientUnits="userSpaceOnUse">
<stop stop-color="white"/>
<stop offset="1" stop-color="white" stop-opacity="0"/>
</linearGradient>
</defs>
</svg>
