<svg width="773" height="148" viewBox="0 0 773 148" fill="none" xmlns="http://www.w3.org/2000/svg">
<path d="M9.00196 60.5L9.10823 59.766C13.8319 27.1402 44.3733 4.7146 76.9167 9.97648L142.002 20.5M135.002 127L209.618 139.077C238.597 143.768 265.89 124.072 270.571 95.091V95.091" stroke="url(#paint0_linear_2209_34914)" stroke-opacity="0.5" stroke-width="0.15" stroke-linejoin="round"/>
<path d="M9.00196 60.5L9.10823 59.766C13.8319 27.1402 44.3733 4.7146 76.9167 9.97648L142.002 20.5M135.002 127L209.618 139.077C238.597 143.768 265.89 124.072 270.571 95.091V95.091" stroke="url(#paint1_linear_2209_34914)" stroke-opacity="0.5" stroke-width="0.75" stroke-linejoin="round"/>
<rect x="8.68912" y="19.7073" width="263.73" height="105.32" rx="52.66" transform="rotate(0.70539 8.68912 19.7073)" stroke="url(#paint2_linear_2209_34914)" stroke-opacity="0.5"/>
<path d="M68.0939 62.7652C67.9172 60.9829 67.1586 59.5984 65.8183 58.6115C64.4779 57.6247 62.6589 57.1313 60.3611 57.1313C58.7998 57.1313 57.4816 57.3522 56.4063 57.7941C55.3311 58.2212 54.5063 58.8177 53.9318 59.5837C53.3721 60.3496 53.0923 61.2186 53.0923 62.1907C53.0628 63.0008 53.2322 63.7078 53.6004 64.3117C53.9834 64.9156 54.5063 65.4385 55.1691 65.8804C55.8319 66.3075 56.5978 66.6831 57.4668 67.0072C58.3359 67.3165 59.2638 67.5816 60.2506 67.8026L64.3159 68.7747C66.2896 69.2166 68.1013 69.8057 69.751 70.5422C71.4006 71.2786 72.8294 72.1845 74.0372 73.2597C75.245 74.3349 76.1803 75.6017 76.8431 77.0598C77.5206 78.518 77.8668 80.1898 77.8815 82.0751C77.8668 84.8442 77.1598 87.2451 75.7605 89.2777C74.3759 91.2956 72.3728 92.8643 69.751 93.9837C67.1439 95.0884 63.9992 95.6407 60.3169 95.6407C56.6641 95.6407 53.4826 95.081 50.7724 93.9616C48.077 92.8422 45.9707 91.1851 44.4536 88.9905C42.9512 86.7811 42.1632 84.0488 42.0896 80.7937H51.3469C51.45 82.3108 51.8845 83.5775 52.6504 84.5938C53.431 85.5954 54.4694 86.354 55.7656 86.8695C57.0765 87.3703 58.5568 87.6207 60.2065 87.6207C61.8267 87.6207 63.2333 87.385 64.4264 86.9137C65.6342 86.4423 66.5695 85.7869 67.2323 84.9473C67.8951 84.1078 68.2265 83.143 68.2265 82.053C68.2265 81.0367 67.9246 80.1824 67.3207 79.4902C66.7315 78.7979 65.8625 78.2087 64.7136 77.7227C63.5794 77.2366 62.1875 76.7947 60.5379 76.397L55.611 75.1598C51.7961 74.2318 48.784 72.781 46.5746 70.8073C44.3652 68.8336 43.2679 66.175 43.2826 62.8314C43.2679 60.0918 43.997 57.6983 45.4699 55.651C46.9576 53.6036 48.9975 52.0055 51.5899 50.8566C54.1822 49.7077 57.1281 49.1333 60.4274 49.1333C63.7857 49.1333 66.7168 49.7077 69.2207 50.8566C71.7394 52.0055 73.6984 53.6036 75.0977 55.651C76.4969 57.6983 77.2187 60.0697 77.2629 62.7652H68.0939ZM99.6052 95.6628C96.1144 95.6628 93.1096 94.9558 90.5909 93.5418C88.087 92.1131 86.1574 90.0952 84.8024 87.4881C83.4473 84.8663 82.7697 81.7658 82.7697 78.1866C82.7697 74.6958 83.4473 71.6321 84.8024 68.9956C86.1574 66.3591 88.0649 64.3044 90.5247 62.8314C92.9992 61.3585 95.9008 60.6221 99.2296 60.6221C101.468 60.6221 103.553 60.9829 105.482 61.7047C107.426 62.4117 109.12 63.4795 110.564 64.9083C112.022 66.337 113.156 68.134 113.966 70.2991C114.776 72.4496 115.181 74.9683 115.181 77.8552V80.4402H86.5257V74.6074H106.322C106.322 73.2524 106.027 72.0519 105.438 71.0062C104.849 69.9604 104.031 69.1429 102.986 68.5537C101.955 67.9498 100.754 67.6479 99.3843 67.6479C97.9555 67.6479 96.6888 67.9793 95.5841 68.6421C94.4942 69.2902 93.6399 70.1666 93.0213 71.2713C92.4026 72.3612 92.0859 73.5764 92.0712 74.9167V80.4623C92.0712 82.1414 92.3805 83.5922 92.9992 84.8148C93.6325 86.0373 94.5236 86.98 95.6725 87.6428C96.8214 88.3056 98.1838 88.637 99.7599 88.637C100.806 88.637 101.763 88.4897 102.632 88.1951C103.501 87.9005 104.245 87.4587 104.864 86.8695C105.482 86.2803 105.953 85.5586 106.278 84.7043L114.982 85.2787C114.541 87.3703 113.635 89.1967 112.265 90.758C110.91 92.3046 109.157 93.5124 107.007 94.3814C104.871 95.2357 102.404 95.6628 99.6052 95.6628ZM131 95.6407C128.835 95.6407 126.906 95.2651 125.212 94.5139C123.518 93.748 122.178 92.6212 121.191 91.1336C120.219 89.6312 119.733 87.7606 119.733 85.5218C119.733 83.6364 120.079 82.053 120.771 80.7716C121.463 79.4902 122.406 78.4591 123.599 77.6785C124.792 76.8978 126.147 76.3087 127.664 75.911C129.196 75.5133 130.802 75.2334 132.481 75.0714C134.454 74.8652 136.045 74.6737 137.253 74.497C138.461 74.3055 139.337 74.0256 139.882 73.6574C140.427 73.2892 140.7 72.7442 140.7 72.0225V71.8899C140.7 70.4906 140.258 69.408 139.374 68.6421C138.505 67.8762 137.268 67.4932 135.662 67.4932C133.968 67.4932 132.621 67.8688 131.619 68.62C130.618 69.3565 129.955 70.2844 129.631 71.4038L120.926 70.6968C121.368 68.6348 122.237 66.8525 123.533 65.3501C124.829 63.833 126.501 62.6694 128.548 61.8593C130.61 61.0345 132.996 60.6221 135.706 60.6221C137.592 60.6221 139.396 60.843 141.119 61.2849C142.857 61.7268 144.397 62.4117 145.737 63.3396C147.092 64.2675 148.16 65.4606 148.941 66.9188C149.721 68.3623 150.112 70.0929 150.112 72.1108V95H141.186V90.294H140.921C140.376 91.3545 139.646 92.2898 138.733 93.0999C137.82 93.8953 136.723 94.5213 135.441 94.9779C134.16 95.4198 132.68 95.6407 131 95.6407ZM133.696 89.1451C135.08 89.1451 136.303 88.8727 137.363 88.3277C138.424 87.768 139.256 87.0168 139.86 86.0741C140.464 85.1314 140.766 84.0636 140.766 82.8705V79.2692C140.471 79.4607 140.066 79.6375 139.551 79.7995C139.05 79.9468 138.483 80.0867 137.85 80.2193C137.216 80.3371 136.583 80.4476 135.949 80.5507C135.316 80.639 134.742 80.7201 134.226 80.7937C133.121 80.9557 132.157 81.2135 131.332 81.567C130.507 81.9205 129.866 82.3992 129.41 83.0031C128.953 83.5922 128.725 84.3287 128.725 85.2125C128.725 86.4939 129.189 87.4734 130.117 88.1509C131.059 88.8137 132.252 89.1451 133.696 89.1451ZM157.414 95V61.0639H166.538V66.9851H166.892C167.51 64.8788 168.549 63.2881 170.007 62.2128C171.465 61.1229 173.144 60.5779 175.044 60.5779C175.516 60.5779 176.024 60.6073 176.569 60.6663C177.114 60.7252 177.593 60.8062 178.005 60.9093V69.2607C177.563 69.1282 176.952 69.0103 176.171 68.9072C175.391 68.8041 174.676 68.7526 174.028 68.7526C172.644 68.7526 171.406 69.0545 170.316 69.6584C169.241 70.2476 168.387 71.0724 167.753 72.1329C167.135 73.1934 166.826 74.416 166.826 75.8005V95H157.414ZM196.625 95.6628C193.148 95.6628 190.158 94.9264 187.654 93.4534C185.165 91.9658 183.25 89.9037 181.91 87.2672C180.584 84.6307 179.922 81.5964 179.922 78.1645C179.922 74.6884 180.592 71.6395 181.932 69.0177C183.287 66.3812 185.209 64.3265 187.699 62.8535C190.188 61.3659 193.148 60.6221 196.58 60.6221C199.541 60.6221 202.133 61.1597 204.357 62.2349C206.581 63.3101 208.342 64.8199 209.638 66.7641C210.934 68.7084 211.648 70.9914 211.781 73.6132H202.899C202.649 71.9194 201.986 70.5569 200.911 69.5259C199.85 68.4801 198.458 67.9572 196.735 67.9572C195.277 67.9572 194.003 68.3549 192.913 69.1503C191.838 69.9309 190.998 71.0724 190.394 72.5748C189.79 74.0772 189.488 75.8962 189.488 78.032C189.488 80.1972 189.783 82.0383 190.372 83.5554C190.976 85.0725 191.823 86.2288 192.913 87.0241C194.003 87.8195 195.277 88.2172 196.735 88.2172C197.81 88.2172 198.775 87.9963 199.629 87.5544C200.498 87.1125 201.213 86.4718 201.772 85.6322C202.347 84.7779 202.722 83.7543 202.899 82.5612H211.781C211.634 85.1535 210.927 87.4366 209.66 89.4103C208.408 91.3693 206.677 92.9011 204.468 94.0058C202.258 95.1105 199.644 95.6628 196.625 95.6628ZM227.219 75.3807V95H217.807V49.7519H226.954V67.0514H227.351C228.117 65.0482 229.355 63.4795 231.063 62.3454C232.772 61.1965 234.915 60.6221 237.493 60.6221C239.849 60.6221 241.904 61.1376 243.657 62.1686C245.424 63.1849 246.794 64.6505 247.766 66.5653C248.753 68.4654 249.239 70.741 249.224 73.3923V95H239.812V75.0714C239.827 72.9799 239.297 71.3523 238.222 70.1887C237.161 69.0251 235.673 68.4433 233.759 68.4433C232.477 68.4433 231.343 68.7158 230.356 69.2607C229.384 69.8057 228.618 70.6011 228.058 71.6469C227.513 72.6779 227.234 73.9225 227.219 75.3807ZM271.208 95V49.7519H301.167V57.6394H280.774V68.4212H299.178V76.3087H280.774V95H271.208ZM320.267 95.6628C316.835 95.6628 313.867 94.9337 311.363 93.4755C308.874 92.0026 306.952 89.9553 305.597 87.3335C304.241 84.6969 303.564 81.6406 303.564 78.1645C303.564 74.659 304.241 71.5953 305.597 68.9735C306.952 66.337 308.874 64.2896 311.363 62.8314C313.867 61.3585 316.835 60.6221 320.267 60.6221C323.699 60.6221 326.659 61.3585 329.149 62.8314C331.653 64.2896 333.582 66.337 334.937 68.9735C336.292 71.5953 336.97 74.659 336.97 78.1645C336.97 81.6406 336.292 84.6969 334.937 87.3335C333.582 89.9553 331.653 92.0026 329.149 93.4755C326.659 94.9337 323.699 95.6628 320.267 95.6628ZM320.311 88.3719C321.872 88.3719 323.176 87.93 324.222 87.0462C325.267 86.1478 326.055 84.9252 326.586 83.3787C327.131 81.8321 327.403 80.072 327.403 78.0983C327.403 76.1245 327.131 74.3644 326.586 72.8178C326.055 71.2713 325.267 70.0488 324.222 69.1503C323.176 68.2518 321.872 67.8026 320.311 67.8026C318.735 67.8026 317.409 68.2518 316.334 69.1503C315.274 70.0488 314.471 71.2713 313.926 72.8178C313.396 74.3644 313.131 76.1245 313.131 78.0983C313.131 80.072 313.396 81.8321 313.926 83.3787C314.471 84.9252 315.274 86.1478 316.334 87.0462C317.409 87.93 318.735 88.3719 320.311 88.3719ZM343.09 95V61.0639H352.214V66.9851H352.568C353.187 64.8788 354.225 63.2881 355.683 62.2128C357.141 61.1229 358.821 60.5779 360.721 60.5779C361.192 60.5779 361.7 60.6073 362.245 60.6663C362.79 60.7252 363.269 60.8062 363.681 60.9093V69.2607C363.239 69.1282 362.628 69.0103 361.847 68.9072C361.067 68.8041 360.352 68.7526 359.704 68.7526C358.32 68.7526 357.082 69.0545 355.993 69.6584C354.917 70.2476 354.063 71.0724 353.43 72.1329C352.811 73.1934 352.502 74.416 352.502 75.8005V95H343.09ZM420.97 49.7519V95H412.707L393.022 66.5211H392.69V95H383.124V49.7519H391.519L411.05 78.2087H411.448V49.7519H420.97ZM444.163 95.6628C440.672 95.6628 437.668 94.9558 435.149 93.5418C432.645 92.1131 430.716 90.0952 429.36 87.4881C428.005 84.8663 427.328 81.7658 427.328 78.1866C427.328 74.6958 428.005 71.6321 429.36 68.9956C430.716 66.3591 432.623 64.3044 435.083 62.8314C437.557 61.3585 440.459 60.6221 443.788 60.6221C446.027 60.6221 448.111 60.9829 450.04 61.7047C451.984 62.4117 453.678 63.4795 455.122 64.9083C456.58 66.337 457.714 68.134 458.524 70.2991C459.334 72.4496 459.739 74.9683 459.739 77.8552V80.4402H431.084V74.6074H450.88C450.88 73.2524 450.585 72.0519 449.996 71.0062C449.407 69.9604 448.589 69.1429 447.544 68.5537C446.513 67.9498 445.312 67.6479 443.942 67.6479C442.514 67.6479 441.247 67.9793 440.142 68.6421C439.052 69.2902 438.198 70.1666 437.579 71.2713C436.961 72.3612 436.644 73.5764 436.629 74.9167V80.4623C436.629 82.1414 436.939 83.5922 437.557 84.8148C438.191 86.0373 439.082 86.98 440.231 87.6428C441.379 88.3056 442.742 88.637 444.318 88.637C445.364 88.637 446.321 88.4897 447.19 88.1951C448.059 87.9005 448.803 87.4587 449.422 86.8695C450.04 86.2803 450.512 85.5586 450.836 84.7043L459.541 85.2787C459.099 87.3703 458.193 89.1967 456.823 90.758C455.468 92.3046 453.715 93.5124 451.565 94.3814C449.429 95.2357 446.962 95.6628 444.163 95.6628ZM472.333 95L463.098 61.0639H472.62L477.878 83.8647H478.188L483.667 61.0639H493.013L498.58 83.7322H498.868L504.037 61.0639H513.538L504.325 95H494.36L488.528 73.6574H488.108L482.275 95H472.333ZM542.702 49.7519V95H533.135V49.7519H542.702ZM559.808 75.3807V95H550.396V61.0639H559.366V67.0514H559.763C560.515 65.0777 561.774 63.5164 563.542 62.3675C565.309 61.2039 567.452 60.6221 569.971 60.6221C572.327 60.6221 574.382 61.1376 576.135 62.1686C577.888 63.1997 579.25 64.6726 580.222 66.5874C581.194 68.4875 581.681 70.7558 581.681 73.3923V95H572.269V75.0714C572.283 72.9946 571.753 71.3744 570.678 70.2108C569.603 69.0324 568.122 68.4433 566.237 68.4433C564.97 68.4433 563.851 68.7158 562.879 69.2607C561.921 69.8057 561.17 70.6011 560.625 71.6469C560.095 72.6779 559.822 73.9225 559.808 75.3807ZM607.149 61.0639V68.134H586.712V61.0639H607.149ZM591.352 52.9334H600.764V84.5717C600.764 85.4408 600.897 86.1183 601.162 86.6044C601.427 87.0757 601.795 87.4071 602.266 87.5986C602.752 87.7901 603.312 87.8858 603.946 87.8858C604.387 87.8858 604.829 87.849 605.271 87.7753C605.713 87.687 606.052 87.6207 606.287 87.5765L607.768 94.5802C607.296 94.7275 606.634 94.8969 605.779 95.0884C604.925 95.2946 603.887 95.4198 602.664 95.464C600.396 95.5523 598.407 95.2504 596.699 94.5581C595.005 93.8659 593.687 92.7906 592.744 91.3324C591.801 89.8742 591.337 88.0331 591.352 85.809V52.9334ZM628.381 95.6628C624.89 95.6628 621.886 94.9558 619.367 93.5418C616.863 92.1131 614.934 90.0952 613.578 87.4881C612.223 84.8663 611.546 81.7658 611.546 78.1866C611.546 74.6958 612.223 71.6321 613.578 68.9956C614.934 66.3591 616.841 64.3044 619.301 62.8314C621.775 61.3585 624.677 60.6221 628.006 60.6221C630.245 60.6221 632.329 60.9829 634.258 61.7047C636.202 62.4117 637.896 63.4795 639.34 64.9083C640.798 66.337 641.932 68.134 642.742 70.2991C643.552 72.4496 643.957 74.9683 643.957 77.8552V80.4402H615.302V74.6074H635.098C635.098 73.2524 634.803 72.0519 634.214 71.0062C633.625 69.9604 632.807 69.1429 631.762 68.5537C630.731 67.9498 629.53 67.6479 628.16 67.6479C626.732 67.6479 625.465 67.9793 624.36 68.6421C623.27 69.2902 622.416 70.1666 621.797 71.2713C621.179 72.3612 620.862 73.5764 620.847 74.9167V80.4623C620.847 82.1414 621.157 83.5922 621.775 84.8148C622.409 86.0373 623.3 86.98 624.449 87.6428C625.597 88.3056 626.96 88.637 628.536 88.637C629.582 88.637 630.539 88.4897 631.408 88.1951C632.277 87.9005 633.021 87.4587 633.64 86.8695C634.258 86.2803 634.73 85.5586 635.054 84.7043L643.759 85.2787C643.317 87.3703 642.411 89.1967 641.041 90.758C639.686 92.3046 637.933 93.5124 635.783 94.3814C633.647 95.2357 631.18 95.6628 628.381 95.6628ZM650.099 95V61.0639H659.224V66.9851H659.578C660.196 64.8788 661.235 63.2881 662.693 62.2128C664.151 61.1229 665.83 60.5779 667.73 60.5779C668.202 60.5779 668.71 60.6073 669.255 60.6663C669.8 60.7252 670.278 60.8062 670.691 60.9093V69.2607C670.249 69.1282 669.638 69.0103 668.857 68.9072C668.076 68.8041 667.362 68.7526 666.714 68.7526C665.329 68.7526 664.092 69.0545 663.002 69.6584C661.927 70.2476 661.073 71.0724 660.439 72.1329C659.821 73.1934 659.511 74.416 659.511 75.8005V95H650.099ZM684.969 75.3807V95H675.557V61.0639H684.527V67.0514H684.925C685.676 65.0777 686.935 63.5164 688.703 62.3675C690.47 61.2039 692.613 60.6221 695.132 60.6221C697.489 60.6221 699.544 61.1376 701.296 62.1686C703.049 63.1997 704.412 64.6726 705.384 66.5874C706.356 68.4875 706.842 70.7558 706.842 73.3923V95H697.43V75.0714C697.445 72.9946 696.914 71.3744 695.839 70.2108C694.764 69.0324 693.284 68.4433 691.398 68.4433C690.132 68.4433 689.012 68.7158 688.04 69.2607C687.083 69.8057 686.331 70.6011 685.786 71.6469C685.256 72.6779 684.984 73.9225 684.969 75.3807ZM729.725 95.6628C726.235 95.6628 723.23 94.9558 720.711 93.5418C718.207 92.1131 716.278 90.0952 714.923 87.4881C713.568 84.8663 712.89 81.7658 712.89 78.1866C712.89 74.6958 713.568 71.6321 714.923 68.9956C716.278 66.3591 718.185 64.3044 720.645 62.8314C723.119 61.3585 726.021 60.6221 729.35 60.6221C731.589 60.6221 733.673 60.9829 735.602 61.7047C737.547 62.4117 739.24 63.4795 740.684 64.9083C742.142 66.337 743.276 68.134 744.086 70.2991C744.897 72.4496 745.302 74.9683 745.302 77.8552V80.4402H716.646V74.6074H736.442C736.442 73.2524 736.147 72.0519 735.558 71.0062C734.969 69.9604 734.152 69.1429 733.106 68.5537C732.075 67.9498 730.874 67.6479 729.505 67.6479C728.076 67.6479 726.809 67.9793 725.704 68.6421C724.614 69.2902 723.76 70.1666 723.141 71.2713C722.523 72.3612 722.206 73.5764 722.191 74.9167V80.4623C722.191 82.1414 722.501 83.5922 723.119 84.8148C723.753 86.0373 724.644 86.98 725.793 87.6428C726.942 88.3056 728.304 88.637 729.88 88.637C730.926 88.637 731.883 88.4897 732.752 88.1951C733.621 87.9005 734.365 87.4587 734.984 86.8695C735.602 86.2803 736.074 85.5586 736.398 84.7043L745.103 85.2787C744.661 87.3703 743.755 89.1967 742.385 90.758C741.03 92.3046 739.277 93.5124 737.127 94.3814C734.991 95.2357 732.524 95.6628 729.725 95.6628ZM769.494 61.0639V68.134H749.057V61.0639H769.494ZM753.697 52.9334H763.109V84.5717C763.109 85.4408 763.242 86.1183 763.507 86.6044C763.772 87.0757 764.14 87.4071 764.612 87.5986C765.098 87.7901 765.657 87.8858 766.291 87.8858C766.733 87.8858 767.174 87.849 767.616 87.7753C768.058 87.687 768.397 87.6207 768.633 87.5765L770.113 94.5802C769.642 94.7275 768.979 94.8969 768.124 95.0884C767.27 95.2946 766.232 95.4198 765.009 95.464C762.741 95.5523 760.752 95.2504 759.044 94.5581C757.35 93.8659 756.032 92.7906 755.089 91.3324C754.146 89.8742 753.682 88.0331 753.697 85.809V52.9334Z" fill="white"/>
<defs>
<linearGradient id="paint0_linear_2209_34914" x1="11.502" y1="6.5" x2="233.839" y2="156.737" gradientUnits="userSpaceOnUse">
<stop offset="0.869141" stop-color="white"/>
<stop offset="1" stop-color="white" stop-opacity="0"/>
</linearGradient>
<linearGradient id="paint1_linear_2209_34914" x1="11.502" y1="6.5" x2="233.839" y2="156.737" gradientUnits="userSpaceOnUse">
<stop stop-color="white"/>
<stop offset="0.537202" stop-color="white" stop-opacity="0"/>
</linearGradient>
<linearGradient id="paint2_linear_2209_34914" x1="10.9827" y1="58.4687" x2="244.956" y2="136.094" gradientUnits="userSpaceOnUse">
<stop offset="0.16704" stop-color="white"/>
<stop offset="1" stop-color="white" stop-opacity="0"/>
</linearGradient>
</defs>
</svg>
