<svg width="1175" height="797" viewBox="0 0 1175 797" fill="none" xmlns="http://www.w3.org/2000/svg">
<g clip-path="url(#clip0_2209_34817)">
<rect width="1175" height="797" transform="matrix(1 0 0 -1 0 797)" fill="url(#paint0_linear_2209_34817)"/>
<g filter="url(#filter0_f_2209_34817)">
<path d="M296.579 -144.145C170.816 -27.8551 26.3358 19.7085 186.364 192.771C346.392 365.833 578.071 411.856 703.833 295.566C829.595 179.276 1035.84 21.8068 875.813 -151.256C715.785 -324.318 422.341 -260.436 296.579 -144.145Z" fill="url(#paint1_linear_2209_34817)"/>
</g>
<g style="mix-blend-mode:color-dodge" opacity="0.17">
<line y1="-0.634055" x2="1520.46" y2="-0.634055" transform="matrix(1 -4.37114e-08 -4.37114e-08 -1 -227.73 85.002)" stroke="#C7C7C8" stroke-width="1.26811"/>
<line y1="-0.634055" x2="1520.46" y2="-0.634055" transform="matrix(1 -4.37114e-08 -4.37114e-08 -1 -227.73 237.175)" stroke="#C7C7C8" stroke-width="1.26811"/>
<line y1="-0.634055" x2="1520.46" y2="-0.634055" transform="matrix(1 -4.22896e-08 -4.5181e-08 -1 -227.73 389.348)" stroke="#C7C7C8" stroke-width="1.26811"/>
<line y1="-0.634055" x2="1520.46" y2="-0.634055" transform="matrix(1 -4.22896e-08 -4.5181e-08 -1 -227.73 541.521)" stroke="#C7C7C8" stroke-width="1.26811"/>
<line y1="-0.634055" x2="1520.46" y2="-0.634055" transform="matrix(1 -4.22896e-08 -4.5181e-08 -1 -227.73 693.695)" stroke="#C7C7C8" stroke-width="1.26811"/>
</g>
<g style="mix-blend-mode:color-dodge" opacity="0.17">
<line y1="-0.634055" x2="1471.01" y2="-0.634055" transform="matrix(-4.37114e-08 -1 -1 4.37114e-08 75.3477 1033.55)" stroke="#C7C7C8" stroke-width="1.26811"/>
<line y1="-0.634055" x2="1471.01" y2="-0.634055" transform="matrix(-4.37114e-08 -1 -1 4.37114e-08 227.52 1033.55)" stroke="#C7C7C8" stroke-width="1.26811"/>
<line y1="-0.634055" x2="1471.01" y2="-0.634055" transform="matrix(-4.37114e-08 -1 -1 4.37114e-08 379.691 1033.55)" stroke="#C7C7C8" stroke-width="1.26811"/>
<line y1="-0.634055" x2="1471.01" y2="-0.634055" transform="matrix(-4.37114e-08 -1 -1 4.37114e-08 531.867 1033.55)" stroke="#C7C7C8" stroke-width="1.26811"/>
<line y1="-0.634055" x2="1471.01" y2="-0.634055" transform="matrix(-4.37114e-08 -1 -1 4.37114e-08 684.039 1033.55)" stroke="#C7C7C8" stroke-width="1.26811"/>
<line y1="-0.634055" x2="1471.01" y2="-0.634055" transform="matrix(-4.37114e-08 -1 -1 4.37114e-08 836.211 1033.55)" stroke="#C7C7C8" stroke-width="1.26811"/>
<line y1="-0.634055" x2="1471.01" y2="-0.634055" transform="matrix(-4.37114e-08 -1 -1 4.37114e-08 988.387 1033.55)" stroke="url(#paint2_linear_2209_34817)" stroke-width="1.26811"/>
<line y1="-0.634055" x2="1471.01" y2="-0.634055" transform="matrix(-4.37114e-08 -1 -1 4.37114e-08 1140.56 1033.55)" stroke="#5A5A5A" stroke-width="1.26811"/>
</g>
<g filter="url(#filter1_f_2209_34817)">
<path d="M368.579 -96.3439C242.816 19.9464 98.3358 67.51 258.364 240.573C418.392 413.635 650.071 459.658 775.833 343.368C901.595 227.077 1107.84 69.6083 947.813 -103.454C787.785 -276.517 494.341 -212.634 368.579 -96.3439Z" fill="url(#paint3_linear_2209_34817)"/>
</g>
<g filter="url(#filter2_f_2209_34817)">
<path d="M-50.7509 219.347C-207.163 363.979 -403.18 405.48 -143.236 686.596C116.707 967.712 454.23 1078.35 610.641 933.723C767.053 789.092 1029.87 600.067 769.927 318.951C509.984 37.8353 105.661 74.716 -50.7509 219.347Z" fill="url(#paint4_linear_2209_34817)"/>
</g>
<g filter="url(#filter3_f_2209_34817)">
<path d="M355.249 567.347C198.837 711.979 2.82037 753.48 262.764 1034.6C522.707 1315.71 860.23 1426.35 1016.64 1281.72C1173.05 1137.09 1435.87 948.067 1175.93 666.951C915.984 385.835 511.661 422.716 355.249 567.347Z" fill="url(#paint5_linear_2209_34817)"/>
</g>
<line x1="0.5" y1="-0.5" x2="188.5" y2="-0.5" transform="matrix(1 -8.74228e-08 -8.74228e-08 -1 89 85.6553)" stroke="url(#paint6_linear_2209_34817)" stroke-linecap="round"/>
<path d="M836.711 143.031L836.711 277.065" stroke="url(#paint7_linear_2209_34817)" stroke-linecap="round"/>
<g filter="url(#filter4_f_2209_34817)">
<path d="M1431.54 480.632C1223.43 247.513 821.232 514.192 1156.91 671.955C1156.91 933.323 1280.06 1145.2 1431.97 1145.2C1583.89 1145.2 1813 1172.27 1813 910.9C1813 649.532 1729.84 696.597 1431.54 480.632Z" fill="url(#paint8_linear_2209_34817)"/>
</g>
<g filter="url(#filter5_f_2209_34817)">
<path d="M-218.457 -29.3683C-426.566 -262.487 -828.768 4.19169 -493.089 161.955C-493.089 423.323 -369.94 635.203 -218.027 635.203C-66.1147 635.203 163 662.267 163 400.9C163 139.532 79.8443 186.597 -218.457 -29.3683Z" fill="url(#paint9_linear_2209_34817)"/>
</g>
<path d="M123.902 60.7965C124.262 60.8905 124.611 60.974 124.942 61.0479C124.611 61.1217 124.262 61.2052 123.902 61.2992C121.791 61.8506 119.212 62.7882 117.66 64.3405C116.108 65.8928 115.17 68.4721 114.619 70.5826C114.525 70.9422 114.441 71.2913 114.367 71.6232C114.293 71.2913 114.21 70.9422 114.116 70.5826C113.564 68.4721 112.627 65.8928 111.075 64.3405C109.522 62.7882 106.943 61.8506 104.832 61.2992C104.473 61.2052 104.124 61.1217 103.792 61.0479C104.124 60.974 104.473 60.8905 104.832 60.7965C106.943 60.2451 109.522 59.3075 111.075 57.7552C112.627 56.2029 113.564 53.6236 114.116 51.5131C114.21 51.1535 114.293 50.8044 114.367 50.4725C114.441 50.8044 114.525 51.1535 114.619 51.5131C115.17 53.6236 116.108 56.2029 117.66 57.7552C119.212 59.3075 121.791 60.2451 123.902 60.7965Z" stroke="white"/>
<path d="M262.808 120.825C263.126 120.909 263.435 120.982 263.729 121.048C263.435 121.113 263.126 121.187 262.808 121.27C260.939 121.759 258.656 122.589 257.281 123.963C255.907 125.337 255.077 127.621 254.589 129.489C254.506 129.808 254.432 130.117 254.366 130.411C254.301 130.117 254.227 129.808 254.144 129.489C253.655 127.621 252.825 125.337 251.451 123.963C250.077 122.589 247.793 121.759 245.925 121.27C245.606 121.187 245.297 121.113 245.003 121.048C245.297 120.982 245.606 120.909 245.925 120.825C247.793 120.337 250.077 119.507 251.451 118.133C252.825 116.758 253.655 114.475 254.144 112.606C254.227 112.288 254.301 111.979 254.366 111.685C254.432 111.979 254.506 112.288 254.589 112.606C255.077 114.475 255.907 116.758 257.281 118.133C258.656 119.507 260.939 120.337 262.808 120.825Z" stroke="white" stroke-width="0.885344"/>
<path d="M1043.54 147.548C1043.54 147.548 1044.28 154.5 1047.19 157.402C1050.09 160.303 1057.04 161.048 1057.04 161.048C1057.04 161.048 1050.09 161.793 1047.19 164.694C1044.28 167.595 1043.54 174.548 1043.54 174.548C1043.54 174.548 1042.79 167.595 1039.89 164.694C1036.99 161.793 1030.04 161.048 1030.04 161.048C1030.04 161.048 1036.99 160.303 1039.89 157.402C1042.79 154.5 1043.54 147.548 1043.54 147.548Z" fill="white"/>
<g filter="url(#filter6_f_2209_34817)">
<path d="M869.969 65.1069L872.001 87.5L888.758 74.1553L873.501 90L893.398 94.4868L873.001 91.5L880.396 110.791L870.501 93L859.542 110.791L868.001 91.5L846.539 94.4868L867.501 89.5L851.18 74.1553L869.001 87.5L869.969 65.1069Z" fill="#D9D9D9"/>
</g>
<path d="M869.969 65.1069L872.001 87.5L888.758 74.1553L873.501 90L893.398 94.4868L873.001 91.5L880.396 110.791L870.501 93L859.542 110.791L868.001 91.5L846.539 94.4868L867.501 89.5L851.18 74.1553L869.001 87.5L869.969 65.1069Z" fill="#D9D9D9"/>
</g>
<defs>
<filter id="filter0_f_2209_34817" x="-148.91" y="-522.391" width="1347.71" height="1146.76" filterUnits="userSpaceOnUse" color-interpolation-filters="sRGB">
<feFlood flood-opacity="0" result="BackgroundImageFix"/>
<feBlend mode="normal" in="SourceGraphic" in2="BackgroundImageFix" result="shape"/>
<feGaussianBlur stdDeviation="132.295" result="effect1_foregroundBlur_2209_34817"/>
</filter>
<filter id="filter1_f_2209_34817" x="-76.9103" y="-474.589" width="1347.71" height="1146.76" filterUnits="userSpaceOnUse" color-interpolation-filters="sRGB">
<feFlood flood-opacity="0" result="BackgroundImageFix"/>
<feBlend mode="normal" in="SourceGraphic" in2="BackgroundImageFix" result="shape"/>
<feGaussianBlur stdDeviation="132.295" result="effect1_foregroundBlur_2209_34817"/>
</filter>
<filter id="filter2_f_2209_34817" x="-534.453" y="-155.973" width="1678.78" height="1417.82" filterUnits="userSpaceOnUse" color-interpolation-filters="sRGB">
<feFlood flood-opacity="0" result="BackgroundImageFix"/>
<feBlend mode="normal" in="SourceGraphic" in2="BackgroundImageFix" result="shape"/>
<feGaussianBlur stdDeviation="132.295" result="effect1_foregroundBlur_2209_34817"/>
</filter>
<filter id="filter3_f_2209_34817" x="-128.453" y="192.027" width="1678.78" height="1417.82" filterUnits="userSpaceOnUse" color-interpolation-filters="sRGB">
<feFlood flood-opacity="0" result="BackgroundImageFix"/>
<feBlend mode="normal" in="SourceGraphic" in2="BackgroundImageFix" result="shape"/>
<feGaussianBlur stdDeviation="132.295" result="effect1_foregroundBlur_2209_34817"/>
</filter>
<filter id="filter4_f_2209_34817" x="763.41" y="124.41" width="1314.18" height="1286.18" filterUnits="userSpaceOnUse" color-interpolation-filters="sRGB">
<feFlood flood-opacity="0" result="BackgroundImageFix"/>
<feBlend mode="normal" in="SourceGraphic" in2="BackgroundImageFix" result="shape"/>
<feGaussianBlur stdDeviation="132.295" result="effect1_foregroundBlur_2209_34817"/>
</filter>
<filter id="filter5_f_2209_34817" x="-886.59" y="-385.59" width="1314.18" height="1286.18" filterUnits="userSpaceOnUse" color-interpolation-filters="sRGB">
<feFlood flood-opacity="0" result="BackgroundImageFix"/>
<feBlend mode="normal" in="SourceGraphic" in2="BackgroundImageFix" result="shape"/>
<feGaussianBlur stdDeviation="132.295" result="effect1_foregroundBlur_2209_34817"/>
</filter>
<filter id="filter6_f_2209_34817" x="837.539" y="56.1069" width="64.8594" height="63.6846" filterUnits="userSpaceOnUse" color-interpolation-filters="sRGB">
<feFlood flood-opacity="0" result="BackgroundImageFix"/>
<feBlend mode="normal" in="SourceGraphic" in2="BackgroundImageFix" result="shape"/>
<feGaussianBlur stdDeviation="4.5" result="effect1_foregroundBlur_2209_34817"/>
</filter>
<linearGradient id="paint0_linear_2209_34817" x1="587.5" y1="-122.017" x2="-182.922" y2="645.968" gradientUnits="userSpaceOnUse">
<stop stop-color="white"/>
<stop offset="0.367953" stop-color="white"/>
<stop offset="1" stop-color="#0041AF"/>
</linearGradient>
<linearGradient id="paint1_linear_2209_34817" x1="-92.1209" y1="-713.688" x2="545.333" y2="-999.948" gradientUnits="userSpaceOnUse">
<stop stop-color="#004AD9"/>
<stop offset="1" stop-color="#0C64E8"/>
</linearGradient>
<linearGradient id="paint2_linear_2209_34817" x1="849.893" y1="0.389876" x2="1004.39" y2="-36.6108" gradientUnits="userSpaceOnUse">
<stop stop-color="#C7C7C8"/>
<stop offset="1" stop-color="#C7C7C8" stop-opacity="0"/>
</linearGradient>
<linearGradient id="paint3_linear_2209_34817" x1="927" y1="361.957" x2="969.948" y2="250.068" gradientUnits="userSpaceOnUse">
<stop offset="0.780668" stop-color="#0235E9"/>
<stop offset="1" stop-color="#0C64E8"/>
</linearGradient>
<linearGradient id="paint4_linear_2209_34817" x1="-710.446" y1="-679.62" x2="-23.2082" y2="-803.078" gradientUnits="userSpaceOnUse">
<stop stop-color="#F4F5F8"/>
<stop offset="0.841785" stop-color="#C8D8FF"/>
</linearGradient>
<linearGradient id="paint5_linear_2209_34817" x1="-304.446" y1="-331.62" x2="382.792" y2="-455.078" gradientUnits="userSpaceOnUse">
<stop stop-color="#F4F5F8"/>
<stop offset="0.841785" stop-color="#C8D8FF"/>
</linearGradient>
<linearGradient id="paint6_linear_2209_34817" x1="68.8193" y1="48.3926" x2="86.0197" y2="-22.7881" gradientUnits="userSpaceOnUse">
<stop stop-color="white"/>
<stop offset="1" stop-color="white" stop-opacity="0"/>
</linearGradient>
<linearGradient id="paint7_linear_2209_34817" x1="884" y1="138.155" x2="821.5" y2="178.655" gradientUnits="userSpaceOnUse">
<stop stop-color="white"/>
<stop offset="1" stop-color="white" stop-opacity="0"/>
</linearGradient>
<linearGradient id="paint8_linear_2209_34817" x1="1519.21" y1="1274.14" x2="1621.78" y2="1233.7" gradientUnits="userSpaceOnUse">
<stop offset="0.780668" stop-color="#0235E9"/>
<stop offset="1" stop-color="#0C64E8"/>
</linearGradient>
<linearGradient id="paint9_linear_2209_34817" x1="-130.786" y1="764.139" x2="-28.2248" y2="723.7" gradientUnits="userSpaceOnUse">
<stop offset="0.780668" stop-color="#0235E9"/>
<stop offset="1" stop-color="#0C64E8"/>
</linearGradient>
<clipPath id="clip0_2209_34817">
<rect width="1175" height="797" fill="white" transform="matrix(1 0 0 -1 0 797)"/>
</clipPath>
</defs>
</svg>
