<svg width="24" height="24" viewBox="0 0 24 24" fill="none" xmlns="http://www.w3.org/2000/svg">
<path d="M24 4.11262C23.0972 4.51647 22.1424 4.78487 21.165 4.90955C22.195 4.28282 22.9651 3.29041 23.3295 2.1203C22.365 2.70698 21.3098 3.12012 20.2095 3.34185C19.5349 2.60304 18.6592 2.08941 17.6962 1.86767C16.7333 1.64594 15.7276 1.72636 14.8098 2.09849C13.892 2.47062 13.1045 3.11725 12.5496 3.95437C11.9948 4.79149 11.6982 5.78041 11.6985 6.79264C11.6985 7.19264 11.7315 7.57726 11.8125 7.94341C9.85512 7.84499 7.94004 7.32395 6.19245 6.41435C4.44487 5.50476 2.90414 4.22711 1.671 2.66492C1.03923 3.77548 0.843913 5.09126 1.12482 6.34433C1.40574 7.59741 2.14175 8.69356 3.183 9.40958C2.40414 9.38816 1.64171 9.17498 0.96 8.78804V8.84342C0.961305 10.0087 1.354 11.138 2.07198 12.0411C2.78995 12.9442 3.78937 13.566 4.902 13.8019C4.48108 13.9157 4.04728 13.9716 3.612 13.9681C3.29938 13.9738 2.98708 13.9449 2.6805 13.8819C2.99841 14.8835 3.61124 15.7594 4.43459 16.3889C5.25795 17.0185 6.25134 17.3708 7.278 17.3973C5.53641 18.7943 3.38846 19.5521 1.1775 19.5496C0.774 19.5496 0.387 19.5312 0 19.4804C2.24982 20.9674 4.87151 21.754 7.548 21.745C16.602 21.745 21.552 14.0527 21.552 7.38495C21.552 7.16187 21.5445 6.94649 21.534 6.73264C22.5044 6.0203 23.3401 5.13244 24 4.11262Z" fill="url(#paint0_linear_309_8190)"/>
<defs>
<linearGradient id="paint0_linear_309_8190" x1="1.57563e-07" y1="3.18302" x2="26.3569" y2="10.1752" gradientUnits="userSpaceOnUse">
<stop stop-color="#197CEC"/>
<stop offset="0.608737" stop-color="#004AD9"/>
</linearGradient>
</defs>
</svg>
