<svg width="24" height="24" viewBox="0 0 24 24" fill="none" xmlns="http://www.w3.org/2000/svg">
<path d="M6.7072 5.29289C6.31668 4.90237 5.68351 4.90237 5.29299 5.29289C4.90246 5.68342 4.90246 6.31658 5.29299 6.70711L10.5858 12L5.29289 17.2929C4.90237 17.6834 4.90237 18.3166 5.29289 18.7071C5.68342 19.0976 6.31658 19.0976 6.70711 18.7071L12 13.4142L17.293 18.7071C17.6835 19.0976 18.3167 19.0976 18.7072 18.7071C19.0977 18.3166 19.0977 17.6834 18.7072 17.2929L13.4143 12L18.7071 6.70711C19.0976 6.31658 19.0976 5.68342 18.7071 5.29289C18.3166 4.90237 17.6834 4.90237 17.2929 5.29289L12 10.5857L6.7072 5.29289Z" fill="url(#paint0_linear_2766_45058)"/>
<defs>
<linearGradient id="paint0_linear_2766_45058" x1="5" y1="6.00654" x2="20.6902" y2="9.47524" gradientUnits="userSpaceOnUse">
<stop stop-color="#197CEC"/>
<stop offset="0.608737" stop-color="#004AD9"/>
</linearGradient>
</defs>
</svg>
