<svg width="24" height="24" viewBox="0 0 24 24" fill="none" xmlns="http://www.w3.org/2000/svg">
<g clip-path="url(#clip0_1981_62792)">
<path d="M10.5209 22C10.132 22 9.83194 21.6556 9.8875 21.2667L10.8876 14.2218H6.99845C6.02062 14.2218 6.63177 13.3885 6.65399 13.3551C8.05406 10.8772 10.1542 7.21035 12.9321 2.3212C13.0069 2.1929 13.1239 2.09455 13.2631 2.04292C13.4024 1.9913 13.5552 1.9896 13.6956 2.03813C13.8359 2.08667 13.955 2.18241 14.0326 2.30902C14.1103 2.43562 14.1415 2.58524 14.1211 2.73233L13.121 9.77716H17.0212C17.4657 9.77716 17.7101 9.98828 17.4657 10.5105C13.8099 16.8887 11.6876 20.6111 11.0765 21.6778C10.9653 21.8778 10.7542 22 10.5209 22Z" fill="url(#paint0_linear_1981_62792)"/>
</g>
<defs>
<linearGradient id="paint0_linear_1981_62792" x1="6.44507" y1="13.8966" x2="17.5625" y2="13.909" gradientUnits="userSpaceOnUse">
<stop stop-color="#197CEC"/>
<stop offset="0.787639" stop-color="#004AD9"/>
</linearGradient>
<clipPath id="clip0_1981_62792">
<rect width="20" height="20" fill="white" transform="translate(2 2)"/>
</clipPath>
</defs>
</svg>
