<svg width="22" height="22" viewBox="0 0 22 22" fill="none" xmlns="http://www.w3.org/2000/svg">
<path d="M11 2.0625C9.23233 2.0625 7.50436 2.58668 6.03459 3.56874C4.56483 4.55081 3.41929 5.94665 2.74283 7.57977C2.06637 9.21288 1.88938 11.0099 2.23424 12.7436C2.57909 14.4773 3.43031 16.0698 4.68024 17.3198C5.93017 18.5697 7.52268 19.4209 9.25638 19.7658C10.9901 20.1106 12.7871 19.9336 14.4202 19.2572C16.0534 18.5807 17.4492 17.4352 18.4313 15.9654C19.4133 14.4956 19.9375 12.7677 19.9375 11C19.935 8.6304 18.9926 6.35856 17.317 4.683C15.6414 3.00743 13.3696 2.065 11 2.0625ZM11 18.5625C9.50428 18.5625 8.04215 18.119 6.7985 17.288C5.55486 16.457 4.58555 15.2759 4.01316 13.894C3.44078 12.5122 3.29101 10.9916 3.58282 9.52463C3.87462 8.05765 4.59487 6.71014 5.65251 5.65251C6.71014 4.59487 8.05765 3.87461 9.52463 3.58281C10.9916 3.29101 12.5122 3.44077 13.894 4.01316C15.2759 4.58555 16.457 5.55485 17.288 6.7985C18.119 8.04215 18.5625 9.50428 18.5625 11C18.5602 13.005 17.7627 14.9272 16.345 16.345C14.9272 17.7627 13.005 18.5602 11 18.5625ZM14.8173 6.25969L9.31735 9.00969C9.18438 9.07648 9.07649 9.18437 9.00969 9.31734L6.25969 14.8173C6.20722 14.9222 6.18244 15.0387 6.1877 15.1559C6.19297 15.273 6.2281 15.3868 6.28976 15.4866C6.35142 15.5863 6.43756 15.6686 6.54 15.7256C6.64243 15.7827 6.75775 15.8126 6.875 15.8125C6.98173 15.8123 7.087 15.7876 7.18266 15.7403L12.6827 12.9903C12.8156 12.9235 12.9235 12.8156 12.9903 12.6827L15.7403 7.18266C15.8052 7.05352 15.8277 6.90722 15.8047 6.76454C15.7817 6.62186 15.7143 6.49007 15.6121 6.38788C15.5099 6.28569 15.3781 6.2183 15.2355 6.19528C15.0928 6.17227 14.9465 6.19481 14.8173 6.25969ZM11.8594 11.8594L8.41243 13.5876L10.1406 10.1406L13.591 8.41586L11.8594 11.8594Z" fill="url(#paint0_linear_1495_24182)"/>
<defs>
<linearGradient id="paint0_linear_1495_24182" x1="2.0625" y1="12.694" x2="19.9374" y2="12.7297" gradientUnits="userSpaceOnUse">
<stop stop-color="#197CEC"/>
<stop offset="0.787639" stop-color="#004AD9"/>
</linearGradient>
</defs>
</svg>
