<svg width="24" height="24" viewBox="0 0 24 24" fill="none" xmlns="http://www.w3.org/2000/svg">
<path d="M16.7 17.3001C16.5167 17.4834 16.2874 17.5751 16.012 17.5751C15.7367 17.5751 15.4994 17.4751 15.3 17.2751C15.1 17.0751 15 16.8377 15 16.5631C15 16.2884 15.1 16.0507 15.3 15.8501L19.175 11.9751L15.275 8.07506C15.0917 7.89173 15.004 7.66273 15.012 7.38806C15.02 7.11339 15.116 6.88406 15.3 6.70006C15.4834 6.51673 15.7167 6.42506 16 6.42506C16.2834 6.42506 16.5167 6.51673 16.7 6.70006L21.3 11.3001C21.5 11.5001 21.6 11.7334 21.6 12.0001C21.6 12.2667 21.5 12.5001 21.3 12.7001L16.7 17.3001ZM7.30002 17.3001L2.70002 12.7001C2.50002 12.5001 2.40002 12.2667 2.40002 12.0001C2.40002 11.7334 2.50002 11.5001 2.70002 11.3001L7.30002 6.70006C7.48336 6.51673 7.71669 6.42106 8.00002 6.41306C8.28336 6.40506 8.52502 6.50073 8.72502 6.70006C8.92502 6.90006 9.02502 7.13773 9.02502 7.41306C9.02502 7.68839 8.92502 7.92573 8.72502 8.12506L4.82502 12.0251L8.72502 15.9251C8.90836 16.1084 8.99602 16.3377 8.98802 16.6131C8.98002 16.8884 8.88402 17.1174 8.70002 17.3001C8.51669 17.4834 8.28336 17.5751 8.00002 17.5751C7.71669 17.5751 7.48336 17.4834 7.30002 17.3001Z" fill="url(#paint0_linear_4930_81053)"/>
<defs>
<linearGradient id="paint0_linear_4930_81053" x1="2.40002" y1="7.21513" x2="22.1183" y2="14.7132" gradientUnits="userSpaceOnUse">
<stop stop-color="#197CEC"/>
<stop offset="0.608737" stop-color="#004AD9"/>
</linearGradient>
</defs>
</svg>
