<svg width="22" height="22" viewBox="0 0 22 22" fill="none" xmlns="http://www.w3.org/2000/svg">
<path d="M20.335 10.8497L12.0334 2.5524L11.477 1.99595C11.3502 1.87 11.1787 1.79932 11 1.79932C10.8213 1.79932 10.6498 1.87 10.5231 1.99595L1.66504 10.8497C1.53513 10.9791 1.43246 11.1332 1.36308 11.3029C1.29371 11.4727 1.25905 11.6546 1.26114 11.8379C1.26973 12.5942 1.89922 13.1979 2.65547 13.1979H3.56856V20.1954H18.4314V13.1979H19.3639C19.7313 13.1979 20.0772 13.054 20.3371 12.794C20.4651 12.6664 20.5665 12.5147 20.6355 12.3476C20.7045 12.1806 20.7396 12.0015 20.7389 11.8208C20.7389 11.4555 20.5949 11.1096 20.335 10.8497ZM12.2031 18.6485H9.79688V14.2657H12.2031V18.6485ZM16.8846 11.651V18.6485H13.5781V13.7501C13.5781 13.2752 13.1936 12.8907 12.7188 12.8907H9.28125C8.80645 12.8907 8.42188 13.2752 8.42188 13.7501V18.6485H5.11543V11.651H3.05293L11.0022 3.70826L11.4984 4.20455L18.9492 11.651H16.8846Z" fill="url(#paint0_linear_1495_24174)"/>
<defs>
<linearGradient id="paint0_linear_1495_24174" x1="1.26105" y1="12.7408" x2="20.7388" y2="12.7819" gradientUnits="userSpaceOnUse">
<stop stop-color="#197CEC"/>
<stop offset="0.787639" stop-color="#004AD9"/>
</linearGradient>
</defs>
</svg>
