<svg width="24" height="25" viewBox="0 0 24 25" fill="none" xmlns="http://www.w3.org/2000/svg">
<path d="M12 16.9427C11.7167 16.9427 11.479 16.8467 11.287 16.6547C11.095 16.4627 10.9993 16.2253 11 15.9427V8.79268L9.125 10.6677C8.925 10.8677 8.69167 10.9677 8.425 10.9677C8.15834 10.9677 7.91667 10.8593 7.7 10.6427C7.5 10.4427 7.40434 10.2053 7.413 9.93068C7.42167 9.65601 7.51733 9.42668 7.7 9.24268L11.3 5.64268C11.4 5.54268 11.5083 5.47201 11.625 5.43068C11.7417 5.38934 11.8667 5.36834 12 5.36768C12.1333 5.36768 12.2583 5.38868 12.375 5.43068C12.4917 5.47268 12.6 5.54334 12.7 5.64268L16.3 9.24268C16.5 9.44268 16.596 9.68034 16.588 9.95568C16.58 10.231 16.484 10.46 16.3 10.6427C16.1 10.8427 15.8623 10.947 15.587 10.9557C15.3117 10.9643 15.0743 10.8683 14.875 10.6677L13 8.79268V15.9427C13 16.226 12.904 16.4637 12.712 16.6557C12.52 16.8477 12.2827 16.9433 12 16.9427ZM6 20.9427C5.45 20.9427 4.979 20.7467 4.587 20.3547C4.195 19.9627 3.99934 19.492 4 18.9427V16.9427C4 16.6593 4.096 16.4217 4.288 16.2297C4.48 16.0377 4.71733 15.942 5 15.9427C5.28333 15.9427 5.521 16.0387 5.713 16.2307C5.905 16.4227 6.00067 16.66 6 16.9427V18.9427H18V16.9427C18 16.6593 18.096 16.4217 18.288 16.2297C18.48 16.0377 18.7173 15.942 19 15.9427C19.2833 15.9427 19.521 16.0387 19.713 16.2307C19.905 16.4227 20.0007 16.66 20 16.9427V18.9427C20 19.4927 19.804 19.9637 19.412 20.3557C19.02 20.7477 18.5493 20.9433 18 20.9427H6Z" fill="url(#paint0_linear_36_3166)"/>
<defs>
<linearGradient id="paint0_linear_36_3166" x1="4" y1="14.6312" x2="19.9999" y2="14.664" gradientUnits="userSpaceOnUse">
<stop stop-color="#197CEC"/>
<stop offset="0.787639" stop-color="#004AD9"/>
</linearGradient>
</defs>
</svg>
