<svg width="24" height="25" viewBox="0 0 24 25" fill="none" xmlns="http://www.w3.org/2000/svg">
<path d="M13.125 17.8179C13.125 18.0404 13.059 18.2579 12.9354 18.4429C12.8118 18.6279 12.6361 18.7721 12.4305 18.8572C12.225 18.9424 11.9988 18.9647 11.7805 18.9213C11.5623 18.8778 11.3618 18.7707 11.2045 18.6134C11.0472 18.456 10.94 18.2556 10.8966 18.0373C10.8532 17.8191 10.8755 17.5929 10.9606 17.3874C11.0458 17.1818 11.19 17.0061 11.375 16.8825C11.56 16.7589 11.7775 16.6929 12 16.6929C12.2984 16.6929 12.5845 16.8114 12.7955 17.0224C13.0065 17.2334 13.125 17.5195 13.125 17.8179ZM12 7.69287C9.93188 7.69287 8.25 9.20693 8.25 11.0679V11.4429C8.25 11.6418 8.32902 11.8325 8.46967 11.9732C8.61033 12.1139 8.80109 12.1929 9 12.1929C9.19892 12.1929 9.38968 12.1139 9.53033 11.9732C9.67099 11.8325 9.75 11.6418 9.75 11.4429V11.0679C9.75 10.0366 10.7597 9.19287 12 9.19287C13.2403 9.19287 14.25 10.0366 14.25 11.0679C14.25 12.0991 13.2403 12.9429 12 12.9429C11.8011 12.9429 11.6103 13.0219 11.4697 13.1625C11.329 13.3032 11.25 13.494 11.25 13.6929V14.4429C11.25 14.6418 11.329 14.8325 11.4697 14.9732C11.6103 15.1139 11.8011 15.1929 12 15.1929C12.1989 15.1929 12.3897 15.1139 12.5303 14.9732C12.671 14.8325 12.75 14.6418 12.75 14.4429V14.3754C14.46 14.0613 15.75 12.6972 15.75 11.0679C15.75 9.20693 14.0681 7.69287 12 7.69287ZM21.75 12.9429C21.75 14.8712 21.1782 16.7563 20.1068 18.3597C19.0355 19.9631 17.5127 21.2127 15.7312 21.9507C13.9496 22.6887 11.9892 22.8817 10.0979 22.5055C8.20656 22.1293 6.46928 21.2007 5.10571 19.8372C3.74215 18.4736 2.81355 16.7363 2.43735 14.845C2.06114 12.9537 2.25422 10.9933 2.99218 9.21171C3.73013 7.43013 4.97982 5.90739 6.58319 4.83604C8.18657 3.7647 10.0716 3.19287 12 3.19287C14.585 3.1956 17.0634 4.22371 18.8913 6.05159C20.7192 7.87948 21.7473 10.3578 21.75 12.9429ZM20.25 12.9429C20.25 11.3112 19.7661 9.71612 18.8596 8.35942C17.9531 7.00271 16.6646 5.94529 15.1571 5.32086C13.6497 4.69644 11.9909 4.53306 10.3905 4.85139C8.79017 5.16972 7.32016 5.95546 6.16637 7.10924C5.01259 8.26302 4.22685 9.73303 3.90853 11.3334C3.5902 12.9337 3.75358 14.5925 4.378 16.1C5.00242 17.6075 6.05984 18.896 7.41655 19.8025C8.77326 20.709 10.3683 21.1929 12 21.1929C14.1873 21.1904 16.2843 20.3204 17.8309 18.7738C19.3775 17.2271 20.2475 15.1301 20.25 12.9429Z" fill="url(#paint0_linear_36_5783)"/>
<defs>
<linearGradient id="paint0_linear_36_5783" x1="2.25" y1="14.7909" x2="21.7499" y2="14.8298" gradientUnits="userSpaceOnUse">
<stop stop-color="#197CEC"/>
<stop offset="0.787639" stop-color="#004AD9"/>
</linearGradient>
</defs>
</svg>
