<svg width="22" height="22" viewBox="0 0 22 22" fill="none" xmlns="http://www.w3.org/2000/svg">
<path d="M6.53125 0C6.80475 0 7.06706 0.108649 7.26045 0.302046C7.45385 0.495443 7.5625 0.757746 7.5625 1.03125V2.75H14.4375V1.03125C14.4375 0.757746 14.5462 0.495443 14.7395 0.302046C14.9329 0.108649 15.1952 0 15.4688 0C15.7423 0 16.0046 0.108649 16.198 0.302046C16.3913 0.495443 16.5 0.757746 16.5 1.03125V2.75H18.2188C19.547 2.75 20.625 3.828 20.625 5.15625V19.5938C20.625 20.2319 20.3715 20.844 19.9202 21.2952C19.469 21.7465 18.8569 22 18.2188 22H3.78125C3.14307 22 2.53103 21.7465 2.07977 21.2952C1.62851 20.844 1.375 20.2319 1.375 19.5938V5.15625C1.375 3.828 2.453 2.75 3.78125 2.75H5.5V1.03125C5.5 0.757746 5.60865 0.495443 5.80205 0.302046C5.99544 0.108649 6.25775 0 6.53125 0ZM3.4375 10.3125V19.5938C3.4375 19.7835 3.5915 19.9375 3.78125 19.9375H18.2188C18.3099 19.9375 18.3974 19.9013 18.4618 19.8368C18.5263 19.7724 18.5625 19.6849 18.5625 19.5938V10.3125H3.4375ZM18.2188 4.8125H3.78125C3.69008 4.8125 3.60265 4.84872 3.53818 4.91318C3.47372 4.97765 3.4375 5.06508 3.4375 5.15625V8.25H18.5625V5.15625C18.5625 5.06508 18.5263 4.97765 18.4618 4.91318C18.3974 4.84872 18.3099 4.8125 18.2188 4.8125Z" fill="url(#paint0_linear_309_8423)"/>
<defs>
<linearGradient id="paint0_linear_309_8423" x1="1.375" y1="13.085" x2="20.6249" y2="13.1185" gradientUnits="userSpaceOnUse">
<stop stop-color="#197CEC"/>
<stop offset="0.787639" stop-color="#004AD9"/>
</linearGradient>
</defs>
</svg>
