<svg width="22" height="22" viewBox="0 0 22 22" fill="none" xmlns="http://www.w3.org/2000/svg">
<path d="M20.335 10.8495L11.4856 2.00657C11.4219 1.94273 11.3462 1.89208 11.2629 1.85752C11.1795 1.82296 11.0902 1.80518 11 1.80518C10.9098 1.80518 10.8205 1.82296 10.7372 1.85752C10.6539 1.89208 10.5782 1.94273 10.5145 2.00657L1.66508 10.8495C1.40726 11.1074 1.26117 11.4576 1.26117 11.8228C1.26117 12.5812 1.87777 13.1978 2.63617 13.1978H3.56859V19.5077C3.56859 19.888 3.87582 20.1952 4.25609 20.1952H9.62504V15.3827H12.0313V20.1952H17.744C18.1243 20.1952 18.4315 19.888 18.4315 19.5077V13.1978H19.3639C19.7291 13.1978 20.0793 13.0538 20.3371 12.7939C20.8721 12.2568 20.8721 11.3867 20.335 10.8495Z" fill="url(#paint0_linear_1492_24139)"/>
<defs>
<linearGradient id="paint0_linear_1492_24139" x1="1.26117" y1="12.7431" x2="20.738" y2="12.7842" gradientUnits="userSpaceOnUse">
<stop stop-color="#197CEC"/>
<stop offset="0.787639" stop-color="#004AD9"/>
</linearGradient>
</defs>
</svg>
