<svg width="40" height="40" viewBox="0 0 40 40" fill="none" xmlns="http://www.w3.org/2000/svg">
<g opacity="0.8">
<rect width="40" height="40" rx="10" fill="url(#paint0_linear_2489_48697)"/>
<rect x="0.5" y="0.5" width="39" height="39" rx="9.5" stroke="url(#paint1_linear_2489_48697)" stroke-opacity="0.5"/>
</g>
<path d="M32.4999 11.784C31.5595 12.2047 30.5649 12.4843 29.5468 12.6142C30.6197 11.9613 31.4219 10.9275 31.8014 9.70869C30.7968 10.3198 29.6976 10.7502 28.5514 10.9811C27.8487 10.2115 26.9365 9.67651 25.9335 9.44553C24.9304 9.21456 23.8828 9.29834 22.9267 9.68597C21.9707 10.0736 21.1504 10.7472 20.5724 11.6192C19.9945 12.4912 19.6855 13.5213 19.6858 14.5757C19.6858 14.9924 19.7202 15.393 19.8046 15.7744C17.7656 15.6719 15.7707 15.1292 13.9503 14.1817C12.1299 13.2342 10.525 11.9033 9.2405 10.276C8.58241 11.4328 8.37895 12.8034 8.67157 14.1087C8.96419 15.414 9.73087 16.5558 10.8155 17.3017C10.0042 17.2794 9.20999 17.0573 8.49988 16.6542V16.7119C8.50124 17.9258 8.91029 19.1021 9.65819 20.0428C10.4061 20.9836 11.4471 21.6313 12.6061 21.877C12.1677 21.9956 11.7158 22.0538 11.2624 22.0501C10.9367 22.056 10.6114 22.026 10.2921 21.9604C10.6232 23.0037 11.2616 23.9161 12.1192 24.5719C12.9769 25.2276 14.0117 25.5946 15.0811 25.6222C13.267 27.0775 11.0295 27.8668 8.72644 27.8643C8.30613 27.8643 7.903 27.845 7.49988 27.7921C9.84344 29.3411 12.5744 30.1605 15.3624 30.1511C24.7936 30.1511 29.9499 22.1383 29.9499 15.1927C29.9499 14.9603 29.9421 14.736 29.9311 14.5132C30.942 13.7712 31.8125 12.8463 32.4999 11.784V11.784Z" fill="url(#paint2_linear_2489_48697)"/>
<defs>
<linearGradient id="paint0_linear_2489_48697" x1="2.66667" y1="4.87805" x2="39.6137" y2="35.3806" gradientUnits="userSpaceOnUse">
<stop stop-color="#0D2147" stop-opacity="0.66"/>
<stop offset="1" stop-color="#0B2049" stop-opacity="0.15"/>
</linearGradient>
<linearGradient id="paint1_linear_2489_48697" x1="7.65714" y1="1.82857" x2="35.4286" y2="36.2286" gradientUnits="userSpaceOnUse">
<stop stop-color="#353C54"/>
<stop offset="1" stop-color="#071F4E" stop-opacity="0.76"/>
</linearGradient>
<linearGradient id="paint2_linear_2489_48697" x1="7.49988" y1="10.8157" x2="34.9549" y2="18.0992" gradientUnits="userSpaceOnUse">
<stop stop-color="#197CEC"/>
<stop offset="0.608737" stop-color="#004AD9"/>
</linearGradient>
</defs>
</svg>
