<svg width="40" height="40" viewBox="0 0 40 40" fill="none" xmlns="http://www.w3.org/2000/svg">
<g opacity="0.8">
<rect width="40" height="40" rx="10" fill="url(#paint0_linear_2489_48685)"/>
<rect x="0.5" y="0.5" width="39" height="39" rx="9.5" stroke="url(#paint1_linear_2489_48685)" stroke-opacity="0.5"/>
</g>
<path d="M27.5728 13.052C26.1874 12.4061 24.6874 11.9374 23.1249 11.6666C23.1112 11.6661 23.0976 11.6687 23.085 11.6741C23.0724 11.6795 23.0611 11.6876 23.052 11.6978C22.8645 12.0416 22.6458 12.4895 22.4999 12.8332C20.8426 12.5832 19.1572 12.5832 17.4999 12.8332C17.3541 12.4791 17.1353 12.0416 16.9374 11.6978C16.927 11.677 16.8958 11.6666 16.8645 11.6666C15.302 11.9374 13.8124 12.4061 12.4166 13.052C12.4062 13.052 12.3958 13.0624 12.3853 13.0728C9.552 17.3124 8.77075 21.4374 9.15617 25.5207C9.15617 25.5416 9.16659 25.5624 9.18742 25.5728C11.0624 26.9478 12.8645 27.7811 14.6458 28.3332C14.677 28.3436 14.7083 28.3332 14.7187 28.3124C15.1353 27.7395 15.5103 27.1353 15.8333 26.4999C15.8541 26.4582 15.8333 26.4166 15.7916 26.4061C15.1978 26.177 14.6353 25.9061 14.0833 25.5936C14.0416 25.5728 14.0416 25.5103 14.0728 25.4791C14.1874 25.3957 14.302 25.302 14.4166 25.2186C14.4374 25.1978 14.4687 25.1978 14.4895 25.2082C18.0728 26.8436 21.9374 26.8436 25.4791 25.2082C25.4999 25.1978 25.5312 25.1978 25.552 25.2186C25.6666 25.3124 25.7812 25.3957 25.8958 25.4895C25.9374 25.5207 25.9374 25.5832 25.8853 25.6041C25.3437 25.927 24.7708 26.1874 24.177 26.4166C24.1353 26.427 24.1249 26.4791 24.1353 26.5103C24.4687 27.1457 24.8437 27.7499 25.2499 28.3228C25.2812 28.3332 25.3124 28.3436 25.3437 28.3332C27.1353 27.7811 28.9374 26.9478 30.8124 25.5728C30.8332 25.5624 30.8437 25.5416 30.8437 25.5207C31.302 20.802 30.0832 16.7082 27.6145 13.0728C27.6041 13.0624 27.5937 13.052 27.5728 13.052ZM16.3749 23.0311C15.302 23.0311 14.4062 22.0416 14.4062 20.8228C14.4062 19.6041 15.2812 18.6145 16.3749 18.6145C17.4791 18.6145 18.3541 19.6145 18.3437 20.8228C18.3437 22.0416 17.4687 23.0311 16.3749 23.0311ZM23.6353 23.0311C22.5624 23.0311 21.6666 22.0416 21.6666 20.8228C21.6666 19.6041 22.5416 18.6145 23.6353 18.6145C24.7395 18.6145 25.6145 19.6145 25.6041 20.8228C25.6041 22.0416 24.7395 23.0311 23.6353 23.0311Z" fill="url(#paint2_linear_2489_48685)"/>
<defs>
<linearGradient id="paint0_linear_2489_48685" x1="2.66667" y1="4.87805" x2="39.6137" y2="35.3806" gradientUnits="userSpaceOnUse">
<stop stop-color="#0D2147" stop-opacity="0.66"/>
<stop offset="1" stop-color="#0B2049" stop-opacity="0.15"/>
</linearGradient>
<linearGradient id="paint1_linear_2489_48685" x1="7.65714" y1="1.82857" x2="35.4286" y2="36.2286" gradientUnits="userSpaceOnUse">
<stop stop-color="#353C54"/>
<stop offset="1" stop-color="#071F4E" stop-opacity="0.76"/>
</linearGradient>
<linearGradient id="paint2_linear_2489_48685" x1="9.06433" y1="12.8651" x2="32.7818" y2="19.7449" gradientUnits="userSpaceOnUse">
<stop stop-color="#197CEC"/>
<stop offset="0.608737" stop-color="#004AD9"/>
</linearGradient>
</defs>
</svg>
